<svg version="1.1" id="Layer_1" xmlns="http://www.w3.org/2000/svg" xmlns:xlink="http://www.w3.org/1999/xlink" x="0px" y="0px"
	 width="100%" viewBox="0 0 768 432" enable-background="new 0 0 768 432" xml:space="preserve">
<path fill="#FEFEFE" opacity="1.000000" stroke="none" 
	d="
M438.000000,433.000000 
	C292.000000,433.000000 146.500000,433.000000 1.000000,433.000000 
	C1.000000,289.000000 1.000000,145.000000 1.000000,1.000000 
	C257.000000,1.000000 513.000000,1.000000 769.000000,1.000000 
	C769.000000,145.000000 769.000000,289.000000 769.000000,433.000000 
	C658.833313,433.000000 548.666687,433.000000 438.000000,433.000000 
M317.301605,172.189972 
	C316.947144,171.695847 316.592712,171.201721 316.238190,170.834671 
	C316.238190,170.834671 316.340729,170.759598 316.296082,169.915604 
	C315.906342,169.173981 315.516602,168.432358 314.992615,167.777618 
	C314.992615,167.777618 315.196167,167.895859 314.579193,167.406036 
	C313.221588,166.644318 311.863983,165.882599 310.513611,164.381317 
	C310.626404,163.902206 310.739227,163.423096 311.519073,162.658920 
	C312.360657,161.490860 313.202240,160.322784 314.003601,159.309967 
	C314.003601,159.309967 314.026855,159.356567 314.536224,158.663055 
	C314.969879,157.609436 315.403534,156.555817 316.249573,155.031601 
	C316.178894,150.997894 316.108215,146.964172 316.124329,142.440109 
	C316.124329,142.440109 315.895996,141.997559 315.942535,141.293945 
	C312.262360,133.426331 305.638428,130.296768 297.406036,130.118927 
	C289.253418,129.942810 281.088959,130.246628 272.939850,130.001678 
	C268.271057,129.861343 267.434021,131.771225 268.955536,136.129410 
	C275.197449,134.962845 274.962708,139.042358 274.936066,143.410843 
	C274.826385,161.387695 274.832764,179.366226 275.006378,197.342102 
	C275.020538,198.810974 276.652740,201.551788 277.473022,201.529099 
	C287.243042,201.258789 297.210449,201.621506 306.707977,199.724731 
	C317.462494,197.576935 322.077911,187.801956 319.268494,176.203384 
	C318.595093,175.038757 317.921692,173.874130 317.202484,172.877243 
	C317.202484,172.877243 317.374390,172.851089 317.301605,172.189972 
M93.461273,319.365479 
	C94.292076,319.170288 95.122871,318.975098 96.613579,318.777496 
	C97.445389,318.492157 98.277206,318.206848 99.171608,318.228119 
	C99.171608,318.228119 99.582802,318.201233 99.582802,318.201233 
	C99.582802,318.201233 99.603729,317.792938 99.759842,317.823578 
	C99.759842,317.823578 99.859886,317.699890 100.569344,317.865509 
	C102.113846,316.958130 103.658340,316.050720 105.821434,315.013214 
	C106.506134,314.541473 107.190842,314.069702 108.488045,313.698761 
	C108.946709,313.108032 109.405380,312.517273 110.388313,311.649719 
	C110.532417,311.514496 110.676521,311.379242 111.443420,311.484924 
	C113.599525,309.308838 115.755630,307.132721 118.377045,304.719238 
	C118.561745,304.430603 118.746437,304.141968 119.612595,303.811554 
	C120.731819,302.201141 121.851044,300.590698 123.001816,298.998291 
	C123.001816,298.998291 122.978035,298.969666 123.631371,298.877045 
	C124.203300,297.851318 124.775230,296.825562 125.723946,295.406830 
	C125.798897,295.241547 125.873848,295.076263 126.598808,294.819427 
	C127.267685,293.507080 127.936562,292.194702 128.877045,290.442505 
	C128.907364,290.272858 128.937698,290.103241 129.614059,289.746368 
	C130.244049,288.798981 131.027161,287.919250 131.480301,286.893707 
	C135.901077,276.888885 138.145248,266.469849 137.813599,255.464996 
	C137.690598,251.383469 138.372635,247.277679 139.499802,243.437271 
	C140.618042,243.384735 141.736267,243.332199 143.633469,243.725296 
	C153.268799,244.055664 162.903381,244.409637 172.539658,244.709778 
	C182.224289,245.011398 190.888336,241.922577 198.480530,236.123199 
	C211.668137,226.049698 215.141632,212.697372 208.577469,197.732620 
	C204.526840,188.498123 197.081329,182.428558 188.875870,177.276489 
	C185.171722,174.950714 181.469070,171.849594 175.702988,172.396500 
	C177.576889,176.343002 179.111450,179.607162 180.673141,182.858276 
	C187.522873,197.118011 182.260239,210.652618 168.840225,218.969467 
	C160.085648,224.394989 151.032928,224.532684 141.714081,225.059433 
	C132.919403,225.556534 132.801193,225.354538 130.650238,216.844849 
	C125.418983,196.148727 126.958710,175.675812 132.938431,155.382156 
	C134.273544,150.851135 135.607040,146.319656 136.941269,141.788391 
	C136.482132,141.393570 136.022980,140.998734 135.563828,140.603897 
	C133.651062,142.028549 131.738297,143.453201 129.426941,144.990295 
	C129.426941,144.990295 129.085632,145.224945 128.385696,145.179062 
	C126.735413,146.274002 124.962982,147.222992 123.453583,148.486298 
	C106.896851,162.343552 105.072220,180.735077 108.103630,200.294266 
	C109.331085,208.213943 111.854858,215.932709 114.073692,224.893707 
	C107.923920,224.893707 102.173309,224.893707 96.422699,224.893707 
	C96.295456,225.405731 96.168205,225.917770 96.040962,226.429794 
	C96.998520,227.454132 97.887581,228.554474 98.925507,229.489609 
	C103.357941,233.483109 107.676147,237.630371 112.368996,241.295151 
	C114.374275,242.861130 117.280434,244.360687 119.623970,244.153870 
	C123.220009,243.836487 124.384933,245.192047 125.169670,248.167542 
	C127.851707,258.337006 128.201736,268.456604 125.375885,278.692932 
	C122.508553,289.079529 116.454781,294.250275 105.658020,294.157776 
	C86.083542,293.990143 70.909615,284.286469 59.031269,269.892883 
	C54.076004,263.888306 52.132137,255.398605 48.862164,247.386276 
	C48.786465,246.958389 48.710762,246.530487 48.876106,245.189285 
	C48.298294,232.758041 51.378956,221.652695 60.166412,212.371735 
	C62.750423,209.642609 64.737007,206.307037 66.728348,203.083221 
	C67.300682,202.156647 66.932869,200.649338 67.072990,197.899643 
	C64.613167,199.977890 63.281048,200.893875 62.205364,202.048737 
	C57.698452,206.887268 53.180931,211.721390 48.845497,216.711960 
	C46.528976,219.378525 44.575111,222.360153 41.917938,225.469910 
	C41.637012,225.988098 41.356083,226.506271 40.393726,227.124344 
	C39.361736,228.780823 38.329746,230.437302 36.868595,232.586914 
	C36.248631,233.728790 35.628666,234.870667 34.345840,236.163864 
	C30.923969,242.360916 26.963806,248.387589 27.875189,256.664276 
	C27.828342,257.334747 27.781496,258.005249 27.131817,259.136780 
	C27.423393,264.977814 26.773626,271.076721 28.282192,276.584412 
	C29.676111,281.673553 33.383202,286.129089 36.223530,291.343811 
	C36.459473,291.576294 36.695415,291.808777 36.943321,292.713135 
	C37.644737,293.445770 38.346157,294.178406 39.323170,295.406921 
	C39.462883,295.534393 39.602592,295.661835 39.521664,296.409241 
	C40.980400,297.658356 42.439137,298.907471 44.114552,300.562134 
	C44.304874,300.815308 44.549553,300.994141 44.965614,301.752502 
	C45.970665,302.508118 46.975712,303.263733 48.263344,304.536011 
	C48.874859,305.008301 49.486370,305.480621 50.167767,306.620667 
	C53.783161,308.740295 57.398552,310.859924 61.001072,313.001221 
	C61.001072,313.001221 61.021088,312.983643 61.144115,313.587860 
	C61.820381,313.764771 62.496643,313.941650 63.730942,314.548401 
	C64.396011,314.771484 65.061073,314.994598 66.064064,315.825623 
	C69.113472,316.578644 72.162880,317.331635 75.857246,318.454224 
	C76.586296,318.556946 77.315353,318.659668 78.622673,319.226837 
	C81.118401,319.246643 83.614120,319.266479 86.963120,319.364227 
	C88.964928,319.283905 90.966743,319.203552 93.461273,319.365479 
M721.602234,259.578247 
	C722.754822,259.450317 723.907410,259.322357 725.811951,259.431091 
	C726.851868,259.366028 727.891846,259.300964 729.557800,259.509583 
	C731.255798,259.254425 734.195496,260.952728 733.743469,256.339539 
	C733.676758,255.898285 733.610046,255.457031 733.789368,254.252914 
	C732.761292,253.594620 731.779419,252.473358 730.696411,252.365204 
	C727.500122,252.046051 724.263733,252.127808 721.031433,251.110199 
	C721.031433,245.854309 721.031433,240.598419 721.031433,235.249985 
	C712.027832,237.390945 710.867371,238.891449 710.547302,247.337418 
	C710.478333,249.158432 709.515869,250.945587 708.180969,252.443466 
	C706.092590,252.443466 704.004211,252.443466 701.913757,252.443466 
	C701.913757,255.166107 701.913757,257.069489 701.913757,259.195831 
	C704.872009,259.195831 707.494507,259.195831 710.375366,259.763977 
	C710.533386,259.899323 710.691345,260.034698 710.639099,261.056030 
	C710.580811,271.788544 710.368652,282.523193 710.517883,293.252838 
	C710.618835,300.511902 714.400696,304.032990 722.667664,304.898865 
	C723.126465,304.852509 723.585205,304.806152 724.753723,304.979065 
	C725.484192,304.903107 726.214722,304.827148 727.783142,304.905304 
	C728.849243,304.622192 729.915405,304.339050 731.663635,304.139252 
	C735.316833,303.103485 733.692688,300.200073 733.638123,297.974426 
	C733.633301,297.781952 731.268188,297.647339 729.146301,297.327454 
	C727.410278,297.261566 725.674255,297.195679 723.442932,296.576324 
	C722.630615,294.341553 721.179993,292.124847 721.116028,289.868835 
	C720.833862,279.915436 720.951111,269.950775 720.997925,259.955475 
	C720.997925,259.955475 720.958801,259.883423 721.602234,259.578247 
M395.174500,179.214493 
	C395.107666,177.804688 395.040833,176.394882 395.276764,174.241440 
	C395.300903,171.077454 395.216339,167.907486 395.389526,164.751678 
	C395.495544,162.820419 395.326294,160.266098 396.440704,159.106186 
	C400.666931,154.707657 406.063080,152.657028 412.263947,153.270737 
	C417.905670,153.829086 421.316467,156.987717 422.458801,163.307037 
	C422.456665,174.527893 422.411987,185.749084 422.498932,196.969238 
	C422.511780,198.625595 421.401733,201.383179 425.464844,201.200378 
	C426.308014,201.126022 427.151184,201.051666 428.508728,201.124466 
	C428.675385,201.061005 428.842072,200.997528 429.686188,200.945770 
	C429.552917,188.425430 429.355286,175.905334 429.304169,163.384659 
	C429.251617,150.512054 421.545898,144.241882 408.860779,147.169189 
	C404.406281,148.197144 400.102081,149.876450 395.666595,151.278137 
	C393.302887,143.318283 387.190582,149.496567 383.330109,147.312943 
	C380.767578,152.941544 384.692841,152.867172 388.130859,153.393524 
	C388.130859,169.311966 388.130859,185.017471 388.130859,201.275604 
	C390.447876,201.275604 392.240784,201.370575 394.019775,201.253723 
	C396.805756,201.070755 396.334717,199.584396 395.343140,197.356934 
	C395.256439,196.982712 395.169739,196.608490 395.302460,195.420349 
	C395.197540,190.294922 395.092651,185.169510 395.174500,179.214493 
M370.967804,194.311905 
	C370.967804,194.311905 370.578308,194.095200 370.612457,193.148682 
	C370.527527,184.748276 370.442627,176.347885 370.629486,167.073807 
	C370.464447,163.756653 370.299438,160.439499 370.341949,156.468643 
	C368.956177,150.826263 365.051575,147.170990 359.655914,146.744263 
	C353.167114,146.231049 346.557465,147.207321 340.002594,147.580841 
	C335.006073,147.865555 335.202911,150.846237 336.364105,154.725128 
	C338.375183,154.260269 340.115875,153.712570 341.898041,153.471436 
	C349.122314,152.493988 356.508820,150.775986 362.584351,157.830978 
	C362.750366,158.280518 362.916382,158.730057 362.892273,159.263092 
	C362.892273,159.263092 362.866119,159.527542 362.866119,159.527542 
	C362.866119,159.527542 363.126526,159.648941 363.006378,160.585144 
	C363.006378,162.335602 363.006378,164.086060 363.006378,165.975113 
	C358.271729,165.975113 354.124054,165.599350 350.070770,166.057755 
	C342.885590,166.870392 336.796326,169.751434 333.117981,177.338470 
	C329.227142,187.820038 333.663055,198.796646 343.059235,200.543518 
	C347.487946,201.366898 352.283905,200.879303 356.814178,200.259781 
	C359.862701,199.842880 362.422119,199.011703 365.694275,200.391006 
	C371.578583,202.871429 375.724243,200.259949 375.688904,194.436996 
	C374.181122,194.528427 372.673370,194.619873 370.967804,194.311905 
M453.683777,129.333420 
	C453.608093,128.904144 453.532440,128.474869 453.641602,127.219383 
	C448.906647,126.627197 444.171661,126.035011 439.629791,125.466980 
	C437.975891,133.124496 444.072052,129.746063 445.962830,132.728546 
	C445.962830,155.555222 445.962830,178.381897 445.962830,201.273193 
	C449.020569,201.273193 451.360474,201.273193 453.576385,201.273193 
	C453.576385,194.529449 453.576385,188.244141 453.757172,181.171387 
	C453.701447,180.100769 453.645721,179.030167 453.774902,177.501495 
	C453.774902,177.501495 453.622772,177.031555 453.990784,176.191086 
	C456.083099,176.575607 458.853973,176.243393 460.149292,177.469742 
	C465.524323,182.558350 470.453857,188.117477 475.558960,193.467316 
	C475.558960,193.467316 475.580383,193.480240 475.665558,193.865112 
	C475.814819,194.106613 476.030060,194.247131 476.575378,194.948425 
	C480.069275,199.520050 483.647308,203.883011 490.940674,200.268951 
	C484.899384,193.669464 479.005432,187.230927 472.878143,180.160812 
	C470.343140,177.168793 467.808105,174.176773 465.174622,171.068512 
	C471.913788,163.316269 478.317261,155.950180 484.802032,148.490585 
	C478.635895,146.272461 477.567963,146.565552 473.843262,150.915222 
	C469.626434,155.839600 465.503143,160.862259 460.997131,165.510605 
	C459.489990,167.065399 456.930664,167.600250 453.493378,169.255844 
	C453.493378,160.200058 453.493378,153.084351 453.705017,145.064468 
	C453.630310,140.388779 453.555634,135.713104 453.673706,130.498611 
	C453.606964,130.319931 453.540253,130.141235 453.683777,129.333420 
M638.675720,303.805969 
	C638.675720,303.805969 638.892517,303.397552 639.558350,303.419739 
	C640.821228,301.891632 642.084045,300.363525 643.811523,298.273254 
	C635.419312,297.045197 635.274292,297.048981 635.086914,289.844421 
	C634.888184,282.205719 634.937317,274.558289 634.996399,266.915619 
	C635.073547,256.940094 635.338562,246.965683 635.367859,236.990326 
	C635.377014,233.862015 635.396729,230.113541 631.169128,229.664230 
	C626.952759,229.216125 622.651611,229.565979 618.198608,229.565979 
	C618.198608,231.978714 618.198608,233.875275 618.198608,235.699646 
	C623.580383,236.894730 623.580383,236.894730 624.706360,244.808929 
	C624.772583,245.866104 624.838806,246.923294 624.665283,248.752014 
	C624.698486,262.863495 624.731689,276.974945 624.547485,291.836578 
	C624.622803,292.865723 624.698059,293.894836 624.513245,295.557404 
	C625.101013,298.540527 623.874084,302.296570 628.518799,304.348633 
	C629.007202,304.459442 629.495605,304.570251 630.818909,304.947021 
	C632.550964,304.829132 634.282959,304.711212 636.865479,304.593170 
	C637.402405,304.410614 637.939392,304.228088 638.412720,304.027985 
	C638.412720,304.027985 638.279541,304.044495 638.675720,303.805969 
M518.663513,263.273376 
	C522.530640,259.271118 527.552368,259.265717 532.334534,260.108917 
	C539.379700,261.351135 542.172302,265.391357 542.234070,272.711273 
	C542.313782,282.147186 542.457703,291.582581 542.358948,301.832031 
	C545.214233,307.057983 549.502319,302.876740 553.216125,304.279297 
	C553.216125,290.872650 553.389954,278.276917 553.058899,265.694458 
	C552.997925,263.378448 550.891174,261.116241 549.465637,258.241028 
	C548.965759,257.853210 548.465881,257.465393 547.707581,256.448425 
	C540.635681,249.250046 524.705750,250.064163 517.010559,255.676102 
	C514.932617,254.792816 512.835938,253.950928 510.780029,253.019028 
	C502.110016,249.089050 493.910431,251.330292 485.736206,255.222015 
	C481.882050,249.313019 476.065521,250.373077 470.788116,251.299103 
	C469.700775,251.489914 469.372345,256.005524 468.548157,259.070557 
	C474.724426,258.812622 475.075714,261.985565 474.961639,266.154358 
	C474.702118,275.642059 474.744812,285.144470 474.922180,294.636047 
	C475.121643,305.309845 472.476654,304.238831 484.782013,304.053131 
	C485.066498,304.048828 485.346680,303.756714 485.840698,303.480347 
	C485.911255,302.806366 486.071686,302.003479 486.067841,301.201416 
	C486.012085,289.543427 485.825531,277.884064 485.981964,266.229248 
	C486.004761,264.528473 487.230133,262.053558 488.619446,261.340546 
	C490.890076,260.175201 493.735046,259.895233 496.369629,259.718994 
	C502.952942,259.278625 507.169464,263.245056 507.217438,269.780640 
	C507.285889,279.108398 507.254974,288.436920 507.258636,297.765137 
	C507.261261,304.463806 511.906952,306.620880 518.798523,302.307648 
	C518.648010,289.558380 518.497559,276.809082 518.663513,263.273376 
M229.128021,209.693420 
	C228.750992,215.498215 228.746826,221.356262 227.927078,227.097839 
	C225.461441,244.367538 218.409454,259.798340 206.682373,272.578979 
	C191.169510,289.485565 171.335358,298.903778 148.559174,300.133026 
	C131.486755,301.054443 124.033974,313.302734 113.636803,324.549622 
	C116.480110,325.078918 118.048866,325.571625 119.635002,325.635895 
	C141.397827,326.517792 162.911194,325.257935 183.700012,317.964264 
	C207.099731,309.754517 225.236481,295.808990 234.247635,271.819000 
	C240.551620,255.036148 241.296341,237.606522 239.525879,220.107269 
	C237.598846,201.060623 232.714127,182.734299 221.919281,166.554718 
	C210.269638,149.093903 194.828003,135.092361 179.424957,121.111946 
	C175.423325,117.479912 170.977249,114.337547 167.189102,111.330482 
	C160.821198,119.687294 154.886169,127.475998 148.835587,135.416367 
	C149.715088,135.707535 150.634079,136.032578 151.565445,136.317078 
	C171.825821,142.506149 190.629791,151.381454 206.482666,165.804443 
	C219.231003,177.402924 228.210388,190.938858 229.128021,209.693420 
M322.447845,259.712189 
	C318.541748,269.154175 314.635651,278.596161 310.287567,289.106567 
	C308.871552,285.869690 307.851349,283.660095 306.929382,281.410248 
	C301.005615,266.955261 295.139984,252.476303 289.175079,238.038345 
	C286.965240,232.689468 282.243683,236.246445 278.748260,235.582565 
	C278.250061,235.487961 276.427734,238.641891 276.411713,240.303818 
	C276.238617,258.283752 276.309967,276.265991 276.302856,294.247589 
	C276.298981,304.084869 276.289215,304.087830 286.278351,303.094543 
	C286.582550,303.064270 286.866119,302.826843 287.772552,302.391388 
	C287.772552,295.909973 287.772552,289.129059 287.772552,282.348145 
	C287.772552,275.423553 287.772552,268.498993 287.772552,261.574402 
	C289.098358,262.510864 289.634277,263.631287 290.104828,264.778503 
	C294.834595,276.309540 299.634888,287.812805 304.219025,299.401581 
	C305.377533,302.330292 306.956177,303.481598 310.153198,303.333313 
	C313.154785,303.194061 315.415985,303.147339 316.689178,299.591949 
	C319.207031,292.560730 322.297852,285.734222 325.167297,278.829529 
	C327.479950,273.264740 329.815460,267.709442 332.140839,262.149933 
	C332.550171,262.245209 332.959473,262.340485 333.368774,262.435760 
	C333.368774,273.011261 333.363556,283.586761 333.370300,294.162262 
	C333.376526,303.959686 333.382690,303.966003 343.265442,303.127106 
	C343.711334,303.089233 344.131500,302.748413 344.488556,302.583374 
	C344.488556,280.254211 344.488556,258.045319 344.488556,235.320877 
	C341.977753,235.320877 339.809387,235.565109 337.717682,235.268509 
	C333.739685,234.704407 331.724670,236.304077 330.389893,240.063156 
	C328.113281,246.474960 325.311310,252.700226 322.447845,259.712189 
M690.915894,261.703278 
	C685.512512,248.745605 672.304810,247.098434 654.225098,253.624084 
	C654.225098,256.566132 654.225098,259.435913 654.225098,261.776367 
	C660.291199,260.563934 666.053955,258.547394 671.842773,258.469666 
	C679.418640,258.367981 683.150635,263.396759 682.114197,269.540802 
	C675.713684,269.899872 669.339722,269.595764 663.240906,270.748016 
	C652.974304,272.687622 648.515564,279.527985 649.601074,289.977081 
	C650.480347,298.440887 657.524292,305.015656 666.801025,304.829865 
	C672.596985,304.713745 678.361755,303.044220 684.753479,301.968628 
	C686.655151,305.506805 690.695251,306.154755 694.765137,304.079193 
	C696.903259,302.988739 698.198730,300.246002 699.874695,298.249420 
	C699.700134,297.730072 699.525513,297.210724 699.350952,296.691406 
	C693.013367,298.961121 692.389221,295.447968 692.415649,291.208679 
	C692.444702,286.547272 692.578796,281.878052 692.367676,277.225861 
	C692.143616,272.291107 691.567688,267.372345 690.915894,261.703278 
M463.164551,297.283295 
	C459.462677,297.788544 459.054962,295.285828 459.035706,292.616150 
	C458.976868,284.464081 459.128662,276.308472 458.947937,268.159851 
	C458.760590,259.713409 452.045685,250.979080 444.107422,250.529343 
	C436.305481,250.087296 428.401703,251.442123 420.593964,252.004745 
	C420.593964,256.387756 420.593964,259.306549 420.593964,262.673859 
	C424.694031,261.241516 428.328217,259.239288 432.128723,258.846375 
	C436.080780,258.437805 440.442261,258.894043 444.169342,260.236450 
	C448.257263,261.708801 449.359772,265.782623 449.251709,270.016174 
	C443.483551,270.295624 438.034943,270.814392 432.591888,270.761902 
	C424.981293,270.688568 418.878143,274.570709 416.617157,281.458466 
	C414.181427,288.878540 416.791992,297.672241 422.903046,301.474670 
	C432.073273,307.180603 441.262207,305.903534 450.496521,300.765289 
	C453.255249,305.782745 457.479279,305.963074 462.036499,304.010498 
	C465.383606,302.576447 466.152771,299.363434 463.164551,297.283295 
M593.566345,250.567276 
	C587.619629,250.827942 581.602905,250.609970 575.743286,251.466431 
	C567.821777,252.624252 567.122131,254.299377 569.448303,262.385773 
	C589.489441,256.042664 599.155457,258.892090 596.889709,269.865845 
	C591.648254,269.865845 586.508728,269.546448 581.422607,269.931793 
	C570.560730,270.754730 564.024414,277.241699 563.982056,286.741577 
	C563.934204,297.455261 570.832336,304.983978 581.620911,304.827637 
	C587.396912,304.743866 593.148987,303.005890 599.404297,301.929718 
	C600.969238,305.510437 604.705383,305.568634 608.667297,304.562927 
	C612.220520,303.660980 613.654053,301.117249 613.559692,297.553253 
	C607.320801,297.119324 607.061035,296.908661 606.987244,290.372772 
	C606.912048,283.712250 606.930603,277.049164 607.021118,270.388733 
	C607.148499,261.013458 602.900696,254.550552 593.566345,250.567276 
M392.391998,251.658722 
	C391.820374,253.260193 390.771057,254.856537 390.753815,256.463928 
	C390.632507,267.786865 390.609436,279.114258 390.820862,290.435242 
	C390.879181,293.558441 389.760101,295.106781 386.853790,295.644043 
	C384.890106,296.007050 382.943726,296.533722 380.964172,296.728333 
	C373.159576,297.495636 368.659882,293.407715 368.644623,285.592896 
	C368.622955,274.467865 368.639099,263.342743 368.639099,251.856232 
	C364.915192,251.856232 361.536499,251.856232 358.006958,251.856232 
	C358.006958,265.270721 357.766541,278.567291 358.104004,291.849213 
	C358.284393,298.949677 364.149017,304.503387 371.652496,304.688232 
	C376.378876,304.804657 381.263092,303.942078 385.844666,302.678314 
	C389.114136,301.776489 391.443970,300.954407 394.890259,303.097015 
	C401.548645,307.236572 409.452850,303.219604 409.129211,296.542450 
	C401.638336,295.690887 401.638489,295.690887 401.641724,287.540894 
	C401.642365,285.875397 401.641510,284.209900 401.641479,282.544403 
	C401.641449,272.447418 401.641479,262.350464 401.641479,251.541641 
	C398.445099,251.541641 395.822388,251.541641 392.391998,251.658722 
M189.249252,258.261780 
	C187.925690,256.364624 186.602112,254.467468 185.456985,252.826080 
	C174.196747,260.579956 173.710571,263.102081 180.686691,271.448090 
	C181.108383,271.952576 181.489395,272.576996 182.036880,272.868622 
	C182.720261,273.232635 183.929077,273.737854 184.268814,273.442780 
	C187.232162,270.868805 190.545303,268.452209 192.635605,265.256836 
	C193.329590,264.195953 190.772079,261.007996 189.249252,258.261780 
M83.232086,184.794540 
	C80.421555,187.651627 77.247704,190.086838 81.543266,194.570053 
	C88.706673,202.046448 86.419518,202.769394 94.217995,194.961075 
	C94.805283,194.373047 95.732559,193.892242 95.930702,193.198486 
	C96.292511,191.931686 96.833344,190.090485 96.232391,189.284149 
	C93.820396,186.047775 90.999413,183.116211 87.821991,179.493118 
	C86.093132,181.526550 84.915268,182.911926 83.232086,184.794540 
M162.717010,258.720093 
	C157.002579,251.777603 155.819199,251.813232 150.355347,259.103973 
	C150.058975,259.499451 149.679718,259.893951 149.557159,260.347778 
	C149.065903,262.166718 147.678482,264.816284 148.401718,265.696167 
	C150.905457,268.742126 154.266373,273.388336 157.090042,273.245758 
	C160.175705,273.089966 163.421188,268.569977 165.733810,265.335083 
	C166.405518,264.395508 164.115494,261.338562 162.717010,258.720093 
z"/>
<path fill="#87C12B" opacity="1.000000" stroke="none" 
	d="
M118.931137,303.853333 
	C118.746437,304.141968 118.561745,304.430603 117.786240,304.830597 
	C115.070503,307.042633 112.945564,309.143311 110.820633,311.243988 
	C110.676521,311.379242 110.532417,311.514496 109.834572,311.803497 
	C108.812401,312.504181 108.343971,313.051056 107.875549,313.597961 
	C107.190842,314.069702 106.506134,314.541473 105.129776,315.014160 
	C102.912048,315.910065 101.385971,316.804962 99.859886,317.699890 
	C99.859886,317.699890 99.759842,317.823578 99.550156,317.807556 
	C99.340469,317.791504 99.109024,317.921539 99.109024,317.921539 
	C98.277206,318.206848 97.445389,318.492157 96.067551,318.544586 
	C94.682205,318.275238 93.842888,318.238831 92.567368,318.160736 
	C90.088493,318.186127 88.045807,318.253235 85.584488,318.252777 
	C82.792030,318.377594 80.418221,318.570007 78.044411,318.762390 
	C77.315353,318.659668 76.586296,318.556946 75.438599,317.957581 
	C71.922005,316.713226 68.824074,315.965454 65.726143,315.217682 
	C65.061073,314.994598 64.396011,314.771484 63.332054,314.101685 
	C62.295811,313.431152 61.658451,313.207397 61.021088,312.983643 
	C61.021088,312.983643 61.001072,313.001221 60.965645,312.640930 
	C57.319439,310.171417 53.708660,308.062164 50.097881,305.952911 
	C49.486370,305.480621 48.874859,305.008301 48.118359,303.926636 
	C46.931782,302.577698 45.890190,301.838135 44.848595,301.098602 
	C44.549553,300.994141 44.304874,300.815308 44.022812,300.010742 
	C42.534817,298.235962 41.138565,297.012604 39.742310,295.789276 
	C39.602592,295.661835 39.462883,295.534393 39.195179,294.807678 
	C38.355247,293.486053 37.643307,292.763641 36.931362,292.041229 
	C36.695415,291.808777 36.459473,291.576294 36.127911,290.745239 
	C31.665895,281.232758 27.073290,272.377411 28.675594,261.699677 
	C28.488840,261.243103 28.288185,261.045502 28.047287,260.522278 
	C27.950346,259.655121 27.842497,259.165405 27.734650,258.675720 
	C27.781496,258.005249 27.828342,257.334747 27.980659,256.354736 
	C28.086132,256.045197 28.116394,256.019623 28.444519,255.959106 
	C29.113255,254.934998 29.453869,253.971390 29.857252,252.613861 
	C30.343130,250.648621 30.704029,249.057312 31.201603,247.509933 
	C32.437408,243.666794 33.735580,239.843689 35.008698,236.012543 
	C35.628666,234.870667 36.248631,233.728790 37.413475,232.291000 
	C39.566254,230.694977 43.210049,230.671463 41.075157,227.024460 
	C41.356083,226.506271 41.637012,225.988098 42.520885,225.303528 
	C46.728695,221.440521 50.333561,217.743881 54.977585,212.981628 
	C54.589931,215.105377 54.669125,215.825241 54.350964,216.241089 
	C49.772121,222.225571 48.158535,229.280365 47.488297,236.506348 
	C47.197392,239.642670 48.212921,242.900146 48.635063,246.102600 
	C48.710762,246.530487 48.786465,246.958389 48.597797,248.000351 
	C49.017296,252.304398 48.932629,256.366699 50.510521,259.623535 
	C60.299229,279.827850 76.762070,291.756073 98.600868,295.704651 
	C108.449280,297.485291 118.582329,296.818756 124.122551,286.185944 
	C131.128677,272.739685 130.105728,258.617218 126.338615,244.582062 
	C125.942123,243.104874 122.489670,242.218643 120.306999,241.522110 
	C118.532288,240.955780 115.948029,241.789047 114.741020,240.781647 
	C109.991936,236.817902 105.645157,232.372131 100.531822,227.519562 
	C105.446297,226.980438 109.472084,226.521835 113.501923,226.102112 
	C116.700378,225.768982 117.087059,224.271606 116.244888,221.290344 
	C113.835236,212.760147 111.102966,204.230560 109.766808,195.506363 
	C106.931595,176.994217 110.563408,160.493347 126.980957,148.852905 
	C128.018417,148.117325 128.399292,146.455734 129.085632,145.224945 
	C129.085632,145.224945 129.426941,144.990295 130.033722,144.996277 
	C134.659470,145.650330 133.004776,148.340759 132.368973,150.336731 
	C127.224281,166.487274 124.647156,183.002106 126.141876,199.915573 
	C126.809212,207.466751 128.554840,214.939926 130.146469,222.376724 
	C130.446060,223.776489 132.343063,225.901764 133.484421,225.890030 
	C145.849396,225.762939 158.162399,228.321518 170.071838,220.758072 
	C185.030640,211.258026 190.280869,196.671738 181.914322,181.332657 
	C181.111511,179.860809 180.700226,178.175415 179.707687,175.520584 
	C182.914673,176.834641 185.163437,177.271027 186.804092,178.511612 
	C194.222397,184.121017 201.958664,189.146286 206.294342,198.233994 
	C208.776382,203.436462 210.537628,208.527618 209.751678,213.827026 
	C207.694626,227.697021 193.025711,241.584579 179.016266,242.830765 
	C171.442612,243.504456 163.737793,242.598419 156.092529,242.612946 
	C151.679459,242.621338 147.267151,243.043655 142.854507,243.279663 
	C141.736267,243.332199 140.618042,243.384735 138.781906,243.183167 
	C137.368011,244.644119 136.263565,246.308807 136.044891,248.082687 
	C134.948502,256.976379 134.373123,265.942627 133.027161,274.794037 
	C132.246536,279.927612 130.357986,284.892700 128.968018,289.933624 
	C128.937698,290.103241 128.907364,290.272858 128.417908,290.726685 
	C127.288788,292.310913 126.618797,293.610962 125.948792,294.911011 
	C125.873848,295.076263 125.798897,295.241547 125.220047,295.647583 
	C124.136772,296.915436 123.557404,297.942566 122.978035,298.969666 
	C122.978035,298.969666 123.001816,298.998291 122.637344,299.016174 
	C121.158966,300.640472 120.045052,302.246918 118.931137,303.853333 
z"/>
<path fill="#8AC231" opacity="1.000000" stroke="none" 
	d="
M229.114990,209.225815 
	C228.210388,190.938858 219.231003,177.402924 206.482666,165.804443 
	C190.629791,151.381454 171.825821,142.506149 151.565445,136.317078 
	C150.634079,136.032578 149.715088,135.707535 148.835587,135.416367 
	C154.886169,127.475998 160.821198,119.687294 167.189102,111.330482 
	C170.977249,114.337547 175.423325,117.479912 179.424957,121.111946 
	C194.828003,135.092361 210.269638,149.093903 221.919281,166.554718 
	C232.714127,182.734299 237.598846,201.060623 239.525879,220.107269 
	C241.296341,237.606522 240.551620,255.036148 234.247635,271.819000 
	C225.236481,295.808990 207.099731,309.754517 183.700012,317.964264 
	C162.911194,325.257935 141.397827,326.517792 119.635002,325.635895 
	C118.048866,325.571625 116.480110,325.078918 113.636803,324.549622 
	C124.033974,313.302734 131.486755,301.054443 148.559174,300.133026 
	C171.335358,298.903778 191.169510,289.485565 206.682373,272.578979 
	C218.409454,259.798340 225.461441,244.367538 227.927078,227.097839 
	C228.746826,221.356262 228.750992,215.498215 229.114990,209.225815 
z"/>
<path fill="#701584" opacity="1.000000" stroke="none" 
	d="
M322.588959,259.358032 
	C325.311310,252.700226 328.113281,246.474960 330.389893,240.063156 
	C331.724670,236.304077 333.739685,234.704407 337.717682,235.268509 
	C339.809387,235.565109 341.977753,235.320877 344.488556,235.320877 
	C344.488556,258.045319 344.488556,280.254211 344.488556,302.583374 
	C344.131500,302.748413 343.711334,303.089233 343.265442,303.127106 
	C333.382690,303.966003 333.376526,303.959686 333.370300,294.162262 
	C333.363556,283.586761 333.368774,273.011261 333.368774,262.435760 
	C332.959473,262.340485 332.550171,262.245209 332.140839,262.149933 
	C329.815460,267.709442 327.479950,273.264740 325.167297,278.829529 
	C322.297852,285.734222 319.207031,292.560730 316.689178,299.591949 
	C315.415985,303.147339 313.154785,303.194061 310.153198,303.333313 
	C306.956177,303.481598 305.377533,302.330292 304.219025,299.401581 
	C299.634888,287.812805 294.834595,276.309540 290.104828,264.778503 
	C289.634277,263.631287 289.098358,262.510864 287.772552,261.574402 
	C287.772552,268.498993 287.772552,275.423553 287.772552,282.348145 
	C287.772552,289.129059 287.772552,295.909973 287.772552,302.391388 
	C286.866119,302.826843 286.582550,303.064270 286.278351,303.094543 
	C276.289215,304.087830 276.298981,304.084869 276.302856,294.247589 
	C276.309967,276.265991 276.238617,258.283752 276.411713,240.303818 
	C276.427734,238.641891 278.250061,235.487961 278.748260,235.582565 
	C282.243683,236.246445 286.965240,232.689468 289.175079,238.038345 
	C295.139984,252.476303 301.005615,266.955261 306.929382,281.410248 
	C307.851349,283.660095 308.871552,285.869690 310.287567,289.106567 
	C314.635651,278.596161 318.541748,269.154175 322.588959,259.358032 
z"/>
<path fill="#6C1280" opacity="1.000000" stroke="none" 
	d="
M691.030640,262.074951 
	C691.567688,267.372345 692.143616,272.291107 692.367676,277.225861 
	C692.578796,281.878052 692.444702,286.547272 692.415649,291.208679 
	C692.389221,295.447968 693.013367,298.961121 699.350952,296.691406 
	C699.525513,297.210724 699.700134,297.730072 699.874695,298.249420 
	C698.198730,300.246002 696.903259,302.988739 694.765137,304.079193 
	C690.695251,306.154755 686.655151,305.506805 684.753479,301.968628 
	C678.361755,303.044220 672.596985,304.713745 666.801025,304.829865 
	C657.524292,305.015656 650.480347,298.440887 649.601074,289.977081 
	C648.515564,279.527985 652.974304,272.687622 663.240906,270.748016 
	C669.339722,269.595764 675.713684,269.899872 682.114197,269.540802 
	C683.150635,263.396759 679.418640,258.367981 671.842773,258.469666 
	C666.053955,258.547394 660.291199,260.563934 654.225098,261.776367 
	C654.225098,259.435913 654.225098,256.566132 654.225098,253.624084 
	C672.304810,247.098434 685.512512,248.745605 691.030640,262.074951 
M679.973450,277.322235 
	C675.257629,277.868256 670.301636,277.689484 665.889465,279.151733 
	C660.862549,280.817688 659.078430,285.849274 660.561584,290.550568 
	C661.902161,294.799805 664.755249,297.234222 669.210083,297.680115 
	C673.689392,298.128479 681.250549,294.868774 681.895203,291.359863 
	C682.734375,286.791840 684.592773,281.799164 679.973450,277.322235 
z"/>
<path fill="#6D146F" opacity="1.000000" stroke="none" 
	d="
M463.573364,297.240967 
	C466.152771,299.363434 465.383606,302.576447 462.036499,304.010498 
	C457.479279,305.963074 453.255249,305.782745 450.496521,300.765289 
	C441.262207,305.903534 432.073273,307.180603 422.903046,301.474670 
	C416.791992,297.672241 414.181427,288.878540 416.617157,281.458466 
	C418.878143,274.570709 424.981293,270.688568 432.591888,270.761902 
	C438.034943,270.814392 443.483551,270.295624 449.251709,270.016174 
	C449.359772,265.782623 448.257263,261.708801 444.169342,260.236450 
	C440.442261,258.894043 436.080780,258.437805 432.128723,258.846375 
	C428.328217,259.239288 424.694031,261.241516 420.593964,262.673859 
	C420.593964,259.306549 420.593964,256.387756 420.593964,252.004745 
	C428.401703,251.442123 436.305481,250.087296 444.107422,250.529343 
	C452.045685,250.979080 458.760590,259.713409 458.947937,268.159851 
	C459.128662,276.308472 458.976868,284.464081 459.035706,292.616150 
	C459.054962,295.285828 459.462677,297.788544 463.573364,297.240967 
M434.190399,297.479645 
	C446.427185,297.682373 451.468292,292.709564 448.474884,277.147552 
	C444.235901,277.351715 439.772461,277.158722 435.464386,277.886108 
	C430.931732,278.651367 427.349670,281.340363 426.798523,286.303223 
	C426.225311,291.464142 428.342102,295.378815 434.190399,297.479645 
z"/>
<path fill="#6D1471" opacity="1.000000" stroke="none" 
	d="
M593.944763,250.719452 
	C602.900696,254.550552 607.148499,261.013458 607.021118,270.388733 
	C606.930603,277.049164 606.912048,283.712250 606.987244,290.372772 
	C607.061035,296.908661 607.320801,297.119324 613.559692,297.553253 
	C613.654053,301.117249 612.220520,303.660980 608.667297,304.562927 
	C604.705383,305.568634 600.969238,305.510437 599.404297,301.929718 
	C593.148987,303.005890 587.396912,304.743866 581.620911,304.827637 
	C570.832336,304.983978 563.934204,297.455261 563.982056,286.741577 
	C564.024414,277.241699 570.560730,270.754730 581.422607,269.931793 
	C586.508728,269.546448 591.648254,269.865845 596.889709,269.865845 
	C599.155457,258.892090 589.489441,256.042664 569.448303,262.385773 
	C567.122131,254.299377 567.821777,252.624252 575.743286,251.466431 
	C581.602905,250.609970 587.619629,250.827942 593.944763,250.719452 
M590.401123,277.028503 
	C586.882568,277.783386 583.118835,277.992432 579.908691,279.434021 
	C576.069946,281.157837 573.845093,284.607269 574.852661,289.146790 
	C575.910828,293.914276 578.542236,297.217499 583.820374,297.694550 
	C591.364868,298.376465 597.318420,293.066833 597.339661,285.579346 
	C597.346558,283.129181 597.340759,280.678925 597.340759,277.901581 
	C595.140930,277.587677 593.203125,277.311157 590.401123,277.028503 
z"/>
<path fill="#6E137B" opacity="1.000000" stroke="none" 
	d="
M392.795837,251.600189 
	C395.822388,251.541641 398.445099,251.541641 401.641479,251.541641 
	C401.641479,262.350464 401.641449,272.447418 401.641479,282.544403 
	C401.641510,284.209900 401.642365,285.875397 401.641724,287.540894 
	C401.638489,295.690887 401.638336,295.690887 409.129211,296.542450 
	C409.452850,303.219604 401.548645,307.236572 394.890259,303.097015 
	C391.443970,300.954407 389.114136,301.776489 385.844666,302.678314 
	C381.263092,303.942078 376.378876,304.804657 371.652496,304.688232 
	C364.149017,304.503387 358.284393,298.949677 358.104004,291.849213 
	C357.766541,278.567291 358.006958,265.270721 358.006958,251.856232 
	C361.536499,251.856232 364.915192,251.856232 368.639099,251.856232 
	C368.639099,263.342743 368.622955,274.467865 368.644623,285.592896 
	C368.659882,293.407715 373.159576,297.495636 380.964172,296.728333 
	C382.943726,296.533722 384.890106,296.007050 386.853790,295.644043 
	C389.760101,295.106781 390.879181,293.558441 390.820862,290.435242 
	C390.609436,279.114258 390.632507,267.786865 390.753815,256.463928 
	C390.771057,254.856537 391.820374,253.260193 392.795837,251.600189 
z"/>
<path fill="#752175" opacity="1.000000" stroke="none" 
	d="
M518.429626,302.944916 
	C511.906952,306.620880 507.261261,304.463806 507.258636,297.765137 
	C507.254974,288.436920 507.285889,279.108398 507.217438,269.780640 
	C507.169464,263.245056 502.952942,259.278625 496.369629,259.718994 
	C493.735046,259.895233 490.890076,260.175201 488.619446,261.340546 
	C487.230133,262.053558 486.004761,264.528473 485.981964,266.229248 
	C485.825531,277.884064 486.012085,289.543427 486.067841,301.201416 
	C486.071686,302.003479 485.911255,302.806366 485.840698,303.480347 
	C485.346680,303.756714 485.066498,304.048828 484.782013,304.053131 
	C472.476654,304.238831 475.121643,305.309845 474.922180,294.636047 
	C474.744812,285.144470 474.702118,275.642059 474.961639,266.154358 
	C475.075714,261.985565 474.724426,258.812622 468.548157,259.070557 
	C469.372345,256.005524 469.700775,251.489914 470.788116,251.299103 
	C476.065521,250.373077 481.882050,249.313019 485.736206,255.222015 
	C493.910431,251.330292 502.110016,249.089050 510.780029,253.019028 
	C512.835938,253.950928 514.932617,254.792816 517.572388,255.845520 
	C518.810791,256.107117 519.601868,256.475403 520.146301,256.249420 
	C526.496155,253.613602 532.900696,251.953339 539.736633,254.387314 
	C542.454468,255.354996 545.221436,256.184937 547.966003,257.077576 
	C548.465881,257.465393 548.965759,257.853210 549.432983,258.784424 
	C552.370239,274.769775 551.858154,299.685425 548.749634,303.480591 
	C546.603516,302.624878 544.588745,301.821533 542.573975,301.018188 
	C542.457703,291.582581 542.313782,282.147186 542.234070,272.711273 
	C542.172302,265.391357 539.379700,261.351135 532.334534,260.108917 
	C527.552368,259.265717 522.530640,259.271118 518.281921,263.670715 
	C517.608948,264.000519 517.313843,263.963226 517.053467,263.597351 
	C517.362549,262.028900 517.633057,260.819214 517.907410,259.592468 
	C515.893921,259.241913 513.710083,259.533905 512.891724,258.612762 
	C506.396637,251.301743 498.749908,254.747955 491.242249,255.762589 
	C488.305145,256.159515 485.203705,255.847977 482.246979,255.398926 
	C480.526978,255.137695 479.004883,253.611633 477.281494,253.321671 
	C476.076813,253.118988 474.682129,254.045532 473.372314,254.467728 
	C473.846893,255.573807 474.012634,257.128937 474.851257,257.705597 
	C477.930145,259.822845 478.176086,262.750671 477.982147,266.025116 
	C477.590515,272.637848 477.168121,279.254120 477.034271,285.874512 
	C476.964691,289.314209 477.351166,292.782898 477.794128,296.204529 
	C478.002350,297.813110 478.830353,299.341492 479.377502,300.906219 
	C480.589417,299.472870 482.520203,298.193848 482.867767,296.574951 
	C483.659515,292.887177 484.040619,289.020355 483.914215,285.248901 
	C483.749969,280.347443 483.235321,275.409515 482.309998,270.595184 
	C481.361938,265.662720 483.795593,259.678253 488.015717,259.019409 
	C492.231934,258.361206 496.562531,257.992889 500.818878,258.150177 
	C505.769104,258.333130 510.988983,264.145599 510.747314,268.275330 
	C510.109528,279.173065 509.576904,290.076935 509.075928,301.364807 
	C512.242859,302.149139 515.336243,302.547028 518.429626,302.944916 
z"/>
<path fill="#711B80" opacity="1.000000" stroke="none" 
	d="
M427.994354,200.977295 
	C427.151184,201.051666 426.308014,201.126022 425.228973,200.668701 
	C424.668579,197.213684 424.104431,194.293610 424.064270,191.366348 
	C423.942078,182.460464 424.054169,173.551483 423.964172,164.644821 
	C423.956726,163.909821 423.112000,163.183273 422.656311,162.452805 
	C421.316467,156.987717 417.905670,153.829086 412.263947,153.270737 
	C406.063080,152.657028 400.666931,154.707657 396.440704,159.106186 
	C395.326294,160.266098 395.495544,162.820419 395.389526,164.751678 
	C395.216339,167.907486 395.300903,171.077454 394.834595,174.318802 
	C394.174225,170.012726 393.955994,165.629288 393.737762,161.245850 
	C393.003418,171.387741 392.879395,181.498688 393.103912,191.601883 
	C393.151062,193.724701 394.479584,195.819031 395.217712,197.926483 
	C396.334717,199.584396 396.805756,201.070755 394.019775,201.253723 
	C392.240784,201.370575 390.447876,201.275604 388.130859,201.275604 
	C388.130859,185.017471 388.130859,169.311966 388.130859,153.393524 
	C384.692841,152.867172 380.767578,152.941544 383.330109,147.312943 
	C387.190582,149.496567 393.302887,143.318283 395.666595,151.278137 
	C400.102081,149.876450 404.406281,148.197144 408.860779,147.169189 
	C421.545898,144.241882 429.251617,150.512054 429.304169,163.384659 
	C429.355286,175.905334 429.552917,188.425430 429.245422,200.782776 
	C428.534546,200.738937 428.264465,200.858109 427.994354,200.977295 
z"/>
<path fill="#772486" opacity="1.000000" stroke="none" 
	d="
M319.275970,176.925751 
	C322.077911,187.801956 317.462494,197.576935 306.707977,199.724731 
	C297.210449,201.621506 287.243042,201.258789 277.473022,201.529099 
	C276.652740,201.551788 275.020538,198.810974 275.006378,197.342102 
	C274.832764,179.366226 274.826385,161.387695 274.936066,143.410843 
	C274.962708,139.042358 275.197449,134.962845 268.955536,136.129410 
	C267.434021,131.771225 268.271057,129.861343 272.939850,130.001678 
	C281.088959,130.246628 289.253418,129.942810 297.406036,130.118927 
	C305.638428,130.296768 312.262360,133.426331 315.664612,141.538940 
	C314.909485,141.509811 314.432220,141.235687 313.694489,140.763123 
	C309.740143,138.007614 306.332916,134.017853 302.289368,133.208939 
	C295.144135,131.779602 287.613312,132.191544 280.239655,132.044327 
	C278.118896,132.001999 275.983612,132.685196 275.079071,132.834152 
	C275.801941,136.280823 276.394592,139.106506 276.737061,142.184967 
	C276.364410,143.850510 276.241882,145.263275 276.119354,146.676025 
	C276.435974,146.461594 276.752594,146.247147 277.422852,146.032028 
	C278.480103,146.038757 279.183685,146.046173 279.896851,146.430359 
	C278.631805,148.683426 276.359100,150.507187 276.257080,152.445206 
	C275.838959,160.387650 276.082520,168.364929 276.082520,176.357803 
	C277.544983,176.517197 278.608337,176.633087 279.959412,176.780334 
	C279.959412,179.153687 279.671570,181.347595 280.021667,183.434479 
	C280.672607,187.314789 281.695404,191.132706 282.869049,195.266541 
	C295.327728,201.903946 310.783295,192.837357 311.793457,178.942612 
	C312.602142,178.534454 313.093842,178.137650 313.585571,177.740845 
	C312.767212,177.500076 311.948853,177.259293 310.941284,176.850388 
	C310.708618,176.519226 310.665161,176.356201 310.946045,175.975891 
	C312.213440,173.334564 312.754547,170.502838 316.340729,170.759598 
	C316.340729,170.759598 316.238190,170.834671 316.176208,171.126862 
	C316.534271,171.896408 316.954346,172.373749 317.374390,172.851089 
	C317.374390,172.851089 317.202484,172.877243 317.130585,173.206482 
	C317.797760,174.665710 318.536865,175.795731 319.275970,176.925751 
z"/>
<path fill="#A5CB68" opacity="1.000000" stroke="none" 
	d="
M143.243988,243.502472 
	C147.267151,243.043655 151.679459,242.621338 156.092529,242.612946 
	C163.737793,242.598419 171.442612,243.504456 179.016266,242.830765 
	C193.025711,241.584579 207.694626,227.697021 209.751678,213.827026 
	C210.537628,208.527618 208.776382,203.436462 206.294342,198.233994 
	C201.958664,189.146286 194.222397,184.121017 186.804092,178.511612 
	C185.163437,177.271027 182.914673,176.834641 179.707687,175.520584 
	C180.700226,178.175415 181.111511,179.860809 181.914322,181.332657 
	C190.280869,196.671738 185.030640,211.258026 170.071838,220.758072 
	C158.162399,228.321518 145.849396,225.762939 133.484421,225.890030 
	C132.343063,225.901764 130.446060,223.776489 130.146469,222.376724 
	C128.554840,214.939926 126.809212,207.466751 126.141876,199.915573 
	C124.647156,183.002106 127.224281,166.487274 132.368973,150.336731 
	C133.004776,148.340759 134.659470,145.650330 130.233017,144.940063 
	C131.738297,143.453201 133.651062,142.028549 135.563828,140.603897 
	C136.022980,140.998734 136.482132,141.393570 136.941269,141.788391 
	C135.607040,146.319656 134.273544,150.851135 132.938431,155.382156 
	C126.958710,175.675812 125.418983,196.148727 130.650238,216.844849 
	C132.801193,225.354538 132.919403,225.556534 141.714081,225.059433 
	C151.032928,224.532684 160.085648,224.394989 168.840225,218.969467 
	C182.260239,210.652618 187.522873,197.118011 180.673141,182.858276 
	C179.111450,179.607162 177.576889,176.343002 175.702988,172.396500 
	C181.469070,171.849594 185.171722,174.950714 188.875870,177.276489 
	C197.081329,182.428558 204.526840,188.498123 208.577469,197.732620 
	C215.141632,212.697372 211.668137,226.049698 198.480530,236.123199 
	C190.888336,241.922577 182.224289,245.011398 172.539658,244.709778 
	C162.903381,244.409637 153.268799,244.055664 143.243988,243.502472 
z"/>
<path fill="#6D0E81" opacity="1.000000" stroke="none" 
	d="
M724.044006,304.759766 
	C723.585205,304.806152 723.126465,304.852509 722.277466,304.462097 
	C720.764832,303.121246 719.774963,301.785522 718.495544,301.392426 
	C714.321533,300.109955 712.934692,297.477020 712.907043,293.201874 
	C712.846008,283.757629 712.374329,274.314331 711.954529,264.875793 
	C711.884155,263.293945 711.232422,261.737976 710.849365,260.170044 
	C710.691345,260.034698 710.533386,259.899323 710.181091,259.170105 
	C707.736572,257.825287 705.486328,257.074341 701.972107,255.901566 
	C705.134827,254.475464 707.049927,253.611908 708.964966,252.748352 
	C709.515869,250.945587 710.478333,249.158432 710.547302,247.337418 
	C710.867371,238.891449 712.027832,237.390945 721.031433,235.249985 
	C721.031433,240.598419 721.031433,245.854309 721.221558,251.913025 
	C725.455505,253.482498 729.499451,254.249130 733.543335,255.015778 
	C733.610046,255.457031 733.676758,255.898285 733.301392,256.673340 
	C731.550110,257.750031 730.240967,258.492950 728.931763,259.235870 
	C727.891846,259.300964 726.851868,259.366028 725.239136,259.021179 
	C723.430481,259.035309 722.194641,259.459351 720.958801,259.883423 
	C720.958801,259.883423 720.997925,259.955475 720.682129,260.281891 
	C720.245483,271.524323 720.058777,282.440308 720.058350,293.356323 
	C720.058228,295.589172 720.524536,298.063873 723.938232,297.129791 
	C725.674255,297.195679 727.410278,297.261566 729.639343,297.737823 
	C730.415405,300.117462 730.698425,302.086700 730.981445,304.055939 
	C729.915405,304.339050 728.849243,304.622192 727.169312,304.625732 
	C725.718323,304.484070 724.881165,304.621918 724.044006,304.759766 
z"/>
<path fill="#A5CB68" opacity="1.000000" stroke="none" 
	d="
M128.735657,145.201996 
	C128.399292,146.455734 128.018417,148.117325 126.980957,148.852905 
	C110.563408,160.493347 106.931595,176.994217 109.766808,195.506363 
	C111.102966,204.230560 113.835236,212.760147 116.244888,221.290344 
	C117.087059,224.271606 116.700378,225.768982 113.501923,226.102112 
	C109.472084,226.521835 105.446297,226.980438 100.531822,227.519562 
	C105.645157,232.372131 109.991936,236.817902 114.741020,240.781647 
	C115.948029,241.789047 118.532288,240.955780 120.306999,241.522110 
	C122.489670,242.218643 125.942123,243.104874 126.338615,244.582062 
	C130.105728,258.617218 131.128677,272.739685 124.122551,286.185944 
	C118.582329,296.818756 108.449280,297.485291 98.600868,295.704651 
	C76.762070,291.756073 60.299229,279.827850 50.510521,259.623535 
	C48.932629,256.366699 49.017296,252.304398 48.576221,248.326645 
	C52.132137,255.398605 54.076004,263.888306 59.031269,269.892883 
	C70.909615,284.286469 86.083542,293.990143 105.658020,294.157776 
	C116.454781,294.250275 122.508553,289.079529 125.375885,278.692932 
	C128.201736,268.456604 127.851707,258.337006 125.169670,248.167542 
	C124.384933,245.192047 123.220009,243.836487 119.623970,244.153870 
	C117.280434,244.360687 114.374275,242.861130 112.368996,241.295151 
	C107.676147,237.630371 103.357941,233.483109 98.925507,229.489609 
	C97.887581,228.554474 96.998520,227.454132 96.040962,226.429794 
	C96.168205,225.917770 96.295456,225.405731 96.422699,224.893707 
	C102.173309,224.893707 107.923920,224.893707 114.073692,224.893707 
	C111.854858,215.932709 109.331085,208.213943 108.103630,200.294266 
	C105.072220,180.735077 106.896851,162.343552 123.453583,148.486298 
	C124.962982,147.222992 126.735413,146.274002 128.735657,145.201996 
z"/>
<path fill="#6D1671" opacity="1.000000" stroke="none" 
	d="
M453.590027,177.959549 
	C453.645721,179.030167 453.701447,180.100769 453.282532,181.572449 
	C448.497803,182.042343 446.707977,180.253952 446.903564,175.640610 
	C447.262909,167.164185 446.937988,158.660706 447.047607,150.170441 
	C447.078735,147.757858 447.626312,145.351944 447.958923,143.330994 
	C447.819580,149.366791 451.529144,145.529282 453.493378,145.968643 
	C453.493378,153.084351 453.493378,160.200058 453.493378,169.255844 
	C456.930664,167.600250 459.489990,167.065399 460.997131,165.510605 
	C465.503143,160.862259 469.626434,155.839600 473.843262,150.915222 
	C477.567963,146.565552 478.635895,146.272461 484.802032,148.490585 
	C478.317261,155.950180 471.913788,163.316269 465.174622,171.068512 
	C467.808105,174.176773 470.343140,177.168793 472.813599,180.769012 
	C469.816833,182.960526 469.939972,184.473404 472.208557,186.897064 
	C473.826935,188.626099 474.469147,191.268860 475.546936,193.503891 
	C470.453857,188.117477 465.524323,182.558350 460.149292,177.469742 
	C458.853973,176.243393 456.083099,176.575607 453.676147,176.695221 
	C453.189148,177.520462 453.265320,177.773865 453.590027,177.959549 
z"/>
<path fill="#6D0E7B" opacity="1.000000" stroke="none" 
	d="
M629.984009,304.681061 
	C629.495605,304.570251 629.007202,304.459442 628.226868,303.744537 
	C626.881104,300.401611 625.827209,297.662811 624.773376,294.923981 
	C624.698059,293.894836 624.622803,292.865723 624.991821,291.190948 
	C625.615051,289.922913 625.948242,289.300903 625.950012,288.677979 
	C625.985596,276.146637 626.008667,263.615051 625.941345,251.084015 
	C625.935791,250.047668 625.266113,249.014893 624.905029,247.980469 
	C624.838806,246.923294 624.772583,245.866104 625.094604,244.174789 
	C626.592590,239.983170 626.067749,237.107071 622.504517,235.078033 
	C621.866821,234.714920 621.990967,233.013885 621.763428,231.930573 
	C624.430237,231.760559 627.149353,231.219681 629.740662,231.585129 
	C630.942139,231.754593 632.594299,233.560501 632.829346,234.846237 
	C633.537964,238.723160 633.986511,242.713165 633.935486,246.651276 
	C633.774414,259.068848 633.241394,271.481598 633.077026,283.899170 
	C633.034973,287.082062 634.590271,290.424988 634.009033,293.422363 
	C633.440369,296.354553 633.199524,297.706940 636.571045,298.124512 
	C639.989624,298.547943 640.547058,300.568085 638.892517,303.397552 
	C638.892517,303.397552 638.675720,303.805969 638.511841,303.926575 
	C638.347961,304.047150 638.476318,304.045532 638.476318,304.045532 
	C637.939392,304.228088 637.402405,304.410614 636.329163,304.266174 
	C633.856567,304.186462 631.920288,304.433777 629.984009,304.681061 
z"/>
<path fill="#670E6C" opacity="1.000000" stroke="none" 
	d="
M316.318420,170.337601 
	C312.754547,170.502838 312.213440,173.334564 310.701477,175.748535 
	C306.774384,173.224701 303.416199,170.710953 299.981262,167.976501 
	C299.292725,167.761169 298.680939,167.766541 297.623596,167.837463 
	C292.749969,167.824310 288.321930,167.745605 283.729492,167.485199 
	C283.266388,167.836960 282.967651,168.370422 282.724243,169.375183 
	C282.707489,178.223175 282.635437,186.599884 282.563354,194.976608 
	C281.695404,191.132706 280.672607,187.314789 280.021667,183.434479 
	C279.671570,181.347595 279.959412,179.153687 279.959412,176.780334 
	C278.608337,176.633087 277.544983,176.517197 276.082520,176.357803 
	C276.082520,168.364929 275.838959,160.387650 276.257080,152.445206 
	C276.359100,150.507187 278.631805,148.683426 280.080658,146.068390 
	C281.084869,142.546432 281.914856,139.763229 282.776062,137.448151 
	C282.807251,145.834290 282.807251,153.752274 282.807251,161.366653 
	C283.713104,161.808105 283.999908,162.067245 284.290619,162.071655 
	C288.604828,162.137177 292.919495,162.175308 297.234161,162.207306 
	C304.767395,162.263184 309.419556,157.788269 309.804626,150.056839 
	C309.886932,148.403900 309.769043,146.740997 310.143402,145.115875 
	C311.194153,147.926895 311.844879,150.704697 312.559723,153.756302 
	C313.020844,153.593811 314.033875,153.236832 315.265564,153.067810 
	C315.601929,154.004578 315.719574,154.753387 315.837219,155.502197 
	C315.403534,156.555817 314.969879,157.609436 314.307800,158.982697 
	C314.079407,159.302338 314.043823,159.154709 314.043823,159.154709 
	C313.202240,160.322784 312.360657,161.490860 310.900635,162.827179 
	C310.356903,163.703918 310.431641,164.412399 310.506378,165.120880 
	C311.863983,165.882599 313.221588,166.644318 314.873291,167.614197 
	C315.167358,167.822342 315.126862,167.690735 315.126862,167.690735 
	C315.516602,168.432358 315.906342,169.173981 316.318420,170.337601 
z"/>
<path fill="#6D157F" opacity="1.000000" stroke="none" 
	d="
M375.612854,195.025330 
	C375.724243,200.259949 371.578583,202.871429 365.694275,200.391006 
	C362.422119,199.011703 359.862701,199.842880 356.814178,200.259781 
	C352.283905,200.879303 347.487946,201.366898 343.059235,200.543518 
	C333.663055,198.796646 329.227142,187.820038 333.812744,177.144958 
	C337.809479,176.731903 338.059052,178.496811 337.869263,181.290451 
	C337.720062,183.486313 338.628387,185.754013 339.232666,188.166595 
	C339.640320,188.733475 339.882263,189.123550 340.179657,189.820618 
	C340.512207,190.423752 340.789307,190.719910 341.160706,191.137543 
	C341.255035,191.259033 341.117340,191.534103 341.216003,191.864624 
	C341.920776,192.448395 342.526886,192.701660 343.503204,193.034271 
	C347.581940,193.730026 351.290497,194.346436 355.207947,195.232788 
	C356.609558,195.047989 357.802307,194.593216 359.208008,194.068054 
	C359.420990,193.997665 359.867859,193.958588 360.095184,193.886749 
	C360.620239,193.668747 360.839447,193.445465 361.174896,193.050598 
	C361.369720,192.956146 361.802094,192.932007 362.072693,192.936768 
	C362.625946,192.751633 362.908600,192.561737 363.191284,192.371857 
	C363.001190,192.186935 362.811096,192.002014 362.679016,191.506912 
	C362.863831,190.796356 362.990692,190.395966 363.428711,189.945618 
	C364.367493,187.740173 364.995056,185.584732 365.655090,183.317841 
	C366.833069,183.559631 367.917755,183.782257 369.002319,184.449478 
	C369.527557,187.961105 370.052917,191.028152 370.578308,194.095200 
	C370.578308,194.095200 370.967804,194.311905 371.352264,194.628387 
	C373.028778,194.971710 374.320801,194.998520 375.612854,195.025330 
z"/>
<path fill="#6A1370" opacity="1.000000" stroke="none" 
	d="
M369.002441,184.004883 
	C367.917755,183.782257 366.833069,183.559631 365.655090,183.317841 
	C364.995056,185.584732 364.367493,187.740173 363.352417,189.484283 
	C362.957642,184.919022 363.178223,180.744980 362.814545,176.622482 
	C362.693756,175.253555 361.308441,173.214539 360.096008,172.857407 
	C354.531372,171.218323 349.008087,171.246063 343.781158,174.481720 
	C338.468781,177.770233 338.664459,182.801849 339.066956,187.989807 
	C338.628387,185.754013 337.720062,183.486313 337.869263,181.290451 
	C338.059052,178.496811 337.809479,176.731903 334.080078,176.918884 
	C336.796326,169.751434 342.885590,166.870392 350.070770,166.057755 
	C354.124054,165.599350 358.271729,165.975113 363.006378,165.975113 
	C363.006378,164.086060 363.006378,162.335602 363.075623,159.997955 
	C363.144867,159.410767 363.082397,159.179611 363.082397,159.179611 
	C362.916382,158.730057 362.750366,158.280518 362.895447,157.469315 
	C365.512817,158.532349 367.815308,161.737350 370.134399,157.122345 
	C370.299438,160.439499 370.464447,163.756653 370.198364,167.637421 
	C368.885101,170.639938 367.371429,173.057434 367.287872,175.523407 
	C367.192810,178.327957 368.375275,181.175842 369.002441,184.004883 
z"/>
<path fill="#772486" opacity="1.000000" stroke="none" 
	d="
M370.238159,156.795502 
	C367.815308,161.737350 365.512817,158.532349 362.822998,157.116974 
	C356.508820,150.775986 349.122314,152.493988 341.898041,153.471436 
	C340.115875,153.712570 338.375183,154.260269 336.364105,154.725128 
	C335.202911,150.846237 335.006073,147.865555 340.002594,147.580841 
	C346.557465,147.207321 353.167114,146.231049 359.655914,146.744263 
	C365.051575,147.170990 368.956177,150.826263 370.238159,156.795502 
z"/>
<path fill="#681F72" opacity="1.000000" stroke="none" 
	d="
M639.225464,303.408630 
	C640.547058,300.568085 639.989624,298.547943 636.571045,298.124512 
	C633.199524,297.706940 633.440369,296.354553 634.009033,293.422363 
	C634.590271,290.424988 633.034973,287.082062 633.077026,283.899170 
	C633.241394,271.481598 633.774414,259.068848 633.935486,246.651276 
	C633.986511,242.713165 633.537964,238.723160 632.829346,234.846237 
	C632.594299,233.560501 630.942139,231.754593 629.740662,231.585129 
	C627.149353,231.219681 624.430237,231.760559 621.763428,231.930573 
	C621.990967,233.013885 621.866821,234.714920 622.504517,235.078033 
	C626.067749,237.107071 626.592590,239.983170 625.186035,243.785889 
	C623.580383,236.894730 623.580383,236.894730 618.198608,235.699646 
	C618.198608,233.875275 618.198608,231.978714 618.198608,229.565979 
	C622.651611,229.565979 626.952759,229.216125 631.169128,229.664230 
	C635.396729,230.113541 635.377014,233.862015 635.367859,236.990326 
	C635.338562,246.965683 635.073547,256.940094 634.996399,266.915619 
	C634.937317,274.558289 634.888184,282.205719 635.086914,289.844421 
	C635.274292,297.048981 635.419312,297.045197 643.811523,298.273254 
	C642.084045,300.363525 640.821228,301.891632 639.225464,303.408630 
z"/>
<path fill="#90C340" opacity="1.000000" stroke="none" 
	d="
M189.475159,258.527161 
	C190.772079,261.007996 193.329590,264.195953 192.635605,265.256836 
	C190.545303,268.452209 187.232162,270.868805 184.268814,273.442780 
	C183.929077,273.737854 182.720261,273.232635 182.036880,272.868622 
	C181.489395,272.576996 181.108383,271.952576 180.686691,271.448090 
	C173.710571,263.102081 174.196747,260.579956 185.456985,252.826080 
	C186.602112,254.467468 187.925690,256.364624 189.475159,258.527161 
z"/>
<path fill="#8FC23D" opacity="1.000000" stroke="none" 
	d="
M83.484741,184.545914 
	C84.915268,182.911926 86.093132,181.526550 87.821991,179.493118 
	C90.999413,183.116211 93.820396,186.047775 96.232391,189.284149 
	C96.833344,190.090485 96.292511,191.931686 95.930702,193.198486 
	C95.732559,193.892242 94.805283,194.373047 94.217995,194.961075 
	C86.419518,202.769394 88.706673,202.046448 81.543266,194.570053 
	C77.247704,190.086838 80.421555,187.651627 83.484741,184.545914 
z"/>
<path fill="#762A84" opacity="1.000000" stroke="none" 
	d="
M447.937012,142.942963 
	C447.626312,145.351944 447.078735,147.757858 447.047607,150.170441 
	C446.937988,158.660706 447.262909,167.164185 446.903564,175.640610 
	C446.707977,180.253952 448.497803,182.042343 453.192139,181.966187 
	C453.576385,188.244141 453.576385,194.529449 453.576385,201.273193 
	C451.360474,201.273193 449.020569,201.273193 445.962830,201.273193 
	C445.962830,178.381897 445.962830,155.555222 446.105011,132.060059 
	C446.456604,131.197632 446.701538,131.074310 447.143433,131.399506 
	C447.515564,135.499252 447.726318,139.221115 447.937012,142.942963 
z"/>
<path fill="#A5CB68" opacity="1.000000" stroke="none" 
	d="
M48.755585,245.645935 
	C48.212921,242.900146 47.197392,239.642670 47.488297,236.506348 
	C48.158535,229.280365 49.772121,222.225571 54.350964,216.241089 
	C54.669125,215.825241 54.589931,215.105377 54.977585,212.981628 
	C50.333561,217.743881 46.728695,221.440521 42.790703,225.168365 
	C44.575111,222.360153 46.528976,219.378525 48.845497,216.711960 
	C53.180931,211.721390 57.698452,206.887268 62.205364,202.048737 
	C63.281048,200.893875 64.613167,199.977890 67.072990,197.899643 
	C66.932869,200.649338 67.300682,202.156647 66.728348,203.083221 
	C64.737007,206.307037 62.750423,209.642609 60.166412,212.371735 
	C51.378956,221.652695 48.298294,232.758041 48.755585,245.645935 
z"/>
<path fill="#711B80" opacity="1.000000" stroke="none" 
	d="
M475.552948,193.485596 
	C474.469147,191.268860 473.826935,188.626099 472.208557,186.897064 
	C469.939972,184.473404 469.816833,182.960526 472.930267,181.084808 
	C479.005432,187.230927 484.899384,193.669464 490.940674,200.268951 
	C483.647308,203.883011 480.069275,199.520050 476.711121,194.495438 
	C476.868896,193.804153 476.890930,193.565842 476.912933,193.327545 
	C476.468750,193.378448 476.024567,193.429352 475.580383,193.480255 
	C475.580383,193.480240 475.558960,193.467316 475.552948,193.485596 
z"/>
<path fill="#702870" opacity="1.000000" stroke="none" 
	d="
M542.466431,301.425110 
	C544.588745,301.821533 546.603516,302.624878 548.749634,303.480591 
	C551.858154,299.685425 552.370239,274.769775 549.564575,259.078522 
	C550.891174,261.116241 552.997925,263.378448 553.058899,265.694458 
	C553.389954,278.276917 553.216125,290.872650 553.216125,304.279297 
	C549.502319,302.876740 545.214233,307.057983 542.466431,301.425110 
z"/>
<path fill="#A8CA6E" opacity="1.000000" stroke="none" 
	d="
M162.950073,258.986145 
	C164.115494,261.338562 166.405518,264.395508 165.733810,265.335083 
	C163.421188,268.569977 160.175705,273.089966 157.090042,273.245758 
	C154.266373,273.388336 150.905457,268.742126 148.401718,265.696167 
	C147.678482,264.816284 149.065903,262.166718 149.557159,260.347778 
	C149.679718,259.893951 150.058975,259.499451 150.355347,259.103973 
	C155.819199,251.813232 157.002579,251.777603 162.950073,258.986145 
M159.920013,269.621918 
	C160.620804,268.924103 161.581161,268.344452 161.964722,267.502167 
	C162.625504,266.051117 163.785263,263.622284 163.227798,263.034882 
	C161.080261,260.772247 158.335327,259.076599 155.813110,257.169556 
	C154.236221,259.825317 151.361908,262.491028 151.382126,265.134583 
	C151.413605,269.249146 155.599487,271.261353 159.920013,269.621918 
z"/>
<path fill="#6A017A" opacity="1.000000" stroke="none" 
	d="
M447.958954,143.330994 
	C447.726318,139.221115 447.515564,135.499252 446.996033,131.091812 
	C445.913513,129.523087 445.139771,128.639938 444.366058,127.756798 
	C444.526794,127.424622 444.687531,127.092445 444.848297,126.760269 
	C447.717773,127.188713 450.587280,127.617149 453.456757,128.045593 
	C453.532440,128.474869 453.608093,128.904144 453.378601,129.673141 
	C453.209290,130.354385 453.345093,130.695892 453.480927,131.037415 
	C453.555634,135.713104 453.630310,140.388779 453.599182,145.516556 
	C451.529144,145.529282 447.819580,149.366791 447.958954,143.330994 
z"/>
<path fill="#671A78" opacity="1.000000" stroke="none" 
	d="
M710.744263,260.613037 
	C711.232422,261.737976 711.884155,263.293945 711.954529,264.875793 
	C712.374329,274.314331 712.846008,283.757629 712.907043,293.201874 
	C712.934692,297.477020 714.321533,300.109955 718.495544,301.392426 
	C719.774963,301.785522 720.764832,303.121246 721.943787,304.358398 
	C714.400696,304.032990 710.618835,300.511902 710.517883,293.252838 
	C710.368652,282.523193 710.580811,271.788544 710.744263,260.613037 
z"/>
<path fill="#A5CB68" opacity="1.000000" stroke="none" 
	d="
M129.291046,289.839996 
	C130.357986,284.892700 132.246536,279.927612 133.027161,274.794037 
	C134.373123,265.942627 134.948502,256.976379 136.044891,248.082687 
	C136.263565,246.308807 137.368011,244.644119 138.375778,243.056015 
	C138.372635,247.277679 137.690598,251.383469 137.813599,255.464996 
	C138.145248,266.469849 135.901077,276.888885 131.480301,286.893707 
	C131.027161,287.919250 130.244049,288.798981 129.291046,289.839996 
z"/>
<path fill="#5A0858" opacity="1.000000" stroke="none" 
	d="
M518.614075,302.626282 
	C515.336243,302.547028 512.242859,302.149139 509.433411,301.365295 
	C511.846313,300.666199 513.975342,300.353058 516.543335,299.975342 
	C516.543335,290.410004 516.517700,280.273285 516.564758,270.136871 
	C516.574280,268.075989 516.857727,266.016388 517.014893,263.956177 
	C517.313843,263.963226 517.608948,264.000519 518.123657,264.063934 
	C518.497559,276.809082 518.648010,289.558380 518.614075,302.626282 
z"/>
<path fill="#681F72" opacity="1.000000" stroke="none" 
	d="
M624.785156,248.366241 
	C625.266113,249.014893 625.935791,250.047668 625.941345,251.084015 
	C626.008667,263.615051 625.985596,276.146637 625.950012,288.677979 
	C625.948242,289.300903 625.615051,289.922913 625.100464,290.815857 
	C624.731689,276.974945 624.698486,262.863495 624.785156,248.366241 
z"/>
<path fill="#702870" opacity="1.000000" stroke="none" 
	d="
M547.836792,256.763000 
	C545.221436,256.184937 542.454468,255.354996 539.736633,254.387314 
	C532.900696,251.953339 526.496155,253.613602 520.146301,256.249420 
	C519.601868,256.475403 518.810791,256.107117 518.027832,255.771851 
	C524.705750,250.064163 540.635681,249.250046 547.836792,256.763000 
z"/>
<path fill="#A5CB68" opacity="1.000000" stroke="none" 
	d="
M27.433233,258.906250 
	C27.842497,259.165405 27.950346,259.655121 28.101774,260.728577 
	C28.262709,261.579163 28.451872,261.777313 28.712845,261.906799 
	C27.073290,272.377411 31.665895,281.232758 36.051910,290.505188 
	C33.383202,286.129089 29.676111,281.673553 28.282192,276.584412 
	C26.773626,271.076721 27.423393,264.977814 27.433233,258.906250 
z"/>
<path fill="#772486" opacity="1.000000" stroke="none" 
	d="
M369.002319,184.449463 
	C368.375275,181.175842 367.192810,178.327957 367.287872,175.523407 
	C367.371429,173.057434 368.885101,170.639938 370.062469,168.074265 
	C370.442627,176.347885 370.527527,184.748276 370.595398,193.621948 
	C370.052917,191.028152 369.527557,187.961105 369.002319,184.449463 
z"/>
<path fill="#5B0F68" opacity="1.000000" stroke="none" 
	d="
M395.280396,197.641708 
	C394.479584,195.819031 393.151062,193.724701 393.103912,191.601883 
	C392.879395,181.498688 393.003418,171.387741 393.737762,161.245850 
	C393.955994,165.629288 394.174225,170.012726 394.683228,174.690613 
	C395.040833,176.394882 395.107666,177.804688 395.033173,180.052277 
	C394.955597,186.004807 395.019348,191.119537 395.083069,196.234268 
	C395.169739,196.608490 395.256439,196.982712 395.280396,197.641708 
z"/>
<path fill="#671A78" opacity="1.000000" stroke="none" 
	d="
M708.572998,252.595917 
	C707.049927,253.611908 705.134827,254.475464 701.972107,255.901566 
	C705.486328,257.074341 707.736572,257.825287 710.051880,258.886047 
	C707.494507,259.195831 704.872009,259.195831 701.913757,259.195831 
	C701.913757,257.069489 701.913757,255.166107 701.913757,252.443466 
	C704.004211,252.443466 706.092590,252.443466 708.572998,252.595917 
z"/>
<path fill="#A5CB68" opacity="1.000000" stroke="none" 
	d="
M34.677269,236.088196 
	C33.735580,239.843689 32.437408,243.666794 31.201603,247.509933 
	C30.704029,249.057312 30.343130,250.648621 29.537804,252.680145 
	C28.809189,254.100113 28.462790,255.059860 28.116392,256.019623 
	C28.116394,256.019623 28.086132,256.045197 28.073956,256.030304 
	C26.963806,248.387589 30.923969,242.360916 34.677269,236.088196 
z"/>
<path fill="#671A78" opacity="1.000000" stroke="none" 
	d="
M723.690552,296.853058 
	C720.524536,298.063873 720.058228,295.589172 720.058350,293.356323 
	C720.058777,282.440308 720.245483,271.524323 720.645020,260.299255 
	C720.951111,269.950775 720.833862,279.915436 721.116028,289.868835 
	C721.179993,292.124847 722.630615,294.341553 723.690552,296.853058 
z"/>
<path fill="#6D1671" opacity="1.000000" stroke="none" 
	d="
M453.549194,127.632492 
	C450.587280,127.617149 447.717773,127.188713 444.848297,126.760269 
	C444.687531,127.092445 444.526794,127.424622 444.366058,127.756798 
	C445.139771,128.639938 445.913513,129.523087 446.834656,130.713898 
	C446.701538,131.074310 446.456604,131.197632 446.159821,131.579498 
	C444.072052,129.746063 437.975891,133.124496 439.629791,125.466980 
	C444.171661,126.035011 448.906647,126.627197 453.549194,127.632492 
z"/>
<path fill="#5B0F68" opacity="1.000000" stroke="none" 
	d="
M422.557556,162.879913 
	C423.112000,163.183273 423.956726,163.909821 423.964172,164.644821 
	C424.054169,173.551483 423.942078,182.460464 424.064270,191.366348 
	C424.104431,194.293610 424.668579,197.213684 424.993500,200.559387 
	C421.401733,201.383179 422.511780,198.625595 422.498932,196.969238 
	C422.411987,185.749084 422.456665,174.527893 422.557556,162.879913 
z"/>
<path fill="#772486" opacity="1.000000" stroke="none" 
	d="
M316.043396,155.266907 
	C315.719574,154.753387 315.601929,154.004578 315.256714,152.640320 
	C315.034973,149.725250 315.040771,147.425629 315.274109,144.915878 
	C315.680267,144.113968 315.858887,143.522217 316.037537,142.930466 
	C316.108215,146.964172 316.178894,150.997894 316.043396,155.266907 
z"/>
<path fill="#A5CB68" opacity="1.000000" stroke="none" 
	d="
M50.132824,306.286804 
	C53.708660,308.062164 57.319439,310.171417 60.972084,312.630096 
	C57.398552,310.859924 53.783161,308.740295 50.132824,306.286804 
z"/>
<path fill="#671A78" opacity="1.000000" stroke="none" 
	d="
M733.666382,254.634338 
	C729.499451,254.249130 725.455505,253.482498 721.227295,252.384277 
	C724.263733,252.127808 727.500122,252.046051 730.696411,252.365204 
	C731.779419,252.473358 732.761292,253.594620 733.666382,254.634338 
z"/>
<path fill="#711B80" opacity="1.000000" stroke="none" 
	d="
M395.192780,195.827301 
	C395.019348,191.119537 394.955597,186.004807 394.939789,180.467072 
	C395.092651,185.169510 395.197540,190.294922 395.192780,195.827301 
z"/>
<path fill="#671A78" opacity="1.000000" stroke="none" 
	d="
M731.322510,304.097595 
	C730.698425,302.086700 730.415405,300.117462 730.065918,297.817017 
	C731.268188,297.647339 733.633301,297.781952 733.638123,297.974426 
	C733.692688,300.200073 735.316833,303.103485 731.322510,304.097595 
z"/>
<path fill="#A5CB68" opacity="1.000000" stroke="none" 
	d="
M65.895103,315.521667 
	C68.824074,315.965454 71.922005,316.713226 75.116119,317.772827 
	C72.162880,317.331635 69.113472,316.578644 65.895103,315.521667 
z"/>
<path fill="#A5CB68" opacity="1.000000" stroke="none" 
	d="
M111.132019,311.364441 
	C112.945564,309.143311 115.070503,307.042633 117.553589,304.949280 
	C115.755630,307.132721 113.599525,309.308838 111.132019,311.364441 
z"/>
<path fill="#681F72" opacity="1.000000" stroke="none" 
	d="
M624.643311,295.240692 
	C625.827209,297.662811 626.881104,300.401611 627.972717,303.454346 
	C623.874084,302.296570 625.101013,298.540527 624.643311,295.240692 
z"/>
<path fill="#A5CB68" opacity="1.000000" stroke="none" 
	d="
M40.734444,227.074402 
	C43.210049,230.671463 39.566254,230.694977 37.628052,232.044434 
	C38.329746,230.437302 39.361736,228.780823 40.734444,227.074402 
z"/>
<path fill="#A5CB68" opacity="1.000000" stroke="none" 
	d="
M78.333542,318.994629 
	C80.418221,318.570007 82.792030,318.377594 85.607254,318.492859 
	C86.048668,318.800537 86.109848,319.286285 86.109848,319.286285 
	C83.614120,319.266479 81.118401,319.246643 78.333542,318.994629 
z"/>
<path fill="#A5CB68" opacity="1.000000" stroke="none" 
	d="
M119.271866,303.832458 
	C120.045052,302.246918 121.158966,300.640472 122.621574,299.007172 
	C121.851044,300.590698 120.731819,302.201141 119.271866,303.832458 
z"/>
<path fill="#671A78" opacity="1.000000" stroke="none" 
	d="
M729.244751,259.372742 
	C730.240967,258.492950 731.550110,257.750031 733.195862,256.995117 
	C734.195496,260.952728 731.255798,259.254425 729.244751,259.372742 
z"/>
<path fill="#A5CB68" opacity="1.000000" stroke="none" 
	d="
M39.631989,296.099243 
	C41.138565,297.012604 42.534817,298.235962 43.914471,299.807922 
	C42.439137,298.907471 40.980400,297.658356 39.631989,296.099243 
z"/>
<path fill="#681F72" opacity="1.000000" stroke="none" 
	d="
M630.401489,304.814026 
	C631.920288,304.433777 633.856567,304.186462 635.903931,304.266235 
	C634.282959,304.711212 632.550964,304.829132 630.401489,304.814026 
z"/>
<path fill="#A5CB68" opacity="1.000000" stroke="none" 
	d="
M100.214615,317.782715 
	C101.385971,316.804962 102.912048,315.910065 104.820480,315.079224 
	C103.658340,316.050720 102.113846,316.958130 100.214615,317.782715 
z"/>
<path fill="#A5CB68" opacity="1.000000" stroke="none" 
	d="
M126.273804,294.865234 
	C126.618797,293.610962 127.288788,292.310913 128.282104,290.946594 
	C127.936562,292.194702 127.267685,293.507080 126.273804,294.865234 
z"/>
<path fill="#A5CB68" opacity="1.000000" stroke="none" 
	d="
M123.304703,298.923340 
	C123.557404,297.942566 124.136772,296.915436 125.031647,295.844086 
	C124.775230,296.825562 124.203300,297.851318 123.304703,298.923340 
z"/>
<path fill="#671A78" opacity="1.000000" stroke="none" 
	d="
M721.280518,259.730835 
	C722.194641,259.459351 723.430481,259.035309 724.863159,258.902832 
	C723.907410,259.322357 722.754822,259.450317 721.280518,259.730835 
z"/>
<path fill="#670E6C" opacity="1.000000" stroke="none" 
	d="
M316.080933,142.685287 
	C315.858887,143.522217 315.680267,144.113968 314.997192,144.662216 
	C314.313477,143.399658 314.134247,142.180603 313.954987,140.961563 
	C314.432220,141.235687 314.909485,141.509811 315.641357,141.890747 
	C315.895996,141.997559 316.124329,142.440109 316.080933,142.685287 
z"/>
<path fill="#A5CA66" opacity="1.000000" stroke="none" 
	d="
M86.536484,319.325256 
	C86.109848,319.286285 86.048668,318.800537 86.025894,318.560425 
	C88.045807,318.253235 90.088493,318.186127 92.559738,318.389893 
	C92.988304,318.660706 92.968552,319.123230 92.968552,319.123230 
	C90.966743,319.203552 88.964928,319.283905 86.536484,319.325256 
z"/>
<path fill="#A5CB68" opacity="1.000000" stroke="none" 
	d="
M44.907104,301.425537 
	C45.890190,301.838135 46.931782,302.577698 47.977066,303.668335 
	C46.975712,303.263733 45.970665,302.508118 44.907104,301.425537 
z"/>
<path fill="#772486" opacity="1.000000" stroke="none" 
	d="
M375.650879,194.731171 
	C374.320801,194.998520 373.028778,194.971710 371.451172,194.828094 
	C372.673370,194.619873 374.181122,194.528427 375.650879,194.731171 
z"/>
<path fill="#A5CB68" opacity="1.000000" stroke="none" 
	d="
M36.937344,292.377197 
	C37.643307,292.763641 38.355247,293.486053 39.057381,294.559753 
	C38.346157,294.178406 37.644737,293.445770 36.937344,292.377197 
z"/>
<path fill="#A5CB68" opacity="1.000000" stroke="none" 
	d="
M93.214912,319.244354 
	C92.968552,319.123230 92.988304,318.660706 92.995941,318.431580 
	C93.842888,318.238831 94.682205,318.275238 95.737595,318.545776 
	C95.122871,318.975098 94.292076,319.170288 93.214912,319.244354 
z"/>
<path fill="#670E6C" opacity="1.000000" stroke="none" 
	d="
M319.272217,176.564575 
	C318.536865,175.795731 317.797760,174.665710 317.153503,173.122604 
	C317.921692,173.874130 318.595093,175.038757 319.272217,176.564575 
z"/>
<path fill="#A5CB68" opacity="1.000000" stroke="none" 
	d="
M108.181793,313.648376 
	C108.343971,313.051056 108.812401,312.504181 109.572441,311.941895 
	C109.405380,312.517273 108.946709,313.108032 108.181793,313.648376 
z"/>
<path fill="#A5CB68" opacity="1.000000" stroke="none" 
	d="
M61.082603,313.285767 
	C61.658451,313.207397 62.295811,313.431152 63.053036,313.886719 
	C62.496643,313.941650 61.820381,313.764771 61.082603,313.285767 
z"/>
<path fill="#772486" opacity="1.000000" stroke="none" 
	d="
M310.510010,164.751099 
	C310.431641,164.412399 310.356903,163.703918 310.567108,162.969696 
	C310.739227,163.423096 310.626404,163.902206 310.510010,164.751099 
z"/>
<path fill="#671A78" opacity="1.000000" stroke="none" 
	d="
M724.398865,304.869415 
	C724.881165,304.621918 725.718323,304.484070 726.750366,304.548676 
	C726.214722,304.827148 725.484192,304.903107 724.398865,304.869415 
z"/>
<path fill="#6D1671" opacity="1.000000" stroke="none" 
	d="
M453.577332,130.768005 
	C453.345093,130.695892 453.209290,130.354385 453.273499,129.987701 
	C453.540253,130.141235 453.606964,130.319931 453.577332,130.768005 
z"/>
<path fill="#6D1671" opacity="1.000000" stroke="none" 
	d="
M475.622986,193.672684 
	C476.024567,193.429352 476.468750,193.378448 476.912933,193.327545 
	C476.890930,193.565842 476.868896,193.804153 476.579041,194.164566 
	C476.030060,194.247131 475.814819,194.106613 475.622986,193.672684 
z"/>
<path fill="#670E6C" opacity="1.000000" stroke="none" 
	d="
M317.338013,172.520538 
	C316.954346,172.373749 316.534271,171.896408 316.176239,171.063324 
	C316.592712,171.201721 316.947144,171.695847 317.338013,172.520538 
z"/>
<path fill="#772486" opacity="1.000000" stroke="none" 
	d="
M314.023712,159.232330 
	C314.043823,159.154709 314.079407,159.302338 314.053131,159.329453 
	C314.026855,159.356567 314.003601,159.309967 314.023712,159.232330 
z"/>
<path fill="#681F72" opacity="1.000000" stroke="none" 
	d="
M638.444519,304.036743 
	C638.476318,304.045532 638.347961,304.047150 638.313721,304.045837 
	C638.279541,304.044495 638.412720,304.027985 638.444519,304.036743 
z"/>
<path fill="#772486" opacity="1.000000" stroke="none" 
	d="
M362.987335,159.221344 
	C363.082397,159.179611 363.144867,159.410767 363.135681,159.529846 
	C363.126526,159.648941 362.866119,159.527542 362.866119,159.527542 
	C362.866119,159.527542 362.892273,159.263092 362.987335,159.221344 
z"/>
<path fill="#5B0F68" opacity="1.000000" stroke="none" 
	d="
M428.251526,201.050873 
	C428.264465,200.858109 428.534546,200.738937 428.906677,200.776917 
	C428.842072,200.997528 428.675385,201.061005 428.251526,201.050873 
z"/>
<path fill="#772486" opacity="1.000000" stroke="none" 
	d="
M315.059753,167.734177 
	C315.126862,167.690735 315.167358,167.822342 315.181763,167.859100 
	C315.196167,167.895859 314.992615,167.777618 315.059753,167.734177 
z"/>
<path fill="#762A84" opacity="1.000000" stroke="none" 
	d="
M453.682465,177.730530 
	C453.265320,177.773865 453.189148,177.520462 453.492157,177.115448 
	C453.622772,177.031555 453.774902,177.501495 453.682465,177.730530 
z"/>
<path fill="#A5CB68" opacity="1.000000" stroke="none" 
	d="
M99.140320,318.074829 
	C99.109024,317.921539 99.340469,317.791504 99.472099,317.792236 
	C99.603729,317.792938 99.582802,318.201233 99.582802,318.201233 
	C99.582802,318.201233 99.171608,318.228119 99.140320,318.074829 
z"/>
<path fill="#A5CA66" opacity="1.000000" stroke="none" 
	d="
M28.444515,255.959106 
	C28.462790,255.059860 28.809189,254.100113 29.475037,253.074066 
	C29.453869,253.971390 29.113255,254.934998 28.444515,255.959106 
z"/>
<path fill="#A5CA66" opacity="1.000000" stroke="none" 
	d="
M28.675594,261.699677 
	C28.451872,261.777313 28.262709,261.579163 28.090868,261.106049 
	C28.288185,261.045502 28.488840,261.243103 28.675594,261.699677 
z"/>
<path fill="#F7EEF7" opacity="1.000000" stroke="none" 
	d="
M680.408203,277.382599 
	C684.592773,281.799164 682.734375,286.791840 681.895203,291.359863 
	C681.250549,294.868774 673.689392,298.128479 669.210083,297.680115 
	C664.755249,297.234222 661.902161,294.799805 660.561584,290.550568 
	C659.078430,285.849274 660.862549,280.817688 665.889465,279.151733 
	C670.301636,277.689484 675.257629,277.868256 680.408203,277.382599 
z"/>
<path fill="#F7EEF7" opacity="1.000000" stroke="none" 
	d="
M433.807648,297.401947 
	C428.342102,295.378815 426.225311,291.464142 426.798523,286.303223 
	C427.349670,281.340363 430.931732,278.651367 435.464386,277.886108 
	C439.772461,277.158722 444.235901,277.351715 448.474884,277.147552 
	C451.468292,292.709564 446.427185,297.682373 433.807648,297.401947 
z"/>
<path fill="#F7EEF7" opacity="1.000000" stroke="none" 
	d="
M590.833191,277.031555 
	C593.203125,277.311157 595.140930,277.587677 597.340759,277.901581 
	C597.340759,280.678925 597.346558,283.129181 597.339661,285.579346 
	C597.318420,293.066833 591.364868,298.376465 583.820374,297.694550 
	C578.542236,297.217499 575.910828,293.914276 574.852661,289.146790 
	C573.845093,284.607269 576.069946,281.157837 579.908691,279.434021 
	C583.118835,277.992432 586.882568,277.783386 590.833191,277.031555 
z"/>
<path fill="#69026A" opacity="1.000000" stroke="none" 
	d="
M517.053467,263.597351 
	C516.857727,266.016388 516.574280,268.075989 516.564758,270.136871 
	C516.517700,280.273285 516.543335,290.410004 516.543335,299.975342 
	C513.975342,300.353058 511.846313,300.666199 509.359863,300.978882 
	C509.576904,290.076935 510.109528,279.173065 510.747314,268.275330 
	C510.988983,264.145599 505.769104,258.333130 500.818878,258.150177 
	C496.562531,257.992889 492.231934,258.361206 488.015717,259.019409 
	C483.795593,259.678253 481.361938,265.662720 482.309998,270.595184 
	C483.235321,275.409515 483.749969,280.347443 483.914215,285.248901 
	C484.040619,289.020355 483.659515,292.887177 482.867767,296.574951 
	C482.520203,298.193848 480.589417,299.472870 479.377502,300.906219 
	C478.830353,299.341492 478.002350,297.813110 477.794128,296.204529 
	C477.351166,292.782898 476.964691,289.314209 477.034271,285.874512 
	C477.168121,279.254120 477.590515,272.637848 477.982147,266.025116 
	C478.176086,262.750671 477.930145,259.822845 474.851257,257.705597 
	C474.012634,257.128937 473.846893,255.573807 473.372314,254.467728 
	C474.682129,254.045532 476.076813,253.118988 477.281494,253.321671 
	C479.004883,253.611633 480.526978,255.137695 482.246979,255.398926 
	C485.203705,255.847977 488.305145,256.159515 491.242249,255.762589 
	C498.749908,254.747955 506.396637,251.301743 512.891724,258.612762 
	C513.710083,259.533905 515.893921,259.241913 517.907410,259.592468 
	C517.633057,260.819214 517.362549,262.028900 517.053467,263.597351 
z"/>
<path fill="#FBF4FB" opacity="1.000000" stroke="none" 
	d="
M300.058014,168.197205 
	C303.416199,170.710953 306.774384,173.224701 310.377106,175.965805 
	C310.665161,176.356201 310.708618,176.519226 310.925201,177.184128 
	C311.224396,178.108643 311.350464,178.531311 311.476532,178.953964 
	C310.783295,192.837357 295.327728,201.903946 282.869019,195.266541 
	C282.635437,186.599884 282.707489,178.223175 282.992004,169.238174 
	C283.434265,168.308899 283.664062,167.987900 283.893860,167.666901 
	C288.321930,167.745605 292.749969,167.824310 297.812286,168.046692 
	C298.983704,168.192657 299.520844,168.194946 300.058014,168.197205 
z"/>
<path fill="#721683" opacity="1.000000" stroke="none" 
	d="
M313.694489,140.763123 
	C314.134247,142.180603 314.313477,143.399658 314.769653,144.872360 
	C315.040771,147.425629 315.034973,149.725250 315.038055,152.452347 
	C314.033875,153.236832 313.020844,153.593811 312.559723,153.756302 
	C311.844879,150.704697 311.194153,147.926895 309.870972,144.925415 
	C307.556000,139.752579 303.754669,136.990036 298.945953,136.581665 
	C293.595459,136.127319 288.149353,136.798706 282.744873,136.980011 
	C281.914856,139.763229 281.084869,142.546432 280.071075,145.691620 
	C279.183685,146.046173 278.480103,146.038757 277.401428,145.622498 
	C277.013306,144.119843 277.000275,143.026016 276.987213,141.932190 
	C276.394592,139.106506 275.801941,136.280823 275.079071,132.834152 
	C275.983612,132.685196 278.118896,132.001999 280.239655,132.044327 
	C287.613312,132.191544 295.144135,131.779602 302.289368,133.208939 
	C306.332916,134.017853 309.740143,138.007614 313.694489,140.763123 
z"/>
<path fill="#670E6C" opacity="1.000000" stroke="none" 
	d="
M276.737061,142.184967 
	C277.000275,143.026016 277.013306,144.119843 277.047791,145.623199 
	C276.752594,146.247147 276.435974,146.461594 276.119354,146.676025 
	C276.241882,145.263275 276.364410,143.850510 276.737061,142.184967 
z"/>
<path fill="#670E6C" opacity="1.000000" stroke="none" 
	d="
M311.793457,178.942612 
	C311.350464,178.531311 311.224396,178.108643 311.114380,177.352249 
	C311.948853,177.259293 312.767212,177.500076 313.585571,177.740845 
	C313.093842,178.137650 312.602142,178.534454 311.793457,178.942612 
z"/>
<path fill="#FAF3FB" opacity="1.000000" stroke="none" 
	d="
M282.776062,137.448151 
	C288.149353,136.798706 293.595459,136.127319 298.945953,136.581665 
	C303.754669,136.990036 307.556000,139.752579 309.470947,144.892212 
	C309.769043,146.740997 309.886932,148.403900 309.804626,150.056839 
	C309.419556,157.788269 304.767395,162.263184 297.234161,162.207306 
	C292.919495,162.175308 288.604828,162.137177 284.290619,162.071655 
	C283.999908,162.067245 283.713104,161.808105 282.807251,161.366653 
	C282.807251,153.752274 282.807251,145.834290 282.776062,137.448151 
z"/>
<path fill="#772486" opacity="1.000000" stroke="none" 
	d="
M283.729492,167.485199 
	C283.664062,167.987900 283.434265,168.308899 282.936707,168.766907 
	C282.967651,168.370422 283.266388,167.836960 283.729492,167.485199 
z"/>
<path fill="#772486" opacity="1.000000" stroke="none" 
	d="
M299.981262,167.976501 
	C299.520844,168.194946 298.983704,168.192657 298.257843,167.981155 
	C298.680939,167.766541 299.292725,167.761169 299.981262,167.976501 
z"/>
<path fill="#F9F1F9" opacity="1.000000" stroke="none" 
	d="
M339.232666,188.166595 
	C338.664459,182.801849 338.468781,177.770233 343.781158,174.481720 
	C349.008087,171.246063 354.531372,171.218323 360.096008,172.857407 
	C361.308441,173.214539 362.693756,175.253555 362.814545,176.622482 
	C363.178223,180.744980 362.957642,184.919022 363.041199,189.534271 
	C362.990692,190.395966 362.863831,190.796356 362.460541,191.618210 
	C361.970764,192.300308 361.843414,192.597748 361.802094,192.932007 
	C361.802094,192.932007 361.369720,192.956146 360.910095,193.022064 
	C360.256287,193.378174 360.062073,193.668381 359.867859,193.958588 
	C359.867859,193.958588 359.420990,193.997665 358.862823,193.982544 
	C357.202789,194.299240 356.100891,194.631058 354.999023,194.962860 
	C351.290497,194.346436 347.581940,193.730026 343.376038,192.728607 
	C342.291565,192.073776 341.704468,191.803940 341.117340,191.534103 
	C341.117340,191.534103 341.255035,191.259033 341.165833,190.812805 
	C340.759125,190.082275 340.441650,189.797958 340.124176,189.513641 
	C339.882263,189.123550 339.640320,188.733475 339.232666,188.166595 
z"/>
<path fill="#6A1370" opacity="1.000000" stroke="none" 
	d="
M355.207947,195.232803 
	C356.100891,194.631058 357.202789,194.299240 358.649841,194.052933 
	C357.802307,194.593216 356.609558,195.047989 355.207947,195.232803 
z"/>
<path fill="#6A1370" opacity="1.000000" stroke="none" 
	d="
M362.072693,192.936768 
	C361.843414,192.597748 361.970764,192.300308 362.402557,191.928391 
	C362.811096,192.002014 363.001190,192.186935 363.191284,192.371857 
	C362.908600,192.561737 362.625946,192.751633 362.072693,192.936768 
z"/>
<path fill="#6A1370" opacity="1.000000" stroke="none" 
	d="
M341.216003,191.864624 
	C341.704468,191.803940 342.291565,192.073776 343.005859,192.649261 
	C342.526886,192.701660 341.920776,192.448395 341.216003,191.864624 
z"/>
<path fill="#6A1370" opacity="1.000000" stroke="none" 
	d="
M340.179657,189.820618 
	C340.441650,189.797958 340.759125,190.082275 341.071503,190.691315 
	C340.789307,190.719910 340.512207,190.423752 340.179657,189.820618 
z"/>
<path fill="#6A1370" opacity="1.000000" stroke="none" 
	d="
M360.095184,193.886749 
	C360.062073,193.668381 360.256287,193.378174 360.715271,193.116516 
	C360.839447,193.445465 360.620239,193.668747 360.095184,193.886749 
z"/>
<path fill="#87C12B" opacity="1.000000" stroke="none" 
	d="
M159.643738,269.873779 
	C155.599487,271.261353 151.413605,269.249146 151.382126,265.134583 
	C151.361908,262.491028 154.236221,259.825317 155.813110,257.169556 
	C158.335327,259.076599 161.080261,260.772247 163.227798,263.034882 
	C163.785263,263.622284 162.625504,266.051117 161.964722,267.502167 
	C161.581161,268.344452 160.620804,268.924103 159.643738,269.873779 
z"/>
</svg>