<svg version="1.1" id="Layer_1" xmlns="http://www.w3.org/2000/svg" xmlns:xlink="http://www.w3.org/1999/xlink" x="0px" y="0px"
	 width="100%" viewBox="0 0 768 244" enable-background="new 0 0 768 244" xml:space="preserve">
<path fill="#000000" opacity="1.000000" stroke="none" 
	d="
M596.000000,245.000000 
	C397.333344,245.000000 199.166718,245.000000 1.000053,245.000000 
	C1.000036,163.666702 1.000036,82.333397 1.000018,1.000075 
	C256.999939,1.000050 512.999878,1.000050 768.999878,1.000025 
	C768.999878,82.333260 768.999878,163.666519 768.999939,244.999893 
	C711.500000,245.000000 654.000000,245.000000 596.000000,245.000000 
M651.965759,187.044754 
	C651.965759,187.044754 651.915039,187.147385 652.857422,187.019440 
	C664.583984,187.062958 676.310608,187.106476 688.015930,187.500519 
	C688.015930,187.500519 688.116882,187.836868 688.020447,188.803528 
	C688.020447,198.362396 688.020447,207.921249 688.020447,217.532990 
	C689.282837,217.740921 689.914307,217.935150 690.546021,217.935883 
	C710.115356,217.958710 729.684631,217.975052 749.253845,217.927841 
	C750.112793,217.925766 750.970215,217.315231 751.950928,216.065826 
	C751.634888,210.292297 751.257202,204.521347 751.014526,198.744736 
	C750.319885,182.205933 749.670532,165.665222 749.020935,149.124557 
	C748.345215,131.918839 747.607666,114.714973 747.051147,97.505310 
	C746.584839,83.081947 746.442932,68.647919 745.953003,54.225555 
	C745.718811,47.330551 745.010803,40.451645 744.468079,32.877018 
	C740.901306,32.877018 737.450134,32.877018 733.493591,32.190754 
	C709.008423,32.183483 684.523254,32.176216 659.245544,32.052067 
	C656.468628,33.436119 652.497314,34.079979 651.107117,36.323341 
	C641.497192,51.830757 632.413635,67.664711 623.190247,83.410950 
	C621.419312,86.434265 622.174316,88.090744 625.886108,88.032333 
	C629.269226,87.979103 632.653870,88.021057 636.950134,88.021057 
	C614.300415,131.344727 592.169739,173.675644 569.441528,217.149399 
	C573.685913,217.403091 577.275330,217.617645 581.815063,217.999619 
	C599.421326,217.998703 617.027649,218.026352 634.633545,217.942261 
	C636.033813,217.935577 637.430359,217.155548 639.327087,216.236328 
	C643.228333,206.920532 647.129578,197.604736 651.534912,188.039505 
	C651.712708,187.724869 651.890564,187.410217 651.965759,187.044754 
M138.678223,6.250946 
	C131.558838,6.169591 124.439232,6.028358 117.320251,6.054975 
	C115.809242,6.060625 114.300529,6.678599 111.903999,6.990346 
	C107.630966,7.318259 103.307961,7.342452 99.095024,8.035623 
	C89.539497,9.607833 79.882790,10.931534 70.558250,13.438680 
	C61.129265,15.973908 51.953396,19.569525 42.867500,23.202888 
	C39.262688,24.644417 34.675785,26.698328 33.188480,29.761370 
	C29.498808,37.360092 27.296223,45.686916 24.570234,53.746277 
	C19.016825,70.164879 15.581498,86.989777 13.848242,104.269958 
	C12.098440,121.715111 12.072382,139.194092 15.460540,156.218201 
	C18.682316,172.406296 24.247135,188.148529 29.149565,203.972839 
	C31.509344,211.589874 35.534916,217.818817 44.552303,219.410110 
	C49.994122,220.370438 55.264275,222.482208 60.505093,224.371887 
	C83.097794,232.518143 106.606094,235.131973 130.388336,235.910767 
	C136.321167,236.105042 142.326248,235.678421 148.226257,234.952850 
	C159.811691,233.528076 171.507217,232.399445 182.855560,229.820816 
	C193.346375,227.437042 203.478043,223.420792 213.700745,219.927078 
	C220.533615,217.591919 226.421204,214.403061 228.455490,206.339966 
	C232.381805,190.777618 237.238235,175.446106 241.005585,159.848999 
	C243.041275,151.421143 243.624161,142.642395 244.979858,133.085236 
	C244.931168,122.733521 244.882492,112.381798 244.879715,101.201508 
	C244.589813,99.757774 244.243179,98.322769 244.019440,96.868858 
	C242.772644,88.766556 242.264038,80.470810 240.165161,72.597885 
	C236.878113,60.268272 232.654572,48.178913 228.562195,36.077579 
	C226.663788,30.463923 223.301605,26.410702 216.889038,24.732950 
	C207.630035,22.310474 198.729156,18.549997 189.522507,15.889846 
	C173.074951,11.137527 156.472122,7.014738 138.678223,6.250946 
M568.547302,91.955971 
	C578.268311,95.519119 587.989258,99.082260 598.690369,103.004639 
	C601.031311,99.232994 604.147827,94.286743 607.189758,89.295044 
	C613.436646,79.044174 619.652527,68.774376 625.863159,58.501507 
	C628.986450,53.335339 628.717590,52.165150 623.432678,49.241421 
	C621.573975,48.213127 619.454712,47.667774 617.536011,46.734165 
	C606.630981,41.428032 595.750671,36.071121 584.591797,30.599010 
	C582.446472,35.863251 578.271973,34.815071 574.355713,34.988266 
	C563.190552,35.482040 551.960327,35.625935 540.903076,37.051037 
	C533.248962,38.037529 525.832458,40.895027 518.321838,42.960304 
	C505.802826,46.402802 494.435791,52.369221 484.308746,60.274406 
	C468.220123,72.833275 455.922424,88.609116 449.055786,107.942375 
	C445.846497,116.978279 444.418610,126.646896 442.064270,136.957230 
	C442.053345,141.772095 441.781189,146.604538 442.103729,151.396957 
	C442.437225,156.352203 443.348206,161.268585 443.997589,167.008453 
	C445.197906,171.411163 445.817261,176.083237 447.709595,180.165131 
	C452.976410,191.526108 460.674652,200.677246 471.189301,208.072510 
	C486.301392,218.701218 502.874847,224.262833 520.929382,224.762894 
	C531.904114,225.066864 542.942627,223.058945 553.952759,222.092560 
	C559.045471,221.645569 562.367249,219.046066 564.387390,214.287720 
	C570.692566,199.436279 577.191345,184.667130 583.579163,169.850601 
	C585.162476,166.178192 586.609558,162.447083 588.476624,157.866150 
	C586.499695,158.356369 585.500000,158.367920 584.774109,158.819580 
	C573.059021,166.109085 559.890625,169.177292 546.515076,169.634979 
	C538.547546,169.907608 530.425171,166.932343 522.454224,165.067444 
	C519.988220,164.490494 517.626160,163.000092 515.501160,161.519424 
	C507.708435,156.089615 504.389709,148.074417 503.209259,139.022797 
	C501.626587,126.887428 505.987915,116.391068 513.998779,107.878410 
	C520.519714,100.949028 529.316833,96.869484 539.122253,93.853912 
	C548.551086,91.753929 558.003967,89.986610 568.547302,91.955971 
M276.373657,209.246368 
	C275.998535,210.697876 275.623383,212.149399 275.188629,213.831543 
	C279.174164,213.831543 282.574799,213.831543 286.419312,213.964569 
	C286.419312,213.964569 286.877533,214.033569 287.108887,214.443405 
	C287.448639,214.306946 287.788391,214.170486 288.564819,213.969818 
	C288.564819,213.969818 288.986908,213.840652 289.923035,213.955078 
	C304.967804,213.968903 320.012634,214.008698 335.057373,213.988968 
	C349.027740,213.970657 362.998016,213.888809 377.806458,213.951202 
	C383.243317,212.775116 388.860901,212.122604 394.081665,210.320496 
	C407.415680,205.717758 418.716217,197.917465 427.609039,186.883881 
	C434.323578,178.552917 438.572571,168.889496 437.753571,158.247726 
	C436.911377,147.304413 433.374817,136.910675 425.402405,128.596008 
	C423.115265,126.210670 421.310913,123.362381 419.171692,120.578674 
	C431.028168,114.020821 440.132080,105.622520 447.077820,94.595306 
	C457.121796,78.649307 455.606079,60.391453 442.486908,46.757969 
	C433.310364,37.221619 421.525635,33.559441 409.465271,31.240810 
	C400.248322,29.468840 390.537445,30.265747 380.550385,29.212593 
	C371.633453,29.194860 362.716522,29.177128 352.971466,29.026556 
	C344.868134,29.348360 336.766388,29.825722 328.660583,29.910450 
	C325.687286,29.941532 324.062286,30.606165 322.607056,33.502445 
	C315.830505,46.989250 308.698578,60.297619 301.677948,73.661537 
	C299.470978,77.862579 297.214905,82.037834 294.527985,87.074631 
	C297.873627,87.074631 300.501251,87.055641 303.128540,87.078819 
	C307.736206,87.119484 308.665436,88.373291 307.414764,92.863068 
	C305.962250,98.077576 304.388336,103.260498 303.044220,108.502541 
	C299.902649,120.754738 296.990479,133.066711 293.760834,145.295166 
	C288.320557,165.893738 282.705994,186.446304 277.082550,207.517075 
	C277.105835,207.683990 277.129089,207.850891 277.032227,208.398087 
	C277.032227,208.398087 276.989349,208.794586 276.373657,209.246368 
z"/>
<path fill="#1A4594" opacity="1.000000" stroke="none" 
	d="
M286.877533,214.033569 
	C286.877533,214.033569 286.419312,213.964569 285.827271,213.787018 
	C282.184418,212.522034 277.654724,213.967316 276.989349,208.794586 
	C276.989349,208.794586 277.032227,208.398087 277.102722,208.082550 
	C277.186890,207.517334 277.184082,207.267746 277.164734,207.018234 
	C282.705994,186.446304 288.320557,165.893738 293.760834,145.295166 
	C296.990479,133.066711 299.902649,120.754738 303.044220,108.502541 
	C304.388336,103.260498 305.962250,98.077576 307.414764,92.863068 
	C308.665436,88.373291 307.736206,87.119484 303.128540,87.078819 
	C300.501251,87.055641 297.873627,87.074631 294.527985,87.074631 
	C297.214905,82.037834 299.470978,77.862579 301.677948,73.661537 
	C308.698578,60.297619 315.830505,46.989250 322.607056,33.502445 
	C324.062286,30.606165 325.687286,29.941532 328.660583,29.910450 
	C336.766388,29.825722 344.868134,29.348360 353.721008,29.376925 
	C363.329132,29.791517 372.187714,29.855740 381.046295,29.919962 
	C390.537445,30.265747 400.248322,29.468840 409.465271,31.240810 
	C421.525635,33.559441 433.310364,37.221619 442.486908,46.757969 
	C455.606079,60.391453 457.121796,78.649307 447.077820,94.595306 
	C440.132080,105.622520 431.028168,114.020821 419.171692,120.578674 
	C421.310913,123.362381 423.115265,126.210670 425.402405,128.596008 
	C433.374817,136.910675 436.911377,147.304413 437.753571,158.247726 
	C438.572571,168.889496 434.323578,178.552917 427.609039,186.883881 
	C418.716217,197.917465 407.415680,205.717758 394.081665,210.320496 
	C388.860901,212.122604 383.243317,212.775116 376.996277,213.772812 
	C374.373108,213.401688 372.560333,213.044083 370.747009,213.041107 
	C345.627441,212.999771 320.507782,212.986832 295.388245,213.038940 
	C293.253937,213.043365 291.120667,213.561279 288.986908,213.840652 
	C288.986908,213.840652 288.564819,213.969818 288.033630,214.000427 
	C287.294128,214.031876 287.085815,214.032730 286.877533,214.033569 
M376.011292,164.029282 
	C376.011292,164.029282 375.915283,163.999191 376.448395,163.722778 
	C376.960266,163.410110 377.472168,163.097458 378.302277,162.200363 
	C379.605804,160.519775 381.005737,158.904388 382.194672,157.146301 
	C385.697479,151.966614 384.347443,145.499420 378.303345,141.519684 
	C369.861633,141.762955 361.419891,142.006241 352.965302,142.524368 
	C352.965302,142.524368 352.860382,142.778717 352.541779,143.212051 
	C352.367188,143.523590 352.192596,143.835129 352.011292,144.956070 
	C350.948395,149.991486 349.885498,155.026901 348.357239,160.503265 
	C346.317841,163.408432 345.316071,166.550064 350.230194,166.748199 
	C357.148834,167.027145 364.104095,166.397766 371.414368,166.038788 
	C371.414368,166.038788 371.801117,165.997314 372.278625,165.724380 
	C372.586029,165.522263 372.893402,165.320145 373.451263,165.017273 
	C373.451263,165.017273 373.720825,165.002090 374.336334,164.814682 
	C374.904694,164.520874 375.473053,164.227081 376.011292,164.029282 
M392.506683,85.054062 
	C390.670654,84.047035 388.887665,82.309464 386.988525,82.171547 
	C381.542084,81.776016 376.046753,81.957222 370.575287,82.095100 
	C369.641571,82.118622 368.107544,82.870621 367.905945,83.584183 
	C365.978241,90.407181 364.277710,97.294357 362.298889,104.991875 
	C369.174194,104.991875 374.776855,105.030724 380.378784,104.983490 
	C390.827148,104.895401 397.051514,95.354691 392.506683,85.054062 
z"/>
<path fill="#1A4594" opacity="1.000000" stroke="none" 
	d="
M651.030884,188.288940 
	C647.129578,197.604736 643.228333,206.920532 638.623169,216.527039 
	C620.815552,216.850250 603.711792,216.854248 586.608582,216.955063 
	C584.692322,216.966354 582.779297,217.526550 580.864807,217.832184 
	C577.275330,217.617645 573.685913,217.403091 569.441528,217.149399 
	C592.169739,173.675644 614.300415,131.344727 636.950134,88.021057 
	C632.653870,88.021057 629.269226,87.979103 625.886108,88.032333 
	C622.174316,88.090744 621.419312,86.434265 623.190247,83.410950 
	C632.413635,67.664711 641.497192,51.830757 651.107117,36.323341 
	C652.497314,34.079979 656.468628,33.436119 659.994995,32.326176 
	C685.162598,32.692528 709.580811,32.784775 733.999023,32.877018 
	C737.450134,32.877018 740.901306,32.877018 744.468079,32.877018 
	C745.010803,40.451645 745.718811,47.330551 745.953003,54.225555 
	C746.442932,68.647919 746.584839,83.081947 747.051147,97.505310 
	C747.607666,114.714973 748.345215,131.918839 749.020935,149.124557 
	C749.670532,165.665222 750.319885,182.205933 751.014526,198.744736 
	C751.257202,204.521347 751.634888,210.292297 751.432007,216.531464 
	C733.151794,217.004593 715.390442,217.027802 697.629150,217.012589 
	C689.444092,217.005569 689.172058,216.580490 688.996887,208.150635 
	C688.856079,201.376205 688.421265,194.607895 688.116943,187.836868 
	C688.116882,187.836868 688.015930,187.500519 687.814392,186.937866 
	C676.206726,186.257950 664.800720,186.126511 653.394287,186.071625 
	C652.902954,186.069260 652.408203,186.772736 651.915039,187.147400 
	C651.915039,187.147385 651.965759,187.044754 651.802063,187.228424 
	C651.435852,187.704376 651.233337,187.996643 651.030884,188.288940 
M686.965637,104.220428 
	C686.906738,104.493362 686.867432,104.769157 686.668823,105.730339 
	C682.055908,116.501030 677.443054,127.271713 672.372375,138.362320 
	C670.070190,140.599960 671.481079,141.589264 673.737854,141.800949 
	C676.534668,142.063278 679.374023,141.835526 682.183594,142.006989 
	C687.032471,142.302933 689.114807,140.205078 689.032654,135.279938 
	C688.861267,125.001877 688.996887,114.718887 688.957336,104.438118 
	C688.953369,103.414795 688.611694,102.392776 688.426758,101.370155 
	C688.180725,101.375175 687.934692,101.380203 687.688660,101.385231 
	C687.471802,102.303711 687.254944,103.222198 686.939209,104.048691 
	C686.939209,104.048691 687.031128,103.949799 686.965637,104.220428 
z"/>
<path fill="#1B4594" opacity="1.000000" stroke="none" 
	d="
M442.183319,136.028748 
	C444.418610,126.646896 445.846497,116.978279 449.055786,107.942375 
	C455.922424,88.609116 468.220123,72.833275 484.308746,60.274406 
	C494.435791,52.369221 505.802826,46.402802 518.321838,42.960304 
	C525.832458,40.895027 533.248962,38.037529 540.903076,37.051037 
	C551.960327,35.625935 563.190552,35.482040 574.355713,34.988266 
	C578.271973,34.815071 582.446472,35.863251 584.591797,30.599010 
	C595.750671,36.071121 606.630981,41.428032 617.536011,46.734165 
	C619.454712,47.667774 621.573975,48.213127 623.432678,49.241421 
	C628.717590,52.165150 628.986450,53.335339 625.863159,58.501507 
	C619.652527,68.774376 613.436646,79.044174 607.189758,89.295044 
	C604.147827,94.286743 601.031311,99.232994 598.690369,103.004639 
	C587.989258,99.082260 578.268311,95.519119 567.859741,91.672279 
	C557.291077,88.748505 547.690613,89.493858 538.383545,93.776115 
	C529.316833,96.869484 520.519714,100.949028 513.998779,107.878410 
	C505.987915,116.391068 501.626587,126.887428 503.209259,139.022797 
	C504.389709,148.074417 507.708435,156.089615 515.501160,161.519424 
	C517.626160,163.000092 519.988220,164.490494 522.454224,165.067444 
	C530.425171,166.932343 538.547546,169.907608 546.515076,169.634979 
	C559.890625,169.177292 573.059021,166.109085 584.774109,158.819580 
	C585.500000,158.367920 586.499695,158.356369 588.476624,157.866150 
	C586.609558,162.447083 585.162476,166.178192 583.579163,169.850601 
	C577.191345,184.667130 570.692566,199.436279 564.387390,214.287720 
	C562.367249,219.046066 559.045471,221.645569 553.952759,222.092560 
	C542.942627,223.058945 531.904114,225.066864 520.929382,224.762894 
	C502.874847,224.262833 486.301392,218.701218 471.189301,208.072510 
	C460.674652,200.677246 452.976410,191.526108 447.709595,180.165131 
	C445.817261,176.083237 445.197906,171.411163 444.011475,166.148331 
	C443.411346,155.535049 442.797333,145.781906 442.183319,136.028748 
z"/>
<path fill="#224A94" opacity="1.000000" stroke="none" 
	d="
M244.862457,134.021942 
	C243.624161,142.642395 243.041275,151.421143 241.005585,159.848999 
	C237.238235,175.446106 232.381805,190.777618 228.455490,206.339966 
	C226.421204,214.403061 220.533615,217.591919 213.700745,219.927078 
	C203.478043,223.420792 193.346375,227.437042 182.855560,229.820816 
	C171.507217,232.399445 159.811691,233.528076 148.226257,234.952850 
	C142.326248,235.678421 136.321167,236.105042 130.388336,235.910767 
	C106.606094,235.131973 83.097794,232.518143 60.505093,224.371887 
	C55.264275,222.482208 49.994122,220.370438 44.552303,219.410110 
	C35.534916,217.818817 31.509344,211.589874 29.149565,203.972839 
	C24.247135,188.148529 18.682316,172.406296 15.460540,156.218201 
	C12.072382,139.194092 12.098440,121.715111 13.848242,104.269958 
	C15.581498,86.989777 19.016825,70.164879 24.570234,53.746277 
	C27.296223,45.686916 29.498808,37.360092 33.188480,29.761370 
	C34.675785,26.698328 39.262688,24.644417 42.867500,23.202888 
	C51.953396,19.569525 61.129265,15.973908 70.558250,13.438680 
	C79.882790,10.931534 89.539497,9.607833 99.095024,8.035623 
	C103.307961,7.342452 107.630966,7.318259 112.829620,7.045722 
	C122.226456,7.065564 130.697662,7.030029 139.168869,6.994494 
	C156.472122,7.014738 173.074951,11.137527 189.522507,15.889846 
	C198.729156,18.549997 207.630035,22.310474 216.889038,24.732950 
	C223.301605,26.410702 226.663788,30.463923 228.562195,36.077579 
	C232.654572,48.178913 236.878113,60.268272 240.165161,72.597885 
	C242.264038,80.470810 242.772644,88.766556 244.019440,96.868858 
	C244.243179,98.322769 244.589813,99.757774 244.736542,102.007088 
	C244.683075,113.215759 244.772766,123.618851 244.862457,134.021942 
M19.617981,108.790802 
	C19.694111,118.199875 19.770241,127.608948 19.987883,137.849579 
	C20.322283,139.454208 20.829725,141.044449 20.964745,142.665680 
	C22.600903,162.311981 26.959221,181.316360 34.871304,199.385651 
	C37.038757,204.335587 36.873062,210.830063 44.695721,212.443268 
	C51.771427,213.902466 58.278564,217.967407 65.320930,219.774582 
	C76.244072,222.577591 87.347107,224.831436 98.489250,226.584946 
	C108.895470,228.222641 119.451195,229.763840 129.942612,229.773788 
	C141.098557,229.784363 152.340347,228.483826 163.388733,226.757767 
	C173.727371,225.142593 183.962814,222.581207 194.053391,219.756485 
	C201.771683,217.595856 209.254929,214.526886 216.696350,211.501801 
	C218.248077,210.870987 219.589752,208.835770 220.281296,207.142670 
	C222.386703,201.988098 224.327820,196.746597 225.975250,191.428162 
	C233.816116,166.115448 240.295441,140.563522 238.198776,113.690186 
	C237.402573,103.485329 237.032745,93.195808 235.392670,83.120003 
	C232.799942,67.191528 227.433228,52.015656 221.242813,37.105659 
	C219.896210,33.862289 218.260223,31.760210 215.149002,30.615360 
	C210.209976,28.797924 205.377533,26.521906 200.293304,25.299648 
	C184.984161,21.619299 169.663330,17.872496 154.184341,15.041181 
	C131.789886,10.944940 109.245415,11.719739 87.198257,17.068371 
	C71.931770,20.772015 57.106010,26.314430 42.148548,31.233551 
	C40.747929,31.694178 39.378983,33.387447 38.733887,34.837067 
	C30.256266,53.887436 25.281382,73.939423 21.990175,94.456116 
	C21.266180,98.969360 20.559366,103.485352 19.617981,108.790802 
z"/>
<path fill="#335796" opacity="1.000000" stroke="none" 
	d="
M688.068726,188.320190 
	C688.421265,194.607895 688.856079,201.376205 688.996887,208.150635 
	C689.172058,216.580490 689.444092,217.005569 697.629150,217.012589 
	C715.390442,217.027802 733.151794,217.004593 751.370728,216.992584 
	C750.970215,217.315231 750.112793,217.925766 749.253845,217.927841 
	C729.684631,217.975052 710.115356,217.958710 690.546021,217.935883 
	C689.914307,217.935150 689.282837,217.740921 688.020447,217.532990 
	C688.020447,207.921249 688.020447,198.362396 688.068726,188.320190 
z"/>
<path fill="#284D92" opacity="1.000000" stroke="none" 
	d="
M289.454956,213.897858 
	C291.120667,213.561279 293.253937,213.043365 295.388245,213.038940 
	C320.507782,212.986832 345.627441,212.999771 370.747009,213.041107 
	C372.560333,213.044083 374.373108,213.401688 376.577240,213.714676 
	C362.998016,213.888809 349.027740,213.970657 335.057373,213.988968 
	C320.012634,214.008698 304.967804,213.968903 289.454956,213.897858 
z"/>
<path fill="#6987B6" opacity="1.000000" stroke="none" 
	d="
M733.746338,32.533886 
	C709.580811,32.784775 685.162598,32.692528 660.391235,32.384613 
	C684.523254,32.176216 709.008423,32.183483 733.746338,32.533886 
z"/>
<path fill="#6F89AE" opacity="1.000000" stroke="none" 
	d="
M581.339966,217.915894 
	C582.779297,217.526550 584.692322,216.966354 586.608582,216.955063 
	C603.711792,216.854248 620.815552,216.850250 638.373901,216.776306 
	C637.430359,217.155548 636.033813,217.935577 634.633545,217.942261 
	C617.027649,218.026352 599.421326,217.998703 581.339966,217.915894 
z"/>
<path fill="#4C6CA2" opacity="1.000000" stroke="none" 
	d="
M538.752930,93.815018 
	C547.690613,89.493858 557.291077,88.748505 567.443420,91.589111 
	C558.003967,89.986610 548.551086,91.753929 538.752930,93.815018 
z"/>
<path fill="#93AACD" opacity="1.000000" stroke="none" 
	d="
M652.386230,187.083420 
	C652.408203,186.772736 652.902954,186.069260 653.394287,186.071625 
	C664.800720,186.126511 676.206726,186.257950 687.825012,186.762604 
	C676.310608,187.106476 664.583984,187.062958 652.386230,187.083420 
z"/>
<path fill="#2E5291" opacity="1.000000" stroke="none" 
	d="
M244.921143,133.553589 
	C244.772766,123.618851 244.683075,113.215759 244.713593,102.421371 
	C244.882492,112.381798 244.931168,122.733521 244.921143,133.553589 
z"/>
<path fill="#355795" opacity="1.000000" stroke="none" 
	d="
M442.123779,136.492981 
	C442.797333,145.781906 443.411346,155.535049 444.015991,165.745087 
	C443.348206,161.268585 442.437225,156.352203 442.103729,151.396957 
	C441.781189,146.604538 442.053345,141.772095 442.123779,136.492981 
z"/>
<path fill="#6B85AE" opacity="1.000000" stroke="none" 
	d="
M380.798340,29.566277 
	C372.187714,29.855740 363.329132,29.791517 354.135071,29.443344 
	C362.716522,29.177128 371.633453,29.194860 380.798340,29.566277 
z"/>
<path fill="#4E6C9F" opacity="1.000000" stroke="none" 
	d="
M138.923553,6.622720 
	C130.697662,7.030029 122.226456,7.065564 113.273003,7.057778 
	C114.300529,6.678599 115.809242,6.060625 117.320251,6.054975 
	C124.439232,6.028358 131.558838,6.169591 138.923553,6.622720 
z"/>
<path fill="#284D92" opacity="1.000000" stroke="none" 
	d="
M276.681519,209.020477 
	C277.654724,213.967316 282.184418,212.522034 285.605347,213.720490 
	C282.574799,213.831543 279.174164,213.831543 275.188629,213.831543 
	C275.623383,212.149399 275.998535,210.697876 276.681519,209.020477 
z"/>
<path fill="#335796" opacity="1.000000" stroke="none" 
	d="
M651.282898,188.164215 
	C651.233337,187.996643 651.435852,187.704376 651.853394,187.253845 
	C651.890564,187.410217 651.712708,187.724869 651.282898,188.164215 
z"/>
<path fill="#284D92" opacity="1.000000" stroke="none" 
	d="
M277.123657,207.267654 
	C277.184082,207.267746 277.186890,207.517334 277.162781,207.892395 
	C277.129089,207.850891 277.105835,207.683990 277.123657,207.267654 
z"/>
<path fill="#284D92" opacity="1.000000" stroke="none" 
	d="
M286.993225,214.238495 
	C287.085815,214.032730 287.294128,214.031876 287.815277,214.032532 
	C287.788391,214.170486 287.448639,214.306946 286.993225,214.238495 
z"/>
<path fill="#000000" opacity="1.000000" stroke="none" 
	d="
M373.720825,165.002090 
	C373.720825,165.002090 373.451263,165.017273 373.021606,165.071960 
	C372.328369,165.416870 372.064758,165.707108 371.801147,165.997314 
	C371.801117,165.997314 371.414368,166.038788 370.757141,166.041931 
	C362.845978,166.045074 355.592010,166.045074 347.865387,166.045074 
	C348.266174,163.540207 348.544403,161.801270 348.822632,160.062317 
	C349.885498,155.026901 350.948395,149.991486 352.279327,144.416016 
	C352.651703,143.510223 352.756042,143.144470 352.860382,142.778717 
	C352.860382,142.778717 352.965302,142.524368 353.436096,142.299255 
	C362.298798,141.997116 370.690643,141.920090 379.082520,141.843079 
	C384.347443,145.499420 385.697479,151.966614 382.194672,157.146301 
	C381.005737,158.904388 379.605804,160.519775 377.842163,162.587524 
	C376.893127,163.316193 376.404205,163.657700 375.915283,163.999207 
	C375.915283,163.999191 376.011292,164.029282 375.683228,164.001541 
	C374.810394,164.316559 374.265594,164.659332 373.720825,165.002090 
z"/>
<path fill="#000000" opacity="1.000000" stroke="none" 
	d="
M392.772217,85.342667 
	C397.051514,95.354691 390.827148,104.895401 380.378784,104.983490 
	C374.776855,105.030724 369.174194,104.991875 362.298889,104.991875 
	C364.277710,97.294357 365.978241,90.407181 367.905945,83.584183 
	C368.107544,82.870621 369.641571,82.118622 370.575287,82.095100 
	C376.046753,81.957222 381.542084,81.776016 386.988525,82.171547 
	C388.887665,82.309464 390.670654,84.047035 392.772217,85.342667 
z"/>
<path fill="#2F5391" opacity="1.000000" stroke="none" 
	d="
M348.589935,160.282791 
	C348.544403,161.801270 348.266174,163.540207 347.865387,166.045074 
	C355.592010,166.045074 362.845978,166.045074 370.571808,166.100937 
	C364.104095,166.397766 357.148834,167.027145 350.230194,166.748199 
	C345.316071,166.550064 346.317841,163.408432 348.589935,160.282791 
z"/>
<path fill="#3E5F93" opacity="1.000000" stroke="none" 
	d="
M378.692932,141.681381 
	C370.690643,141.920090 362.298798,141.997116 353.442566,142.161819 
	C361.419891,142.006241 369.861633,141.762955 378.692932,141.681381 
z"/>
<path fill="#2F5391" opacity="1.000000" stroke="none" 
	d="
M376.181824,163.860992 
	C376.404205,163.657700 376.893127,163.316193 377.683044,162.879761 
	C377.472168,163.097458 376.960266,163.410110 376.181824,163.860992 
z"/>
<path fill="#2F5391" opacity="1.000000" stroke="none" 
	d="
M374.028564,164.908386 
	C374.265594,164.659332 374.810394,164.316559 375.698303,163.953537 
	C375.473053,164.227081 374.904694,164.520874 374.028564,164.908386 
z"/>
<path fill="#2F5391" opacity="1.000000" stroke="none" 
	d="
M372.039886,165.860855 
	C372.064758,165.707108 372.328369,165.416870 372.896393,165.122345 
	C372.893402,165.320145 372.586029,165.522263 372.039886,165.860855 
z"/>
<path fill="#3E5F93" opacity="1.000000" stroke="none" 
	d="
M352.701080,142.995392 
	C352.756042,143.144470 352.651703,143.510223 352.282684,144.011322 
	C352.192596,143.835129 352.367188,143.523590 352.701080,142.995392 
z"/>
<path fill="#000000" opacity="1.000000" stroke="none" 
	d="
M672.830139,138.042419 
	C677.443054,127.271713 682.055908,116.501030 686.822510,105.117447 
	C686.994507,104.319633 687.012817,104.134712 687.031128,103.949799 
	C687.031128,103.949799 686.939209,104.048691 687.320801,104.346985 
	C687.702454,116.634033 687.702454,128.622772 687.702454,140.997086 
	C683.224548,140.997086 679.259766,141.176331 675.334473,140.862518 
	C674.430298,140.790222 673.661316,139.027328 672.830139,138.042419 
z"/>
<path fill="#2C508F" opacity="1.000000" stroke="none" 
	d="
M672.601257,138.202377 
	C673.661316,139.027328 674.430298,140.790222 675.334473,140.862518 
	C679.259766,141.176331 683.224548,140.997086 687.702454,140.997086 
	C687.702454,128.622772 687.702454,116.634033 687.370239,104.392990 
	C687.254944,103.222198 687.471802,102.303711 687.688660,101.385231 
	C687.934692,101.380203 688.180725,101.375175 688.426758,101.370155 
	C688.611694,102.392776 688.953369,103.414795 688.957336,104.438118 
	C688.996887,114.718887 688.861267,125.001877 689.032654,135.279938 
	C689.114807,140.205078 687.032471,142.302933 682.183594,142.006989 
	C679.374023,141.835526 676.534668,142.063278 673.737854,141.800949 
	C671.481079,141.589264 670.070190,140.599960 672.601257,138.202377 
z"/>
<path fill="#2C508F" opacity="1.000000" stroke="none" 
	d="
M686.998413,104.085114 
	C687.012817,104.134712 686.994507,104.319633 686.911926,104.776184 
	C686.867432,104.769157 686.906738,104.493362 686.998413,104.085114 
z"/>
<path fill="#000000" opacity="1.000000" stroke="none" 
	d="
M19.844643,108.000084 
	C20.559366,103.485352 21.266180,98.969360 21.990175,94.456116 
	C25.281382,73.939423 30.256266,53.887436 38.733887,34.837067 
	C39.378983,33.387447 40.747929,31.694178 42.148548,31.233551 
	C57.106010,26.314430 71.931770,20.772015 87.198257,17.068371 
	C109.245415,11.719739 131.789886,10.944940 154.184341,15.041181 
	C169.663330,17.872496 184.984161,21.619299 200.293304,25.299648 
	C205.377533,26.521906 210.209976,28.797924 215.149002,30.615360 
	C218.260223,31.760210 219.896210,33.862289 221.242813,37.105659 
	C227.433228,52.015656 232.799942,67.191528 235.392670,83.120003 
	C237.032745,93.195808 237.402573,103.485329 238.198776,113.690186 
	C240.295441,140.563522 233.816116,166.115448 225.975250,191.428162 
	C224.327820,196.746597 222.386703,201.988098 220.281296,207.142670 
	C219.589752,208.835770 218.248077,210.870987 216.696350,211.501801 
	C209.254929,214.526886 201.771683,217.595856 194.053391,219.756485 
	C183.962814,222.581207 173.727371,225.142593 163.388733,226.757767 
	C152.340347,228.483826 141.098557,229.784363 129.942612,229.773788 
	C119.451195,229.763840 108.895470,228.222641 98.489250,226.584946 
	C87.347107,224.831436 76.244072,222.577591 65.320930,219.774582 
	C58.278564,217.967407 51.771427,213.902466 44.695721,212.443268 
	C36.873062,210.830063 37.038757,204.335587 34.871304,199.385651 
	C26.959221,181.316360 22.600903,162.311981 20.964745,142.665680 
	C20.829725,141.044449 20.322283,139.454208 19.978481,136.965073 
	C19.927603,126.720406 19.886124,117.360245 19.844643,108.000084 
M99.999374,39.997456 
	C99.999374,39.997456 99.981438,39.942707 99.483734,40.114204 
	C99.303391,40.404507 99.123055,40.694813 98.988998,40.953476 
	C98.988998,40.953476 98.935509,40.936665 98.342300,41.199348 
	C97.864868,42.119308 97.387444,43.039268 96.970482,43.984638 
	C96.970482,43.984638 96.985710,43.920841 96.519211,44.094555 
	C96.196411,44.293335 96.068985,44.579128 95.958931,45.469574 
	C95.891388,45.639076 95.823853,45.808578 95.386909,46.112228 
	C95.154839,46.266872 95.018845,46.482265 94.435524,47.204369 
	C94.235367,48.109871 94.035210,49.015373 93.407928,50.101704 
	C93.115723,50.308029 93.017052,50.583809 92.993202,51.417904 
	C92.960709,51.582413 92.928207,51.746925 92.294815,52.391041 
	C90.288589,59.596909 88.691208,66.810875 92.002792,74.592781 
	C92.002792,74.592781 92.151878,75.062958 92.046402,75.654579 
	C92.315262,76.134712 92.584129,76.614845 92.987152,77.595001 
	C93.034592,77.760918 93.082031,77.926842 93.042824,78.680092 
	C93.343987,79.138527 93.645149,79.596954 93.997398,80.028679 
	C93.997398,80.028679 93.948425,79.998260 93.985359,80.602539 
	C94.268257,81.088379 94.551155,81.574211 95.093414,82.539085 
	C95.379799,82.757050 95.666176,82.975014 96.114586,83.601761 
	C96.292389,83.855865 96.533897,84.010704 96.992363,84.554214 
	C97.045876,84.716072 97.099380,84.877937 97.168640,85.508461 
	C97.323112,85.802994 97.561546,85.990997 98.103714,86.529922 
	C98.373985,86.725792 98.644257,86.921669 98.915184,87.711449 
	C98.614998,88.187775 98.314819,88.664101 97.379959,88.828262 
	C92.290565,86.871796 87.201172,84.915337 81.684120,82.365608 
	C79.437607,82.207008 77.191086,82.048409 74.279373,81.976776 
	C73.836815,82.037231 73.394257,82.097679 72.323570,82.055222 
	C71.902130,82.091400 71.480698,82.127571 70.516235,82.092728 
	C70.335579,82.118980 70.154930,82.145241 69.480186,82.207207 
	C69.177773,82.387154 68.986679,82.648514 69.004364,83.034149 
	C69.004364,83.034149 69.047256,82.936684 68.345879,82.973221 
	C67.529594,83.291496 66.713310,83.609772 65.256134,84.012543 
	C64.487930,84.373146 63.719730,84.733757 62.439251,85.112839 
	C62.273773,85.396469 62.108295,85.680099 61.984352,86.001518 
	C61.984352,86.001518 61.971214,85.947014 61.505821,86.064369 
	C61.208344,86.227707 61.023540,86.475128 60.479347,87.079575 
	C60.267723,87.370171 60.056099,87.660767 59.269028,88.009781 
	C58.824551,88.326424 58.380074,88.643074 57.971210,88.936020 
	C57.971210,88.936020 57.924366,88.939003 57.332367,89.220886 
	C56.528614,90.453468 55.724865,91.686050 54.938042,92.976143 
	C54.938042,92.976143 54.984184,92.937874 54.483700,93.108902 
	C54.302902,93.400681 54.122101,93.692459 53.998219,93.996750 
	C53.998219,93.996750 53.981915,93.940796 53.483772,94.108772 
	C53.305210,94.399040 53.126648,94.689308 52.966221,94.934875 
	C52.966221,94.934875 52.920723,94.951111 52.319344,95.327286 
	C51.269238,98.550629 50.219131,101.773972 49.051613,105.831314 
	C49.089653,107.231987 49.127693,108.632668 49.048016,110.810356 
	C49.087570,111.854813 49.127125,112.899277 49.052567,114.750702 
	C49.091885,115.834175 49.131207,116.917648 49.086842,118.646355 
	C49.447166,119.412216 49.807491,120.178085 50.091171,121.473404 
	C50.114986,121.650139 50.138798,121.826866 50.245182,122.611626 
	C50.808689,123.430077 51.372196,124.248520 51.985271,125.030220 
	C51.985271,125.030220 51.934689,124.994904 52.111691,125.494728 
	C52.389481,125.701599 52.667271,125.908463 53.211090,126.674446 
	C53.438122,127.430801 53.665157,128.187149 53.266678,129.015518 
	C52.563877,129.680206 51.861076,130.344910 51.012516,131.450363 
	C51.012516,131.450363 50.896935,131.899963 50.384567,132.204147 
	C50.298088,132.770737 50.211609,133.337341 49.996677,134.400482 
	C49.962162,134.567932 49.927647,134.735382 49.309151,135.338974 
	C49.256706,136.536713 49.204258,137.734436 49.010448,139.407043 
	C49.010448,139.407043 48.900055,139.890060 48.250763,140.453873 
	C48.153816,144.555588 47.686367,148.694809 48.096180,152.745255 
	C48.349915,155.253082 49.936714,157.626022 50.944553,160.063995 
	C50.944553,160.063995 50.917152,160.086990 50.990044,160.773041 
	C52.298782,161.877380 53.607521,162.981735 54.977100,164.058853 
	C54.977100,164.058853 54.942291,164.002014 55.041851,164.475098 
	C55.195652,164.781677 55.439739,164.972839 56.154602,165.557846 
	C56.746681,165.768631 57.338757,165.979416 58.112251,166.611542 
	C58.112251,166.611542 58.475033,166.895874 58.475033,166.895874 
	C58.475033,166.895874 58.936241,166.888046 59.413166,166.995361 
	C59.413166,166.995361 59.897087,167.064621 60.218498,167.568253 
	C60.785580,167.664612 61.352657,167.760956 62.393124,168.000198 
	C62.393124,168.000198 62.872307,168.122238 63.355347,168.749573 
	C71.895256,170.900986 80.459747,171.288498 89.946419,169.029648 
	C92.639961,168.970261 95.333504,168.910873 98.603699,169.166138 
	C99.402710,169.394012 100.201714,169.621872 101.715065,169.955246 
	C102.436630,169.981201 103.158203,170.007156 104.100250,170.470062 
	C104.305504,170.780167 104.590782,170.900375 105.415657,170.963715 
	C105.415657,170.963715 105.887886,171.040604 105.989227,171.704361 
	C106.962189,172.842773 107.935150,173.981201 108.982147,175.748795 
	C109.044075,176.165939 109.106003,176.583069 109.060997,177.792740 
	C108.958763,180.978256 111.209480,181.350891 113.390800,180.866257 
	C114.699631,180.575470 115.755089,179.144287 115.996170,178.954895 
	C118.008423,179.608963 119.887032,180.219589 122.644119,180.639160 
	C122.738480,178.526169 122.830360,176.413055 122.927658,174.300186 
	C123.224640,167.851532 123.523712,161.402969 123.994270,155.494827 
	C124.049263,155.675735 124.104256,155.856644 124.037933,156.961639 
	C124.082443,164.565414 124.126953,172.169174 124.055565,180.525604 
	C126.249893,180.693634 128.482788,181.142776 130.613953,180.850372 
	C131.216644,180.767685 131.891922,178.521759 131.906219,177.260849 
	C132.043137,165.192551 132.045288,153.122696 132.749390,141.578308 
	C132.749390,154.923096 132.749390,168.267899 132.749390,181.692368 
	C136.734177,182.403671 139.415756,182.396698 139.043716,177.758163 
	C138.998260,177.191513 139.777771,176.558701 140.048248,176.802750 
	C139.336838,181.673111 142.251282,181.337982 145.430099,180.700317 
	C147.837250,171.744919 154.141876,168.154099 164.755661,169.059448 
	C171.866608,169.666000 179.085297,170.461594 186.146729,169.870407 
	C197.980728,168.879654 208.401657,162.979126 207.971146,147.713043 
	C207.766815,140.467239 207.038467,133.327393 201.036575,128.035736 
	C201.036575,128.035736 201.036591,128.099670 201.702454,127.987267 
	C202.159271,127.336105 202.616074,126.684944 203.009323,126.039383 
	C203.009323,126.039383 203.070206,126.060905 203.709442,125.783310 
	C204.090164,124.532944 204.470886,123.282570 204.983597,121.582680 
	C204.983597,121.582680 205.083832,121.125038 205.658951,120.741440 
	C205.815765,119.840508 205.972565,118.939575 206.727768,117.448830 
	C207.765762,106.104416 206.427734,95.336601 196.433640,88.171860 
	C192.335526,85.233917 187.141556,83.324402 182.164230,82.235970 
	C175.508102,80.780411 168.539368,80.383720 162.357132,85.989967 
	C161.877853,86.315720 161.398560,86.641479 160.989349,86.967026 
	C160.989349,86.967026 160.987839,86.896957 160.176682,87.001648 
	C159.413147,87.023247 158.649628,87.044846 157.979538,86.376030 
	C158.008804,85.912109 158.038071,85.448181 157.996689,84.998611 
	C157.996689,84.998611 158.011002,85.069275 158.508484,84.890793 
	C158.690140,84.599709 158.871811,84.308632 159.000000,84.001122 
	C159.000000,84.001122 159.019424,84.053558 159.518326,83.881058 
	C159.701294,83.590424 159.884262,83.299789 160.004898,83.007401 
	C160.004898,83.007401 160.021179,83.067589 160.477539,82.889656 
	C160.791718,82.692497 160.918930,82.410934 161.060318,81.531906 
	C161.140259,81.366524 161.220215,81.201134 161.689850,80.862144 
	C161.948669,80.655846 162.023285,80.396240 162.037903,79.589203 
	C162.080994,79.424934 162.124100,79.260658 162.719284,78.735794 
	C163.089706,77.491577 163.460144,76.247353 163.908905,74.486404 
	C163.885071,74.313828 163.861237,74.141251 164.148682,73.393257 
	C164.377579,72.596375 164.606476,71.799492 164.950089,70.086899 
	C164.911804,66.390923 164.873520,62.694950 164.924683,58.406620 
	C164.654678,57.918896 164.384689,57.431168 164.031769,56.201912 
	C163.965820,55.459644 163.899872,54.717377 163.798843,53.479656 
	C163.618790,53.175270 163.356049,52.985104 162.972488,53.002739 
	C162.972488,53.002739 163.066055,53.040928 162.994217,52.413288 
	C162.685425,51.908466 162.376617,51.403645 161.982315,50.196712 
	C160.956955,48.107250 159.931595,46.017788 158.932114,43.485092 
	C158.806305,43.189671 158.585510,43.013134 157.950226,42.483120 
	C157.645920,42.261375 157.341599,42.039631 156.842392,41.384514 
	C156.636490,41.124409 156.372498,40.954342 155.730667,40.291748 
	C151.521622,37.166225 147.312592,34.040703 142.899933,30.481577 
	C142.693497,30.179493 142.411606,30.068123 141.576508,30.007540 
	C141.576508,30.007540 141.092484,29.890966 140.790100,29.380165 
	C140.224350,29.296825 139.658615,29.213484 138.603043,29.008120 
	C138.437241,28.979485 138.271439,28.950848 137.640869,28.330256 
	C135.428207,27.943510 133.215530,27.556767 130.229614,27.375494 
	C127.809456,27.639303 125.389305,27.903114 122.136398,28.048208 
	C118.729042,28.977724 115.321686,29.907240 111.418541,30.966871 
	C111.252724,31.008066 111.086906,31.049261 110.482903,31.065054 
	C110.190529,31.188801 110.015953,31.406799 109.445312,32.057777 
	C108.950623,32.414284 108.455940,32.770786 107.462173,33.157131 
	C107.288361,33.429485 107.114540,33.701836 106.998199,33.971394 
	C106.998199,33.971394 106.963577,33.925434 106.313057,33.986145 
	C105.519806,34.636429 104.726562,35.286713 103.966797,35.984463 
	C103.966797,35.984463 103.988640,35.930656 103.491455,36.110806 
	C103.308983,36.401878 103.126518,36.692951 102.999260,36.998615 
	C102.999260,36.998615 102.981827,36.944233 102.487968,37.119194 
	C102.306442,37.407475 102.124908,37.695755 101.998932,37.998272 
	C101.998932,37.998272 101.981804,37.943531 101.487968,38.119408 
	C101.306496,38.407890 101.125023,38.696377 100.999756,38.997658 
	C100.999756,38.997658 100.982147,38.942764 100.484535,39.114178 
	C100.304077,39.404385 100.123619,39.694595 99.999374,39.997456 
M150.229889,197.014389 
	C146.772034,197.154587 142.262863,195.805069 143.058960,202.019836 
	C143.763992,207.523651 144.496765,213.023895 145.274963,218.966110 
	C147.317108,218.825912 149.123932,218.920563 150.828323,218.547348 
	C158.590210,216.847794 159.046127,215.997665 157.005341,208.238022 
	C156.729416,207.188843 156.276733,205.958923 156.573074,205.024216 
	C158.195801,199.905624 156.002090,197.587143 150.229889,197.014389 
M91.695076,193.954514 
	C90.176132,194.270355 87.470764,194.308273 87.321602,194.945007 
	C85.816063,201.371811 84.728966,207.896637 83.564934,214.174957 
	C90.811295,216.804688 88.714584,210.000397 92.029716,207.578888 
	C91.693130,210.711136 91.455894,212.918900 91.212578,215.120300 
	C95.515671,217.789246 96.062096,217.686356 97.020416,213.208054 
	C97.509888,210.920700 96.908363,208.335602 97.650665,206.177734 
	C100.841774,196.901184 100.956741,196.940735 91.695076,193.954514 
M74.471100,197.157791 
	C74.927200,196.525757 75.383308,195.893723 75.488739,195.747620 
	C77.278671,196.901566 78.765472,198.150040 80.479591,198.773590 
	C80.943085,198.942200 82.949699,196.948074 82.779831,196.411163 
	C82.118340,194.320312 81.336418,191.805603 79.734230,190.573242 
	C76.669441,188.215851 70.682274,190.206421 69.168930,193.835968 
	C68.116280,196.360641 67.718903,199.150513 66.893639,201.779480 
	C64.285980,210.086502 68.301537,211.218994 75.281212,212.020142 
	C80.589478,212.629425 79.718971,208.195801 80.679871,205.456802 
	C81.648987,202.694336 80.406120,201.230515 77.338593,200.800400 
	C76.180824,200.638062 75.246223,198.884109 74.471100,197.157791 
M102.304924,214.595535 
	C106.578598,220.191681 113.588615,220.674026 115.150597,215.160019 
	C116.667374,209.805649 116.685432,204.026718 117.421021,197.943100 
	C114.538063,198.128922 112.959259,198.230682 111.463104,198.327118 
	C110.748482,203.715714 110.089523,208.684601 109.430557,213.653503 
	C108.951591,213.586502 108.472626,213.519516 107.993660,213.452515 
	C108.345840,208.137634 108.698029,202.822739 109.062737,197.318863 
	C106.722725,197.318863 105.142998,197.318863 102.949837,197.318863 
	C102.656876,202.963013 102.376625,208.362137 102.304924,214.595535 
M161.378128,208.908737 
	C163.295883,216.541336 167.404953,218.902405 173.128769,215.237427 
	C174.586380,214.304123 175.339691,211.880127 175.810806,209.990051 
	C175.998154,209.238434 174.187500,207.144409 173.891205,207.256744 
	C172.243622,207.881317 170.788635,209.007294 169.249374,209.931152 
	C169.012573,210.073318 168.680679,210.057007 167.933258,210.204910 
	C167.229370,206.651352 166.529831,203.119873 165.830307,199.588394 
	C166.149323,199.215363 166.468338,198.842346 166.787354,198.469330 
	C168.826294,203.492340 171.328201,202.078430 174.086105,200.240036 
	C173.603912,199.175323 173.264053,198.437912 172.934830,197.695801 
	C170.813599,192.914383 166.561478,195.138336 163.386078,195.376465 
	C162.114624,195.471832 160.460052,198.832092 160.130875,200.890335 
	C159.762131,203.195938 160.697327,205.710083 161.378128,208.908737 
M186.179932,208.918442 
	C188.281464,209.369308 190.383011,209.820175 193.127686,210.409027 
	C193.338837,209.899445 194.454697,208.506378 194.120193,207.807495 
	C191.522797,202.380661 188.820709,196.980743 185.688522,191.855133 
	C185.145966,190.967270 182.374146,191.135071 180.717819,191.384644 
	C180.051041,191.485123 179.101883,193.149185 179.156479,194.048492 
	C179.545319,200.454056 180.160583,206.845871 180.703781,213.242065 
	C181.260773,213.506363 181.817749,213.770645 182.374741,214.034943 
	C183.595078,212.577530 184.815414,211.120117 186.179932,208.918442 
M120.007484,214.277817 
	C120.051575,216.444275 120.115128,219.727478 122.894318,218.622498 
	C124.972290,217.796310 125.977722,214.272507 127.898979,211.263550 
	C132.884171,210.491562 134.954727,207.939072 133.925903,202.518951 
	C133.133774,198.345764 128.852539,197.035309 121.429893,198.726227 
	C120.954842,203.601624 120.477737,208.498108 120.007484,214.277817 
z"/>
<path fill="#375994" opacity="1.000000" stroke="none" 
	d="
M19.731312,108.395447 
	C19.886124,117.360245 19.927603,126.720406 19.907726,136.549286 
	C19.770241,127.608948 19.694111,118.199875 19.731312,108.395447 
z"/>
<path fill="#1B4694" opacity="1.000000" stroke="none" 
	d="
M107.961258,33.127289 
	C108.455940,32.770786 108.950623,32.414284 109.866493,31.795681 
	C110.506096,31.396284 110.717239,31.248573 110.921097,31.090454 
	C111.086906,31.049261 111.252724,31.008066 112.062500,30.895546 
	C116.127350,29.938456 119.548248,29.052691 122.969147,28.166925 
	C125.389305,27.903114 127.809456,27.639303 130.886078,27.501858 
	C133.730240,28.059551 135.917923,28.490881 138.105621,28.922211 
	C138.271439,28.950848 138.437241,28.979485 139.091064,29.179893 
	C140.083557,29.531433 140.588013,29.711201 141.092484,29.890966 
	C141.092484,29.890966 141.576508,30.007540 141.987656,30.209541 
	C142.630173,30.584370 142.865097,30.752253 143.103546,30.915184 
	C147.312592,34.040703 151.521622,37.166225 156.053864,40.742802 
	C156.594238,41.404942 156.814316,41.612953 157.037292,41.817886 
	C157.341599,42.039631 157.645920,42.261375 158.204803,42.885017 
	C158.598633,43.507481 158.747589,43.721283 158.906250,43.928322 
	C159.931595,46.017788 160.956955,48.107250 162.139130,50.819351 
	C162.552658,51.974964 162.809357,52.507946 163.066055,53.040928 
	C163.066055,53.040928 162.972488,53.002739 163.125519,53.136753 
	C163.457642,53.510300 163.642761,53.745083 163.833923,53.975113 
	C163.899872,54.717377 163.965820,55.459644 164.044083,56.764107 
	C164.316010,57.883858 164.575607,58.441414 164.835236,58.998974 
	C164.873520,62.694950 164.911804,66.390923 164.714188,70.708260 
	C164.264648,72.209305 164.051025,73.088997 163.837402,73.968681 
	C163.861237,74.141251 163.885071,74.313828 163.652039,74.984070 
	C162.985840,76.686615 162.576538,77.891502 162.167221,79.096382 
	C162.124100,79.260658 162.080994,79.424934 161.864136,79.989883 
	C161.546890,80.597504 161.416824,80.812561 161.300171,81.035744 
	C161.220215,81.201134 161.140259,81.366524 160.816269,81.955124 
	C160.384399,82.604790 160.200714,82.834534 160.021179,83.067589 
	C160.021179,83.067589 160.004898,83.007401 159.857971,83.179245 
	C159.475494,83.580315 159.244949,83.814468 159.019424,84.053558 
	C159.019424,84.053558 159.000000,84.001122 158.849533,84.181290 
	C158.464981,84.592804 158.235626,84.828743 158.011002,85.069275 
	C158.011002,85.069275 157.996689,84.998611 157.882416,85.233276 
	C157.488800,85.962288 157.209442,86.456642 156.623718,87.089691 
	C143.122604,96.539238 136.237885,109.829674 132.654694,125.113350 
	C132.314377,126.564934 133.213181,128.307007 133.536713,129.914215 
	C137.224121,118.891823 140.617676,108.611603 148.082169,100.188736 
	C151.383545,96.463501 154.714844,92.764793 158.308289,88.919220 
	C159.385284,88.155243 160.186554,87.526100 160.987839,86.896957 
	C160.987839,86.896957 160.989349,86.967026 161.215378,86.839737 
	C161.948227,86.432732 162.455048,86.153008 162.961868,85.873283 
	C168.539368,80.383720 175.508102,80.780411 182.164230,82.235970 
	C187.141556,83.324402 192.335526,85.233917 196.433640,88.171860 
	C206.427734,95.336601 207.765762,106.104416 206.287903,118.038742 
	C205.593307,119.460785 205.338577,120.292908 205.083832,121.125038 
	C205.083832,121.125038 204.983597,121.582680 204.717148,122.054535 
	C203.990540,123.704567 203.530380,124.882736 203.070221,126.060905 
	C203.070206,126.060905 203.009323,126.039383 202.805969,126.210449 
	C202.080612,126.954231 201.558594,127.526947 201.036591,128.099670 
	C201.036591,128.099670 201.036575,128.035736 200.743683,128.166138 
	C192.705811,131.899719 185.027451,135.656281 177.194916,139.057877 
	C170.838867,141.818268 164.205978,143.948212 157.887894,146.785339 
	C155.646179,147.792007 153.970764,150.059738 151.766281,151.971436 
	C150.835159,153.129059 150.174606,154.067032 149.303726,155.211731 
	C147.727951,156.230362 146.362488,157.042282 144.746582,158.097458 
	C141.641342,165.147400 138.786514,171.954071 135.842438,178.973587 
	C135.419540,178.582611 134.579651,178.172058 134.571289,177.745239 
	C134.325287,165.168320 134.161987,152.589767 134.117126,139.681183 
	C134.477066,138.180664 134.705383,137.010437 134.894638,135.516693 
	C134.611679,134.142410 134.367783,133.091629 133.815796,132.136902 
	C132.685211,132.879517 131.862717,133.526077 131.055786,134.602890 
	C131.098877,137.048752 131.126450,139.064362 131.113190,141.540741 
	C131.040009,154.003296 131.007675,166.005081 130.749481,178.172287 
	C130.018707,178.882233 129.513809,179.426758 128.666779,179.950714 
	C127.871216,179.873764 127.417763,179.817413 126.803955,179.437317 
	C126.097710,176.212036 125.337830,173.331223 125.054504,170.404251 
	C124.592484,165.631195 124.441483,160.828033 124.159256,156.037567 
	C124.104256,155.856644 124.049263,155.675735 123.975700,154.821579 
	C124.000336,149.088669 124.043549,144.029007 124.189331,138.653351 
	C124.134789,136.211288 123.846581,134.085556 123.841209,131.959106 
	C123.796585,114.290367 114.074852,101.428329 102.699959,89.414665 
	C101.721199,88.380951 100.189415,87.870865 98.914528,87.117538 
	C98.644257,86.921669 98.373985,86.725792 97.875603,86.128448 
	C97.485909,85.495552 97.321037,85.266495 97.152878,85.039795 
	C97.099380,84.877937 97.045876,84.716072 96.772171,84.162247 
	C96.356514,83.573341 96.156708,83.380905 95.952560,83.192978 
	C95.666176,82.975014 95.379799,82.757050 94.871895,82.037506 
	C94.416389,81.023376 94.182404,80.510818 93.948425,79.998260 
	C93.948425,79.998260 93.997398,80.028679 93.880630,79.790726 
	C93.552406,79.066109 93.340935,78.579437 93.129471,78.092766 
	C93.082031,77.926842 93.034592,77.760918 92.851395,77.086418 
	C92.527718,76.072876 92.339798,75.567917 92.151878,75.062958 
	C92.151878,75.062958 92.002792,74.592781 91.957825,73.883591 
	C92.240471,66.086746 92.568085,58.999092 92.895706,51.911434 
	C92.928207,51.746925 92.960709,51.582413 93.178497,51.008698 
	C93.527710,50.378029 93.684792,50.151825 93.835052,49.920876 
	C94.035210,49.015373 94.235367,48.109871 94.840637,46.858322 
	C95.422668,46.340645 95.592857,46.162579 95.756310,45.978077 
	C95.823853,45.808578 95.891388,45.639076 96.192871,45.042519 
	C96.616631,44.386757 96.802933,44.155216 96.985710,43.920841 
	C96.985710,43.920841 96.970482,43.984638 97.175797,43.769470 
	C97.899246,42.681755 98.417381,41.809212 98.935509,40.936668 
	C98.935509,40.936665 98.988998,40.953476 99.143036,40.799530 
	C99.531029,40.416969 99.759148,40.182678 99.981438,39.942707 
	C99.981438,39.942707 99.999374,39.997456 100.147873,39.820728 
	C100.529846,39.415035 100.758438,39.181290 100.982147,38.942764 
	C100.982147,38.942764 100.999756,38.997658 101.148239,38.821045 
	C101.530090,38.415699 101.758453,38.182068 101.981804,37.943531 
	C101.981804,37.943531 101.998932,37.998272 102.147850,37.821213 
	C102.530205,37.415821 102.758560,37.182514 102.981827,36.944233 
	C102.981827,36.944233 102.999260,36.998615 103.149376,36.819214 
	C103.534225,36.408302 103.763939,36.171917 103.988640,35.930656 
	C103.988640,35.930656 103.966797,35.984463 104.244217,35.863342 
	C105.335617,35.136623 106.149597,34.531029 106.963577,33.925434 
	C106.963577,33.925434 106.998199,33.971394 107.143082,33.835228 
	C107.517990,33.515064 107.742424,33.324474 107.961258,33.127289 
z"/>
<path fill="#1B4694" opacity="1.000000" stroke="none" 
	d="
M53.892189,128.943512 
	C53.665157,128.187149 53.438122,127.430801 52.912148,126.207336 
	C52.387032,125.491783 52.160862,125.243347 51.934689,124.994904 
	C51.934689,124.994904 51.985271,125.030220 51.878124,124.757431 
	C51.234856,123.657623 50.698734,122.830605 50.162613,122.003593 
	C50.138798,121.826866 50.114986,121.650139 50.173080,120.973854 
	C49.893501,119.649910 49.532013,118.825516 49.170528,118.001122 
	C49.131207,116.917648 49.091885,115.834175 49.195415,114.073540 
	C49.280754,112.275368 49.223244,111.154350 49.165733,110.033340 
	C49.127693,108.632668 49.089653,107.231987 49.346409,105.178177 
	C50.734379,101.333733 51.827549,98.142418 52.920723,94.951111 
	C52.920723,94.951111 52.966221,94.934875 53.133389,94.787964 
	C53.533165,94.412964 53.760284,94.179550 53.981915,93.940796 
	C53.981915,93.940796 53.998219,93.996750 54.147461,93.819794 
	C54.531338,93.413193 54.760498,93.178207 54.984184,92.937874 
	C54.984184,92.937874 54.938042,92.976143 55.220966,92.798309 
	C56.310715,91.393318 57.117542,90.166161 57.924370,88.939003 
	C57.924366,88.939003 57.971210,88.936020 58.199333,88.828842 
	C58.899792,88.464905 59.372135,88.208138 59.844475,87.951370 
	C60.056099,87.660767 60.267723,87.370171 60.885681,86.805023 
	C61.520836,86.338806 61.747238,86.144318 61.971214,85.947014 
	C61.971214,85.947014 61.984352,86.001518 62.135216,85.841248 
	C62.513039,85.491272 62.734856,85.295731 62.951530,85.094360 
	C63.719730,84.733757 64.487930,84.373146 65.899475,83.902832 
	C67.377632,83.507637 68.212440,83.222160 69.047256,82.936684 
	C69.047256,82.936684 69.004364,83.034149 69.136444,82.879097 
	C69.508293,82.545631 69.743538,82.361443 69.974274,82.171494 
	C70.154930,82.145241 70.335579,82.118980 70.975479,82.167870 
	C71.940384,82.214714 72.446045,82.186424 72.951698,82.158127 
	C73.394257,82.097679 73.836815,82.037231 74.980209,82.079910 
	C77.824623,82.441658 79.968201,82.700264 82.111778,82.958878 
	C87.201172,84.915337 92.290565,86.871796 97.846298,89.273102 
	C99.303482,90.818970 100.300461,91.914551 101.284195,93.021896 
	C108.556274,101.207809 116.141357,109.208450 118.182167,120.593704 
	C119.459938,127.722130 120.689537,134.859192 121.920868,142.461212 
	C121.826462,155.284927 121.751945,167.639801 121.343231,179.902802 
	C119.897842,177.602966 118.188538,175.501312 117.774010,173.169510 
	C115.352913,159.550369 106.055847,148.668411 95.024094,147.019196 
	C95.001671,147.005554 94.956810,146.978317 94.846535,146.789276 
	C93.073242,145.556000 91.524834,144.210999 89.725227,143.525208 
	C84.786194,141.643097 79.642677,140.277893 74.762444,138.265839 
	C67.721375,135.362900 60.841084,132.070007 53.892189,128.943512 
z"/>
<path fill="#1E4894" opacity="1.000000" stroke="none" 
	d="
M152.036835,151.751785 
	C153.970764,150.059738 155.646179,147.792007 157.887894,146.785339 
	C164.205978,143.948212 170.838867,141.818268 177.194916,139.057877 
	C185.027451,135.656281 192.705811,131.899719 200.774826,128.173401 
	C207.038467,133.327393 207.766815,140.467239 207.971146,147.713043 
	C208.401657,162.979126 197.980728,168.879654 186.146729,169.870407 
	C179.085297,170.461594 171.866608,169.666000 164.755661,169.059448 
	C154.141876,168.154099 147.837250,171.744919 145.430099,180.700317 
	C142.251282,181.337982 139.336838,181.673111 140.221619,176.016388 
	C141.783951,170.851562 143.236328,166.491623 144.523621,162.083466 
	C144.915359,160.742020 144.851974,159.267670 144.997025,157.854187 
	C146.362488,157.042282 147.727951,156.230362 149.604309,155.019867 
	C150.755737,153.664780 151.396286,152.708282 152.036835,151.751785 
z"/>
<path fill="#1B4694" opacity="1.000000" stroke="none" 
	d="
M103.879768,170.033112 
	C103.158203,170.007156 102.436630,169.981201 101.194748,169.721985 
	C99.791977,169.276306 98.909515,169.063889 98.027046,168.851471 
	C95.333504,168.910873 92.639961,168.970261 89.141388,168.927673 
	C79.848343,168.591217 71.360321,168.356735 62.872307,168.122238 
	C62.872307,168.122238 62.393124,168.000198 61.910042,167.815948 
	C60.917004,167.442657 60.407043,167.253647 59.897087,167.064621 
	C59.897087,167.064621 59.413166,166.995361 59.011116,166.818420 
	C58.388977,166.482071 58.162899,166.331635 57.930832,166.190216 
	C57.338757,165.979416 56.746681,165.768631 55.832783,165.127594 
	C55.325451,164.462265 55.135891,164.230484 54.942291,164.002014 
	C54.942291,164.002014 54.977100,164.058853 54.825241,163.765488 
	C53.421307,162.343735 52.169231,161.215363 50.917152,160.086990 
	C50.917152,160.086990 50.944553,160.063995 50.883133,159.661331 
	C50.181156,152.802460 49.540604,146.346268 48.900055,139.890060 
	C48.900055,139.890060 49.010448,139.407043 49.191643,138.845398 
	C49.546272,137.156784 49.719704,136.029816 49.893135,134.902832 
	C49.927647,134.735382 49.962162,134.567932 50.174545,133.909607 
	C50.533920,132.912460 50.715427,132.406219 50.896935,131.899963 
	C50.896935,131.899963 51.012516,131.450363 51.434799,131.297119 
	C58.516243,134.006577 65.065453,137.170593 71.863899,139.651642 
	C79.443359,142.417694 87.249397,144.562881 94.956810,146.978317 
	C94.956810,146.978317 95.001671,147.005554 95.191284,147.299866 
	C97.400085,149.280518 99.344032,151.068130 101.452278,152.634644 
	C108.364220,157.770554 113.418892,164.032303 114.465073,172.936401 
	C115.067741,178.065704 114.103653,178.857544 109.167931,177.000214 
	C109.106003,176.583069 109.044075,176.165939 108.878113,175.103333 
	C107.812019,173.318771 106.849953,172.179688 105.887886,171.040604 
	C105.887886,171.040604 105.415657,170.963715 105.010513,170.758896 
	C104.368546,170.373383 104.126678,170.199722 103.879768,170.033112 
z"/>
<path fill="#254D95" opacity="1.000000" stroke="none" 
	d="
M150.663635,197.026733 
	C156.002090,197.587143 158.195801,199.905624 156.573074,205.024216 
	C156.276733,205.958923 156.729416,207.188843 157.005341,208.238022 
	C159.046127,215.997665 158.590210,216.847794 150.828323,218.547348 
	C149.123932,218.920563 147.317108,218.825912 145.274963,218.966110 
	C144.496765,213.023895 143.763992,207.523651 143.058960,202.019836 
	C142.262863,195.805069 146.772034,197.154587 150.663635,197.026733 
z"/>
<path fill="#244B93" opacity="1.000000" stroke="none" 
	d="
M92.091026,193.975769 
	C100.956741,196.940735 100.841774,196.901184 97.650665,206.177734 
	C96.908363,208.335602 97.509888,210.920700 97.020416,213.208054 
	C96.062096,217.686356 95.515671,217.789246 91.215614,215.123474 
	C91.455894,212.918900 91.693130,210.711136 92.029716,207.578888 
	C88.714584,210.000397 90.811295,216.804688 83.564934,214.174957 
	C84.728966,207.896637 85.816063,201.371811 87.321602,194.945007 
	C87.470764,194.308273 90.176132,194.270355 92.091026,193.975769 
z"/>
<path fill="#224A93" opacity="1.000000" stroke="none" 
	d="
M74.340500,197.506744 
	C75.246223,198.884109 76.180824,200.638062 77.338593,200.800400 
	C80.406120,201.230515 81.648987,202.694336 80.679871,205.456802 
	C79.718971,208.195801 80.589478,212.629425 75.281212,212.020142 
	C68.301537,211.218994 64.285980,210.086502 66.893639,201.779480 
	C67.718903,199.150513 68.116280,196.360641 69.168930,193.835968 
	C70.682274,190.206421 76.669441,188.215851 79.734230,190.573242 
	C81.336418,191.805603 82.118340,194.320312 82.779831,196.411163 
	C82.949699,196.948074 80.943085,198.942200 80.479591,198.773590 
	C78.765472,198.150040 77.278671,196.901566 75.488739,195.747620 
	C75.383308,195.893723 74.927200,196.525757 74.340500,197.506744 
z"/>
<path fill="#214993" opacity="1.000000" stroke="none" 
	d="
M102.200653,214.178406 
	C102.376625,208.362137 102.656876,202.963013 102.949837,197.318863 
	C105.142998,197.318863 106.722725,197.318863 109.062737,197.318863 
	C108.698029,202.822739 108.345840,208.137634 107.993660,213.452515 
	C108.472626,213.519516 108.951591,213.586502 109.430557,213.653503 
	C110.089523,208.684601 110.748482,203.715714 111.463104,198.327118 
	C112.959259,198.230682 114.538063,198.128922 117.421021,197.943100 
	C116.685432,204.026718 116.667374,209.805649 115.150597,215.160019 
	C113.588615,220.674026 106.578598,220.191681 102.200653,214.178406 
z"/>
<path fill="#244B93" opacity="1.000000" stroke="none" 
	d="
M161.221634,208.521118 
	C160.697327,205.710083 159.762131,203.195938 160.130875,200.890335 
	C160.460052,198.832092 162.114624,195.471832 163.386078,195.376465 
	C166.561478,195.138336 170.813599,192.914383 172.934830,197.695801 
	C173.264053,198.437912 173.603912,199.175323 174.086105,200.240036 
	C171.328201,202.078430 168.826294,203.492340 166.787354,198.469330 
	C166.468338,198.842346 166.149323,199.215363 165.830307,199.588394 
	C166.529831,203.119873 167.229370,206.651352 167.933258,210.204910 
	C168.680679,210.057007 169.012573,210.073318 169.249374,209.931152 
	C170.788635,209.007294 172.243622,207.881317 173.891205,207.256744 
	C174.187500,207.144409 175.998154,209.238434 175.810806,209.990051 
	C175.339691,211.880127 174.586380,214.304123 173.128769,215.237427 
	C167.404953,218.902405 163.295883,216.541336 161.221634,208.521118 
z"/>
<path fill="#244C94" opacity="1.000000" stroke="none" 
	d="
M186.107849,209.290573 
	C184.815414,211.120117 183.595078,212.577530 182.374741,214.034943 
	C181.817749,213.770645 181.260773,213.506363 180.703781,213.242065 
	C180.160583,206.845871 179.545319,200.454056 179.156479,194.048492 
	C179.101883,193.149185 180.051041,191.485123 180.717819,191.384644 
	C182.374146,191.135071 185.145966,190.967270 185.688522,191.855133 
	C188.820709,196.980743 191.522797,202.380661 194.120193,207.807495 
	C194.454697,208.506378 193.338837,209.899445 193.127686,210.409027 
	C190.383011,209.820175 188.281464,209.369308 186.107849,209.290573 
z"/>
<path fill="#1C4694" opacity="1.000000" stroke="none" 
	d="
M121.940750,141.992386 
	C120.689537,134.859192 119.459938,127.722130 118.182167,120.593704 
	C116.141357,109.208450 108.556274,101.207809 101.284195,93.021896 
	C100.300461,91.914551 99.303482,90.818970 98.163643,89.429184 
	C98.314819,88.664101 98.614998,88.187775 98.914856,87.414490 
	C100.189415,87.870865 101.721199,88.380951 102.699959,89.414665 
	C114.074852,101.428329 123.796585,114.290367 123.841209,131.959106 
	C123.846581,134.085556 124.134789,136.211288 123.929016,138.832977 
	C123.024338,140.216522 122.482544,141.104446 121.940750,141.992386 
z"/>
<path fill="#204993" opacity="1.000000" stroke="none" 
	d="
M120.004059,213.836212 
	C120.477737,208.498108 120.954842,203.601624 121.429893,198.726227 
	C128.852539,197.035309 133.133774,198.345764 133.925903,202.518951 
	C134.954727,207.939072 132.884171,210.491562 127.898979,211.263550 
	C125.977722,214.272507 124.972290,217.796310 122.894318,218.622498 
	C120.115128,219.727478 120.051575,216.444275 120.004059,213.836212 
z"/>
<path fill="#1D4794" opacity="1.000000" stroke="none" 
	d="
M109.114464,177.396484 
	C114.103653,178.857544 115.067741,178.065704 114.465073,172.936401 
	C113.418892,164.032303 108.364220,157.770554 101.452278,152.634644 
	C99.344032,151.068130 97.400085,149.280518 95.213707,147.313492 
	C106.055847,148.668411 115.352913,159.550369 117.774010,173.169510 
	C118.188538,175.501312 119.897842,177.602966 121.370514,180.111145 
	C121.731995,180.411377 121.765633,180.830215 121.765633,180.830215 
	C119.887032,180.219589 118.008423,179.608963 115.996170,178.954895 
	C115.755089,179.144287 114.699631,180.575470 113.390800,180.866257 
	C111.209480,181.350891 108.958763,180.978256 109.114464,177.396484 
z"/>
<path fill="#1D4794" opacity="1.000000" stroke="none" 
	d="
M94.846535,146.789276 
	C87.249397,144.562881 79.443359,142.417694 71.863899,139.651642 
	C65.065453,137.170593 58.516243,134.006577 51.507683,131.076752 
	C51.861076,130.344910 52.563877,129.680206 53.579433,128.979523 
	C60.841084,132.070007 67.721375,135.362900 74.762444,138.265839 
	C79.642677,140.277893 84.786194,141.643097 89.725227,143.525208 
	C91.524834,144.210999 93.073242,145.556000 94.846535,146.789276 
z"/>
<path fill="#395B95" opacity="1.000000" stroke="none" 
	d="
M144.746582,158.097458 
	C144.851974,159.267670 144.915359,160.742020 144.523621,162.083466 
	C143.236328,166.491623 141.783951,170.851562 140.284988,175.593292 
	C139.777771,176.558701 138.998260,177.191513 139.043716,177.758163 
	C139.415756,182.396698 136.734177,182.403671 132.749390,181.692368 
	C132.749390,168.267899 132.749390,154.923096 132.184937,141.325806 
	C131.620499,141.073318 131.154007,141.079971 131.154007,141.079971 
	C131.126450,139.064362 131.098877,137.048752 131.338806,134.463638 
	C132.445496,133.276382 133.284683,132.658615 134.123886,132.040863 
	C134.367783,133.091629 134.611679,134.142410 134.687119,135.728607 
	C134.340942,137.513184 134.163208,138.762344 133.985489,140.011490 
	C134.161987,152.589767 134.325287,165.168320 134.571289,177.745239 
	C134.579651,178.172058 135.419540,178.582611 135.842438,178.973587 
	C138.786514,171.954071 141.641342,165.147400 144.746582,158.097458 
z"/>
<path fill="#5E7AA7" opacity="1.000000" stroke="none" 
	d="
M122.204880,180.734680 
	C121.765633,180.830215 121.731995,180.411377 121.704712,180.203033 
	C121.751945,167.639801 121.826462,155.284927 121.920868,142.461212 
	C122.482544,141.104446 123.024338,140.216522 123.826439,139.148956 
	C124.043549,144.029007 124.000336,149.088669 123.889549,154.551346 
	C123.523712,161.402969 123.224640,167.851532 122.927658,174.300186 
	C122.830360,176.413055 122.738480,178.526169 122.204880,180.734680 
z"/>
<path fill="#4969A0" opacity="1.000000" stroke="none" 
	d="
M131.113190,141.540741 
	C131.154007,141.079971 131.620499,141.073318 131.853287,141.063309 
	C132.045288,153.122696 132.043137,165.192551 131.906219,177.260849 
	C131.891922,178.521759 131.216644,180.767685 130.613953,180.850372 
	C128.482788,181.142776 126.249893,180.693634 124.462250,180.166443 
	C125.567390,179.791855 126.265854,179.776443 126.964317,179.761047 
	C127.417763,179.817413 127.871216,179.873764 128.933685,179.838242 
	C130.020264,179.166534 130.497803,178.586716 130.975342,178.006897 
	C131.007675,166.005081 131.040009,154.003296 131.113190,141.540741 
z"/>
<path fill="#1D4794" opacity="1.000000" stroke="none" 
	d="
M63.113827,168.435913 
	C71.360321,168.356735 79.848343,168.591217 88.698189,168.966721 
	C80.459747,171.288498 71.895256,170.900986 63.113827,168.435913 
z"/>
<path fill="#1C4694" opacity="1.000000" stroke="none" 
	d="
M92.595261,52.151237 
	C92.568085,58.999092 92.240471,66.086746 91.888626,73.646873 
	C88.691208,66.810875 90.288589,59.596909 92.595261,52.151237 
z"/>
<path fill="#1B4694" opacity="1.000000" stroke="none" 
	d="
M126.803955,179.437317 
	C126.265854,179.776443 125.567390,179.791855 124.520195,179.790100 
	C124.126953,172.169174 124.082443,164.565414 124.098587,156.499603 
	C124.441483,160.828033 124.592484,165.631195 125.054504,170.404251 
	C125.337830,173.331223 126.097710,176.212036 126.803955,179.437317 
z"/>
<path fill="#1D4794" opacity="1.000000" stroke="none" 
	d="
M48.575409,140.171967 
	C49.540604,146.346268 50.181156,152.802460 50.873405,159.659088 
	C49.936714,157.626022 48.349915,155.253082 48.096180,152.745255 
	C47.686367,148.694809 48.153816,144.555588 48.575409,140.171967 
z"/>
<path fill="#1C4694" opacity="1.000000" stroke="none" 
	d="
M52.620033,95.139198 
	C51.827549,98.142418 50.734379,101.333733 49.405113,104.761177 
	C50.219131,101.773972 51.269238,98.550629 52.620033,95.139198 
z"/>
<path fill="#1B4694" opacity="1.000000" stroke="none" 
	d="
M122.552773,28.107567 
	C119.548248,29.052691 116.127350,29.938456 112.310394,30.830488 
	C115.321686,29.907240 118.729042,28.977724 122.552773,28.107567 
z"/>
<path fill="#1C4694" opacity="1.000000" stroke="none" 
	d="
M81.897949,82.662247 
	C79.968201,82.700264 77.824623,82.441658 75.312805,82.036423 
	C77.191086,82.048409 79.437607,82.207008 81.897949,82.662247 
z"/>
<path fill="#1D4794" opacity="1.000000" stroke="none" 
	d="
M50.953598,160.430023 
	C52.169231,161.215363 53.421307,162.343735 54.794823,163.779099 
	C53.607521,162.981735 52.298782,161.877380 50.953598,160.430023 
z"/>
<path fill="#1B4694" opacity="1.000000" stroke="none" 
	d="
M137.873245,28.626232 
	C135.917923,28.490881 133.730240,28.059551 131.272705,27.399120 
	C133.215530,27.556767 135.428207,27.943510 137.873245,28.626232 
z"/>
<path fill="#1D4794" opacity="1.000000" stroke="none" 
	d="
M105.938553,171.372482 
	C106.849953,172.179688 107.812019,173.318771 108.841095,174.788727 
	C107.935150,173.981201 106.962189,172.842773 105.938553,171.372482 
z"/>
<path fill="#1C4694" opacity="1.000000" stroke="none" 
	d="
M57.628368,89.079941 
	C57.117542,90.166161 56.310715,91.393318 55.212502,92.769554 
	C55.724865,91.686050 56.528614,90.453468 57.628368,89.079941 
z"/>
<path fill="#1B4694" opacity="1.000000" stroke="none" 
	d="
M162.443253,78.916092 
	C162.576538,77.891502 162.985840,76.686615 163.612869,75.242432 
	C163.460144,76.247353 163.089706,77.491577 162.443253,78.916092 
z"/>
<path fill="#1E4894" opacity="1.000000" stroke="none" 
	d="
M203.389832,125.922104 
	C203.530380,124.882736 203.990540,123.704567 204.651154,122.279297 
	C204.470886,123.282570 204.090164,124.532944 203.389832,125.922104 
z"/>
<path fill="#1B4694" opacity="1.000000" stroke="none" 
	d="
M160.582260,86.949303 
	C160.186554,87.526100 159.385284,88.155243 158.281555,88.881821 
	C157.979126,88.979256 157.923965,88.905724 158.062454,88.554810 
	C158.143692,87.777901 158.086441,87.351921 157.993500,86.961151 
	C157.957809,86.996361 157.886093,87.066444 157.886093,87.066444 
	C158.649628,87.044846 159.413147,87.023247 160.582260,86.949303 
z"/>
<path fill="#1C4694" opacity="1.000000" stroke="none" 
	d="
M106.638321,33.955788 
	C106.149597,34.531029 105.335617,35.136623 104.227478,35.839607 
	C104.726562,35.286713 105.519806,34.636429 106.638321,33.955788 
z"/>
<path fill="#1D4794" opacity="1.000000" stroke="none" 
	d="
M98.315369,169.008804 
	C98.909515,169.063889 99.791977,169.276306 100.837585,169.669235 
	C100.201714,169.621872 99.402710,169.394012 98.315369,169.008804 
z"/>
<path fill="#1B4694" opacity="1.000000" stroke="none" 
	d="
M163.993042,73.680969 
	C164.051025,73.088997 164.264648,72.209305 164.656830,71.166115 
	C164.606476,71.799492 164.377579,72.596375 163.993042,73.680969 
z"/>
<path fill="#1C4694" opacity="1.000000" stroke="none" 
	d="
M98.638901,41.068008 
	C98.417381,41.809212 97.899246,42.681755 97.145561,43.756763 
	C97.387444,43.039268 97.864868,42.119308 98.638901,41.068008 
z"/>
<path fill="#1C4694" opacity="1.000000" stroke="none" 
	d="
M49.128685,118.323738 
	C49.532013,118.825516 49.893501,119.649910 50.211403,120.709122 
	C49.807491,120.178085 49.447166,119.412216 49.128685,118.323738 
z"/>
<path fill="#1C4694" opacity="1.000000" stroke="none" 
	d="
M49.106873,110.421844 
	C49.223244,111.154350 49.280754,112.275368 49.252472,113.670059 
	C49.127125,112.899277 49.087570,111.854813 49.106873,110.421844 
z"/>
<path fill="#1B4694" opacity="1.000000" stroke="none" 
	d="
M164.879944,58.702797 
	C164.575607,58.441414 164.316010,57.883858 164.085541,57.134869 
	C164.384689,57.431168 164.654678,57.918896 164.879944,58.702797 
z"/>
<path fill="#1C4694" opacity="1.000000" stroke="none" 
	d="
M50.203896,122.307610 
	C50.698734,122.830605 51.234856,123.657623 51.853340,124.775803 
	C51.372196,124.248520 50.808689,123.430077 50.203896,122.307610 
z"/>
<path fill="#1D4794" opacity="1.000000" stroke="none" 
	d="
M49.601143,135.120911 
	C49.719704,136.029816 49.546272,137.156784 49.262325,138.607971 
	C49.204258,137.734436 49.256706,136.536713 49.601143,135.120911 
z"/>
<path fill="#1E4894" opacity="1.000000" stroke="none" 
	d="
M201.369507,128.043457 
	C201.558594,127.526947 202.080612,126.954231 202.837769,126.207649 
	C202.616074,126.684944 202.159271,127.336105 201.369507,128.043457 
z"/>
<path fill="#1C4694" opacity="1.000000" stroke="none" 
	d="
M68.696564,82.954956 
	C68.212440,83.222160 67.377632,83.507637 66.219925,83.860580 
	C66.713310,83.609772 67.529594,83.291496 68.696564,82.954956 
z"/>
<path fill="#1E4894" opacity="1.000000" stroke="none" 
	d="
M205.371399,120.933243 
	C205.338577,120.292908 205.593307,119.460785 205.988708,118.333649 
	C205.972565,118.939575 205.815765,119.840508 205.371399,120.933243 
z"/>
<path fill="#1C4694" opacity="1.000000" stroke="none" 
	d="
M93.966888,80.300400 
	C94.182404,80.510818 94.416389,81.023376 94.742218,81.797989 
	C94.551155,81.574211 94.268257,81.088379 93.966888,80.300400 
z"/>
<path fill="#1C4694" opacity="1.000000" stroke="none" 
	d="
M92.099136,75.358765 
	C92.339798,75.567917 92.527718,76.072876 92.784317,76.836411 
	C92.584129,76.614845 92.315262,76.134712 92.099136,75.358765 
z"/>
<path fill="#1C4694" opacity="1.000000" stroke="none" 
	d="
M72.637634,82.106674 
	C72.446045,82.186424 71.940384,82.214714 71.246994,82.203377 
	C71.480698,82.127571 71.902130,82.091400 72.637634,82.106674 
z"/>
<path fill="#1B4694" opacity="1.000000" stroke="none" 
	d="
M140.941284,29.635567 
	C140.588013,29.711201 140.083557,29.531433 139.335968,29.240904 
	C139.658615,29.213484 140.224350,29.296825 140.941284,29.635567 
z"/>
<path fill="#1B4694" opacity="1.000000" stroke="none" 
	d="
M163.030136,52.727108 
	C162.809357,52.507946 162.552658,51.974964 162.181885,51.170403 
	C162.376617,51.403645 162.685425,51.908466 163.030136,52.727108 
z"/>
<path fill="#1C4694" opacity="1.000000" stroke="none" 
	d="
M59.556755,87.980576 
	C59.372135,88.208138 58.899792,88.464905 58.181522,88.840698 
	C58.380074,88.643074 58.824551,88.326424 59.556755,87.980576 
z"/>
<path fill="#1D4794" opacity="1.000000" stroke="none" 
	d="
M60.057793,167.316437 
	C60.407043,167.253647 60.917004,167.442657 61.673347,167.744507 
	C61.352657,167.760956 60.785580,167.664612 60.057793,167.316437 
z"/>
<path fill="#1B4694" opacity="1.000000" stroke="none" 
	d="
M156.930099,86.950996 
	C157.209442,86.456642 157.488800,85.962288 157.917755,85.226097 
	C158.038071,85.448181 158.008804,85.912109 157.932816,86.721237 
	C157.886093,87.066444 157.957809,86.996361 157.759552,86.995621 
	C157.561279,86.994881 157.097778,87.090515 157.056107,87.055336 
	C157.014435,87.020157 156.930099,86.950996 156.930099,86.950996 
z"/>
<path fill="#1C4694" opacity="1.000000" stroke="none" 
	d="
M93.086143,78.386429 
	C93.340935,78.579437 93.552406,79.066109 93.855087,79.804077 
	C93.645149,79.596954 93.343987,79.138527 93.086143,78.386429 
z"/>
<path fill="#1B4694" opacity="1.000000" stroke="none" 
	d="
M162.659500,85.931625 
	C162.455048,86.153008 161.948227,86.432732 161.180328,86.839844 
	C161.398560,86.641479 161.877853,86.315720 162.659500,85.931625 
z"/>
<path fill="#1D4794" opacity="1.000000" stroke="none" 
	d="
M50.640751,132.052063 
	C50.715427,132.406219 50.533920,132.912460 50.238770,133.661316 
	C50.211609,133.337341 50.298088,132.770737 50.640751,132.052063 
z"/>
<path fill="#1B4694" opacity="1.000000" stroke="none" 
	d="
M160.249359,82.978622 
	C160.200714,82.834534 160.384399,82.604790 160.715698,82.211670 
	C160.918930,82.410934 160.791718,82.692497 160.249359,82.978622 
z"/>
<path fill="#1D4794" opacity="1.000000" stroke="none" 
	d="
M103.990005,170.251587 
	C104.126678,170.199722 104.368546,170.373383 104.780716,170.692383 
	C104.590782,170.900375 104.305504,170.780167 103.990005,170.251587 
z"/>
<path fill="#1C4694" opacity="1.000000" stroke="none" 
	d="
M101.734886,38.031471 
	C101.758453,38.182068 101.530090,38.415699 101.120132,38.814644 
	C101.125023,38.696377 101.306496,38.407890 101.734886,38.031471 
z"/>
<path fill="#1C4694" opacity="1.000000" stroke="none" 
	d="
M102.734894,37.031715 
	C102.758560,37.182514 102.530205,37.415821 102.120071,37.814091 
	C102.124908,37.695755 102.306442,37.407475 102.734894,37.031715 
z"/>
<path fill="#1C4694" opacity="1.000000" stroke="none" 
	d="
M103.740051,36.020729 
	C103.763939,36.171917 103.534225,36.408302 103.121773,36.811916 
	C103.126518,36.692951 103.308983,36.401878 103.740051,36.020729 
z"/>
<path fill="#1C4694" opacity="1.000000" stroke="none" 
	d="
M107.711716,33.142212 
	C107.742424,33.324474 107.517990,33.515064 107.114342,33.836624 
	C107.114540,33.701836 107.288361,33.429485 107.711716,33.142212 
z"/>
<path fill="#1B4694" opacity="1.000000" stroke="none" 
	d="
M110.701996,31.077755 
	C110.717239,31.248573 110.506096,31.396284 110.123421,31.626320 
	C110.015953,31.406799 110.190529,31.188801 110.701996,31.077755 
z"/>
<path fill="#1B4694" opacity="1.000000" stroke="none" 
	d="
M143.001740,30.698381 
	C142.865097,30.752253 142.630173,30.584370 142.226547,30.279503 
	C142.411606,30.068123 142.693497,30.179493 143.001740,30.698381 
z"/>
<path fill="#1C4694" opacity="1.000000" stroke="none" 
	d="
M69.727234,82.189346 
	C69.743538,82.361443 69.508293,82.545631 69.087708,82.857666 
	C68.986679,82.648514 69.177773,82.387154 69.727234,82.189346 
z"/>
<path fill="#1B4694" opacity="1.000000" stroke="none" 
	d="
M161.495010,80.948944 
	C161.416824,80.812561 161.546890,80.597504 161.802032,80.236946 
	C162.023285,80.396240 161.948669,80.655846 161.495010,80.948944 
z"/>
<path fill="#1B4694" opacity="1.000000" stroke="none" 
	d="
M163.816376,53.727386 
	C163.642761,53.745083 163.457642,53.510300 163.144592,53.089958 
	C163.356049,52.985104 163.618790,53.175270 163.816376,53.727386 
z"/>
<path fill="#1C4694" opacity="1.000000" stroke="none" 
	d="
M93.621490,50.011292 
	C93.684792,50.151825 93.527710,50.378029 93.237854,50.764267 
	C93.017052,50.583809 93.115723,50.308029 93.621490,50.011292 
z"/>
<path fill="#1C4694" opacity="1.000000" stroke="none" 
	d="
M95.571609,46.045151 
	C95.592857,46.162579 95.422668,46.340645 95.112335,46.635338 
	C95.018845,46.482265 95.154839,46.266872 95.571609,46.045151 
z"/>
<path fill="#1C4694" opacity="1.000000" stroke="none" 
	d="
M97.160759,85.274124 
	C97.321037,85.266495 97.485909,85.495552 97.765717,85.899719 
	C97.561546,85.990997 97.323112,85.802994 97.160759,85.274124 
z"/>
<path fill="#1C4694" opacity="1.000000" stroke="none" 
	d="
M62.695389,85.103600 
	C62.734856,85.295731 62.513039,85.491272 62.114449,85.822357 
	C62.108295,85.680099 62.273773,85.396469 62.695389,85.103600 
z"/>
<path fill="#1B4694" opacity="1.000000" stroke="none" 
	d="
M158.259735,84.980034 
	C158.235626,84.828743 158.464981,84.592804 158.876266,84.189507 
	C158.871811,84.308632 158.690140,84.599709 158.259735,84.980034 
z"/>
<path fill="#1C4694" opacity="1.000000" stroke="none" 
	d="
M96.752457,44.007698 
	C96.802933,44.155216 96.616631,44.386757 96.281860,44.783703 
	C96.068985,44.579128 96.196411,44.293335 96.752457,44.007698 
z"/>
<path fill="#1B4694" opacity="1.000000" stroke="none" 
	d="
M158.919189,43.706707 
	C158.747589,43.721283 158.598633,43.507481 158.364563,43.121197 
	C158.585510,43.013134 158.806305,43.189671 158.919189,43.706707 
z"/>
<path fill="#1B4694" opacity="1.000000" stroke="none" 
	d="
M156.939850,41.601200 
	C156.814316,41.612953 156.594238,41.404942 156.213760,41.034088 
	C156.372498,40.954342 156.636490,41.124409 156.939850,41.601200 
z"/>
<path fill="#1C4694" opacity="1.000000" stroke="none" 
	d="
M54.733940,93.023392 
	C54.760498,93.178207 54.531338,93.413193 54.119003,93.813538 
	C54.122101,93.692459 54.302902,93.400681 54.733940,93.023392 
z"/>
<path fill="#1B4694" opacity="1.000000" stroke="none" 
	d="
M159.268875,83.967308 
	C159.244949,83.814468 159.475494,83.580315 159.889145,83.180115 
	C159.884262,83.299789 159.701294,83.590424 159.268875,83.967308 
z"/>
<path fill="#1C4694" opacity="1.000000" stroke="none" 
	d="
M99.732590,40.028458 
	C99.759148,40.182678 99.531029,40.416969 99.119888,40.815353 
	C99.123055,40.694813 99.303391,40.404507 99.732590,40.028458 
z"/>
<path fill="#1C4694" opacity="1.000000" stroke="none" 
	d="
M100.733337,39.028473 
	C100.758438,39.181290 100.529846,39.415035 100.119766,39.814404 
	C100.123619,39.694595 100.304077,39.404385 100.733337,39.028473 
z"/>
<path fill="#1C4694" opacity="1.000000" stroke="none" 
	d="
M96.033569,83.397369 
	C96.156708,83.380905 96.356514,83.573341 96.695549,83.918282 
	C96.533897,84.010704 96.292389,83.855865 96.033569,83.397369 
z"/>
<path fill="#1C4694" opacity="1.000000" stroke="none" 
	d="
M61.738518,86.005692 
	C61.747238,86.144318 61.520836,86.338806 61.121716,86.668549 
	C61.023540,86.475128 61.208344,86.227707 61.738518,86.005692 
z"/>
<path fill="#1D4794" opacity="1.000000" stroke="none" 
	d="
M54.992073,164.238556 
	C55.135891,164.230484 55.325451,164.462265 55.642536,164.872955 
	C55.439739,164.972839 55.195652,164.781677 54.992073,164.238556 
z"/>
<path fill="#1C4694" opacity="1.000000" stroke="none" 
	d="
M52.023190,125.244812 
	C52.160862,125.243347 52.387032,125.491783 52.779137,125.927780 
	C52.667271,125.908463 52.389481,125.701599 52.023190,125.244812 
z"/>
<path fill="#1D4794" opacity="1.000000" stroke="none" 
	d="
M58.021542,166.400879 
	C58.162899,166.331635 58.388977,166.482071 58.772652,166.764771 
	C58.936241,166.888046 58.475033,166.895874 58.475033,166.895874 
	C58.475033,166.895874 58.112251,166.611542 58.021542,166.400879 
z"/>
<path fill="#1C4694" opacity="1.000000" stroke="none" 
	d="
M53.732841,94.024780 
	C53.760284,94.179550 53.533165,94.412964 53.124321,94.810310 
	C53.126648,94.689308 53.305210,94.399040 53.732841,94.024780 
z"/>
<path fill="#1B4694" opacity="1.000000" stroke="none" 
	d="
M158.005844,89.016647 
	C154.714844,92.764793 151.383545,96.463501 148.082169,100.188736 
	C140.617676,108.611603 137.224121,118.891823 133.536713,129.914215 
	C133.213181,128.307007 132.314377,126.564934 132.654694,125.113350 
	C136.237885,109.829674 143.122604,96.539238 156.623718,87.089691 
	C156.930099,86.950996 157.014435,87.020157 157.043518,87.334846 
	C157.356400,88.068268 157.640182,88.486992 157.923981,88.905716 
	C157.923965,88.905724 157.979126,88.979256 158.005844,89.016647 
z"/>
<path fill="#1B4694" opacity="1.000000" stroke="none" 
	d="
M134.117126,139.681183 
	C134.163208,138.762344 134.340942,137.513184 134.726181,136.052124 
	C134.705383,137.010437 134.477066,138.180664 134.117126,139.681183 
z"/>
<path fill="#395B95" opacity="1.000000" stroke="none" 
	d="
M151.766296,151.971436 
	C151.396286,152.708282 150.755737,153.664780 149.814606,154.813141 
	C150.174606,154.067032 150.835159,153.129059 151.766296,151.971436 
z"/>
<path fill="#1B4694" opacity="1.000000" stroke="none" 
	d="
M133.815796,132.136902 
	C133.284683,132.658615 132.445496,133.276382 131.323273,134.033386 
	C131.862717,133.526077 132.685211,132.879517 133.815796,132.136902 
z"/>
<path fill="#1B4694" opacity="1.000000" stroke="none" 
	d="
M130.749481,178.172302 
	C130.497803,178.586716 130.020264,179.166534 129.275818,179.858826 
	C129.513809,179.426758 130.018707,178.882233 130.749481,178.172302 
z"/>
<path fill="#000000" opacity="1.000000" stroke="none" 
	d="
M158.062469,88.554802 
	C157.640182,88.486992 157.356400,88.068268 157.085205,87.370026 
	C157.097778,87.090515 157.561279,86.994881 157.795242,86.960403 
	C158.086441,87.351921 158.143692,87.777901 158.062469,88.554802 
z"/>
</svg>