<svg version="1.1" id="Layer_1" xmlns="http://www.w3.org/2000/svg" xmlns:xlink="http://www.w3.org/1999/xlink" x="0px" y="0px"
	 width="100%" viewBox="0 0 768 251" enable-background="new 0 0 768 251" xml:space="preserve">
<path fill="#000000" opacity="1.000000" stroke="none" 
	d="
M597.000000,252.000000 
	C398.000031,252.000000 199.500046,252.000000 1.000053,252.000000 
	C1.000036,168.333374 1.000036,84.666733 1.000018,1.000076 
	C256.999939,1.000051 512.999878,1.000051 768.999878,1.000025 
	C768.999878,84.666588 768.999878,168.333176 768.999939,251.999878 
	C711.833313,252.000000 654.666687,252.000000 597.000000,252.000000 
M305.500031,32.997147 
	C297.215271,32.997147 288.930481,32.997147 279.810608,32.997147 
	C280.525360,34.216316 280.932983,35.516903 281.810669,36.268837 
	C283.174500,37.437290 284.984222,38.077194 286.383911,39.213409 
	C291.601624,43.448944 295.322266,47.745415 295.245117,55.690544 
	C294.766205,105.012703 295.036530,154.341888 294.912506,203.668381 
	C294.905823,206.312546 294.185272,209.367111 292.726288,211.497238 
	C290.625458,214.564438 287.609985,217.031281 284.853485,219.614105 
	C283.021576,221.330566 280.960266,222.802185 279.001648,224.383392 
	C281.054108,225.725815 282.757477,225.980438 284.461060,225.981689 
	C313.790497,226.003082 343.119934,225.993881 372.449371,225.987701 
	C373.615448,225.987457 374.825043,226.147461 375.941101,225.901031 
	C392.375580,222.272171 407.747131,216.379623 421.811646,206.748413 
	C433.326355,198.863312 438.862976,187.636841 441.792328,174.931534 
	C444.303528,164.039719 442.369324,153.124863 436.942169,143.382858 
	C433.639160,137.453903 429.804962,130.897217 424.424805,127.268265 
	C416.597504,121.988739 408.528381,116.092773 398.474213,115.558517 
	C403.652557,110.950562 408.610718,106.689583 413.398254,102.244881 
	C421.682190,94.554237 423.915680,84.236427 423.663147,73.779686 
	C423.400543,62.906528 418.316284,54.044563 409.257996,47.128723 
	C398.244171,38.719879 386.072998,33.565685 372.486359,33.173134 
	C350.507538,32.538109 328.497101,32.998997 305.500031,32.997147 
M542.394409,77.114174 
	C540.572937,75.072639 538.501038,73.201019 536.978455,70.956734 
	C532.919312,64.973511 529.246155,58.726490 525.135559,52.780678 
	C521.376465,47.343365 517.058228,42.289745 513.357544,36.816132 
	C511.483673,34.044514 509.511200,32.912064 506.112366,32.912918 
	C491.476654,32.916595 476.841034,32.584316 462.204620,32.475281 
	C461.497040,32.470009 460.782288,33.421383 459.650177,34.226429 
	C462.644470,36.327648 465.150055,38.171024 467.740509,39.886288 
	C473.356201,43.604675 476.217987,48.188293 476.169403,55.519989 
	C475.847992,104.002953 475.919037,152.489395 476.107941,200.973755 
	C476.132050,207.163498 474.282349,211.905579 469.709290,215.873718 
	C466.426300,218.722458 463.325623,221.781296 459.319458,225.514374 
	C479.205536,225.514374 497.807526,225.514374 517.912842,225.514374 
	C515.754761,223.666046 514.741882,222.711914 513.642578,221.870926 
	C506.000427,216.024841 501.499878,209.432648 501.721436,198.679596 
	C502.469513,162.372849 502.006500,126.041138 502.006561,89.718971 
	C502.006561,87.822189 502.006561,85.925407 502.006561,82.819359 
	C506.279968,88.493439 509.528290,93.123924 513.101257,97.488632 
	C522.351746,108.788826 531.828613,119.903999 541.054138,131.224243 
	C547.879700,139.599640 554.286743,148.318253 561.175659,156.639420 
	C572.146606,169.891312 583.650757,182.709732 594.398193,196.136612 
	C605.897034,210.502090 619.083313,222.868484 634.465088,232.912628 
	C635.884705,233.839661 637.562500,234.371353 640.002319,235.491516 
	C640.002319,232.543304 640.002319,230.593445 640.002319,228.643585 
	C640.002502,192.821259 640.002502,156.998947 640.002808,121.176628 
	C640.002991,98.350311 640.031555,75.523933 639.979980,52.697735 
	C639.969788,48.195305 641.226868,44.759583 645.594482,42.559933 
	C649.238586,40.724705 652.575012,38.256283 655.954407,35.932655 
	C656.857056,35.311996 657.417908,34.194221 658.670471,32.641922 
	C638.875610,32.641922 620.202576,32.641922 600.321228,32.641922 
	C601.662598,34.524300 602.295532,35.884880 603.334534,36.767426 
	C605.215027,38.364830 607.441162,39.553032 609.336975,41.135014 
	C612.917114,44.122448 616.120483,47.062233 616.094177,52.586681 
	C615.912354,90.740746 616.002747,128.896088 615.983154,167.051010 
	C615.982422,168.391418 615.744690,169.731689 615.476929,172.550903 
	C609.236145,164.254517 604.047058,157.067657 598.554077,150.121170 
	C590.186462,139.539337 581.387085,129.293808 573.175781,118.594833 
	C562.839172,105.126602 552.910156,91.345497 542.394409,77.114174 
M702.009766,174.500000 
	C702.009766,182.996140 701.333130,191.560898 702.186035,199.970551 
	C703.187805,209.849045 698.044617,215.708130 691.068665,220.938278 
	C689.572937,222.059753 687.933594,222.989716 686.360413,224.007919 
	C695.538452,226.988754 747.469727,226.279846 748.951172,225.774521 
	C744.955200,221.390106 741.126282,216.813614 737.562988,212.038925 
	C736.362854,210.430832 735.113464,208.321228 735.108765,206.437759 
	C734.977905,154.128494 734.961731,101.818680 735.157471,49.509823 
	C735.165466,47.361065 736.960205,44.706478 738.705750,43.187950 
	C741.919128,40.392582 745.755066,38.322311 749.233459,35.813763 
	C749.879700,35.347691 750.064575,34.241734 750.462341,33.431068 
	C749.631287,33.137470 748.801025,32.590343 747.968994,32.587452 
	C728.524658,32.519909 709.080017,32.494629 689.635681,32.547131 
	C688.779724,32.549438 687.925964,33.362026 686.305847,34.186829 
	C688.400757,35.461800 689.622864,36.250443 690.885925,36.966892 
	C698.496582,41.284084 702.314270,47.105568 702.202637,56.555332 
	C701.742371,95.532211 702.009827,134.517685 702.009766,174.500000 
M94.485588,36.016426 
	C95.081055,34.564980 95.676529,33.113533 96.379356,31.400408 
	C72.879730,31.400408 50.024879,31.400408 27.002066,31.400408 
	C27.002066,41.953289 26.943401,52.108940 27.074036,62.262150 
	C27.090950,63.576748 27.819021,65.093170 28.669971,66.152916 
	C35.927433,75.191154 43.257626,84.171700 50.634392,93.113129 
	C54.030586,97.229691 57.668644,101.147621 61.038818,105.284515 
	C66.701180,112.235046 72.077171,119.423782 77.862923,126.267761 
	C87.054703,137.140701 96.673119,147.657974 105.690681,158.669952 
	C108.171310,161.699219 110.066620,161.678741 112.648796,159.830383 
	C117.731758,156.191971 122.792007,152.511398 127.699829,148.642944 
	C130.315857,146.580933 132.051468,144.332458 129.058228,140.767227 
	C124.714668,135.593628 120.786644,130.055618 116.887917,124.527382 
	C108.826324,113.096367 100.614151,101.950783 96.260979,88.148506 
	C93.199722,78.442406 90.083412,68.838745 90.242760,58.791496 
	C90.359642,51.421227 92.720161,44.086540 94.485588,36.016426 
M180.383560,75.891190 
	C174.381958,75.795723 170.892731,79.840897 166.789291,83.432587 
	C160.752670,88.716354 156.388916,95.253304 155.305237,102.677887 
	C153.780151,113.126762 156.075562,123.268150 161.946991,132.656082 
	C168.837265,143.673080 178.399155,151.860062 188.366989,159.624252 
	C196.257385,165.770248 204.814896,171.371216 215.588135,169.902756 
	C220.791977,169.193451 225.847870,167.398804 230.999527,166.088257 
	C230.999527,143.402710 230.947479,121.414749 231.037964,99.427376 
	C231.059250,94.254196 230.474625,90.642029 225.283722,86.897346 
	C211.773026,77.150749 197.691055,72.108315 180.383560,75.891190 
M150.500000,31.001442 
	C142.007797,31.001421 133.488144,31.412350 125.033615,30.847906 
	C119.927223,30.506994 117.484024,33.332958 117.264259,37.020039 
	C116.750931,45.632526 116.416824,54.438076 117.644302,62.929195 
	C119.484161,75.656517 125.836639,86.910973 132.486191,97.721069 
	C135.799225,103.107056 140.563660,107.600243 145.558899,113.555107 
	C147.430023,91.091942 155.996536,74.404854 174.075165,63.487179 
	C192.378036,52.434071 211.354752,51.983131 230.674759,61.167995 
	C230.674759,50.803593 230.674759,41.059261 230.674759,31.001408 
	C204.067261,31.001408 177.783630,31.001408 150.500000,31.001442 
M178.500931,225.999039 
	C195.921341,225.999039 213.341736,225.999039 230.643768,225.999039 
	C230.643768,208.595001 230.643768,191.897995 230.643768,174.335312 
	C228.460007,175.908401 226.829483,176.916519 225.389145,178.147202 
	C215.157715,186.889404 203.609039,189.789795 190.305847,187.179031 
	C181.051834,185.362930 173.264816,181.031250 165.280289,176.319824 
	C156.433609,171.099655 149.098190,164.602509 143.269928,156.378448 
	C141.390106,153.725891 140.343750,153.464783 137.935257,155.446701 
	C131.809753,160.487274 125.426613,165.218979 119.402214,170.373077 
	C118.600334,171.059113 118.630104,173.935715 119.388649,175.014923 
	C122.573570,179.546280 125.838089,184.120453 129.718903,188.039871 
	C135.037445,193.411407 140.498596,198.856216 146.711945,203.070496 
	C153.727036,207.828552 161.643997,211.256882 169.283905,215.324844 
	C166.411972,218.130859 162.972534,221.491333 159.533096,224.851807 
	C159.866760,225.234207 160.200424,225.616608 160.534103,225.999008 
	C166.189987,225.999008 171.845886,225.999008 178.500931,225.999039 
M46.041367,121.537811 
	C39.995010,114.651482 33.948650,107.765160 27.456284,100.370857 
	C27.456284,142.897690 27.456284,184.375305 27.456284,226.526337 
	C48.765175,209.477142 69.464439,192.915710 90.480545,176.100769 
	C80.914200,164.452423 71.589417,153.159988 62.337090,141.808472 
	C57.011143,135.274170 51.802441,128.644302 46.041367,121.537811 
M123.905701,215.427536 
	C122.410011,213.247986 121.108940,210.898727 119.383095,208.919907 
	C113.611282,202.301910 107.586906,195.902695 101.872353,189.237015 
	C99.638321,186.631149 97.507217,186.690750 95.073708,188.440704 
	C88.897263,192.882233 82.589485,197.168976 76.674210,201.939209 
	C68.119125,208.838242 59.848850,216.091629 51.521645,223.268784 
	C51.069656,223.658356 51.211235,224.736603 51.040806,225.695084 
	C77.803642,225.695084 104.293289,225.695084 132.106781,225.695084 
	C129.126694,221.916290 126.779251,218.939697 123.905701,215.427536 
z"/>
<path fill="#005E69" opacity="1.000000" stroke="none" 
	d="
M306.000000,32.997131 
	C328.497101,32.998997 350.507538,32.538109 372.486359,33.173134 
	C386.072998,33.565685 398.244171,38.719879 409.257996,47.128723 
	C418.316284,54.044563 423.400543,62.906528 423.663147,73.779686 
	C423.915680,84.236427 421.682190,94.554237 413.398254,102.244881 
	C408.610718,106.689583 403.652557,110.950562 398.474213,115.558517 
	C408.528381,116.092773 416.597504,121.988739 424.424805,127.268265 
	C429.804962,130.897217 433.639160,137.453903 436.942169,143.382858 
	C442.369324,153.124863 444.303528,164.039719 441.792328,174.931534 
	C438.862976,187.636841 433.326355,198.863312 421.811646,206.748413 
	C407.747131,216.379623 392.375580,222.272171 375.941101,225.901031 
	C374.825043,226.147461 373.615448,225.987457 372.449371,225.987701 
	C343.119934,225.993881 313.790497,226.003082 284.461060,225.981689 
	C282.757477,225.980438 281.054108,225.725815 279.001648,224.383392 
	C280.960266,222.802185 283.021576,221.330566 284.853485,219.614105 
	C287.609985,217.031281 290.625458,214.564438 292.726288,211.497238 
	C294.185272,209.367111 294.905823,206.312546 294.912506,203.668381 
	C295.036530,154.341888 294.766205,105.012703 295.245117,55.690544 
	C295.322266,47.745415 291.601624,43.448944 286.383911,39.213409 
	C284.984222,38.077194 283.174500,37.437290 281.810669,36.268837 
	C280.932983,35.516903 280.525360,34.216316 279.810608,32.997147 
	C288.930481,32.997147 297.215271,32.997147 306.000000,32.997131 
M366.480835,200.994034 
	C372.156250,200.239517 378.127991,200.332275 383.419983,198.481430 
	C388.273865,196.783813 392.455597,193.079346 396.826050,190.101425 
	C407.339417,182.937912 412.554749,165.560486 408.053284,153.581390 
	C403.319000,140.982712 383.347290,129.337158 373.388947,129.084122 
	C360.412109,128.754395 347.419098,129.113358 334.436066,128.943527 
	C330.872803,128.896912 329.923004,130.190262 329.942169,133.579803 
	C330.060730,154.555374 330.067444,175.532349 329.937653,196.507782 
	C329.916016,200.006409 331.064911,201.114731 334.522827,201.055099 
	C344.841400,200.877167 355.165009,200.992935 366.480835,200.994034 
M348.500305,111.002396 
	C353.665649,111.001205 358.856415,111.326843 363.990723,110.926971 
	C373.100433,110.217476 379.975037,105.269318 385.046844,98.014740 
	C392.077484,87.958168 391.065155,77.657822 385.683044,67.064209 
	C381.772400,59.366890 375.484680,54.866100 367.491760,54.240906 
	C356.230225,53.360043 344.848206,54.057526 333.518341,53.983135 
	C330.962097,53.966351 329.973633,54.924248 329.983246,57.500122 
	C330.045471,74.162224 330.044647,90.824776 329.983337,107.486885 
	C329.973907,110.048485 330.932770,111.075439 333.505829,111.016647 
	C338.168701,110.910110 342.835968,110.996544 348.500305,111.002396 
z"/>
<path fill="#005E6A" opacity="1.000000" stroke="none" 
	d="
M542.599854,77.406769 
	C552.910156,91.345497 562.839172,105.126602 573.175781,118.594833 
	C581.387085,129.293808 590.186462,139.539337 598.554077,150.121170 
	C604.047058,157.067657 609.236145,164.254517 615.476929,172.550903 
	C615.744690,169.731689 615.982422,168.391418 615.983154,167.051010 
	C616.002747,128.896088 615.912354,90.740746 616.094177,52.586681 
	C616.120483,47.062233 612.917114,44.122448 609.336975,41.135014 
	C607.441162,39.553032 605.215027,38.364830 603.334534,36.767426 
	C602.295532,35.884880 601.662598,34.524300 600.321228,32.641922 
	C620.202576,32.641922 638.875610,32.641922 658.670471,32.641922 
	C657.417908,34.194221 656.857056,35.311996 655.954407,35.932655 
	C652.575012,38.256283 649.238586,40.724705 645.594482,42.559933 
	C641.226868,44.759583 639.969788,48.195305 639.979980,52.697735 
	C640.031555,75.523933 640.002991,98.350311 640.002808,121.176628 
	C640.002502,156.998947 640.002502,192.821259 640.002319,228.643585 
	C640.002319,230.593445 640.002319,232.543304 640.002319,235.491516 
	C637.562500,234.371353 635.884705,233.839661 634.465088,232.912628 
	C619.083313,222.868484 605.897034,210.502090 594.398193,196.136612 
	C583.650757,182.709732 572.146606,169.891312 561.175659,156.639420 
	C554.286743,148.318253 547.879700,139.599640 541.054138,131.224243 
	C531.828613,119.903999 522.351746,108.788826 513.101257,97.488632 
	C509.528290,93.123924 506.279968,88.493439 502.006561,82.819359 
	C502.006561,85.925407 502.006561,87.822189 502.006561,89.718971 
	C502.006500,126.041138 502.469513,162.372849 501.721436,198.679596 
	C501.499878,209.432648 506.000427,216.024841 513.642578,221.870926 
	C514.741882,222.711914 515.754761,223.666046 517.912842,225.514374 
	C497.807526,225.514374 479.205536,225.514374 459.319458,225.514374 
	C463.325623,221.781296 466.426300,218.722458 469.709290,215.873718 
	C474.282349,211.905579 476.132050,207.163498 476.107941,200.973755 
	C475.919037,152.489395 475.847992,104.002953 476.169403,55.519989 
	C476.217987,48.188293 473.356201,43.604675 467.740509,39.886288 
	C465.150055,38.171024 462.644470,36.327648 459.650177,34.226429 
	C460.782288,33.421383 461.497040,32.470009 462.204620,32.475281 
	C476.841034,32.584316 491.476654,32.916595 506.112366,32.912918 
	C509.511200,32.912064 511.483673,34.044514 513.357544,36.816132 
	C517.058228,42.289745 521.376465,47.343365 525.135559,52.780678 
	C529.246155,58.726490 532.919312,64.973511 536.978455,70.956734 
	C538.501038,73.201019 540.572937,75.072639 542.599854,77.406769 
z"/>
<path fill="#005D6A" opacity="1.000000" stroke="none" 
	d="
M702.009766,174.000000 
	C702.009827,134.517685 701.742371,95.532211 702.202637,56.555332 
	C702.314270,47.105568 698.496582,41.284084 690.885925,36.966892 
	C689.622864,36.250443 688.400757,35.461800 686.305847,34.186829 
	C687.925964,33.362026 688.779724,32.549438 689.635681,32.547131 
	C709.080017,32.494629 728.524658,32.519909 747.968994,32.587452 
	C748.801025,32.590343 749.631287,33.137470 750.462402,33.431080 
	C750.064575,34.241734 749.879700,35.347691 749.233459,35.813763 
	C745.755066,38.322311 741.919128,40.392582 738.705750,43.187950 
	C736.960205,44.706478 735.165466,47.361065 735.157471,49.509823 
	C734.961731,101.818680 734.977905,154.128494 735.108765,206.437759 
	C735.113464,208.321228 736.362854,210.430832 737.562988,212.038925 
	C741.126282,216.813614 744.955200,221.390106 748.951172,225.774521 
	C747.469727,226.279846 695.538452,226.988754 686.360413,224.007919 
	C687.933594,222.989716 689.572937,222.059753 691.068665,220.938278 
	C698.044617,215.708130 703.187805,209.849045 702.186035,199.970551 
	C701.333130,191.560898 702.009766,182.996140 702.009766,174.000000 
z"/>
<path fill="#F15922" opacity="1.000000" stroke="none" 
	d="
M94.283173,36.376209 
	C92.720161,44.086540 90.359642,51.421227 90.242760,58.791496 
	C90.083412,68.838745 93.199722,78.442406 96.260979,88.148506 
	C100.614151,101.950783 108.826324,113.096367 116.887917,124.527382 
	C120.786644,130.055618 124.714668,135.593628 129.058228,140.767227 
	C132.051468,144.332458 130.315857,146.580933 127.699829,148.642944 
	C122.792007,152.511398 117.731758,156.191971 112.648796,159.830383 
	C110.066620,161.678741 108.171310,161.699219 105.690681,158.669952 
	C96.673119,147.657974 87.054703,137.140701 77.862923,126.267761 
	C72.077171,119.423782 66.701180,112.235046 61.038818,105.284515 
	C57.668644,101.147621 54.030586,97.229691 50.634392,93.113129 
	C43.257626,84.171700 35.927433,75.191154 28.669971,66.152916 
	C27.819021,65.093170 27.090950,63.576748 27.074036,62.262150 
	C26.943401,52.108940 27.002066,41.953289 27.002066,31.400408 
	C50.024879,31.400408 72.879730,31.400408 96.379356,31.400408 
	C95.676529,33.113533 95.081055,34.564980 94.283173,36.376209 
z"/>
<path fill="#F15A22" opacity="1.000000" stroke="none" 
	d="
M180.739349,75.644394 
	C197.691055,72.108315 211.773026,77.150749 225.283722,86.897346 
	C230.474625,90.642029 231.059250,94.254196 231.037964,99.427376 
	C230.947479,121.414749 230.999527,143.402710 230.999527,166.088257 
	C225.847870,167.398804 220.791977,169.193451 215.588135,169.902756 
	C204.814896,171.371216 196.257385,165.770248 188.366989,159.624252 
	C178.399155,151.860062 168.837265,143.673080 161.946991,132.656082 
	C156.075562,123.268150 153.780151,113.126762 155.305237,102.677887 
	C156.388916,95.253304 160.752670,88.716354 166.789291,83.432587 
	C170.892731,79.840897 174.381958,75.795723 180.739349,75.644394 
z"/>
<path fill="#F15A22" opacity="1.000000" stroke="none" 
	d="
M151.000000,31.001425 
	C177.783630,31.001408 204.067261,31.001408 230.674759,31.001408 
	C230.674759,41.059261 230.674759,50.803593 230.674759,61.167995 
	C211.354752,51.983131 192.378036,52.434071 174.075165,63.487179 
	C155.996536,74.404854 147.430023,91.091942 145.558899,113.555107 
	C140.563660,107.600243 135.799225,103.107056 132.486191,97.721069 
	C125.836639,86.910973 119.484161,75.656517 117.644302,62.929195 
	C116.416824,54.438076 116.750931,45.632526 117.264259,37.020039 
	C117.484024,33.332958 119.927223,30.506994 125.033615,30.847906 
	C133.488144,31.412350 142.007797,31.001421 151.000000,31.001425 
z"/>
<path fill="#F15A22" opacity="1.000000" stroke="none" 
	d="
M178.001343,225.999023 
	C171.845886,225.999008 166.189987,225.999008 160.534103,225.999008 
	C160.200424,225.616608 159.866760,225.234207 159.533096,224.851807 
	C162.972534,221.491333 166.411972,218.130859 169.283905,215.324844 
	C161.643997,211.256882 153.727036,207.828552 146.711945,203.070496 
	C140.498596,198.856216 135.037445,193.411407 129.718903,188.039871 
	C125.838089,184.120453 122.573570,179.546280 119.388649,175.014923 
	C118.630104,173.935715 118.600334,171.059113 119.402214,170.373077 
	C125.426613,165.218979 131.809753,160.487274 137.935257,155.446701 
	C140.343750,153.464783 141.390106,153.725891 143.269928,156.378448 
	C149.098190,164.602509 156.433609,171.099655 165.280289,176.319824 
	C173.264816,181.031250 181.051834,185.362930 190.305847,187.179031 
	C203.609039,189.789795 215.157715,186.889404 225.389145,178.147202 
	C226.829483,176.916519 228.460007,175.908401 230.643768,174.335312 
	C230.643768,191.897995 230.643768,208.595001 230.643768,225.999039 
	C213.341736,225.999039 195.921341,225.999039 178.001343,225.999023 
z"/>
<path fill="#F15922" opacity="1.000000" stroke="none" 
	d="
M46.291164,121.797630 
	C51.802441,128.644302 57.011143,135.274170 62.337090,141.808472 
	C71.589417,153.159988 80.914200,164.452423 90.480545,176.100769 
	C69.464439,192.915710 48.765175,209.477142 27.456284,226.526337 
	C27.456284,184.375305 27.456284,142.897690 27.456284,100.370857 
	C33.948650,107.765160 39.995010,114.651482 46.291164,121.797630 
z"/>
<path fill="#F15A22" opacity="1.000000" stroke="none" 
	d="
M124.168755,215.695312 
	C126.779251,218.939697 129.126694,221.916290 132.106781,225.695084 
	C104.293289,225.695084 77.803642,225.695084 51.040806,225.695084 
	C51.211235,224.736603 51.069656,223.658356 51.521645,223.268784 
	C59.848850,216.091629 68.119125,208.838242 76.674210,201.939209 
	C82.589485,197.168976 88.897263,192.882233 95.073708,188.440704 
	C97.507217,186.690750 99.638321,186.631149 101.872353,189.237015 
	C107.586906,195.902695 113.611282,202.301910 119.383095,208.919907 
	C121.108940,210.898727 122.410011,213.247986 124.168755,215.695312 
z"/>
<path fill="#000000" opacity="1.000000" stroke="none" 
	d="
M365.983765,200.994019 
	C355.165009,200.992935 344.841400,200.877167 334.522827,201.055099 
	C331.064911,201.114731 329.916016,200.006409 329.937653,196.507782 
	C330.067444,175.532349 330.060730,154.555374 329.942169,133.579803 
	C329.923004,130.190262 330.872803,128.896912 334.436066,128.943527 
	C347.419098,129.113358 360.412109,128.754395 373.388947,129.084122 
	C383.347290,129.337158 403.319000,140.982712 408.053284,153.581390 
	C412.554749,165.560486 407.339417,182.937912 396.826050,190.101425 
	C392.455597,193.079346 388.273865,196.783813 383.419983,198.481430 
	C378.127991,200.332275 372.156250,200.239517 365.983765,200.994019 
z"/>
<path fill="#000000" opacity="1.000000" stroke="none" 
	d="
M348.000854,111.002411 
	C342.835968,110.996544 338.168701,110.910110 333.505829,111.016647 
	C330.932770,111.075439 329.973907,110.048485 329.983337,107.486885 
	C330.044647,90.824776 330.045471,74.162224 329.983246,57.500122 
	C329.973633,54.924248 330.962097,53.966351 333.518341,53.983135 
	C344.848206,54.057526 356.230225,53.360043 367.491760,54.240906 
	C375.484680,54.866100 381.772400,59.366890 385.683044,67.064209 
	C391.065155,77.657822 392.077484,87.958168 385.046844,98.014740 
	C379.975037,105.269318 373.100433,110.217476 363.990723,110.926971 
	C358.856415,111.326843 353.665649,111.001205 348.000854,111.002411 
z"/>
</svg>