<svg version="1.1" id="Layer_1" xmlns="http://www.w3.org/2000/svg" xmlns:xlink="http://www.w3.org/1999/xlink" x="0px" y="0px"
	 width="100%" viewBox="0 0 452 121" enable-background="new 0 0 452 121" xml:space="preserve">
<path fill="#000000" opacity="1.000000" stroke="none" 
	d="
M302.000000,122.000000 
	C201.333344,122.000000 101.166687,122.000000 1.000027,122.000000 
	C1.000018,81.666687 1.000018,41.333366 1.000009,1.000038 
	C151.666641,1.000025 302.333282,1.000025 452.999939,1.000013 
	C452.999939,41.333294 452.999939,81.666588 452.999969,121.999939 
	C402.833344,122.000000 352.666656,122.000000 302.000000,122.000000 
M340.297638,88.785728 
	C347.778107,88.856010 355.258881,88.984909 362.738800,88.947258 
	C364.238678,88.939713 365.735382,88.298279 367.667755,88.064415 
	C367.667755,88.064415 368.104614,87.959396 368.848145,87.914482 
	C369.302887,87.730682 369.744904,87.432358 370.214264,87.380325 
	C376.957764,86.632866 380.527008,82.041016 381.646454,76.177917 
	C382.703552,70.641251 379.958618,65.989952 374.847565,63.073299 
	C374.511230,62.881371 374.412933,62.272297 374.173492,61.796875 
	C379.386017,58.500896 380.677185,53.515755 379.881470,48.011101 
	C379.180145,43.159370 375.802094,40.335587 370.953156,38.409706 
	C370.606903,38.313549 370.260620,38.217392 369.283722,38.114792 
	C368.863556,38.103939 368.443390,38.093086 367.861633,37.674435 
	C367.565369,37.802105 367.269135,37.929775 366.458130,38.069981 
	C366.286682,38.062130 366.115234,38.054279 365.590271,37.247173 
	C357.059479,37.212315 348.528717,37.177456 339.151215,37.366703 
	C339.101837,53.445232 339.037384,69.523773 339.046570,85.602280 
	C339.047028,86.422577 339.680328,87.242523 340.006165,87.973740 
	C340.006165,87.973740 339.916656,87.981369 340.297638,88.785728 
M127.168625,38.385784 
	C127.112938,54.255093 127.045876,70.124405 127.042007,85.993721 
	C127.041855,86.647049 127.634766,87.300529 128.295547,88.776672 
	C134.392776,88.850471 140.491302,89.027496 146.586685,88.952003 
	C149.391769,88.917267 152.190750,88.387833 155.572342,87.851837 
	C156.657364,87.610359 157.735962,87.334076 158.828415,87.132950 
	C167.256073,85.581429 172.424927,76.865166 168.875198,69.237335 
	C167.532974,66.353065 164.486816,64.261749 162.212326,61.803555 
	C167.351608,57.817146 169.440323,53.087753 167.891174,47.764900 
	C166.622620,43.406219 164.267136,39.731426 158.942688,38.423779 
	C158.603851,38.328762 158.265030,38.233749 157.458191,38.094723 
	C157.458191,38.094723 156.992722,38.029236 156.841003,37.643391 
	C156.569153,37.772903 156.297302,37.902416 155.501266,38.073792 
	C155.326523,38.059948 155.151779,38.046108 154.638214,37.220707 
	C147.220245,37.148304 139.802002,37.017338 132.384567,37.053291 
	C130.915115,37.060413 129.448776,37.708504 127.168625,38.385784 
M430.784332,37.340958 
	C430.525238,37.845352 430.040985,38.349152 430.039673,38.854221 
	C429.998627,54.382233 429.990295,69.910423 430.046234,85.438339 
	C430.049103,86.229088 430.667999,87.017632 431.510620,87.891579 
	C431.681915,87.871117 431.853180,87.850655 432.934601,87.953049 
	C436.610382,87.903419 440.286163,87.853790 444.800964,87.564827 
	C444.864746,71.726334 444.939972,55.887856 444.949890,40.049335 
	C444.950287,39.428265 444.326782,38.806797 443.080750,38.065834 
	C439.393921,38.096535 435.707062,38.127235 431.614716,38.043934 
	C431.614716,38.043934 431.194061,38.022552 430.784332,37.340958 
M225.550125,88.532784 
	C228.622055,88.681000 231.697586,88.963547 234.763290,88.880905 
	C235.509079,88.860802 236.222473,87.639732 236.982773,86.037704 
	C236.982773,76.577202 236.982773,67.116707 236.982773,57.656204 
	C237.550674,57.612221 238.118561,57.568233 238.686462,57.524250 
	C241.091370,62.379154 243.482300,67.241051 245.903732,72.087700 
	C254.251572,88.796371 254.255630,88.794342 270.598602,88.062721 
	C271.062195,87.500267 271.927856,86.939842 271.930695,86.375046 
	C272.007416,71.163246 272.027985,55.950748 271.913208,40.739464 
	C271.906738,39.886501 270.661713,39.042889 269.095886,38.053360 
	C257.267761,37.899879 259.159210,37.227425 259.031128,48.111717 
	C259.011566,49.773399 259.032471,51.435539 259.032684,53.097469 
	C259.033264,58.238411 259.032898,63.379353 259.032898,68.520294 
	C256.306366,64.691307 254.424072,60.701672 252.358551,56.809261 
	C249.009216,50.497524 245.539734,44.249550 241.891006,37.598118 
	C241.581192,37.732315 241.271393,37.866512 240.483017,38.106586 
	C240.483017,38.106586 240.001907,38.200218 239.086533,38.044735 
	C235.059128,38.098907 231.031738,38.153084 226.415543,38.196011 
	C225.960876,38.514881 225.506226,38.833752 224.193619,39.361282 
	C224.128738,53.773022 224.093002,68.185043 223.953415,82.596054 
	C223.939621,84.020218 223.290344,85.438225 222.629486,86.207428 
	C216.753250,70.948547 210.916809,55.673965 204.914932,40.464672 
	C204.496338,39.403934 202.881348,38.189129 201.769882,38.135216 
	C196.655807,37.887177 191.522995,38.025925 186.542419,38.025925 
	C180.222809,54.758423 174.070053,71.049133 167.732025,87.830391 
	C172.722244,87.830391 176.855011,87.830391 181.668030,87.655212 
	C182.482880,86.085114 183.612793,84.597290 184.048599,82.928223 
	C185.029037,79.173256 186.946838,77.521828 191.066559,77.891327 
	C195.343918,78.274956 199.691040,77.880600 204.604141,78.287857 
	C208.703995,89.973816 205.431046,87.715820 217.606247,87.988190 
	C219.074066,88.021027 220.546127,87.863541 222.761093,87.949059 
	C223.516281,87.929688 224.271469,87.910309 225.550125,88.532784 
M384.065887,38.889774 
	C384.065887,55.428894 384.065887,71.968018 384.065887,88.963104 
	C388.094055,88.963104 391.404327,89.152313 394.663391,88.827660 
	C395.460205,88.748291 396.089355,86.985680 396.940735,85.072083 
	C396.961060,80.756714 396.861298,76.435425 397.073944,72.129562 
	C397.138763,70.817451 397.864929,68.619827 398.636810,68.454391 
	C400.182831,68.123039 402.235260,68.496666 403.583984,69.355743 
	C405.012085,70.265350 406.182068,71.932388 406.909973,73.522575 
	C409.045441,78.187653 410.905182,82.978935 412.756104,87.439178 
	C417.281799,87.439178 421.798828,87.439178 427.428101,87.439178 
	C424.811157,80.563698 423.085205,74.242561 420.041962,68.636505 
	C417.867188,64.630272 418.034515,62.509476 421.543152,59.737003 
	C425.870636,56.317467 425.801880,51.127281 424.499207,46.504238 
	C423.297913,42.241028 420.032745,39.268753 414.881622,38.502285 
	C414.576294,38.410000 414.270935,38.317711 413.473602,38.133713 
	C413.310730,38.097679 413.147827,38.061646 412.840271,37.632401 
	C412.560577,37.761036 412.280853,37.889675 411.473694,38.054455 
	C411.297729,38.044357 411.121765,38.034264 410.584991,37.231625 
	C404.774902,37.154373 398.963043,36.961136 393.155396,37.047783 
	C390.157806,37.092506 387.167603,37.634563 384.065887,38.889774 
M278.068420,87.967346 
	C280.234039,87.976097 282.416565,87.815376 284.561615,88.029915 
	C288.661469,88.439972 290.312744,86.868355 290.041992,82.650719 
	C289.748901,78.084717 289.975586,73.485352 289.975586,68.900536 
	C290.390137,68.727463 290.804688,68.554382 291.219238,68.381302 
	C294.472565,72.951431 297.943115,77.384956 300.924164,82.126282 
	C304.642853,88.040886 314.959412,90.441704 321.807709,86.260124 
	C316.905457,79.683914 312.247437,72.966072 307.072998,66.672806 
	C304.049683,62.995773 303.679230,60.057735 306.942566,56.480194 
	C310.704437,52.356106 314.106659,47.904541 317.856049,43.768291 
	C319.859558,41.558067 320.220703,39.639290 317.395233,38.261101 
	C312.783295,36.011482 304.087799,38.622066 300.968536,42.850883 
	C297.722168,47.252026 294.406006,51.601700 291.120361,55.973885 
	C290.749115,55.867176 290.377838,55.760471 290.006592,55.653763 
	C290.006592,49.942074 290.006592,44.230385 290.006592,38.187878 
	C285.233215,38.187878 281.114929,38.187878 276.228729,38.546234 
	C276.156158,54.503960 276.073059,70.461678 276.059998,86.419456 
	C276.059570,86.916199 276.783417,87.413528 278.068420,87.967346 
M10.189501,27.420265 
	C10.130455,50.593117 10.063486,73.765961 10.052161,96.938843 
	C10.051835,97.606422 10.641487,98.274300 11.089162,99.488594 
	C11.140265,99.668999 11.191366,99.849411 11.148081,100.496544 
	C11.148081,100.496544 11.227402,100.966049 11.059563,101.716957 
	C12.309257,108.459007 16.490459,112.315804 23.948296,113.988876 
	C48.951706,113.943245 73.955116,113.897614 99.729927,113.943321 
	C108.348633,112.039116 112.208252,108.020439 112.818245,100.673843 
	C112.826508,81.811172 112.834770,62.948502 112.944733,43.143139 
	C112.957726,37.843731 113.085571,32.541492 112.955231,27.245609 
	C112.784233,20.297567 107.634346,14.149645 100.827362,12.357039 
	C100.196350,12.284471 99.565331,12.211902 98.433922,12.055683 
	C98.264816,12.057263 98.095703,12.058845 97.667267,11.210853 
	C73.514732,11.137609 49.362202,11.053185 25.209629,11.039897 
	C24.405039,11.039454 23.600054,11.759106 22.469875,12.010957 
	C22.469875,12.010957 22.119661,12.037116 21.525749,12.043269 
	C21.273384,12.334694 21.021019,12.626119 20.046715,12.923310 
	C13.243880,15.190135 11.053631,20.430445 10.189501,27.420265 
z"/>
<path fill="#0A4291" opacity="1.000000" stroke="none" 
	d="
M101.185181,12.911265 
	C107.634346,14.149645 112.784233,20.297567 112.955231,27.245609 
	C113.085571,32.541492 112.957726,37.843731 112.628487,43.925236 
	C112.225906,63.508934 112.139572,82.310532 112.053238,101.112137 
	C112.208252,108.020439 108.348633,112.039116 99.040825,113.615875 
	C73.816971,113.211166 49.282223,113.128349 24.747412,113.090660 
	C24.170700,113.089775 23.593212,113.595665 23.016087,113.865173 
	C16.490459,112.315804 12.309257,108.459007 11.251366,101.244690 
	C11.585883,100.479294 11.518983,100.231766 11.242469,100.029831 
	C11.191366,99.849411 11.140265,99.668999 11.047325,98.966461 
	C11.005488,98.444336 11.122334,97.958282 11.364327,97.628601 
	C11.732802,96.655144 11.969141,96.011482 11.969851,95.367569 
	C11.993369,74.019753 12.006926,52.671894 11.962259,31.324163 
	C11.959976,30.233229 11.429075,29.143398 11.087206,27.797043 
	C11.006237,27.367804 10.982354,27.194574 10.958470,27.021345 
	C11.053631,20.430445 13.243880,15.190135 20.669308,12.836302 
	C21.567820,12.511901 21.843740,12.274508 22.119661,12.037115 
	C22.119661,12.037116 22.469875,12.010957 22.936539,12.087244 
	C23.600002,12.210151 23.796803,12.256770 24.357395,12.496815 
	C48.063618,12.784294 71.406029,12.886184 94.748550,12.937618 
	C95.512375,12.939301 96.277336,12.427216 97.259415,12.097668 
	C97.477066,12.040711 97.926598,12.060426 97.926598,12.060426 
	C98.095703,12.058845 98.264816,12.057263 98.917191,12.299881 
	C99.995369,12.666473 100.590271,12.788870 101.185181,12.911265 
M58.639248,106.534813 
	C66.744637,106.383141 74.850021,106.231476 83.493637,106.038422 
	C83.673103,106.025414 83.852577,106.012398 84.542633,106.089027 
	C84.710838,106.128571 84.879051,106.168121 85.672897,106.633827 
	C88.121185,106.121208 90.569473,105.608589 93.666710,104.923668 
	C93.578339,103.975143 93.857552,102.695831 93.346382,102.127777 
	C85.850212,93.797546 78.356773,85.459206 70.629700,77.344650 
	C66.333862,72.833389 61.510349,68.826180 57.174679,64.349655 
	C56.501400,63.654510 56.588730,61.077816 57.309448,60.359116 
	C62.909077,54.775181 68.827446,49.512714 74.493767,43.993279 
	C79.472137,39.143967 80.727333,32.158974 77.739403,27.471888 
	C73.931580,21.498686 67.473457,19.450937 59.762775,22.129982 
	C69.101593,40.748211 56.456467,51.704689 44.094406,63.318096 
	C46.277973,65.138542 48.102089,66.361862 49.553379,67.930176 
	C52.734200,71.367485 56.580040,74.551399 58.615494,78.610443 
	C62.722187,86.799889 61.998173,95.508522 58.340523,104.066330 
	C58.229969,104.709259 58.119415,105.352180 58.639248,106.534813 
M21.973619,95.666283 
	C22.263269,96.793526 22.552917,97.920761 23.014183,99.761948 
	C24.776424,101.527725 26.343765,104.471863 28.343365,104.802597 
	C31.985302,105.404984 36.185410,105.272537 39.618679,104.002853 
	C50.012173,100.159126 54.050034,90.564514 45.244507,81.724655 
	C40.197166,76.657639 35.207085,71.529243 30.029530,66.598259 
	C27.677580,64.358322 27.622437,62.728870 30.010113,60.453407 
	C35.426109,55.291927 40.893169,50.137863 45.806435,44.515018 
	C48.173046,41.806610 50.214443,38.201408 50.835258,34.722507 
	C51.786415,29.392498 46.967083,22.818588 42.118645,21.156588 
	C36.131016,19.104082 26.681662,21.525114 22.445383,26.345329 
	C22.274872,26.578005 22.101351,26.808416 21.420637,27.684191 
	C21.285671,28.325737 21.033529,28.967138 21.032726,29.608852 
	C21.006826,50.297894 20.992331,70.986992 21.035952,91.675949 
	C21.038256,92.768486 21.563503,93.859932 21.973619,95.666283 
M99.746788,25.369303 
	C96.698982,21.868555 93.459396,18.953352 88.190498,21.690361 
	C88.230408,22.289347 88.087982,23.007092 88.341881,23.533773 
	C92.124031,31.379253 92.162819,39.379169 87.525772,46.594547 
	C84.361099,51.518871 79.865318,55.654579 75.624023,59.793819 
	C73.272621,62.088646 73.385521,63.718151 75.442406,65.892288 
	C77.769608,68.352127 79.808472,71.096115 82.227081,73.455833 
	C87.712143,78.807327 93.353249,83.998878 99.051529,89.879143 
	C100.945488,90.713440 101.019440,90.713531 101.022850,87.939926 
	C101.046715,68.510284 101.054047,49.080555 101.000488,29.651035 
	C100.997047,28.407726 100.440277,27.165945 99.746788,25.369303 
z"/>
<path fill="#084091" opacity="1.000000" stroke="none" 
	d="
M156.992722,38.029236 
	C156.992722,38.029236 157.458191,38.094723 157.867508,38.302502 
	C158.583954,38.648720 158.891083,38.787159 159.198212,38.925598 
	C164.267136,39.731426 166.622620,43.406219 167.891174,47.764900 
	C169.440323,53.087753 167.351608,57.817146 162.212326,61.803555 
	C164.486816,64.261749 167.532974,66.353065 168.875198,69.237335 
	C172.424927,76.865166 167.256073,85.581429 158.828415,87.132950 
	C157.735962,87.334076 156.657364,87.610359 155.024384,87.902245 
	C154.312302,87.885971 154.148148,87.819290 153.633392,87.538780 
	C144.937119,87.197701 136.591446,87.070450 128.167877,86.484047 
	C128.147781,70.364601 128.205582,54.704308 128.714691,39.030777 
	C131.292252,39.009262 133.421143,39.066490 135.544220,38.980320 
	C141.693130,38.730755 147.839706,38.423561 154.233887,38.105164 
	C154.480576,38.071342 154.977036,38.032265 154.977036,38.032265 
	C155.151779,38.046108 155.326523,38.059948 156.005219,38.058632 
	C156.509171,38.043476 156.992722,38.029236 156.992722,38.029236 
M148.123703,67.024872 
	C141.155746,66.861366 140.725494,67.259346 141.003113,73.611488 
	C141.191101,77.912636 142.723083,78.790352 148.868652,77.944740 
	C149.981140,77.791656 151.053055,77.296898 152.125778,76.910141 
	C155.385941,75.734734 156.590820,72.663322 154.349945,70.158600 
	C153.040909,68.695427 150.795074,68.070381 148.123703,67.024872 
M141.968216,52.642952 
	C142.048080,54.253113 142.127945,55.863270 142.229309,57.906700 
	C143.965286,57.906700 145.759918,58.455715 146.775406,57.799320 
	C149.372803,56.120388 154.575577,56.845356 153.852783,51.869965 
	C153.166489,47.146049 148.513779,47.863564 145.260574,47.222336 
	C141.610992,46.502975 142.067871,49.512260 141.968216,52.642952 
z"/>
<path fill="#073F92" opacity="1.000000" stroke="none" 
	d="
M269.954163,87.793625 
	C254.255630,88.794342 254.251572,88.796371 245.903732,72.087700 
	C243.482300,67.241051 241.091370,62.379154 238.686462,57.524250 
	C238.118561,57.568233 237.550674,57.612221 236.982773,57.656204 
	C236.982773,67.116707 236.982773,76.577202 236.510040,86.508499 
	C234.876251,86.984451 233.715164,86.994637 232.554092,86.993935 
	C226.009811,86.989983 226.001907,86.989098 225.998276,80.521881 
	C225.991684,68.745102 226.030075,56.968109 225.957611,45.191772 
	C225.946747,43.427383 225.436890,41.666061 225.087952,39.721779 
	C225.018051,39.540237 225.051559,39.152622 225.051559,39.152622 
	C225.506226,38.833752 225.960876,38.514881 227.050171,38.416817 
	C231.790497,38.491817 235.896194,38.346020 240.001907,38.200218 
	C240.001907,38.200218 240.483017,38.106586 241.012527,38.058144 
	C241.735031,37.998020 241.928009,37.986340 242.120972,37.974663 
	C245.539734,44.249550 249.009216,50.497524 252.358551,56.809261 
	C254.424072,60.701672 256.306366,64.691307 259.032898,68.520294 
	C259.032898,63.379353 259.033264,58.238411 259.032684,53.097469 
	C259.032471,51.435539 259.011566,49.773399 259.031128,48.111717 
	C259.159210,37.227425 257.267761,37.899879 269.550629,38.315643 
	C270.005371,38.577930 270.011719,38.961296 270.008453,39.433731 
	C270.003784,55.611599 270.002350,71.317032 269.990723,87.215347 
	C269.980560,87.408226 269.954163,87.793625 269.954163,87.793625 
z"/>
<path fill="#074091" opacity="1.000000" stroke="none" 
	d="
M368.023224,38.082237 
	C368.443390,38.093086 368.863556,38.103939 369.777893,38.307716 
	C370.585663,38.641304 370.899200,38.781963 371.212769,38.922626 
	C375.802094,40.335587 379.180145,43.159370 379.881470,48.011101 
	C380.677185,53.515755 379.386017,58.500896 374.173492,61.796875 
	C374.412933,62.272297 374.511230,62.881371 374.847565,63.073299 
	C379.958618,65.989952 382.703552,70.641251 381.646454,76.177917 
	C380.527008,82.041016 376.957764,86.632866 370.214264,87.380325 
	C369.744904,87.432358 369.302887,87.730682 368.141052,87.675766 
	C358.336609,87.255104 349.239197,87.073151 340.075958,86.446930 
	C340.060760,82.991005 340.111420,79.979347 340.394653,76.630081 
	C340.757874,63.872208 340.888580,51.451954 341.485779,39.018127 
	C349.632385,38.712814 357.312408,38.421074 365.228821,38.091614 
	C365.465179,38.053890 365.943787,38.046425 365.943787,38.046425 
	C366.115234,38.054279 366.286682,38.062130 366.816864,38.205887 
	C367.458130,38.255272 367.740692,38.168755 368.023224,38.082237 
M357.542145,78.001305 
	C359.198822,77.927505 361.061523,78.304199 362.459534,77.664803 
	C364.170776,76.882164 366.578857,75.348694 366.707397,73.957130 
	C366.867157,72.227638 365.436554,69.382950 363.920349,68.675606 
	C361.072266,67.346909 357.669739,67.206635 353.975922,66.467789 
	C353.975922,70.166229 353.682953,72.535423 354.094788,74.775017 
	C354.313202,75.962669 355.755341,76.925285 357.542145,78.001305 
M353.978607,50.128799 
	C353.978607,52.241779 353.978607,54.354759 353.978607,57.565525 
	C357.729187,56.837528 360.930908,56.746449 363.558075,55.471447 
	C364.782104,54.877415 365.823608,51.659760 365.311829,50.208160 
	C364.272247,47.259590 356.672821,46.909039 353.978607,50.128799 
z"/>
<path fill="#094191" opacity="1.000000" stroke="none" 
	d="
M276.996613,38.187878 
	C281.114929,38.187878 285.233215,38.187878 290.006592,38.187878 
	C290.006592,44.230385 290.006592,49.942074 290.006592,55.653763 
	C290.377838,55.760471 290.749115,55.867176 291.120361,55.973885 
	C294.406006,51.601700 297.722168,47.252026 300.968536,42.850883 
	C304.087799,38.622066 312.783295,36.011482 317.395233,38.261101 
	C320.220703,39.639290 319.859558,41.558067 317.856049,43.768291 
	C314.106659,47.904541 310.704437,52.356106 306.942566,56.480194 
	C303.679230,60.057735 304.049683,62.995773 307.072998,66.672806 
	C312.247437,72.966072 316.905457,79.683914 321.807709,86.260124 
	C314.959412,90.441704 304.642853,88.040886 300.924164,82.126282 
	C297.943115,77.384956 294.472565,72.951431 291.219238,68.381302 
	C290.804688,68.554382 290.390137,68.727463 289.975586,68.900536 
	C289.975586,73.485352 289.748901,78.084717 290.041992,82.650719 
	C290.312744,86.868355 288.661469,88.439972 284.561615,88.029915 
	C282.416565,87.815376 280.234039,87.976097 277.555817,87.485199 
	C277.027679,70.731331 277.012146,54.459602 276.996613,38.187878 
z"/>
<path fill="#084192" opacity="1.000000" stroke="none" 
	d="
M415.140320,38.937672 
	C420.032745,39.268753 423.297913,42.241028 424.499207,46.504238 
	C425.801880,51.127281 425.870636,56.317467 421.543152,59.737003 
	C418.034515,62.509476 417.867188,64.630272 420.041962,68.636505 
	C423.085205,74.242561 424.811157,80.563698 427.428101,87.439178 
	C421.798828,87.439178 417.281799,87.439178 412.756104,87.439178 
	C410.905182,82.978935 409.045441,78.187653 406.909973,73.522575 
	C406.182068,71.932388 405.012085,70.265350 403.583984,69.355743 
	C402.235260,68.496666 400.182831,68.123039 398.636810,68.454391 
	C397.864929,68.619827 397.138763,70.817451 397.073944,72.129562 
	C396.861298,76.435425 396.961060,80.756714 396.512024,85.715195 
	C394.788452,86.567726 393.498230,86.920540 392.197998,86.962730 
	C385.006470,87.196068 385.000763,87.170135 384.998596,80.141472 
	C384.994904,68.345955 385.205750,56.544971 384.895172,44.757648 
	C384.772705,40.109692 386.254242,38.761875 390.810333,38.880177 
	C397.211853,39.046391 403.633881,38.424187 410.269501,38.092541 
	C410.491882,38.045910 410.945831,38.024166 410.945831,38.024166 
	C411.121765,38.034264 411.297729,38.044357 411.983368,38.045647 
	C412.493042,38.036842 412.984955,38.025616 412.984955,38.025616 
	C413.147827,38.061646 413.310730,38.097679 413.880554,38.350060 
	C414.535858,38.772629 414.820129,38.896381 415.140320,38.937672 
M406.892212,57.659302 
	C408.231659,55.811108 409.571106,53.962917 410.910522,52.114719 
	C408.837524,50.686481 406.779633,49.235401 404.681061,47.845753 
	C404.143677,47.489887 403.474365,47.105301 402.871338,47.114338 
	C399.571838,47.163792 396.755341,47.448685 396.915039,52.136066 
	C397.145752,58.907078 398.579254,59.993210 406.892212,57.659302 
z"/>
<path fill="#094192" opacity="1.000000" stroke="none" 
	d="
M180.987793,87.830391 
	C176.855011,87.830391 172.722244,87.830391 167.732025,87.830391 
	C174.070053,71.049133 180.222809,54.758423 186.542419,38.025925 
	C191.522995,38.025925 196.655807,37.887177 201.769882,38.135216 
	C202.881348,38.189129 204.496338,39.403934 204.914932,40.464672 
	C210.916809,55.673965 216.753250,70.948547 222.586334,86.646355 
	C222.251465,87.235329 222.075821,87.471657 222.016220,87.794266 
	C220.546127,87.863541 219.074066,88.021027 217.606247,87.988190 
	C205.431046,87.715820 208.703995,89.973816 204.270020,77.663559 
	C203.614914,76.493019 203.305054,75.478233 202.971329,75.470322 
	C197.371246,75.337570 191.141220,73.841705 186.395325,75.840401 
	C183.434738,77.087219 182.713806,83.652077 180.987793,87.830391 
M191.086609,61.726067 
	C190.692413,63.648582 190.298218,65.571098 189.907745,67.475464 
	C193.987213,67.475464 197.144928,67.475464 200.758011,67.475464 
	C198.925110,61.419594 197.277496,55.975925 195.283676,49.388371 
	C193.773209,54.015778 192.629837,57.518559 191.086609,61.726067 
z"/>
<path fill="#053F92" opacity="1.000000" stroke="none" 
	d="
M432.020233,38.157940 
	C435.707062,38.127235 439.393921,38.096535 443.544098,38.579803 
	C443.992279,55.330563 443.977112,71.567360 443.961914,87.804153 
	C440.286163,87.853790 436.610382,87.903419 432.472961,87.435944 
	C432.014313,70.665215 432.017273,54.411575 432.020233,38.157940 
z"/>
<path fill="#0E416E" opacity="1.000000" stroke="none" 
	d="
M410.047119,38.139172 
	C403.633881,38.424187 397.211853,39.046391 390.810333,38.880177 
	C386.254242,38.761875 384.772705,40.109692 384.895172,44.757648 
	C385.205750,56.544971 384.994904,68.345955 384.998596,80.141472 
	C385.000763,87.170135 385.006470,87.196068 392.197998,86.962730 
	C393.498230,86.920540 394.788452,86.567726 396.439453,86.177643 
	C396.089355,86.985680 395.460205,88.748291 394.663391,88.827660 
	C391.404327,89.152313 388.094055,88.963104 384.065887,88.963104 
	C384.065887,71.968018 384.065887,55.428894 384.575378,38.431419 
	C393.405609,38.028435 401.726379,38.083805 410.047119,38.139172 
z"/>
<path fill="#0D4286" opacity="1.000000" stroke="none" 
	d="
M181.327911,87.742798 
	C182.713806,83.652077 183.434738,77.087219 186.395325,75.840401 
	C191.141220,73.841705 197.371246,75.337570 202.971329,75.470322 
	C203.305054,75.478233 203.614914,76.493019 203.971771,77.432877 
	C199.691040,77.880600 195.343918,78.274956 191.066559,77.891327 
	C186.946838,77.521828 185.029037,79.173256 184.048599,82.928223 
	C183.612793,84.597290 182.482880,86.085114 181.327911,87.742798 
z"/>
<path fill="#6B8997" opacity="1.000000" stroke="none" 
	d="
M23.482191,113.927025 
	C23.593212,113.595665 24.170700,113.089775 24.747412,113.090660 
	C49.282223,113.128349 73.816971,113.211166 98.655121,113.570206 
	C73.955116,113.897614 48.951706,113.943245 23.482191,113.927025 
z"/>
<path fill="#A6D5FC" opacity="1.000000" stroke="none" 
	d="
M23.993601,12.303389 
	C23.796803,12.256770 23.600002,12.210151 23.099228,12.153315 
	C23.600054,11.759106 24.405039,11.039454 25.209629,11.039897 
	C49.362202,11.053185 73.514732,11.137609 97.796936,11.635639 
	C97.926598,12.060426 97.477066,12.040711 96.788727,12.029249 
	C89.965179,12.006978 83.829803,11.961784 77.694794,11.991854 
	C59.794319,12.079585 41.893990,12.197379 23.993601,12.303389 
z"/>
<path fill="#76A2C8" opacity="1.000000" stroke="none" 
	d="
M10.573986,27.220806 
	C10.982354,27.194574 11.006237,27.367804 11.030729,28.258461 
	C11.061672,51.970024 11.092003,74.964149 11.122334,97.958282 
	C11.122334,97.958282 11.005488,98.444336 10.980768,98.693192 
	C10.641487,98.274300 10.051835,97.606422 10.052161,96.938843 
	C10.063486,73.765961 10.130455,50.593117 10.573986,27.220806 
z"/>
<path fill="#114168" opacity="1.000000" stroke="none" 
	d="
M225.157837,39.903320 
	C225.436890,41.666061 225.946747,43.427383 225.957611,45.191772 
	C226.030075,56.968109 225.991684,68.745102 225.998276,80.521881 
	C226.001907,86.989098 226.009811,86.989983 232.554092,86.993935 
	C233.715164,86.994637 234.876251,86.984451 236.494049,86.975082 
	C236.222473,87.639732 235.509079,88.860802 234.763290,88.880905 
	C231.697586,88.963547 228.622055,88.681000 225.275040,87.751724 
	C225.052582,71.281548 225.105209,55.592434 225.157837,39.903320 
z"/>
<path fill="#5F8A9D" opacity="1.000000" stroke="none" 
	d="
M112.435745,100.892990 
	C112.139572,82.310532 112.225906,63.508934 112.577637,44.396584 
	C112.834770,62.948502 112.826508,81.811172 112.435745,100.892990 
z"/>
<path fill="#315B89" opacity="1.000000" stroke="none" 
	d="
M270.011719,38.961292 
	C270.011719,38.961296 270.005371,38.577930 269.999268,38.386429 
	C270.661713,39.042889 271.906738,39.886501 271.913208,40.739464 
	C272.027985,55.950748 272.007416,71.163246 271.930695,86.375046 
	C271.927856,86.939842 271.062195,87.500267 270.276367,87.928177 
	C269.954163,87.793625 269.980560,87.408226 270.267822,86.901062 
	C270.672363,71.158943 270.799591,55.924023 270.868652,40.688828 
	C270.871277,40.114288 270.310150,39.537193 270.011719,38.961292 
z"/>
<path fill="#96BBDC" opacity="1.000000" stroke="none" 
	d="
M431.000061,87.807190 
	C430.667999,87.017632 430.049103,86.229088 430.046234,85.438339 
	C429.990295,69.910423 429.998627,54.382233 430.039673,38.854221 
	C430.040985,38.349152 430.525238,37.845352 430.914551,38.139732 
	C431.029877,55.228069 431.014984,71.517632 431.000061,87.807190 
z"/>
<path fill="#517FB0" opacity="1.000000" stroke="none" 
	d="
M276.612671,38.367058 
	C277.012146,54.459602 277.027679,70.731331 277.106415,87.456818 
	C276.783417,87.413528 276.059570,86.916199 276.059998,86.419456 
	C276.073059,70.461678 276.156158,54.503960 276.612671,38.367058 
z"/>
<path fill="#D4EEFE" opacity="1.000000" stroke="none" 
	d="
M225.087952,39.721779 
	C225.105209,55.592434 225.052582,71.281548 225.013306,87.430801 
	C224.271469,87.910309 223.516281,87.929688 222.388657,87.871658 
	C222.075821,87.471657 222.251465,87.235329 222.739594,86.972183 
	C223.290344,85.438225 223.939621,84.020218 223.953415,82.596054 
	C224.093002,68.185043 224.128738,53.773022 224.622589,39.256950 
	C225.051559,39.152622 225.018051,39.540237 225.087952,39.721779 
z"/>
<path fill="#BEDCEB" opacity="1.000000" stroke="none" 
	d="
M340.162109,76.967690 
	C340.111420,79.979347 340.060760,82.991005 340.012512,86.736916 
	C340.016266,87.668320 340.017609,87.865479 340.018982,88.062637 
	C339.680328,87.242523 339.047028,86.422577 339.046570,85.602280 
	C339.037384,69.523773 339.101837,53.445232 339.599304,37.486938 
	C340.047424,37.607170 340.139648,38.065685 340.087067,38.308266 
	C340.034485,38.550850 340.152710,39.032131 340.087158,39.494659 
	C340.068420,52.294025 340.115265,64.630859 340.162109,76.967690 
z"/>
<path fill="#CADEE9" opacity="1.000000" stroke="none" 
	d="
M128.263382,39.044010 
	C128.205582,54.704308 128.147781,70.364601 128.080063,86.760071 
	C128.029816,87.683678 127.989494,87.872124 127.930618,88.033508 
	C127.912064,88.006454 127.951370,87.953934 127.951370,87.953934 
	C127.634766,87.300529 127.041855,86.647049 127.042007,85.993721 
	C127.045876,70.124405 127.112938,54.255093 127.581100,38.195740 
	C127.993584,38.005692 127.938210,38.013676 128.011551,38.273769 
	C128.144379,38.703911 128.203888,38.873962 128.263382,39.044010 
z"/>
<path fill="#9DBCCB" opacity="1.000000" stroke="none" 
	d="
M444.381439,87.684494 
	C443.977112,71.567360 443.992279,55.330563 444.000732,38.639641 
	C444.326782,38.806797 444.950287,39.428265 444.949890,40.049335 
	C444.939972,55.887856 444.864746,71.726334 444.381439,87.684494 
z"/>
<path fill="#093F7E" opacity="1.000000" stroke="none" 
	d="
M431.255371,87.849380 
	C431.014984,71.517632 431.029877,55.228069 431.119385,38.480530 
	C431.194061,38.022552 431.614716,38.043934 431.817474,38.100937 
	C432.017273,54.411575 432.014313,70.665215 432.017883,87.374519 
	C431.853180,87.850655 431.681915,87.871117 431.255371,87.849380 
z"/>
<path fill="#1E4869" opacity="1.000000" stroke="none" 
	d="
M340.012573,88.018188 
	C340.017609,87.865479 340.016266,87.668320 340.078369,87.181183 
	C349.239197,87.073151 358.336609,87.255104 367.769287,87.698227 
	C368.104614,87.959396 367.667755,88.064415 366.968292,87.951599 
	C357.484772,87.886322 348.700714,87.933846 339.916656,87.981369 
	C339.916656,87.981369 340.006165,87.973740 340.012573,88.018188 
z"/>
<path fill="#BEECFF" opacity="1.000000" stroke="none" 
	d="
M340.107147,88.383545 
	C348.700714,87.933846 357.484772,87.886322 366.751190,87.893951 
	C365.735382,88.298279 364.238678,88.939713 362.738800,88.947258 
	C355.258881,88.984909 347.778107,88.856010 340.107147,88.383545 
z"/>
<path fill="#BEEBFF" opacity="1.000000" stroke="none" 
	d="
M153.983994,87.752602 
	C154.148148,87.819290 154.312302,87.885971 154.734467,88.017685 
	C152.190750,88.387833 149.391769,88.917267 146.586685,88.952003 
	C140.491302,89.027496 134.392776,88.850471 128.123459,88.365303 
	C127.951370,87.953934 127.912064,88.006454 128.401031,87.992805 
	C137.254669,87.903641 145.619339,87.828125 153.983994,87.752602 
z"/>
<path fill="#5C8EBB" opacity="1.000000" stroke="none" 
	d="
M410.269501,38.092541 
	C401.726379,38.083805 393.405609,38.028435 384.629456,37.962490 
	C387.167603,37.634563 390.157806,37.092506 393.155396,37.047783 
	C398.963043,36.961136 404.774902,37.154373 410.765411,37.627895 
	C410.945831,38.024166 410.491882,38.045910 410.269501,38.092541 
z"/>
<path fill="#5D90BD" opacity="1.000000" stroke="none" 
	d="
M154.807617,37.626488 
	C154.977036,38.032265 154.480576,38.071342 153.768066,38.047386 
	C144.683121,38.020176 136.310669,38.016926 127.938210,38.013676 
	C127.938210,38.013676 127.993584,38.005692 127.987289,38.033352 
	C129.448776,37.708504 130.915115,37.060413 132.384567,37.053291 
	C139.802002,37.017338 147.220245,37.148304 154.807617,37.626488 
z"/>
<path fill="#5A8FBB" opacity="1.000000" stroke="none" 
	d="
M340.139648,38.065681 
	C340.139648,38.065685 340.047424,37.607170 340.022675,37.374882 
	C348.528717,37.177456 357.059479,37.212315 365.767029,37.646797 
	C365.943787,38.046425 365.465179,38.053890 364.761658,38.045868 
	C356.085297,38.047127 348.112457,38.056404 340.139648,38.065681 
z"/>
<path fill="#114168" opacity="1.000000" stroke="none" 
	d="
M239.544220,38.122478 
	C235.896194,38.346020 231.790497,38.491817 227.344559,38.422440 
	C231.031738,38.153084 235.059128,38.098907 239.544220,38.122478 
z"/>
<path fill="#11446F" opacity="1.000000" stroke="none" 
	d="
M367.942444,37.878334 
	C367.740692,38.168755 367.458130,38.255272 367.074219,38.199615 
	C367.269135,37.929775 367.565369,37.802105 367.942444,37.878334 
z"/>
<path fill="#14436B" opacity="1.000000" stroke="none" 
	d="
M101.006271,12.634152 
	C100.590271,12.788870 99.995369,12.666473 99.167389,12.341705 
	C99.565331,12.211902 100.196350,12.284471 101.006271,12.634152 
z"/>
<path fill="#084184" opacity="1.000000" stroke="none" 
	d="
M11.195274,100.263184 
	C11.518983,100.231766 11.585883,100.479294 11.335285,100.869232 
	C11.227402,100.966049 11.148081,100.496544 11.195274,100.263184 
z"/>
<path fill="#14436B" opacity="1.000000" stroke="none" 
	d="
M21.822704,12.040192 
	C21.843740,12.274508 21.567820,12.511901 21.030277,12.833418 
	C21.021019,12.626119 21.273384,12.334694 21.822704,12.040192 
z"/>
<path fill="#104470" opacity="1.000000" stroke="none" 
	d="
M159.070450,38.674690 
	C158.891083,38.787159 158.583954,38.648720 158.101501,38.324509 
	C158.265030,38.233749 158.603851,38.328762 159.070450,38.674690 
z"/>
<path fill="#0E416E" opacity="1.000000" stroke="none" 
	d="
M412.912598,37.829010 
	C412.984955,38.025616 412.493042,38.036842 412.247101,38.027576 
	C412.280853,37.889675 412.560577,37.761036 412.912598,37.829010 
z"/>
<path fill="#104470" opacity="1.000000" stroke="none" 
	d="
M156.916870,37.836311 
	C156.992722,38.029236 156.509171,38.043476 156.267303,38.037704 
	C156.297302,37.902416 156.569153,37.772903 156.916870,37.836311 
z"/>
<path fill="#114168" opacity="1.000000" stroke="none" 
	d="
M242.005981,37.786392 
	C241.928009,37.986340 241.735031,37.998020 241.251801,38.005203 
	C241.271393,37.866512 241.581192,37.732315 242.005981,37.786392 
z"/>
<path fill="#11446F" opacity="1.000000" stroke="none" 
	d="
M371.082947,38.666164 
	C370.899200,38.781963 370.585663,38.641304 370.093231,38.310940 
	C370.260620,38.217392 370.606903,38.313549 371.082947,38.666164 
z"/>
<path fill="#0E416E" opacity="1.000000" stroke="none" 
	d="
M415.010986,38.719978 
	C414.820129,38.896381 414.535858,38.772629 414.126556,38.395920 
	C414.270935,38.317711 414.576294,38.410000 415.010986,38.719978 
z"/>
<path fill="#000000" opacity="1.000000" stroke="none" 
	d="
M22.805117,26.104935 
	C26.681662,21.525114 36.131016,19.104082 42.118645,21.156588 
	C46.967083,22.818588 51.786415,29.392498 50.835258,34.722507 
	C50.214443,38.201408 48.173046,41.806610 45.806435,44.515018 
	C40.893169,50.137863 35.426109,55.291927 30.010113,60.453407 
	C27.622437,62.728870 27.677580,64.358322 30.029530,66.598259 
	C35.207085,71.529243 40.197166,76.657639 45.244507,81.724655 
	C54.050034,90.564514 50.012173,100.159126 39.618679,104.002853 
	C36.185410,105.272537 31.985302,105.404984 28.343365,104.802597 
	C26.343765,104.471863 24.776424,101.527725 22.982143,98.928825 
	C22.901773,74.098778 22.853445,50.101856 22.805117,26.104935 
z"/>
<path fill="#000000" opacity="1.000000" stroke="none" 
	d="
M58.826084,104.008400 
	C61.998173,95.508522 62.722187,86.799889 58.615494,78.610443 
	C56.580040,74.551399 52.734200,71.367485 49.553379,67.930176 
	C48.102089,66.361862 46.277973,65.138542 44.094406,63.318096 
	C56.456467,51.704689 69.101593,40.748211 59.762775,22.129982 
	C67.473457,19.450937 73.931580,21.498686 77.739403,27.471888 
	C80.727333,32.158974 79.472137,39.143967 74.493767,43.993279 
	C68.827446,49.512714 62.909077,54.775181 57.309448,60.359116 
	C56.588730,61.077816 56.501400,63.654510 57.174679,64.349655 
	C61.510349,68.826180 66.333862,72.833389 70.629700,77.344650 
	C78.356773,85.459206 85.850212,93.797546 93.346382,102.127777 
	C93.857552,102.695831 93.578339,103.975143 92.933952,104.979301 
	C89.816551,105.425842 87.431908,105.816757 85.047264,106.207672 
	C84.879051,106.168121 84.710838,106.128571 84.061668,105.672935 
	C79.151421,105.171921 74.717300,105.186646 70.294319,104.971878 
	C66.465012,104.785934 62.648342,104.339622 58.826084,104.008400 
z"/>
<path fill="#000000" opacity="1.000000" stroke="none" 
	d="
M98.930916,89.255455 
	C93.353249,83.998878 87.712143,78.807327 82.227081,73.455833 
	C79.808472,71.096115 77.769608,68.352127 75.442406,65.892288 
	C73.385521,63.718151 73.272621,62.088646 75.624023,59.793819 
	C79.865318,55.654579 84.361099,51.518871 87.525772,46.594547 
	C92.162819,39.379169 92.124031,31.379253 88.341881,23.533773 
	C88.087982,23.007092 88.230408,22.289347 88.190498,21.690361 
	C93.459396,18.953352 96.698982,21.868555 99.902390,26.126886 
	C100.037125,46.007179 100.042519,65.130013 99.949432,84.252373 
	C99.941307,85.921677 99.285744,87.587837 98.930916,89.255455 
z"/>
<path fill="#14436B" opacity="1.000000" stroke="none" 
	d="
M24.357395,12.496815 
	C41.893990,12.197379 59.794319,12.079585 77.694794,11.991854 
	C83.829803,11.961784 89.965179,12.006978 96.571075,12.086205 
	C96.277336,12.427216 95.512375,12.939301 94.748550,12.937618 
	C71.406029,12.886184 48.063618,12.784294 24.357395,12.496815 
z"/>
<path fill="#93B7C2" opacity="1.000000" stroke="none" 
	d="
M22.625250,26.225132 
	C22.853445,50.101856 22.901773,74.098778 22.896336,98.571854 
	C22.552917,97.920761 22.263269,96.793526 21.967993,94.847122 
	C21.949850,71.697487 21.937336,49.367023 21.924820,27.036560 
	C22.101351,26.808416 22.274872,26.578005 22.625250,26.225132 
z"/>
<path fill="#084184" opacity="1.000000" stroke="none" 
	d="
M11.364327,97.628601 
	C11.092003,74.964149 11.061672,51.970024 11.087816,28.514473 
	C11.429075,29.143398 11.959976,30.233229 11.962259,31.324163 
	C12.006926,52.671894 11.993369,74.019753 11.969851,95.367569 
	C11.969141,96.011482 11.732802,96.655144 11.364327,97.628601 
z"/>
<path fill="#BCDBF4" opacity="1.000000" stroke="none" 
	d="
M98.991226,89.567299 
	C99.285744,87.587837 99.941307,85.921677 99.949432,84.252373 
	C100.042519,65.130013 100.037125,46.007179 100.099442,26.403961 
	C100.440277,27.165945 100.997047,28.407726 101.000488,29.651035 
	C101.054047,49.080555 101.046715,68.510284 101.022850,87.939926 
	C101.019440,90.713531 100.945488,90.713440 98.991226,89.567299 
z"/>
<path fill="#073E85" opacity="1.000000" stroke="none" 
	d="
M21.672729,27.360374 
	C21.937336,49.367023 21.949850,71.697487 21.903833,94.489914 
	C21.563503,93.859932 21.038256,92.768486 21.035952,91.675949 
	C20.992331,70.986992 21.006826,50.297894 21.032726,29.608852 
	C21.033529,28.967138 21.285671,28.325737 21.672729,27.360374 
z"/>
<path fill="#336AA9" opacity="1.000000" stroke="none" 
	d="
M58.583305,104.037369 
	C62.648342,104.339622 66.465012,104.785934 70.294319,104.971878 
	C74.717300,105.186646 79.151421,105.171921 83.806374,105.628113 
	C83.852577,106.012398 83.673103,106.025414 82.761612,106.030746 
	C74.022675,106.013756 66.015762,106.004433 58.008858,105.995110 
	C58.119415,105.352180 58.229969,104.709259 58.583305,104.037369 
z"/>
<path fill="#0B3F7E" opacity="1.000000" stroke="none" 
	d="
M58.324051,106.264961 
	C66.015762,106.004433 74.022675,106.013756 82.492493,106.051445 
	C74.850021,106.231476 66.744637,106.383141 58.324051,106.264961 
z"/>
<path fill="#0B3F7E" opacity="1.000000" stroke="none" 
	d="
M85.360077,106.420746 
	C87.431908,105.816757 89.816551,105.425842 92.609482,105.065453 
	C90.569473,105.608589 88.121185,106.121208 85.360077,106.420746 
z"/>
<path fill="#000000" opacity="1.000000" stroke="none" 
	d="
M148.547195,67.046570 
	C150.795074,68.070381 153.040909,68.695427 154.349945,70.158600 
	C156.590820,72.663322 155.385941,75.734734 152.125778,76.910141 
	C151.053055,77.296898 149.981140,77.791656 148.868652,77.944740 
	C142.723083,78.790352 141.191101,77.912636 141.003113,73.611488 
	C140.725494,67.259346 141.155746,66.861366 148.547195,67.046570 
z"/>
<path fill="#000000" opacity="1.000000" stroke="none" 
	d="
M141.968414,52.209526 
	C142.067871,49.512260 141.610992,46.502975 145.260574,47.222336 
	C148.513779,47.863564 153.166489,47.146049 153.852783,51.869965 
	C154.575577,56.845356 149.372803,56.120388 146.775406,57.799320 
	C145.759918,58.455715 143.965286,57.906700 142.229309,57.906700 
	C142.127945,55.863270 142.048080,54.253113 141.968414,52.209526 
z"/>
<path fill="#1B4467" opacity="1.000000" stroke="none" 
	d="
M153.633392,87.538780 
	C145.619339,87.828125 137.254669,87.903641 128.419586,88.019867 
	C127.989494,87.872124 128.029816,87.683678 128.157959,87.219215 
	C136.591446,87.070450 144.937119,87.197701 153.633392,87.538780 
z"/>
<path fill="#104470" opacity="1.000000" stroke="none" 
	d="
M128.011551,38.273769 
	C136.310669,38.016926 144.683121,38.020176 153.521393,38.081207 
	C147.839706,38.423561 141.693130,38.730755 135.544220,38.980320 
	C133.421143,39.066490 131.292252,39.009262 128.714691,39.030777 
	C128.203888,38.873962 128.144379,38.703911 128.011551,38.273769 
z"/>
<path fill="#053E86" opacity="1.000000" stroke="none" 
	d="
M270.008453,39.433727 
	C270.310150,39.537193 270.871277,40.114288 270.868652,40.688828 
	C270.799591,55.924023 270.672363,71.158943 270.277985,86.708183 
	C270.002350,71.317032 270.003784,55.611599 270.008453,39.433727 
z"/>
<path fill="#000000" opacity="1.000000" stroke="none" 
	d="
M357.093597,77.995392 
	C355.755341,76.925285 354.313202,75.962669 354.094788,74.775017 
	C353.682953,72.535423 353.975922,70.166229 353.975922,66.467789 
	C357.669739,67.206635 361.072266,67.346909 363.920349,68.675606 
	C365.436554,69.382950 366.867157,72.227638 366.707397,73.957130 
	C366.578857,75.348694 364.170776,76.882164 362.459534,77.664803 
	C361.061523,78.304199 359.198822,77.927505 357.093597,77.995392 
z"/>
<path fill="#000000" opacity="1.000000" stroke="none" 
	d="
M354.003967,49.722370 
	C356.672821,46.909039 364.272247,47.259590 365.311829,50.208160 
	C365.823608,51.659760 364.782104,54.877415 363.558075,55.471447 
	C360.930908,56.746449 357.729187,56.837528 353.978607,57.565525 
	C353.978607,54.354759 353.978607,52.241779 354.003967,49.722370 
z"/>
<path fill="#063E84" opacity="1.000000" stroke="none" 
	d="
M340.394653,76.630081 
	C340.115265,64.630859 340.068420,52.294025 340.303772,39.490173 
	C340.585999,39.023155 341.019257,39.031696 341.019257,39.031696 
	C340.888580,51.451954 340.757874,63.872208 340.394653,76.630081 
z"/>
<path fill="#11446F" opacity="1.000000" stroke="none" 
	d="
M341.485779,39.018127 
	C341.019257,39.031696 340.585999,39.023155 340.369354,39.027641 
	C340.152710,39.032131 340.034485,38.550850 340.087067,38.308266 
	C348.112457,38.056404 356.085297,38.047127 364.525269,38.083591 
	C357.312408,38.421074 349.632385,38.712814 341.485779,39.018127 
z"/>
<path fill="#000000" opacity="1.000000" stroke="none" 
	d="
M406.520325,57.812370 
	C398.579254,59.993210 397.145752,58.907078 396.915039,52.136066 
	C396.755341,47.448685 399.571838,47.163792 402.871338,47.114338 
	C403.474365,47.105301 404.143677,47.489887 404.681061,47.845753 
	C406.779633,49.235401 408.837524,50.686481 410.910522,52.114723 
	C409.571106,53.962917 408.231659,55.811108 406.520325,57.812370 
z"/>
<path fill="#000000" opacity="1.000000" stroke="none" 
	d="
M191.286530,61.373703 
	C192.629837,57.518559 193.773209,54.015778 195.283676,49.388371 
	C197.277496,55.975925 198.925110,61.419594 200.758011,67.475464 
	C197.144928,67.475464 193.987213,67.475464 189.907745,67.475464 
	C190.298218,65.571098 190.692413,63.648582 191.286530,61.373703 
z"/>
</svg>