<svg version="1.1" id="Layer_1" xmlns="http://www.w3.org/2000/svg" xmlns:xlink="http://www.w3.org/1999/xlink" x="0px" y="0px"
	 width="100%" viewBox="0 0 560 296" enable-background="new 0 0 560 296" xml:space="preserve">
<path fill="#FEFFFE" opacity="1.000000" stroke="none" 
	d="
M408.000000,297.000000 
	C272.000031,297.000000 136.500076,297.000000 1.000091,297.000000 
	C1.000061,198.333405 1.000061,99.666809 1.000030,1.000157 
	C187.666550,1.000105 374.333099,1.000105 560.999756,1.000052 
	C560.999817,99.666512 560.999817,198.333023 560.999878,296.999756 
	C510.166656,297.000000 459.333344,297.000000 408.000000,297.000000 
M172.036423,141.642365 
	C172.036423,141.642365 171.977661,141.499283 171.699127,142.417374 
	C172.115936,146.065475 172.532730,149.713562 172.904221,153.259705 
	C172.904221,153.259705 172.924255,153.149521 173.214478,153.800323 
	C174.360718,154.918228 175.506973,156.036148 176.775925,157.640427 
	C177.203812,157.798233 177.631699,157.956039 178.675903,158.580612 
	C180.133713,158.994858 181.591507,159.409088 183.539703,160.102539 
	C184.649551,160.049744 185.759415,159.996933 187.679306,160.035233 
	C191.054672,158.830063 194.430038,157.624908 197.885834,156.391037 
	C200.804993,162.026184 206.306793,157.750351 210.872833,159.504166 
	C210.872833,151.029770 210.876419,143.245529 210.872055,135.461288 
	C210.863174,119.638237 204.246414,113.334778 188.409378,114.182816 
	C186.099396,114.306503 183.777390,114.721214 181.522141,115.258263 
	C173.663818,117.129555 173.048340,118.796623 177.376801,125.974701 
	C192.177155,122.284195 195.645630,122.885925 196.252945,129.339584 
	C193.192520,129.853714 190.124390,130.369125 186.543045,130.702667 
	C186.047638,130.867218 185.552246,131.031769 184.339737,131.227676 
	C183.246429,131.693665 182.153137,132.159637 180.497787,132.547226 
	C179.929581,132.999496 179.361374,133.451767 178.098022,133.996155 
	C177.093384,134.941162 176.088730,135.886185 174.512985,136.915207 
	C173.778152,138.313522 173.043320,139.711838 172.062775,141.358551 
	C172.062775,141.358551 172.023285,141.705719 172.036423,141.642365 
M278.910522,182.100357 
	C278.910522,182.100357 278.737610,182.105911 278.257721,181.687241 
	C276.472992,181.108948 274.688263,180.530655 272.258118,179.452560 
	C269.844910,179.609802 267.431671,179.767044 264.621307,179.766296 
	C264.108521,179.946671 263.595734,180.127045 262.369598,180.311325 
	C261.939026,180.501526 261.508453,180.691727 260.396332,180.741226 
	C255.996811,181.069458 254.704376,183.350876 256.213623,187.736267 
	C257.451141,187.060837 258.549805,186.461182 260.568481,185.691605 
	C261.040680,185.310410 261.512909,184.929214 262.229279,184.743164 
	C262.456879,184.487076 262.684448,184.230988 263.699341,184.119110 
	C265.015717,184.192841 266.332947,184.342575 267.648376,184.328079 
	C276.892242,184.226166 280.043427,187.984818 278.719208,196.686279 
	C271.685394,198.144699 264.719727,198.951782 258.209106,201.123276 
	C252.052063,203.176849 249.732208,209.086777 250.781326,216.331207 
	C251.517181,221.412521 255.815125,225.271042 261.935883,226.010651 
	C267.140778,226.639603 272.215057,226.533859 276.003265,221.939651 
	C276.659515,221.143768 277.801483,220.748352 278.997711,219.991760 
	C280.111206,222.505753 279.515411,226.609726 284.528656,224.906586 
	C284.604492,224.601410 284.680359,224.296234 284.908875,223.066299 
	C284.923676,221.090118 284.996582,219.112366 284.943420,217.138016 
	C284.700500,208.116501 284.422241,199.095932 284.305298,189.504257 
	C283.817169,188.473038 283.329010,187.441818 282.820831,185.729202 
	C281.893463,184.813400 280.966064,183.897598 279.692261,182.710297 
	C279.437073,182.565445 279.182526,182.419479 278.910522,182.100357 
M176.103775,201.022903 
	C176.103775,201.022903 176.050949,201.122421 175.355789,201.125259 
	C173.262070,203.756119 171.168350,206.386978 168.730270,209.708267 
	C167.739075,214.502548 167.876541,219.251190 171.982697,222.488632 
	C180.733353,229.387909 189.041580,226.408829 197.049393,219.662231 
	C197.477600,222.062866 197.727676,223.464844 198.031982,225.170807 
	C199.662445,225.011093 201.046371,224.875534 202.256744,224.756973 
	C202.256744,214.240265 202.256744,204.136322 202.493713,193.306122 
	C201.725388,191.074112 200.957062,188.842117 200.142639,186.191040 
	C200.142639,186.191040 199.755493,186.024155 199.456665,185.408173 
	C196.841278,183.466690 194.378601,180.202438 191.576401,179.878906 
	C186.801727,179.327621 181.795334,180.494583 176.921249,181.186081 
	C173.142395,181.722198 172.745392,184.115494 173.613327,186.393188 
	C179.466522,185.752838 184.800400,184.642487 190.107849,184.757065 
	C194.275146,184.847031 196.983261,189.735016 196.807907,194.732880 
	C196.631104,199.772522 192.661682,196.997116 190.476089,197.884598 
	C190.022736,198.068695 189.521774,198.135544 188.227966,198.135696 
	C187.163345,198.310501 186.098709,198.485306 184.418289,198.565933 
	C183.633057,198.771179 182.847809,198.976410 181.256485,199.153854 
	C180.509201,199.434738 179.761902,199.715637 178.499191,199.837921 
	C177.731384,200.254608 176.963577,200.671280 176.103775,201.022903 
M105.809975,159.070709 
	C108.223099,158.747574 110.636230,158.424454 113.675743,157.515732 
	C113.726555,149.378769 113.704536,141.240463 113.856987,133.105392 
	C113.941086,128.617737 116.924095,125.077370 120.479568,125.275230 
	C125.121094,125.533539 126.428749,128.854279 126.720856,132.837219 
	C126.830055,134.326279 126.846771,135.824448 126.849846,137.318573 
	C126.862518,143.465027 126.756233,149.614563 126.946991,155.755096 
	C126.979507,156.801758 128.250183,157.809952 129.826492,159.043777 
	C132.223282,158.974487 134.620087,158.905197 137.580383,159.098221 
	C140.627853,159.640045 140.241989,157.533539 140.239517,155.682129 
	C140.230606,149.016861 140.202942,142.351303 140.253250,135.686371 
	C140.305298,128.791214 142.572586,125.306824 146.916916,125.262840 
	C151.160324,125.219872 153.254852,128.550644 153.322433,135.769608 
	C153.393799,143.393616 153.338440,151.018814 153.338440,158.866791 
	C157.977142,158.866791 162.211700,158.866791 166.895203,158.866791 
	C166.895203,150.230911 166.902390,141.932816 166.888580,133.634781 
	C166.886078,132.138184 166.932709,130.622787 166.726730,129.148193 
	C165.060898,117.221649 156.482147,111.298828 146.011475,115.176849 
	C143.000488,116.292038 140.459030,118.674934 137.558441,120.570602 
	C134.898056,116.410995 130.901245,113.473114 125.792236,114.270477 
	C121.119926,114.999680 116.668480,117.144043 112.047417,118.688942 
	C111.964394,118.214645 111.720192,116.819496 111.469292,115.386047 
	C107.590485,115.386047 104.005997,115.386047 100.495003,115.386047 
	C100.495003,120.129936 100.495003,124.568909 100.310448,129.926987 
	C100.400536,137.681259 100.490631,145.435516 100.350822,153.781555 
	C100.451508,154.183960 100.552193,154.586365 100.409920,155.738998 
	C100.529572,156.498779 100.649231,157.258575 100.836952,158.645325 
	C102.209808,158.724625 103.582664,158.803940 105.809975,159.070709 
M211.461029,188.935867 
	C211.448334,199.468170 211.373795,210.001175 211.493698,220.531967 
	C211.510513,222.009384 212.480133,223.475937 213.655304,225.191971 
	C216.114410,225.601395 217.212097,224.889130 217.126953,222.075378 
	C216.926224,215.441284 216.962936,208.794724 217.094421,202.156982 
	C217.327896,190.371155 220.685532,186.568848 231.884308,185.057266 
	C231.884308,183.311737 231.884308,181.566208 231.884308,179.763474 
	C225.175674,178.023270 220.453674,180.340210 217.942780,185.434464 
	C216.127655,183.506851 214.585632,181.869293 213.043610,180.231720 
	C212.537369,181.843216 212.031113,183.454712 211.359894,185.815872 
	C211.482819,186.557663 211.605759,187.299438 211.461029,188.935867 
M356.484924,91.883430 
	C356.663574,91.607162 356.842224,91.330894 357.789032,90.932594 
	C358.187805,90.609375 358.586609,90.286148 359.550812,90.246666 
	C366.532196,86.581703 373.422699,82.727043 380.528534,79.321800 
	C384.906219,77.223907 389.612579,75.811905 394.819031,74.253021 
	C395.485046,74.197327 396.151062,74.141640 397.176697,74.688698 
	C398.818451,74.974709 400.460236,75.260719 402.520569,76.086021 
	C407.308044,80.787224 412.469543,85.173225 416.774170,90.281342 
	C420.801208,95.060143 425.417419,97.492897 431.041962,94.891891 
	C437.243988,92.023842 442.997467,88.185959 449.696136,84.787163 
	C453.090057,83.167603 456.539276,81.653320 459.866089,79.905998 
	C466.284790,76.534752 466.349670,75.728981 461.258331,70.323730 
	C459.896393,68.877800 458.828369,67.120338 457.343079,65.831230 
	C450.474487,59.869747 447.704803,57.228790 439.356537,62.863579 
	C439.061890,62.973904 438.838013,63.166481 437.928497,63.595871 
	C432.539215,66.058304 427.098907,68.416161 421.776306,71.015160 
	C417.236633,73.231850 412.471680,74.299965 407.987823,71.884483 
	C404.977722,70.262909 402.706543,67.269638 400.072723,64.934006 
	C400.072723,64.934006 400.114929,64.921677 399.983093,64.233772 
	C397.497620,59.186039 393.876221,55.513889 387.799744,54.085651 
	C387.799744,54.085651 387.359772,53.923077 387.825623,53.940468 
	C386.604309,53.798637 385.382965,53.656807 383.349426,53.277920 
	C382.245300,53.403004 381.141144,53.528088 379.283112,53.348042 
	C365.528351,55.762802 354.667572,63.632133 343.473938,72.158440 
	C343.320129,72.298370 343.166321,72.438293 342.320557,72.453575 
	C340.663574,73.212685 339.026428,74.019173 337.346191,74.722702 
	C330.116577,77.749847 325.148346,76.477348 320.269867,70.330368 
	C318.314789,67.866898 316.795197,64.915749 314.442963,62.943073 
	C310.988464,60.046043 307.256836,56.462818 303.128113,55.579388 
	C291.307434,53.050095 281.718384,59.035553 272.047516,65.852951 
	C271.292725,66.432487 270.537964,67.012016 269.130463,67.681450 
	C268.041321,68.343788 266.952209,69.006126 265.108673,69.757660 
	C261.104126,72.040672 257.099548,74.323677 252.428726,76.440567 
	C249.370346,78.057526 246.145554,79.437202 243.335220,81.407898 
	C242.206360,82.199486 241.042114,85.149033 241.501526,85.654060 
	C245.885849,90.473755 250.133530,95.690338 255.440918,99.287224 
	C258.256805,101.195625 263.209198,100.698700 267.012421,97.136467 
	C274.333038,93.022888 281.653625,88.909309 289.693665,84.814842 
	C295.118652,82.146645 300.543671,79.478439 306.848419,76.878342 
	C308.907501,76.872574 310.966614,76.866806 313.525146,77.369644 
	C317.201538,79.140152 321.273682,80.391167 324.453339,82.813667 
	C328.361145,85.790955 331.460175,89.811966 335.022491,93.264473 
	C341.779602,99.813255 349.447754,99.333130 356.484924,91.883430 
M330.833069,154.121475 
	C330.745880,141.739426 330.658691,129.357361 330.645660,116.190193 
	C326.246124,115.711182 321.846558,115.232170 317.372314,114.745033 
	C317.372314,130.084900 317.372314,144.431915 317.372314,159.077148 
	C321.003998,159.077148 324.312622,158.955215 327.607971,159.111679 
	C330.859253,159.266068 331.179718,157.549255 330.833069,154.121475 
M259.719788,138.322540 
	C259.648102,137.897995 259.576416,137.473465 259.745331,136.160980 
	C259.548645,133.014420 259.719452,129.791840 259.087372,126.735321 
	C257.069275,116.976234 249.122162,111.956001 239.794067,114.622520 
	C236.697006,115.507858 233.880005,117.372894 230.927933,118.793411 
	C228.758881,114.659233 224.820633,113.756546 217.951965,115.784706 
	C217.951965,130.253677 217.951965,144.640366 217.951965,158.809418 
	C222.800049,158.809418 227.177460,158.809418 231.827057,158.809418 
	C231.827057,157.352539 231.825699,156.365707 231.827286,155.378860 
	C231.839249,147.885315 231.706009,140.387619 231.918930,132.899780 
	C232.046082,128.428421 235.155457,125.403763 239.102859,125.490738 
	C243.411652,125.585693 245.254242,128.302612 245.636337,132.240295 
	C245.828796,134.223907 245.841904,136.229645 245.848740,138.225677 
	C245.872437,145.158676 245.857880,152.091812 245.857880,159.058548 
	C250.737640,159.058548 254.978806,159.058548 259.539398,159.058548 
	C259.539398,152.170349 259.539398,145.560852 259.719788,138.322540 
M269.861694,153.119904 
	C269.861694,153.119904 269.730164,153.238174 269.898193,153.895340 
	C278.418121,162.839767 287.432373,161.960800 296.913635,154.506363 
	C296.913635,156.225723 297.264587,157.871155 296.860199,158.084442 
	C291.961792,160.668121 294.132751,165.177200 293.989929,168.845322 
	C293.692230,176.490616 293.900452,184.155579 293.900543,191.812469 
	C293.900696,202.762939 293.900604,213.713425 293.900604,224.900864 
	C295.919220,224.900864 297.505554,224.900864 299.618530,224.900864 
	C299.618530,219.780258 299.487732,214.813797 299.655273,209.857437 
	C299.823303,204.887283 299.626587,199.755432 300.853943,195.022263 
	C301.690643,191.795532 304.098846,188.240875 306.850922,186.383774 
	C315.194366,180.753601 323.364685,185.259415 323.686829,195.491730 
	C323.994263,205.257004 323.753113,215.039566 323.753113,224.860321 
	C326.073578,224.860321 327.652649,224.860321 329.694611,224.860321 
	C329.694611,216.952621 329.746277,209.326935 329.668823,201.702560 
	C329.638458,198.716064 329.495056,195.708923 329.099945,192.751694 
	C327.414368,180.136063 315.093964,174.907913 304.518005,182.265549 
	C303.131989,183.229767 301.789398,184.256348 299.912476,185.630554 
	C299.912476,176.415497 299.912476,168.005722 299.912476,159.008392 
	C303.397186,159.008392 306.603119,159.008392 309.641663,159.008392 
	C309.641663,137.499695 309.641663,116.581329 309.641663,95.360573 
	C307.846649,95.360573 306.410370,95.360573 304.138733,95.180191 
	C302.436035,95.243660 300.733337,95.307137 298.201202,95.161476 
	C297.444702,96.130112 296.057159,97.084595 296.035034,98.069710 
	C295.900970,104.045685 296.078339,110.028656 296.027832,116.694229 
	C296.051147,116.925079 296.074432,117.155922 295.307312,117.503845 
	C292.233490,116.378090 289.230560,114.596283 286.071991,114.255157 
	C278.048065,113.388557 271.463531,116.627823 267.812103,123.826012 
	C263.223175,132.872299 262.577240,142.230560 268.427368,151.703918 
	C268.427368,151.703918 268.764740,152.010406 268.803345,152.621460 
	C269.131836,152.841324 269.460297,153.061203 269.861694,153.119904 
M349.678833,116.669655 
	C345.886841,115.927963 342.094818,115.186272 338.000336,114.385414 
	C338.000336,122.649231 338.000336,129.752411 338.000336,136.855591 
	C338.000336,144.121902 338.000336,151.388214 338.000336,158.861191 
	C342.775024,158.861191 347.007080,158.861191 351.905518,158.861191 
	C351.905518,151.143768 351.754974,143.697815 351.952148,136.261108 
	C352.116180,130.074829 355.105743,127.305283 361.300323,126.982185 
	C362.414276,126.924080 363.528534,126.872406 364.731812,126.813393 
	C364.731812,122.447853 364.731812,118.404076 364.731812,112.529076 
	C359.150024,115.182480 354.610931,117.340225 350.016327,119.524353 
	C349.946045,119.080971 349.820709,118.290466 349.678833,116.669655 
M141.888733,213.865311 
	C142.592941,215.911209 143.152740,218.021713 144.032669,219.989014 
	C145.657623,223.622055 146.379578,227.074539 144.175400,230.842499 
	C141.620377,235.210220 138.403900,238.657867 133.285904,239.571808 
	C129.814697,240.191696 129.910049,241.891266 130.949448,244.347626 
	C140.629654,244.272736 147.656189,238.727158 151.150391,228.533325 
	C154.547943,218.621475 157.884521,208.688736 161.267273,198.771805 
	C163.282852,192.862885 165.335876,186.966736 167.383575,181.031540 
	C163.265335,179.544846 161.324280,180.484253 160.180191,184.264389 
	C157.968445,191.572205 155.312790,198.747345 152.773010,205.953461 
	C151.661469,209.107224 150.382492,212.201981 148.714233,216.531006 
	C144.856567,205.058365 141.347870,195.021561 138.140213,184.889435 
	C136.843399,180.793137 134.812164,179.195831 130.259140,181.111633 
	C134.083817,191.884125 137.855042,202.505997 141.888733,213.865311 
M121.560715,225.121689 
	C127.335571,223.124237 129.896240,218.874954 129.932358,212.963760 
	C129.968658,207.021942 126.434334,203.501236 121.453674,201.200455 
	C118.898392,200.020065 116.109375,199.353256 113.523422,198.230042 
	C108.302292,195.962204 106.232162,192.633072 107.746178,188.705292 
	C109.564659,183.987610 113.540855,183.830566 117.716988,184.568726 
	C119.172287,184.825974 120.578171,185.669144 122.009476,185.676300 
	C123.701729,185.684784 125.397072,185.078094 127.091072,184.738068 
	C126.086617,183.499649 125.288528,181.509979 124.038231,181.166519 
	C120.568367,180.213364 116.883232,179.364197 113.332329,179.529572 
	C106.303169,179.856949 102.322243,183.471481 101.367752,189.348709 
	C100.329636,195.740860 102.856743,200.284607 109.277740,203.234222 
	C112.441757,204.687653 115.732552,205.862411 118.931740,207.242645 
	C122.696915,208.867096 123.995171,211.865005 123.261230,215.755814 
	C122.510284,219.736755 119.477409,221.597061 115.986076,221.057251 
	C111.073090,220.297638 106.321915,218.491455 101.216446,217.052460 
	C99.250961,220.262299 99.290550,220.885468 103.057533,223.097748 
	C108.631180,226.371017 114.620010,226.961792 121.560715,225.121689 
M368.593262,124.843063 
	C368.593262,136.134796 368.593262,147.426544 368.593262,158.797195 
	C373.410828,158.797195 377.643921,158.797195 382.300110,158.797195 
	C382.300110,145.164429 382.306458,131.866180 382.286957,118.568001 
	C382.285522,117.602303 382.096405,116.636887 381.964386,115.385315 
	C377.571136,115.385315 373.360992,115.385315 368.547882,115.385315 
	C368.547882,118.417549 368.547882,121.214058 368.593262,124.843063 
M243.531662,199.500824 
	C243.531662,193.241425 243.531662,186.982040 243.531662,180.297882 
	C241.362946,180.395203 239.811249,180.464828 238.230423,180.535767 
	C238.230423,195.616364 238.230423,210.268280 238.230423,225.206741 
	C240.166718,225.040741 241.723099,224.907318 243.532333,224.752228 
	C243.532333,216.389801 243.532333,208.445145 243.531662,199.500824 
M239.959335,161.657288 
	C236.983185,163.011566 235.698792,165.076950 238.153091,167.784882 
	C238.934174,168.646683 241.047119,169.098221 242.123596,168.668289 
	C243.172302,168.249435 244.552261,166.075516 244.235138,165.356720 
	C243.564484,163.836563 241.882141,162.762756 239.959335,161.657288 
z"/>
<path fill="#0E6C3F" opacity="1.000000" stroke="none" 
	d="
M100.495003,129.007889 
	C100.495003,124.568909 100.495003,120.129936 100.495003,115.386047 
	C104.005997,115.386047 107.590485,115.386047 111.469292,115.386047 
	C111.720192,116.819496 111.964394,118.214645 112.047417,118.688942 
	C116.668480,117.144043 121.119926,114.999680 125.792236,114.270477 
	C130.901245,113.473114 134.898056,116.410995 137.558441,120.570602 
	C140.459030,118.674934 143.000488,116.292038 146.011475,115.176849 
	C156.482147,111.298828 165.060898,117.221649 166.726730,129.148193 
	C166.932709,130.622787 166.886078,132.138184 166.888580,133.634781 
	C166.902390,141.932816 166.895203,150.230911 166.895203,158.866791 
	C162.211700,158.866791 157.977142,158.866791 153.338440,158.866791 
	C153.338440,151.018814 153.393799,143.393616 153.322433,135.769608 
	C153.254852,128.550644 151.160324,125.219872 146.916916,125.262840 
	C142.572586,125.306824 140.305298,128.791214 140.253250,135.686371 
	C140.202942,142.351303 140.230606,149.016861 140.239517,155.682129 
	C140.241989,157.533539 140.627853,159.640045 137.546143,158.675659 
	C137.984741,157.611893 138.862579,156.974899 138.869293,156.328857 
	C138.960281,147.560867 138.930450,138.791626 138.930450,130.022690 
	C138.620087,130.020935 138.309738,130.019180 137.999374,130.017426 
	C137.999374,134.470764 137.999374,138.924103 137.999374,143.377441 
	C137.999374,147.801743 137.999374,152.226044 137.999374,156.810211 
	C134.226883,156.810211 131.321182,156.810211 128.186462,156.810211 
	C128.501404,157.646988 128.725143,158.241455 128.948868,158.835907 
	C128.250183,157.809952 126.979507,156.801758 126.946991,155.755096 
	C126.756233,149.614563 126.862518,143.465027 126.849846,137.318573 
	C126.846771,135.824448 126.830055,134.326279 126.720856,132.837219 
	C126.428749,128.854279 125.121094,125.533539 120.479568,125.275230 
	C116.924095,125.077370 113.941086,128.617737 113.856987,133.105392 
	C113.704536,141.240463 113.726555,149.378769 113.087311,157.499725 
	C108.550209,156.652084 104.601547,155.820419 100.652885,154.988770 
	C100.552193,154.586365 100.451508,154.183960 100.829262,153.225815 
	C101.493904,145.200638 101.702316,137.731522 101.806526,130.260941 
	C101.812263,129.849426 100.952110,129.425858 100.495003,129.007889 
z"/>
<path fill="#09693C" opacity="1.000000" stroke="none" 
	d="
M268.764740,152.010406 
	C268.764740,152.010406 268.427368,151.703918 268.733948,151.316254 
	C268.828369,149.587814 268.960297,148.060501 268.350372,146.935333 
	C262.779846,136.658524 266.708130,126.182884 273.838562,119.672325 
	C278.521271,115.396698 285.638947,115.050697 291.250366,118.021194 
	C292.425018,118.643021 294.459442,117.640663 296.097687,117.386749 
	C296.074432,117.155922 296.051147,116.925079 296.471344,116.241760 
	C297.268860,113.923767 297.778351,112.072144 297.946564,110.190018 
	C298.387421,105.257317 298.679352,100.311310 299.030640,95.370605 
	C300.733337,95.307137 302.436035,95.243660 304.663910,95.614746 
	C306.134583,97.907341 307.877289,99.755264 307.900970,101.625008 
	C308.114349,118.444046 308.066986,135.267166 307.959259,152.088211 
	C307.949066,153.682755 306.914276,156.660828 306.509033,156.634445 
	C304.097778,156.477386 301.039734,156.336380 299.507050,154.845352 
	C296.985229,152.392044 295.483795,152.346008 292.896210,154.526733 
	C289.169952,157.667084 284.818024,159.074753 279.926971,157.177261 
	C276.529907,155.859360 273.129242,154.550873 269.730164,153.238174 
	C269.730164,153.238174 269.861694,153.119904 269.778503,152.906418 
	C269.385101,152.465424 269.074921,152.237915 268.764740,152.010406 
M295.902039,140.927780 
	C295.853638,137.784470 296.563202,134.361069 295.535431,131.579666 
	C294.580872,128.996445 292.048584,125.736519 289.706879,125.261978 
	C287.101746,124.734062 282.394165,126.219345 281.335236,128.252090 
	C279.429382,131.910645 278.811493,136.670456 279.033295,140.897934 
	C279.309540,146.163895 282.841614,149.083664 287.292847,149.123520 
	C292.197449,149.167465 294.904083,146.483185 295.902039,140.927780 
z"/>
<path fill="#0D6A3F" opacity="1.000000" stroke="none" 
	d="
M181.059830,132.625610 
	C182.153137,132.159637 183.246429,131.693665 184.824707,131.397980 
	C185.891891,131.340378 186.474075,131.112473 187.056274,130.884552 
	C190.124390,130.369125 193.192520,129.853714 196.252945,129.339584 
	C195.645630,122.885925 192.177155,122.284195 177.376801,125.974701 
	C173.048340,118.796623 173.663818,117.129555 181.522141,115.258263 
	C183.777390,114.721214 186.099396,114.306503 188.409378,114.182816 
	C204.246414,113.334778 210.863174,119.638237 210.872055,135.461288 
	C210.876419,143.245529 210.872833,151.029770 210.872833,159.504166 
	C206.306793,157.750351 200.804993,162.026184 197.885834,156.391037 
	C194.430038,157.624908 191.054672,158.830063 186.978333,159.926697 
	C185.201355,159.819885 184.125336,159.821609 183.049316,159.823334 
	C181.591507,159.409088 180.133713,158.994858 178.274597,158.131653 
	C177.466583,157.506485 177.059906,157.330261 176.653214,157.154053 
	C175.506973,156.036148 174.360718,154.918228 173.066406,153.512268 
	C172.918320,153.224228 172.949524,153.361664 172.949524,153.361664 
	C172.532730,149.713562 172.115936,146.065475 171.829926,141.993591 
	C171.960709,141.569794 172.023285,141.705719 172.023285,141.705719 
	C172.023285,141.705719 172.062775,141.358551 172.499847,141.175583 
	C173.652634,139.605469 174.368362,138.218338 175.084091,136.831192 
	C176.088730,135.886185 177.093384,134.941162 178.738586,133.984604 
	C179.939392,133.523911 180.499619,133.074768 181.059830,132.625610 
M184.921478,146.378723 
	C185.991837,150.917725 189.410858,150.845383 192.738434,149.935471 
	C196.862885,148.807693 198.081039,145.010147 196.802902,138.761993 
	C189.249252,138.112030 185.724365,140.119400 184.921478,146.378723 
z"/>
<path fill="#1E6F4A" opacity="1.000000" stroke="none" 
	d="
M269.814178,153.566757 
	C273.129242,154.550873 276.529907,155.859360 279.926971,157.177261 
	C284.818024,159.074753 289.169952,157.667084 292.896210,154.526733 
	C295.483795,152.346008 296.985229,152.392044 299.507050,154.845352 
	C301.039734,156.336380 304.097778,156.477386 306.509033,156.634445 
	C306.914276,156.660828 307.949066,153.682755 307.959259,152.088211 
	C308.066986,135.267166 308.114349,118.444046 307.900970,101.625008 
	C307.877289,99.755264 306.134583,97.907341 305.081604,95.704941 
	C306.410370,95.360573 307.846649,95.360573 309.641663,95.360573 
	C309.641663,116.581329 309.641663,137.499695 309.641663,159.008392 
	C306.603119,159.008392 303.397186,159.008392 299.912476,159.008392 
	C299.912476,168.005722 299.912476,176.415497 299.912476,185.630554 
	C301.789398,184.256348 303.131989,183.229767 304.518005,182.265549 
	C315.093964,174.907913 327.414368,180.136063 329.099945,192.751694 
	C329.495056,195.708923 329.638458,198.716064 329.668823,201.702560 
	C329.746277,209.326935 329.694611,216.952621 329.694611,224.860321 
	C327.652649,224.860321 326.073578,224.860321 323.753113,224.860321 
	C323.753113,215.039566 323.994263,205.257004 323.686829,195.491730 
	C323.364685,185.259415 315.194366,180.753601 306.850922,186.383774 
	C304.098846,188.240875 301.690643,191.795532 300.853943,195.022263 
	C299.626587,199.755432 299.823303,204.887283 299.655273,209.857437 
	C299.487732,214.813797 299.618530,219.780258 299.618530,224.900864 
	C297.505554,224.900864 295.919220,224.900864 293.900604,224.900864 
	C293.900604,213.713425 293.900696,202.762939 293.900543,191.812469 
	C293.900452,184.155579 293.692230,176.490616 293.989929,168.845322 
	C294.132751,165.177200 291.961792,160.668121 296.860199,158.084442 
	C297.264587,157.871155 296.913635,156.225723 296.913635,154.506363 
	C287.432373,161.960800 278.418121,162.839767 269.814178,153.566757 
z"/>
<path fill="#0B693D" opacity="1.000000" stroke="none" 
	d="
M259.504730,137.048920 
	C259.576416,137.473465 259.648102,137.897995 259.282471,138.792023 
	C258.584991,143.678955 258.172455,148.094513 258.116821,152.514557 
	C258.077972,155.604156 256.985138,156.780243 253.775055,157.178940 
	C248.750198,157.803009 247.360382,155.137329 247.029144,151.076904 
	C246.853714,148.926239 246.974045,146.751099 246.968430,144.586990 
	C246.955688,139.672546 247.176575,134.743759 246.869827,129.847916 
	C246.592896,125.428398 243.420120,123.212662 239.123199,123.869713 
	C232.930832,124.816605 230.070618,128.121811 230.053421,134.389343 
	C230.041092,138.884247 230.061172,143.379242 230.061951,147.874191 
	C230.063583,157.452850 230.062134,157.456146 220.713364,156.967758 
	C220.412460,156.952072 220.123062,156.716400 219.802505,156.571640 
	C219.802505,155.766388 219.820038,154.959900 219.799866,154.154373 
	C219.538147,143.706421 219.118591,133.258224 219.142410,122.811020 
	C219.146820,120.874138 220.504349,117.877960 222.004272,117.273422 
	C223.917038,116.502487 227.369186,115.527672 228.418823,119.636002 
	C228.585312,120.287598 230.948792,120.890747 232.120346,120.651947 
	C233.858154,120.297752 235.447891,119.190117 237.084534,118.370956 
	C248.571518,112.621529 257.905914,118.361130 258.131592,131.197189 
	C258.166046,133.155197 259.026398,135.098709 259.504730,137.048920 
z"/>
<path fill="#0F6A3F" opacity="1.000000" stroke="none" 
	d="
M349.687103,117.084808 
	C349.820709,118.290466 349.946045,119.080971 350.016327,119.524353 
	C354.610931,117.340225 359.150024,115.182480 364.731812,112.529076 
	C364.731812,118.404076 364.731812,122.447853 364.731812,126.813393 
	C363.528534,126.872406 362.414276,126.924080 361.300323,126.982185 
	C355.105743,127.305283 352.116180,130.074829 351.952148,136.261108 
	C351.754974,143.697815 351.905518,151.143768 351.905518,158.861191 
	C347.007080,158.861191 342.775024,158.861191 338.000336,158.861191 
	C338.000336,151.388214 338.000336,144.121902 338.000336,136.855591 
	C338.000336,129.752411 338.000336,122.649231 338.000336,114.385414 
	C342.094818,115.186272 345.886841,115.927963 349.687103,117.084808 
z"/>
<path fill="#1A6D46" opacity="1.000000" stroke="none" 
	d="
M141.757492,213.496597 
	C137.855042,202.505997 134.083817,191.884125 130.259140,181.111633 
	C134.812164,179.195831 136.843399,180.793137 138.140213,184.889435 
	C141.347870,195.021561 144.856567,205.058365 148.714233,216.531006 
	C150.382492,212.201981 151.661469,209.107224 152.773010,205.953461 
	C155.312790,198.747345 157.968445,191.572205 160.180191,184.264389 
	C161.324280,180.484253 163.265335,179.544846 167.383575,181.031540 
	C165.335876,186.966736 163.282852,192.862885 161.267273,198.771805 
	C157.884521,208.688736 154.547943,218.621475 151.150391,228.533325 
	C147.656189,238.727158 140.629654,244.272736 130.949448,244.347626 
	C129.910049,241.891266 129.814697,240.191696 133.285904,239.571808 
	C138.403900,238.657867 141.620377,235.210220 144.175400,230.842499 
	C146.379578,227.074539 145.657623,223.622055 144.032669,219.989014 
	C143.152740,218.021713 142.592941,215.911209 141.757492,213.496597 
z"/>
<path fill="#146A42" opacity="1.000000" stroke="none" 
	d="
M280.038696,182.981796 
	C280.966064,183.897598 281.893463,184.813400 282.822815,186.369736 
	C283.268768,188.031845 283.712738,189.053436 284.156677,190.075027 
	C284.422241,199.095932 284.700500,208.116501 284.943420,217.138016 
	C284.996582,219.112366 284.923676,221.090118 284.647247,223.622711 
	C284.181793,224.379822 284.049774,224.620026 283.989563,224.899704 
	C279.515411,226.609726 280.111206,222.505753 278.997711,219.991760 
	C277.801483,220.748352 276.659515,221.143768 276.003265,221.939651 
	C272.215057,226.533859 267.140778,226.639603 261.935883,226.010651 
	C255.815125,225.271042 251.517181,221.412521 250.781326,216.331207 
	C249.732208,209.086777 252.052063,203.176849 258.209106,201.123276 
	C264.719727,198.951782 271.685394,198.144699 278.719208,196.686279 
	C280.043427,187.984818 276.892242,184.226166 267.648376,184.328079 
	C266.332947,184.342575 265.015717,184.192841 263.149963,184.022964 
	C262.260437,184.005188 262.055298,184.212265 261.985138,184.548004 
	C261.512909,184.929214 261.040680,185.310410 259.793488,185.726730 
	C253.664658,181.586136 261.137146,182.823257 261.077881,180.881927 
	C261.508453,180.691727 261.939026,180.501526 262.897064,180.496475 
	C263.955841,180.429184 264.487152,180.176743 265.018463,179.924301 
	C267.431671,179.767044 269.844910,179.609802 272.703735,179.992462 
	C275.012115,181.056885 276.874847,181.581390 278.737610,182.105911 
	C278.737610,182.105911 278.910522,182.100357 279.027039,182.405991 
	C279.143585,182.711624 279.549408,182.984985 279.549408,182.984985 
	C279.549408,182.984985 280.038696,182.981796 280.038696,182.981796 
M260.588654,205.981705 
	C259.353302,207.809341 257.524323,209.483582 257.004303,211.496063 
	C255.867111,215.896805 258.093628,220.221512 261.843719,221.188538 
	C265.460876,222.121307 270.543396,221.324539 273.681824,219.285828 
	C279.149384,215.734161 279.595306,209.463440 278.682251,201.838058 
	C272.650848,203.129456 266.955414,204.348907 260.588654,205.981705 
z"/>
<path fill="#1A6D46" opacity="1.000000" stroke="none" 
	d="
M121.207336,225.263123 
	C114.620010,226.961792 108.631180,226.371017 103.057533,223.097748 
	C99.290550,220.885468 99.250961,220.262299 101.216446,217.052460 
	C106.321915,218.491455 111.073090,220.297638 115.986076,221.057251 
	C119.477409,221.597061 122.510284,219.736755 123.261230,215.755814 
	C123.995171,211.865005 122.696915,208.867096 118.931740,207.242645 
	C115.732552,205.862411 112.441757,204.687653 109.277740,203.234222 
	C102.856743,200.284607 100.329636,195.740860 101.367752,189.348709 
	C102.322243,183.471481 106.303169,179.856949 113.332329,179.529572 
	C116.883232,179.364197 120.568367,180.213364 124.038231,181.166519 
	C125.288528,181.509979 126.086617,183.499649 127.091072,184.738068 
	C125.397072,185.078094 123.701729,185.684784 122.009476,185.676300 
	C120.578171,185.669144 119.172287,184.825974 117.716988,184.568726 
	C113.540855,183.830566 109.564659,183.987610 107.746178,188.705292 
	C106.232162,192.633072 108.302292,195.962204 113.523422,198.230042 
	C116.109375,199.353256 118.898392,200.020065 121.453674,201.200455 
	C126.434334,203.501236 129.968658,207.021942 129.932358,212.963760 
	C129.896240,218.874954 127.335571,223.124237 121.207336,225.263123 
z"/>
<path fill="#08683A" opacity="1.000000" stroke="none" 
	d="
M368.570557,124.426819 
	C368.547882,121.214058 368.547882,118.417549 368.547882,115.385315 
	C373.360992,115.385315 377.571136,115.385315 381.964386,115.385315 
	C382.096405,116.636887 382.285522,117.602303 382.286957,118.568001 
	C382.306458,131.866180 382.300110,145.164429 382.300110,158.797195 
	C377.643921,158.797195 373.410828,158.797195 368.593262,158.797195 
	C368.593262,147.426544 368.593262,136.134796 368.570557,124.426819 
z"/>
<path fill="#11673F" opacity="1.000000" stroke="none" 
	d="
M202.256744,194.032379 
	C202.256744,204.136322 202.256744,214.240265 202.256744,224.756973 
	C201.046371,224.875534 199.662445,225.011093 198.031982,225.170807 
	C197.727676,223.464844 197.477600,222.062866 197.049393,219.662231 
	C189.041580,226.408829 180.733353,229.387909 171.982697,222.488632 
	C167.876541,219.251190 167.739075,214.502548 169.194031,209.196869 
	C171.788864,206.164444 173.919907,203.643433 176.050949,201.122421 
	C176.050949,201.122421 176.103775,201.022903 176.422791,201.053024 
	C177.499420,200.720947 178.257019,200.358734 179.014618,199.996521 
	C179.761902,199.715637 180.509201,199.434738 181.837372,199.380737 
	C183.290192,199.291794 184.162140,198.975952 185.034088,198.660110 
	C186.098709,198.485306 187.163345,198.310501 188.911880,198.424423 
	C197.056137,202.049530 198.232040,196.137680 199.634171,190.684662 
	C200.919876,192.325867 201.588303,193.179123 202.256744,194.032379 
M195.074234,215.232895 
	C195.788208,211.110580 196.502167,206.988251 197.184616,203.047913 
	C193.582306,203.047913 191.284897,202.728363 189.115921,203.120041 
	C185.529663,203.767639 181.858200,204.476959 178.529770,205.885818 
	C174.216003,207.711761 174.080292,211.730820 174.904755,215.688919 
	C175.700394,219.508774 178.529236,221.032120 182.153580,221.315994 
	C187.262436,221.716125 191.729416,220.551636 195.074234,215.232895 
z"/>
<path fill="#2B7451" opacity="1.000000" stroke="none" 
	d="
M259.625031,136.604950 
	C259.026398,135.098709 258.166046,133.155197 258.131592,131.197189 
	C257.905914,118.361130 248.571518,112.621529 237.084534,118.370956 
	C235.447891,119.190117 233.858154,120.297752 232.120346,120.651947 
	C230.948792,120.890747 228.585312,120.287598 228.418823,119.636002 
	C227.369186,115.527672 223.917038,116.502487 222.004272,117.273422 
	C220.504349,117.877960 219.146820,120.874138 219.142410,122.811020 
	C219.118591,133.258224 219.538147,143.706421 219.799866,154.154373 
	C219.820038,154.959900 219.802505,155.766388 219.802505,156.571640 
	C220.123062,156.716400 220.412460,156.952072 220.713364,156.967758 
	C230.062134,157.456146 230.063583,157.452850 230.061951,147.874191 
	C230.061172,143.379242 230.041092,138.884247 230.053421,134.389343 
	C230.070618,128.121811 232.930832,124.816605 239.123199,123.869713 
	C243.420120,123.212662 246.592896,125.428398 246.869827,129.847916 
	C247.176575,134.743759 246.955688,139.672546 246.968430,144.586990 
	C246.974045,146.751099 246.853714,148.926239 247.029144,151.076904 
	C247.360382,155.137329 248.750198,157.803009 253.775055,157.178940 
	C256.985138,156.780243 258.077972,155.604156 258.116821,152.514557 
	C258.172455,148.094513 258.584991,143.678955 259.192261,139.106415 
	C259.539398,145.560852 259.539398,152.170349 259.539398,159.058548 
	C254.978806,159.058548 250.737640,159.058548 245.857880,159.058548 
	C245.857880,152.091812 245.872437,145.158676 245.848740,138.225677 
	C245.841904,136.229645 245.828796,134.223907 245.636337,132.240295 
	C245.254242,128.302612 243.411652,125.585693 239.102859,125.490738 
	C235.155457,125.403763 232.046082,128.428421 231.918930,132.899780 
	C231.706009,140.387619 231.839249,147.885315 231.827286,155.378860 
	C231.825699,156.365707 231.827057,157.352539 231.827057,158.809418 
	C227.177460,158.809418 222.800049,158.809418 217.951965,158.809418 
	C217.951965,144.640366 217.951965,130.253677 217.951965,115.784706 
	C224.820633,113.756546 228.758881,114.659233 230.927933,118.793411 
	C233.880005,117.372894 236.697006,115.507858 239.794067,114.622520 
	C249.122162,111.956001 257.069275,116.976234 259.087372,126.735321 
	C259.719452,129.791840 259.548645,133.014420 259.625031,136.604950 
z"/>
<path fill="#0F6D41" opacity="1.000000" stroke="none" 
	d="
M330.571533,116.975304 
	C330.658691,129.357361 330.745880,141.739426 330.371399,154.688538 
	C326.639801,155.728928 323.365967,156.433472 320.104858,156.378723 
	C319.703735,156.371994 319.097534,152.314041 319.056305,150.124603 
	C318.922150,143.003281 319.006165,135.877838 319.006134,128.753983 
	C319.006104,117.064148 319.006104,117.064148 330.571533,116.975304 
M323.932465,118.996361 
	C325.253143,118.931618 326.573822,118.866875 327.894501,118.802132 
	C327.869202,118.506119 327.843903,118.210114 327.818634,117.914101 
	C325.911407,118.092400 324.004181,118.270691 322.096954,118.448990 
	C322.306458,118.613762 322.500793,118.806152 322.731293,118.932709 
	C322.864624,119.005920 323.056213,118.973076 323.932465,118.996361 
z"/>
<path fill="#F9E03A" opacity="1.000000" stroke="none" 
	d="
M344.083771,72.023499 
	C354.667572,63.632133 365.528351,55.762802 379.659607,53.723820 
	C380.019653,54.401386 380.010040,54.703400 379.689301,55.139534 
	C377.966431,56.061584 376.561554,56.849731 375.038361,57.704266 
	C378.247162,63.206577 381.278229,68.404076 384.470551,73.878159 
	C386.360382,73.878159 388.671570,73.878159 391.380219,73.906158 
	C392.575592,73.986763 393.373474,74.039360 394.171387,74.091965 
	C389.612579,75.811905 384.906219,77.223907 380.528534,79.321800 
	C373.422699,82.727043 366.532196,86.581703 359.364441,89.846954 
	C362.123352,84.841713 359.617279,76.975090 353.953552,72.506760 
	C351.318604,70.427940 348.812408,69.760628 345.714172,72.064606 
	C344.953186,72.038971 344.518463,72.031235 344.083771,72.023499 
M368.705017,59.036320 
	C366.422516,60.326347 364.206696,61.757385 361.842804,62.875240 
	C357.707153,64.830917 356.777649,67.518127 359.111328,71.632202 
	C360.502777,74.085190 362.410767,76.342461 363.307556,78.955101 
	C364.535278,82.531693 366.975311,82.743591 369.535187,81.572929 
	C373.762726,79.639610 377.740265,77.159592 382.235046,74.683037 
	C380.550751,73.569160 379.365997,72.785622 378.227875,72.032951 
	C379.107391,67.328423 375.202545,61.599529 368.705017,59.036320 
z"/>
<path fill="#F6B53B" opacity="1.000000" stroke="none" 
	d="
M400.104736,64.890106 
	C402.706543,67.269638 404.977722,70.262909 407.987823,71.884483 
	C412.471680,74.299965 417.236633,73.231850 421.776306,71.015160 
	C427.098907,68.416161 432.539215,66.058304 438.391479,63.683807 
	C438.854431,63.771748 439.078491,64.067909 439.050842,64.304993 
	C439.023163,64.542076 438.995697,65.018661 438.636169,65.054939 
	C436.511536,66.377319 434.746429,67.663422 432.613831,68.964249 
	C430.831573,69.320801 429.416718,69.662621 427.677246,70.141739 
	C424.816559,71.485344 422.240540,72.616188 419.760773,73.928841 
	C418.459351,74.617775 416.224030,75.780655 416.319824,76.460373 
	C416.634186,78.690285 417.641632,80.895157 418.737244,82.917572 
	C419.511719,84.347282 421.291382,85.291977 421.880707,86.752449 
	C424.839661,94.085426 430.695709,95.485504 436.477264,90.023476 
	C437.430237,89.123215 438.211578,88.041321 439.404907,87.035431 
	C440.511353,86.692596 441.285095,86.357719 442.419678,85.974823 
	C444.826965,85.274628 446.873444,84.622452 448.929321,84.170250 
	C448.938690,84.370224 448.946350,84.770538 448.946350,84.770538 
	C442.997467,88.185959 437.243988,92.023842 431.041962,94.891891 
	C425.417419,97.492897 420.801208,95.060143 416.774170,90.281342 
	C412.469543,85.173225 407.308044,80.787224 402.283752,75.685280 
	C402.046936,75.284538 402.032135,75.015221 402.371643,74.953255 
	C402.652222,73.599091 402.835419,72.235664 402.480835,71.030457 
	C401.863617,68.932251 400.914642,66.931633 400.104736,64.890106 
z"/>
<path fill="#F69920" opacity="1.000000" stroke="none" 
	d="
M313.025696,76.861046 
	C310.966614,76.866806 308.907501,76.872574 306.232147,76.626465 
	C305.073578,76.257133 304.531311,76.139679 303.987915,75.642754 
	C302.376495,72.335197 300.715088,69.433784 299.170624,66.471375 
	C297.691833,63.634884 296.334595,60.735027 295.227692,57.599983 
	C300.300751,56.337025 304.743073,56.902962 308.300293,60.512978 
	C313.947327,66.243790 319.476715,72.090515 325.028076,78.197762 
	C324.983856,78.712936 324.967499,78.918564 324.556702,79.109192 
	C320.450043,78.349823 316.737885,77.605431 313.025696,76.861046 
z"/>
<path fill="#146A42" opacity="1.000000" stroke="none" 
	d="
M243.531998,200.000656 
	C243.532333,208.445145 243.532333,216.389801 243.532333,224.752228 
	C241.723099,224.907318 240.166718,225.040741 238.230423,225.206741 
	C238.230423,210.268280 238.230423,195.616364 238.230423,180.535767 
	C239.811249,180.464828 241.362946,180.395203 243.531662,180.297882 
	C243.531662,186.982040 243.531662,193.241425 243.531998,200.000656 
z"/>
<path fill="#F8D73B" opacity="1.000000" stroke="none" 
	d="
M253.094986,76.606682 
	C257.099548,74.323677 261.104126,72.040672 265.533569,70.045090 
	C265.971283,70.554810 265.984070,70.777084 265.648560,71.040665 
	C262.127228,73.236755 258.954224,75.391548 256.691650,76.928040 
	C258.483978,80.905731 259.751495,83.883438 261.179718,86.781937 
	C261.577271,87.588760 262.417755,88.197037 263.112518,88.833626 
	C264.561493,90.161217 266.048798,91.446953 267.520355,92.749878 
	C267.557068,93.480080 267.593750,94.210281 267.630432,94.940483 
	C271.433228,92.634499 275.235992,90.328514 279.393433,88.014755 
	C281.502197,86.680946 283.256348,85.354927 285.401367,84.021797 
	C286.831207,83.982712 287.870148,83.950737 288.925201,84.138023 
	C288.941315,84.357277 288.974243,84.795738 288.974243,84.795731 
	C281.653625,88.909309 274.333038,93.022888 266.216370,97.087448 
	C263.625946,96.226166 261.583832,95.720840 260.100250,94.523506 
	C258.268311,93.045090 257.062439,90.812424 255.301468,89.220467 
	C250.417313,84.805107 249.867569,82.106621 253.094986,76.606682 
z"/>
<path fill="#F6C347" opacity="1.000000" stroke="none" 
	d="
M252.761856,76.523621 
	C249.867569,82.106621 250.417313,84.805107 255.301468,89.220467 
	C257.062439,90.812424 258.268311,93.045090 260.100250,94.523506 
	C261.583832,95.720840 263.625946,96.226166 265.843811,97.078064 
	C263.209198,100.698700 258.256805,101.195625 255.440918,99.287224 
	C250.133530,95.690338 245.885849,90.473755 241.501526,85.654060 
	C241.042114,85.149033 242.206360,82.199486 243.335220,81.407898 
	C246.145554,79.437202 249.370346,78.057526 252.761856,76.523621 
z"/>
<path fill="#367D5C" opacity="1.000000" stroke="none" 
	d="
M211.524872,185.066208 
	C212.031113,183.454712 212.537369,181.843216 213.043610,180.231720 
	C214.585632,181.869293 216.127655,183.506851 217.942780,185.434464 
	C220.453674,180.340210 225.175674,178.023270 231.884308,179.763474 
	C231.884308,181.566208 231.884308,183.311737 231.890289,185.059464 
	C220.685532,186.568848 217.327896,190.371155 217.094421,202.156982 
	C216.962936,208.794724 216.926224,215.441284 217.126953,222.075378 
	C217.212097,224.889130 216.114410,225.601395 213.356476,224.865341 
	C213.057648,224.538712 213.104645,224.129684 213.520584,224.099518 
	C214.623917,223.320023 215.920074,222.560257 215.907425,221.822968 
	C215.715652,210.656326 215.450790,199.487579 214.880066,188.335876 
	C214.821503,187.191742 212.692917,186.153549 211.524872,185.066208 
z"/>
<path fill="#1E6F4A" opacity="1.000000" stroke="none" 
	d="
M202.375214,193.669250 
	C201.588303,193.179123 200.919876,192.325867 199.634171,190.684662 
	C198.232040,196.137680 197.056137,202.049530 189.319275,198.484787 
	C189.521774,198.135544 190.022736,198.068695 190.476089,197.884598 
	C192.661682,196.997116 196.631104,199.772522 196.807907,194.732880 
	C196.983261,189.735016 194.275146,184.847031 190.107849,184.757065 
	C184.800400,184.642487 179.466522,185.752838 173.613327,186.393188 
	C172.745392,184.115494 173.142395,181.722198 176.921249,181.186081 
	C181.795334,180.494583 186.801727,179.327621 191.576401,179.878906 
	C194.378601,180.202438 196.841278,183.466690 199.234314,185.712585 
	C198.073883,186.565613 197.135834,187.114243 196.197784,187.662872 
	C196.858887,188.284042 197.519989,188.905243 198.181091,189.526428 
	C198.850296,188.554321 199.519501,187.582214 200.188721,186.610107 
	C200.957062,188.842117 201.725388,191.074112 202.375214,193.669250 
z"/>
<path fill="#EDB759" opacity="1.000000" stroke="none" 
	d="
M325.055878,77.888214 
	C319.476715,72.090515 313.947327,66.243790 308.300293,60.512978 
	C304.743073,56.902962 300.300751,56.337025 294.830780,57.626030 
	C291.711395,58.594013 289.292694,59.272903 286.595459,59.979866 
	C285.871704,60.315155 285.426514,60.622372 284.757019,61.051662 
	C284.329468,61.442558 284.126251,61.711380 283.608948,62.003319 
	C282.516449,62.652744 281.737976,63.279053 280.579529,63.931526 
	C278.126404,64.624481 276.053223,65.291275 273.641785,65.922470 
	C273.082123,65.837959 272.860687,65.789055 272.639282,65.740143 
	C281.718384,59.035553 291.307434,53.050095 303.128113,55.579388 
	C307.256836,56.462818 310.988464,60.046043 314.442963,62.943073 
	C316.795197,64.915749 318.314789,67.866898 320.269867,70.330368 
	C325.148346,76.477348 330.116577,77.749847 337.346191,74.722702 
	C339.026428,74.019173 340.663574,73.212685 342.613281,72.801086 
	C341.890259,74.398399 340.874542,75.648209 339.488708,76.916153 
	C337.416870,77.301308 335.715118,77.668320 333.633789,78.032562 
	C330.521454,77.982605 327.788666,77.935417 325.055878,77.888214 
z"/>
<path fill="#F8E041" opacity="1.000000" stroke="none" 
	d="
M449.321228,84.778854 
	C448.946350,84.770538 448.938690,84.370224 448.956421,84.161537 
	C448.974152,83.952850 449.025909,83.931786 449.313843,83.924133 
	C450.022675,83.585228 450.443542,83.253975 450.909973,82.693619 
	C450.955505,82.464500 451.028748,82.003090 451.341980,81.865112 
	C457.836700,78.020554 457.908539,77.589867 453.211792,73.389450 
	C452.748230,72.974854 452.383026,72.358574 452.174042,71.764839 
	C449.204834,63.330349 448.374847,62.727760 440.040283,63.065582 
	C439.960907,62.967686 439.799438,62.774151 439.799438,62.774151 
	C447.704803,57.228790 450.474487,59.869747 457.343079,65.831230 
	C458.828369,67.120338 459.896393,68.877800 461.258331,70.323730 
	C466.349670,75.728981 466.284790,76.534752 459.866089,79.905998 
	C456.539276,81.653320 453.090057,83.167603 449.321228,84.778854 
z"/>
<path fill="#F9C52E" opacity="1.000000" stroke="none" 
	d="
M400.088745,64.912056 
	C400.914642,66.931633 401.863617,68.932251 402.480835,71.030457 
	C402.835419,72.235664 402.652222,73.599091 402.022644,74.793854 
	C399.828461,74.492920 398.322784,74.289429 396.817078,74.085938 
	C396.151062,74.141640 395.485046,74.197327 394.495209,74.172485 
	C393.373474,74.039360 392.575592,73.986763 391.564392,73.614243 
	C396.239014,70.225090 396.176971,70.289810 391.957886,66.244690 
	C390.984833,65.311722 390.776428,63.625351 389.905396,62.533619 
	C387.253540,59.209869 385.933167,54.043320 380.007324,55.005630 
	C380.010040,54.703400 380.019653,54.401386 380.036560,53.876389 
	C381.141144,53.528088 382.245300,53.403004 383.990417,53.550423 
	C385.540894,53.856308 386.450317,53.889694 387.359772,53.923077 
	C387.359772,53.923077 387.799744,54.085651 388.044189,54.617390 
	C391.131073,57.940853 393.909851,60.802654 396.856537,63.479668 
	C397.690796,64.237587 399.015289,64.455887 400.114929,64.921677 
	C400.114929,64.921677 400.072723,64.934006 400.088745,64.912056 
z"/>
<path fill="#F9DC29" opacity="1.000000" stroke="none" 
	d="
M265.996826,70.999359 
	C265.984070,70.777084 265.971283,70.554810 265.910767,70.000496 
	C266.952209,69.006126 268.041321,68.343788 269.652191,67.962196 
	C271.108765,68.486717 272.043579,68.730484 273.019379,69.323578 
	C275.520386,73.151520 278.708923,76.348869 280.196930,80.202789 
	C281.276642,82.999275 282.827942,83.490669 285.010468,84.028908 
	C283.256348,85.354927 281.502197,86.680946 279.116455,87.819603 
	C274.322174,82.087944 270.159485,76.543655 265.996826,70.999359 
z"/>
<path fill="#1E6F4A" opacity="1.000000" stroke="none" 
	d="
M295.702515,117.445297 
	C294.459442,117.640663 292.425018,118.643021 291.250366,118.021194 
	C285.638947,115.050697 278.521271,115.396698 273.838562,119.672325 
	C266.708130,126.182884 262.779846,136.658524 268.350372,146.935333 
	C268.960297,148.060501 268.828369,149.587814 268.718384,151.088882 
	C262.577240,142.230560 263.223175,132.872299 267.812103,123.826012 
	C271.463531,116.627823 278.048065,113.388557 286.071991,114.255157 
	C289.230560,114.596283 292.233490,116.378090 295.702515,117.445297 
z"/>
<path fill="#FDD01E" opacity="1.000000" stroke="none" 
	d="
M346.040466,72.082497 
	C348.812408,69.760628 351.318604,70.427940 353.953552,72.506760 
	C359.617279,76.975090 362.123352,84.841713 359.081726,89.705078 
	C358.586609,90.286148 358.187805,90.609375 357.362854,90.614426 
	C354.997375,86.771042 353.141235,83.196556 351.091675,79.736649 
	C349.535522,77.109680 347.733215,74.628532 346.040466,72.082497 
z"/>
<path fill="#01572B" opacity="1.000000" stroke="none" 
	d="
M330.608582,116.582748 
	C319.006104,117.064148 319.006104,117.064148 319.006134,128.753983 
	C319.006165,135.877838 318.922150,143.003281 319.056305,150.124603 
	C319.097534,152.314041 319.703735,156.371994 320.104858,156.378723 
	C323.365967,156.433472 326.639801,155.728928 330.251190,155.145203 
	C331.179718,157.549255 330.859253,159.266068 327.607971,159.111679 
	C324.312622,158.955215 321.003998,159.077148 317.372314,159.077148 
	C317.372314,144.431915 317.372314,130.084900 317.372314,114.745033 
	C321.846558,115.232170 326.246124,115.711182 330.608582,116.582748 
z"/>
<path fill="#F8C727" opacity="1.000000" stroke="none" 
	d="
M345.714172,72.064606 
	C347.733215,74.628532 349.535522,77.109680 351.091675,79.736649 
	C353.141235,83.196556 354.997375,86.771042 356.978760,90.675438 
	C356.842224,91.330894 356.663574,91.607162 355.859009,91.936913 
	C354.199829,92.025024 353.166626,92.059654 351.838470,91.864288 
	C349.634644,88.168449 350.279663,82.760246 344.199066,82.563705 
	C344.331085,81.038719 344.437378,79.810760 344.558716,78.409378 
	C342.924438,77.883835 341.391632,77.390930 339.858826,76.898010 
	C340.874542,75.648209 341.890259,74.398399 342.959259,72.863411 
	C343.166321,72.438293 343.320129,72.298370 343.778870,72.090973 
	C344.518463,72.031235 344.953186,72.038971 345.714172,72.064606 
z"/>
<path fill="#EDB759" opacity="1.000000" stroke="none" 
	d="
M352.133392,92.094276 
	C353.166626,92.059654 354.199829,92.025024 355.618469,92.022049 
	C349.447754,99.333130 341.779602,99.813255 335.022491,93.264473 
	C331.460175,89.811966 328.361145,85.790955 324.453339,82.813667 
	C321.273682,80.391167 317.201538,79.140152 313.275421,77.115341 
	C316.737885,77.605431 320.450043,78.349823 324.608643,79.435265 
	C328.470795,83.478027 331.729858,87.342186 335.349335,90.832611 
	C338.533936,93.903671 341.601593,98.000000 347.405090,95.064377 
	C349.203949,94.035385 350.668671,93.064827 352.133392,92.094276 
z"/>
<path fill="#08683A" opacity="1.000000" stroke="none" 
	d="
M211.442383,185.441040 
	C212.692917,186.153549 214.821503,187.191742 214.880066,188.335876 
	C215.450790,199.487579 215.715652,210.656326 215.907425,221.822968 
	C215.920074,222.560257 214.623917,223.320023 213.480774,223.618057 
	C213.015610,213.092529 213.062561,203.017609 212.940216,192.944733 
	C212.920319,191.305557 212.151398,189.675507 211.728699,188.041229 
	C211.605759,187.299438 211.482819,186.557663 211.442383,185.441040 
z"/>
<path fill="#01572B" opacity="1.000000" stroke="none" 
	d="
M211.594864,188.488556 
	C212.151398,189.675507 212.920319,191.305557 212.940216,192.944733 
	C213.062561,203.017609 213.015610,213.092529 213.064819,223.648224 
	C213.104645,224.129684 213.057648,224.538712 213.033188,224.743118 
	C212.480133,223.475937 211.510513,222.009384 211.493698,220.531967 
	C211.373795,210.001175 211.448334,199.468170 211.594864,188.488556 
z"/>
<path fill="#2B7451" opacity="1.000000" stroke="none" 
	d="
M240.287048,161.581573 
	C241.882141,162.762756 243.564484,163.836563 244.235138,165.356720 
	C244.552261,166.075516 243.172302,168.249435 242.123596,168.668289 
	C241.047119,169.098221 238.934174,168.646683 238.153091,167.784882 
	C235.698792,165.076950 236.983185,163.011566 240.287048,161.581573 
z"/>
<path fill="#08683A" opacity="1.000000" stroke="none" 
	d="
M100.402725,129.467438 
	C100.952110,129.425858 101.812263,129.849426 101.806526,130.260941 
	C101.702316,137.731522 101.493904,145.200638 100.944214,152.929932 
	C100.490631,145.435516 100.400536,137.681259 100.402725,129.467438 
z"/>
<path fill="#01572B" opacity="1.000000" stroke="none" 
	d="
M129.387680,158.939850 
	C128.725143,158.241455 128.501404,157.646988 128.186462,156.810211 
	C131.321182,156.810211 134.226883,156.810211 137.999374,156.810211 
	C137.999374,152.226044 137.999374,147.801743 137.999374,143.377441 
	C137.999374,138.924103 137.999374,134.470764 137.999374,130.017426 
	C138.309738,130.019180 138.620087,130.020935 138.930450,130.022690 
	C138.930450,138.791626 138.960281,147.560867 138.869293,156.328857 
	C138.862579,156.974899 137.984741,157.611893 137.264389,158.544495 
	C134.620087,158.905197 132.223282,158.974487 129.387680,158.939850 
z"/>
<path fill="#EDB759" opacity="1.000000" stroke="none" 
	d="
M289.333954,84.805290 
	C288.974243,84.795738 288.941315,84.357277 289.089233,83.895233 
	C289.831055,82.943069 290.424957,82.452957 291.333038,81.831802 
	C293.762634,80.161476 295.878052,78.622200 298.378479,77.070976 
	C300.505310,76.713432 302.247162,76.367828 303.989014,76.022232 
	C304.531311,76.139679 305.073578,76.257133 305.792267,76.592407 
	C300.543671,79.478439 295.118652,82.146645 289.333954,84.805290 
z"/>
<path fill="#1E6F4A" opacity="1.000000" stroke="none" 
	d="
M298.615906,95.266037 
	C298.679352,100.311310 298.387421,105.257317 297.946564,110.190018 
	C297.778351,112.072144 297.268860,113.923767 296.533264,115.899292 
	C296.078339,110.028656 295.900970,104.045685 296.035034,98.069710 
	C296.057159,97.084595 297.444702,96.130112 298.615906,95.266037 
z"/>
<path fill="#F6B53B" opacity="1.000000" stroke="none" 
	d="
M400.049011,64.577728 
	C399.015289,64.455887 397.690796,64.237587 396.856537,63.479668 
	C393.909851,60.802654 391.131073,57.940853 388.201782,54.791050 
	C393.876221,55.513889 397.497620,59.186039 400.049011,64.577728 
z"/>
<path fill="#367D5C" opacity="1.000000" stroke="none" 
	d="
M260.737122,180.811569 
	C261.137146,182.823257 253.664658,181.586136 259.333496,185.811676 
	C258.549805,186.461182 257.451141,187.060837 256.213623,187.736267 
	C254.704376,183.350876 255.996811,181.069458 260.737122,180.811569 
z"/>
<path fill="#08683A" opacity="1.000000" stroke="none" 
	d="
M100.531403,155.363892 
	C104.601547,155.820419 108.550209,156.652084 112.774109,157.792542 
	C110.636230,158.424454 108.223099,158.747574 105.125015,158.716599 
	C103.216331,158.247772 101.992607,158.133072 100.768890,158.018356 
	C100.649231,157.258575 100.529572,156.498779 100.531403,155.363892 
z"/>
<path fill="#1E6F4A" opacity="1.000000" stroke="none" 
	d="
M175.703369,201.123840 
	C173.919907,203.643433 171.788864,206.164444 169.366211,208.851639 
	C171.168350,206.386978 173.262070,203.756119 175.703369,201.123840 
z"/>
<path fill="#11673F" opacity="1.000000" stroke="none" 
	d="
M200.165680,186.400574 
	C199.519501,187.582214 198.850296,188.554321 198.181091,189.526428 
	C197.519989,188.905243 196.858887,188.284042 196.197784,187.662872 
	C197.135834,187.114243 198.073883,186.565613 199.383728,186.020569 
	C199.755493,186.024155 200.142639,186.191040 200.165680,186.400574 
z"/>
<path fill="#367D5C" opacity="1.000000" stroke="none" 
	d="
M278.497681,181.896576 
	C276.874847,181.581390 275.012115,181.056885 273.026428,180.242371 
	C274.688263,180.530655 276.472992,181.108948 278.497681,181.896576 
z"/>
<path fill="#F8D73B" opacity="1.000000" stroke="none" 
	d="
M272.978424,68.974258 
	C272.043579,68.730484 271.108765,68.486717 269.978546,67.917244 
	C270.537964,67.012016 271.292725,66.432487 272.343384,65.796547 
	C272.860687,65.789055 273.082123,65.837959 273.621948,66.245285 
	C273.619690,67.393890 273.299072,68.184074 272.978424,68.974258 
z"/>
<path fill="#2B7451" opacity="1.000000" stroke="none" 
	d="
M174.798538,136.873199 
	C174.368362,138.218338 173.652634,139.605469 172.622696,141.051392 
	C173.043320,139.711838 173.778152,138.313522 174.798538,136.873199 
z"/>
<path fill="#F9E03A" opacity="1.000000" stroke="none" 
	d="
M396.996887,74.387314 
	C398.322784,74.289429 399.828461,74.492920 401.683167,74.855820 
	C402.032135,75.015221 402.046936,75.284538 402.074463,75.415634 
	C400.460236,75.260719 398.818451,74.974709 396.996887,74.387314 
z"/>
<path fill="#0E6C3F" opacity="1.000000" stroke="none" 
	d="
M100.802917,158.331848 
	C101.992607,158.133072 103.216331,158.247772 104.697784,158.622864 
	C103.582664,158.803940 102.209808,158.724625 100.802917,158.331848 
z"/>
<path fill="#F9E03A" opacity="1.000000" stroke="none" 
	d="
M387.592712,53.931770 
	C386.450317,53.889694 385.540894,53.856308 384.396545,53.668953 
	C385.382965,53.656807 386.604309,53.798637 387.592712,53.931770 
z"/>
<path fill="#2B7451" opacity="1.000000" stroke="none" 
	d="
M183.294510,159.962936 
	C184.125336,159.821609 185.201355,159.819885 186.573318,159.881134 
	C185.759415,159.996933 184.649551,160.049744 183.294510,159.962936 
z"/>
<path fill="#367D5C" opacity="1.000000" stroke="none" 
	d="
M284.230988,189.789642 
	C283.712738,189.053436 283.268768,188.031845 282.832825,186.710449 
	C283.329010,187.441818 283.817169,188.473038 284.230988,189.789642 
z"/>
<path fill="#1E6F4A" opacity="1.000000" stroke="none" 
	d="
M184.726196,198.613022 
	C184.162140,198.975952 183.290192,199.291794 182.240417,199.394638 
	C182.847809,198.976410 183.633057,198.771179 184.726196,198.613022 
z"/>
<path fill="#1E6F4A" opacity="1.000000" stroke="none" 
	d="
M178.756897,199.917221 
	C178.257019,200.358734 177.499420,200.720947 176.468781,201.085556 
	C176.963577,200.671280 177.731384,200.254608 178.756897,199.917221 
z"/>
<path fill="#367D5C" opacity="1.000000" stroke="none" 
	d="
M264.819885,179.845306 
	C264.487152,180.176743 263.955841,180.429184 263.253723,180.494537 
	C263.595734,180.127045 264.108521,179.946671 264.819885,179.845306 
z"/>
<path fill="#2B7451" opacity="1.000000" stroke="none" 
	d="
M180.778809,132.586426 
	C180.499619,133.074768 179.939392,133.523911 179.086182,133.938553 
	C179.361374,133.451767 179.929581,132.999496 180.778809,132.586426 
z"/>
<path fill="#2B7451" opacity="1.000000" stroke="none" 
	d="
M186.799652,130.793610 
	C186.474075,131.112473 185.891891,131.340378 185.183258,131.382294 
	C185.552246,131.031769 186.047638,130.867218 186.799652,130.793610 
z"/>
<path fill="#367D5C" opacity="1.000000" stroke="none" 
	d="
M262.107208,184.645599 
	C262.055298,184.212265 262.260437,184.005188 262.756317,183.950867 
	C262.684448,184.230988 262.456879,184.487076 262.107208,184.645599 
z"/>
<path fill="#2B7451" opacity="1.000000" stroke="none" 
	d="
M176.714569,157.397247 
	C177.059906,157.330261 177.466583,157.506485 177.966431,157.898270 
	C177.631699,157.956039 177.203812,157.798233 176.714569,157.397247 
z"/>
<path fill="#367D5C" opacity="1.000000" stroke="none" 
	d="
M284.259094,224.903137 
	C284.049774,224.620026 284.181793,224.379822 284.570923,224.085083 
	C284.680359,224.296234 284.604492,224.601410 284.259094,224.903137 
z"/>
<path fill="#F8E041" opacity="1.000000" stroke="none" 
	d="
M438.769684,63.606529 
	C438.838013,63.166481 439.061890,62.973904 439.578003,62.818863 
	C439.799438,62.774151 439.960907,62.967686 439.892334,63.244072 
	C439.610718,63.751080 439.362305,63.933563 439.078491,64.067909 
	C439.078491,64.067909 438.854431,63.771748 438.769684,63.606529 
z"/>
<path fill="#2B7451" opacity="1.000000" stroke="none" 
	d="
M172.029846,141.674042 
	C172.023285,141.705719 171.960709,141.569794 171.969177,141.534546 
	C171.977661,141.499283 172.036423,141.642365 172.029846,141.674042 
z"/>
<path fill="#1E6F4A" opacity="1.000000" stroke="none" 
	d="
M268.784058,152.315933 
	C269.074921,152.237915 269.385101,152.465424 269.742035,152.987000 
	C269.460297,153.061203 269.131836,152.841324 268.784058,152.315933 
z"/>
<path fill="#2B7451" opacity="1.000000" stroke="none" 
	d="
M172.926880,153.310684 
	C172.949524,153.361664 172.918320,153.224228 172.921295,153.186874 
	C172.924255,153.149521 172.904221,153.259705 172.926880,153.310684 
z"/>
<path fill="#367D5C" opacity="1.000000" stroke="none" 
	d="
M279.865479,182.846039 
	C280.038696,182.981796 279.549408,182.984985 279.549408,182.984985 
	C279.549408,182.984985 279.143585,182.711624 279.036102,182.492004 
	C279.182526,182.419479 279.437073,182.565445 279.865479,182.846039 
z"/>
<path fill="#F2FBF7" opacity="1.000000" stroke="none" 
	d="
M295.842041,141.352982 
	C294.904083,146.483185 292.197449,149.167465 287.292847,149.123520 
	C282.841614,149.083664 279.309540,146.163895 279.033295,140.897934 
	C278.811493,136.670456 279.429382,131.910645 281.335236,128.252090 
	C282.394165,126.219345 287.101746,124.734062 289.706879,125.261978 
	C292.048584,125.736519 294.580872,128.996445 295.535431,131.579666 
	C296.563202,134.361069 295.853638,137.784470 295.842041,141.352982 
z"/>
<path fill="#E9F8F0" opacity="1.000000" stroke="none" 
	d="
M184.903992,145.963470 
	C185.724365,140.119400 189.249252,138.112030 196.802902,138.761993 
	C198.081039,145.010147 196.862885,148.807693 192.738434,149.935471 
	C189.410858,150.845383 185.991837,150.917725 184.903992,145.963470 
z"/>
<path fill="#F2FBF7" opacity="1.000000" stroke="none" 
	d="
M260.924316,205.775024 
	C266.955414,204.348907 272.650848,203.129456 278.682251,201.838058 
	C279.595306,209.463440 279.149384,215.734161 273.681824,219.285828 
	C270.543396,221.324539 265.460876,222.121307 261.843719,221.188538 
	C258.093628,220.221512 255.867111,215.896805 257.004303,211.496063 
	C257.524323,209.483582 259.353302,207.809341 260.924316,205.775024 
z"/>
<path fill="#F2FBF7" opacity="1.000000" stroke="none" 
	d="
M194.878922,215.574493 
	C191.729416,220.551636 187.262436,221.716125 182.153580,221.315994 
	C178.529236,221.032120 175.700394,219.508774 174.904755,215.688919 
	C174.080292,211.730820 174.216003,207.711761 178.529770,205.885818 
	C181.858200,204.476959 185.529663,203.767639 189.115921,203.120041 
	C191.284897,202.728363 193.582306,203.047913 197.184616,203.047913 
	C196.502167,206.988251 195.788208,211.110580 194.878922,215.574493 
z"/>
<path fill="#01572B" opacity="1.000000" stroke="none" 
	d="
M323.577026,118.992165 
	C323.056213,118.973076 322.864624,119.005920 322.731293,118.932709 
	C322.500793,118.806152 322.306458,118.613762 322.096954,118.448990 
	C324.004181,118.270691 325.911407,118.092400 327.818634,117.914101 
	C327.843903,118.210114 327.869202,118.506119 327.894501,118.802132 
	C326.573822,118.866875 325.253143,118.931618 323.577026,118.992165 
z"/>
<path fill="#FCE720" opacity="1.000000" stroke="none" 
	d="
M369.085388,59.020088 
	C375.202545,61.599529 379.107391,67.328423 378.227875,72.032951 
	C379.365997,72.785622 380.550751,73.569160 382.235046,74.683037 
	C377.740265,77.159592 373.762726,79.639610 369.535187,81.572929 
	C366.975311,82.743591 364.535278,82.531693 363.307556,78.955101 
	C362.410767,76.342461 360.502777,74.085190 359.111328,71.632202 
	C356.777649,67.518127 357.707153,64.830917 361.842804,62.875240 
	C364.206696,61.757385 366.422516,60.326347 369.085388,59.020088 
z"/>
<path fill="#FDD41F" opacity="1.000000" stroke="none" 
	d="
M379.689301,55.139534 
	C385.933167,54.043320 387.253540,59.209869 389.905396,62.533619 
	C390.776428,63.625351 390.984833,65.311722 391.957886,66.244690 
	C396.176971,70.289810 396.239014,70.225090 391.166931,73.586243 
	C388.671570,73.878159 386.360382,73.878159 384.470551,73.878159 
	C381.278229,68.404076 378.247162,63.206577 375.038361,57.704266 
	C376.561554,56.849731 377.966431,56.061584 379.689301,55.139534 
z"/>
<path fill="#FD9C1F" opacity="1.000000" stroke="none" 
	d="
M439.072235,87.043373 
	C438.211578,88.041321 437.430237,89.123215 436.477264,90.023476 
	C430.695709,95.485504 424.839661,94.085426 421.880707,86.752449 
	C421.291382,85.291977 419.511719,84.347282 418.737244,82.917572 
	C417.641632,80.895157 416.634186,78.690285 416.319824,76.460373 
	C416.224030,75.780655 418.459351,74.617775 419.760773,73.928841 
	C422.240540,72.616188 424.816559,71.485344 427.715637,70.501099 
	C431.743195,76.163239 435.407715,81.603302 439.072235,87.043373 
z"/>
<path fill="#FDD01E" opacity="1.000000" stroke="none" 
	d="
M439.050842,64.304993 
	C439.362305,63.933563 439.610718,63.751080 439.971710,63.341972 
	C448.374847,62.727760 449.204834,63.330349 452.174042,71.764839 
	C452.383026,72.358574 452.748230,72.974854 453.211792,73.389450 
	C457.908539,77.589867 457.836700,78.020554 450.977295,81.798752 
	C447.434113,77.951035 444.507080,74.074753 441.734497,70.090973 
	C440.643860,68.523880 439.898376,66.716568 438.995697,65.018661 
	C438.995697,65.018661 439.023163,64.542076 439.050842,64.304993 
z"/>
<path fill="#FCBC25" opacity="1.000000" stroke="none" 
	d="
M438.636169,65.054939 
	C439.898376,66.716568 440.643860,68.523880 441.734497,70.090973 
	C444.507080,74.074753 447.434113,77.951035 450.664032,81.936729 
	C451.028748,82.003090 450.955505,82.464500 450.637787,82.738037 
	C449.888672,83.318298 449.457275,83.625031 449.025909,83.931778 
	C449.025909,83.931786 448.974152,83.952850 448.947021,83.961563 
	C446.873444,84.622452 444.826965,85.274628 442.181030,85.793854 
	C442.452240,80.335175 439.553650,76.829033 435.969910,73.498428 
	C434.679260,72.298927 433.960846,70.483734 432.981293,68.949524 
	C434.746429,67.663422 436.511536,66.377319 438.636169,65.054939 
z"/>
<path fill="#F8A71F" opacity="1.000000" stroke="none" 
	d="
M432.613831,68.964249 
	C433.960846,70.483734 434.679260,72.298927 435.969910,73.498428 
	C439.553650,76.829033 442.452240,80.335175 441.820190,85.841866 
	C441.285095,86.357719 440.511353,86.692596 439.404907,87.035431 
	C435.407715,81.603302 431.743195,76.163239 428.040283,70.363800 
	C429.416718,69.662621 430.831573,69.320801 432.613831,68.964249 
z"/>
<path fill="#F8A71F" opacity="1.000000" stroke="none" 
	d="
M347.070923,95.122810 
	C341.601593,98.000000 338.533936,93.903671 335.349335,90.832611 
	C331.729858,87.342186 328.470795,83.478027 325.003113,79.450256 
	C324.967499,78.918564 324.983856,78.712936 325.028076,78.197769 
	C327.788666,77.935417 330.521454,77.982605 333.850250,78.293610 
	C336.148346,80.393768 338.472839,81.957924 339.420227,84.124306 
	C341.273743,88.362877 347.650116,89.339310 347.070923,95.122810 
z"/>
<path fill="#F8A71F" opacity="1.000000" stroke="none" 
	d="
M303.987915,75.642761 
	C302.247162,76.367828 300.505310,76.713432 298.349548,76.714706 
	C295.038696,72.522766 292.067017,68.728104 289.283600,64.799995 
	C288.252777,63.345226 287.664246,61.577034 286.873993,59.951790 
	C289.292694,59.272903 291.711395,58.594013 294.527008,57.889076 
	C296.334595,60.735027 297.691833,63.634884 299.170624,66.471375 
	C300.715088,69.433784 302.376495,72.335197 303.987915,75.642761 
z"/>
<path fill="#FBE624" opacity="1.000000" stroke="none" 
	d="
M265.648560,71.040665 
	C270.159485,76.543655 274.322174,82.087944 278.761780,87.827393 
	C275.235992,90.328514 271.433228,92.634499 267.630432,94.940483 
	C267.593750,94.210281 267.557068,93.480080 267.520355,92.749878 
	C266.048798,91.446953 264.561493,90.161217 263.112518,88.833626 
	C262.417755,88.197037 261.577271,87.588760 261.179718,86.781937 
	C259.751495,83.883438 258.483978,80.905731 256.691650,76.928040 
	C258.954224,75.391548 262.127228,73.236755 265.648560,71.040665 
z"/>
<path fill="#F9CB21" opacity="1.000000" stroke="none" 
	d="
M273.019379,69.323586 
	C273.299072,68.184074 273.619690,67.393890 273.960205,66.280884 
	C276.053223,65.291275 278.126404,64.624481 280.628479,64.307907 
	C282.711517,67.624893 284.334808,70.609390 286.028595,73.553329 
	C287.653992,76.378380 289.352509,79.161369 291.018890,81.962837 
	C290.424957,82.452957 289.831055,82.943069 289.073120,83.675980 
	C287.870148,83.950737 286.831207,83.982712 285.401367,84.021797 
	C282.827942,83.490669 281.276642,82.999275 280.196930,80.202789 
	C278.708923,76.348869 275.520386,73.151520 273.019379,69.323586 
z"/>
<path fill="#FAB91F" opacity="1.000000" stroke="none" 
	d="
M291.333038,81.831802 
	C289.352509,79.161369 287.653992,76.378380 286.028595,73.553329 
	C284.334808,70.609390 282.711517,67.624893 281.008453,64.281738 
	C281.737976,63.279053 282.516449,62.652744 283.850891,61.902542 
	C284.598358,61.495628 284.789856,61.212608 284.981323,60.929588 
	C285.426514,60.622372 285.871704,60.315155 286.595459,59.979858 
	C287.664246,61.577034 288.252777,63.345226 289.283600,64.799995 
	C292.067017,68.728104 295.038696,72.522766 297.964600,76.726654 
	C295.878052,78.622200 293.762634,80.161476 291.333038,81.831802 
z"/>
<path fill="#FAB91F" opacity="1.000000" stroke="none" 
	d="
M347.405090,95.064377 
	C347.650116,89.339310 341.273743,88.362877 339.420227,84.124306 
	C338.472839,81.957924 336.148346,80.393768 334.229797,78.296371 
	C335.715118,77.668320 337.416870,77.301308 339.488708,76.916161 
	C341.391632,77.390930 342.924438,77.883835 344.558716,78.409378 
	C344.437378,79.810760 344.331085,81.038719 344.199066,82.563705 
	C350.279663,82.760246 349.634644,88.168449 351.838470,91.864273 
	C350.668671,93.064827 349.203949,94.035385 347.405090,95.064377 
z"/>
<path fill="#F8A71F" opacity="1.000000" stroke="none" 
	d="
M284.757019,61.051662 
	C284.789856,61.212608 284.598358,61.495628 284.164948,61.879425 
	C284.126251,61.711380 284.329468,61.442558 284.757019,61.051662 
z"/>
<path fill="#F6B53B" opacity="1.000000" stroke="none" 
	d="
M449.313843,83.924118 
	C449.457275,83.625031 449.888672,83.318298 450.592255,82.967148 
	C450.443542,83.253975 450.022675,83.585228 449.313843,83.924118 
z"/>
</svg>