<svg version="1.1" id="Layer_1" xmlns="http://www.w3.org/2000/svg" xmlns:xlink="http://www.w3.org/1999/xlink" x="0px" y="0px"
	 width="100%" viewBox="0 0 768 234" enable-background="new 0 0 768 234" xml:space="preserve">
<path fill="#000000" opacity="1.000000" stroke="none" 
	d="
M497.000000,235.000000 
	C331.333344,235.000000 166.166702,235.000000 1.000044,235.000000 
	C1.000030,157.000031 1.000030,79.000061 1.000015,1.000044 
	C128.999954,1.000000 256.999908,1.000000 384.999878,1.000000 
	C512.999878,1.000000 640.999817,1.000000 768.999878,1.000000 
	C768.999878,78.999931 768.999878,156.999863 768.999939,234.999893 
	C678.500000,235.000000 588.000000,235.000000 497.000000,235.000000 
M667.052307,91.555611 
	C667.356628,91.724220 667.661011,91.892830 667.993103,92.002419 
	C667.993103,92.002419 667.937866,92.037170 668.054138,92.557495 
	C668.353271,92.719376 668.652405,92.881256 668.967651,93.061340 
	C668.967651,93.061340 668.967468,93.085686 669.167664,93.704689 
	C670.089844,94.168221 671.012085,94.631744 671.969421,95.035568 
	C671.969421,95.035568 671.902039,95.019470 672.068176,95.544029 
	C672.372070,95.731415 672.675903,95.918800 672.971863,96.036812 
	C672.971863,96.036812 672.909546,96.068413 673.158936,96.649857 
	C673.764221,96.787949 674.369507,96.926048 674.942688,97.027557 
	C674.942688,97.027557 674.948975,97.077003 675.157532,97.678177 
	C675.767944,97.819511 676.378418,97.960846 676.976807,98.032097 
	C676.976807,98.032097 676.925476,98.081337 677.279419,98.745224 
	C679.187134,99.108292 681.094849,99.471359 683.853760,99.980499 
	C689.899963,100.352448 695.026062,97.836281 700.721497,94.759171 
	C705.827576,91.546425 710.933716,88.333687 716.794617,85.009735 
	C720.863953,82.617203 724.933350,80.224670 729.733337,77.969398 
	C739.906372,72.149841 750.079346,66.330276 760.641907,60.287884 
	C759.603333,58.381935 759.014771,56.857201 758.056641,55.618240 
	C753.131348,49.248913 748.363892,42.727882 743.019043,36.724827 
	C740.273499,33.641125 736.757324,30.836372 733.030457,29.116976 
	C724.867432,25.350929 716.665161,26.303108 708.276245,31.199181 
	C704.486328,33.439331 700.696350,35.679485 696.167419,37.976887 
	C691.738831,40.637005 687.310242,43.297127 682.137817,46.007103 
	C676.421082,48.724819 670.704346,51.442532 664.222107,54.003586 
	C660.182495,53.643604 656.142883,53.283627 651.934143,52.424831 
	C651.628784,52.332123 651.323364,52.239418 650.583679,51.999172 
	C650.583679,51.999172 650.128357,51.943672 649.832031,51.295151 
	C646.297180,48.381271 641.805786,46.090294 639.420593,42.427715 
	C633.948181,34.024540 627.773987,26.439085 619.331238,19.849045 
	C614.913879,17.871046 610.496582,15.893046 605.613403,13.173526 
	C595.943420,12.847725 586.229004,12.097125 576.301392,16.218407 
	C573.173462,17.782091 570.045471,19.345774 566.268250,21.203732 
	C562.162659,23.763256 558.057068,26.322781 553.205139,28.984522 
	C547.430786,32.301350 541.656494,35.618179 535.136169,38.971493 
	C527.730957,43.279896 520.325684,47.588295 512.447449,52.064194 
	C512.279541,52.341892 512.111572,52.619591 511.333160,52.994373 
	C510.872772,53.308041 510.412354,53.621708 509.976990,54.000355 
	C509.976990,54.000355 509.975098,53.931637 509.350677,54.002583 
	C508.881134,54.312065 508.411591,54.621548 507.977692,54.989368 
	C507.977692,54.989368 507.989502,54.922009 507.287231,54.978634 
	C506.503876,55.293934 505.720490,55.609230 504.977875,55.979267 
	C504.977875,55.979267 504.997864,55.914028 504.290802,55.979607 
	C503.496948,56.298382 502.703125,56.617161 501.981537,56.950157 
	C501.981537,56.950157 501.992554,56.877342 501.181610,56.979099 
	C499.437317,57.284924 497.692993,57.590744 495.224487,57.981987 
	C494.497467,57.948887 493.770447,57.915787 492.716522,57.257332 
	C491.525787,57.376862 490.112305,57.974144 489.179993,57.539433 
	C482.439972,54.396870 475.700928,51.480980 471.598236,44.416866 
	C468.385040,38.884262 463.956055,34.057735 460.026001,28.982798 
	C460.026001,28.982798 460.099640,28.959595 459.936157,28.445637 
	C459.635620,28.268673 459.335052,28.091709 459.018860,27.980524 
	C459.018860,27.980524 459.083923,27.962076 458.934235,27.445240 
	C458.634521,27.269550 458.334808,27.093859 458.017761,26.983782 
	C458.017761,26.983782 458.081360,26.960102 457.941986,26.444910 
	C457.643433,26.277403 457.344879,26.109898 457.005096,26.002150 
	C457.005096,26.002150 457.057129,25.950165 456.933899,25.439981 
	C456.639862,25.276432 456.345795,25.112885 456.019501,24.941990 
	C456.019501,24.941990 456.039612,24.915457 455.839722,24.332687 
	C455.255798,24.192305 454.671875,24.051924 453.917908,23.416574 
	C453.629242,23.234015 453.340607,23.051453 452.913361,22.397120 
	C452.703461,22.047010 452.417603,21.966791 451.356476,21.857744 
	C445.936432,19.027000 440.357330,16.892632 434.017029,17.979702 
	C434.017029,17.979702 434.090515,17.938299 433.782837,17.303799 
	C432.866394,17.258474 431.949982,17.213148 430.126617,17.023693 
	C424.678223,17.707197 418.968597,17.583353 413.836395,19.244028 
	C403.486725,22.592970 393.927338,27.837240 384.231384,34.242569 
	C380.079468,36.503948 375.849915,38.635017 371.791931,41.053989 
	C363.479828,46.008827 355.259827,51.118164 346.287567,56.233841 
	C345.922791,56.572430 345.609131,57.004608 345.185730,57.235851 
	C335.576080,62.484062 325.987976,67.773499 316.318054,72.908714 
	C312.583832,74.891769 311.891815,76.870995 314.960541,80.215355 
	C318.353058,83.912651 321.074890,88.229279 324.498993,91.892822 
	C329.785400,97.548897 335.067505,103.590698 342.736603,105.912292 
	C353.121216,109.055931 362.855286,106.299370 372.032349,101.072937 
	C372.032349,101.072937 372.053741,101.057037 372.542419,100.949013 
	C372.860657,100.770775 373.027924,100.499550 373.542297,99.999138 
	C373.706055,99.946098 373.869812,99.893059 374.545013,99.913528 
	C374.717865,99.630089 374.890717,99.346649 375.016754,98.998360 
	C375.016754,98.998360 375.041443,99.073967 375.661011,99.015846 
	C376.120270,98.709061 376.579498,98.402275 377.014893,98.071724 
	C377.014893,98.071724 377.046844,98.063057 377.665985,98.017281 
	C378.122070,97.710083 378.578125,97.402885 379.041962,97.070549 
	C379.041962,97.070549 379.058167,97.049843 379.526672,96.960121 
	C379.840057,96.801079 379.998810,96.545998 380.521637,96.007065 
	C380.696899,95.951469 380.872192,95.895866 381.549744,95.912292 
	C381.726929,95.638451 381.904083,95.364601 382.558563,94.993736 
	C382.558563,94.993736 383.021057,94.840843 383.538055,94.917206 
	C383.714935,94.631744 383.891815,94.346275 384.014648,94.005157 
	C384.014648,94.005157 384.038269,94.079025 384.660370,94.020424 
	C385.120361,93.712379 385.580322,93.404343 386.019745,93.077446 
	C386.019745,93.077446 386.043091,93.064476 386.667480,93.011360 
	C387.136627,92.706413 387.605743,92.401466 388.721954,91.802597 
	C392.165405,89.569077 395.608887,87.335556 399.662415,85.005554 
	C400.122345,84.697914 400.582306,84.390274 401.017609,84.061218 
	C401.017609,84.061218 401.039642,84.062439 401.658264,84.005936 
	C402.114136,83.699142 402.570038,83.392357 403.138031,83.093712 
	C403.138031,83.093712 403.187439,82.992729 403.918274,82.977409 
	C408.221527,80.545822 412.513702,78.094330 416.830231,75.686485 
	C428.753540,69.035423 440.885956,62.993526 455.884583,62.981201 
	C459.597290,63.268425 463.310028,63.555649 467.656403,63.995815 
	C468.090698,64.027802 468.524963,64.059784 468.973419,64.001076 
	C468.973419,64.001076 468.936310,64.085823 469.246246,64.729927 
	C477.842957,68.126694 485.148010,73.354507 490.957733,80.525726 
	C495.533966,86.174454 499.465759,92.390182 504.384766,97.705322 
	C511.025299,104.880608 522.183044,105.997116 530.024414,101.034660 
	C530.024414,101.034660 530.005249,101.101158 530.640198,101.015877 
	C531.117676,100.699593 531.595093,100.383316 532.021118,100.022842 
	C532.021118,100.022842 532.006836,100.089157 532.641418,100.015671 
	C533.116272,99.699913 533.591125,99.384155 534.062500,99.014435 
	C534.062500,99.014435 534.086365,99.068512 534.773865,99.011246 
	C535.895691,98.360016 537.017456,97.708786 538.789551,96.762138 
	C544.198364,93.452240 549.607239,90.142349 555.537964,86.901062 
	C555.725952,86.617035 555.914001,86.333008 556.030090,86.043167 
	C556.030090,86.043167 556.028503,86.115273 556.652283,86.022415 
	C557.123596,85.710777 557.594910,85.399132 558.044739,85.020699 
	C558.044739,85.020699 558.015991,85.084755 558.651184,85.022469 
	C559.132446,84.713646 559.613647,84.404831 560.550476,84.003304 
	C560.550476,84.003304 560.988708,83.848106 561.689575,83.794647 
	C564.568604,82.188347 567.516479,80.691345 570.301331,78.935654 
	C572.032532,77.844185 573.516724,76.361031 575.845764,74.991653 
	C577.564209,73.940453 579.282715,72.889244 581.651550,71.974754 
	C582.460510,71.341103 583.269531,70.707451 584.037415,70.026009 
	C584.037415,70.026009 584.083374,70.073685 584.842712,70.006973 
	C590.228699,67.615578 595.614746,65.224182 601.747681,62.736767 
	C605.134827,61.825485 608.482056,60.374043 611.917786,60.120102 
	C618.250000,59.652077 624.634155,59.887390 631.733093,59.979237 
	C633.135254,60.356255 634.537354,60.733273 636.267639,61.757473 
	C639.188293,63.355522 642.213867,64.791382 645.001526,66.594955 
	C648.096558,68.597382 650.974487,70.935310 654.146362,73.671379 
	C654.736816,74.151268 655.327209,74.631149 656.079224,75.603157 
	C656.376404,75.758514 656.673645,75.913864 656.946167,76.011185 
	C656.946167,76.011185 656.933411,76.073090 656.993469,76.705345 
	C657.588379,77.469490 658.183228,78.233635 659.037720,79.548485 
	C659.407654,80.021248 659.777588,80.494003 660.101990,81.573288 
	C660.706238,82.083710 661.310425,82.594139 661.998169,83.562141 
	C661.998169,83.562141 662.152588,84.000885 662.077454,84.526291 
	C662.367798,84.700943 662.658142,84.875595 662.978821,85.060326 
	C662.978821,85.060326 662.947083,85.075790 662.988220,85.724960 
	C663.631531,86.501053 664.274841,87.277153 664.964294,88.061722 
	C664.964294,88.061722 664.932861,88.029144 665.049683,88.544449 
	C665.335144,88.729530 665.620544,88.914612 665.994629,89.557663 
	C665.994629,89.557663 666.150452,89.997337 666.080627,90.530502 
	C666.374329,90.711723 666.668030,90.892952 666.987915,91.013504 
	C666.987915,91.013504 666.923279,91.027649 667.052307,91.555611 
M168.726776,223.369904 
	C168.777039,208.597626 168.827301,193.825348 168.979172,178.245926 
	C168.944824,177.163849 168.910492,176.081757 168.976990,174.103439 
	C168.964294,171.396515 168.951599,168.689606 168.722000,165.199646 
	C168.513855,164.411530 168.117188,163.621445 168.125458,162.835602 
	C168.284409,147.745911 157.594711,129.613449 138.367386,129.069260 
	C131.861206,128.885117 125.481194,129.443436 119.971840,133.334976 
	C115.481628,136.506638 111.176208,139.939911 106.886543,143.183304 
	C90.386856,122.306976 72.316818,125.738968 52.985210,141.517776 
	C52.985210,138.524643 53.378029,136.457275 52.857704,134.653290 
	C52.460014,133.274521 50.960571,131.257431 49.858822,131.196579 
	C43.761295,130.859711 37.635464,131.035248 31.223114,131.035248 
	C31.489693,136.642273 31.730030,141.697327 31.330984,147.322525 
	C31.552549,151.395676 31.951778,155.468216 31.965548,159.542068 
	C32.032318,179.298737 31.972620,199.055832 32.037060,218.812515 
	C32.042542,220.492981 32.631721,222.171539 33.888672,223.943375 
	C40.566914,223.644974 47.245152,223.346588 54.308144,223.777634 
	C54.861885,223.096466 55.886616,222.424896 55.900703,221.732758 
	C56.285549,202.821548 56.567272,183.908249 57.056774,164.273712 
	C59.531635,160.297653 61.242840,155.401276 64.662453,152.563812 
	C69.644814,148.429642 77.918617,147.618851 85.076126,157.858887 
	C86.052467,164.963058 87.711647,172.052795 87.862282,179.174438 
	C88.170952,193.767731 87.660812,208.378082 87.569824,222.981918 
	C87.567978,223.277206 88.567192,223.578720 90.020180,223.960907 
	C96.654884,223.658386 103.289581,223.355865 110.304550,223.789078 
	C110.869133,223.113724 111.914368,222.448059 111.928223,221.761581 
	C112.303001,203.188171 112.572159,184.612640 113.007561,165.251175 
	C113.374039,163.656158 113.495850,161.951935 114.150444,160.485519 
	C116.640656,154.907043 120.683586,151.170609 126.931671,150.092056 
	C132.707031,149.095123 137.367630,151.284790 140.034073,156.043747 
	C142.280548,160.053207 144.068726,164.782013 144.384933,169.309387 
	C144.956787,177.497177 144.279617,185.772217 144.005936,194.945007 
	C144.005936,204.539459 144.005936,214.133911 144.005936,223.860901 
	C152.464127,223.860901 160.267990,223.860901 168.726776,223.369904 
M256.934753,209.136337 
	C256.564911,198.139664 256.195068,187.142975 255.949509,175.200516 
	C255.962097,171.371948 256.292694,167.512177 255.920578,163.721375 
	C255.162582,155.999405 254.459412,147.962234 248.876724,142.020615 
	C244.371857,137.226151 239.625275,132.978638 232.409500,131.165070 
	C224.130829,129.084366 215.877441,128.449402 207.840698,129.413177 
	C199.463074,130.417831 191.377884,133.860947 183.077652,136.263184 
	C184.586975,142.254059 185.597687,147.060989 187.133560,151.693817 
	C187.442169,152.624710 189.932404,153.637390 191.099594,153.345230 
	C197.657578,151.703735 204.020157,149.154556 210.636307,147.903076 
	C219.868530,146.156738 226.702255,149.677246 230.378769,156.977585 
	C232.259674,160.712463 230.317429,163.981949 226.230759,163.856613 
	C213.172165,163.456192 200.749191,165.488403 189.953964,173.495590 
	C186.852112,175.796356 182.570023,177.828140 181.275864,180.986008 
	C177.928131,189.154892 175.679810,197.849014 178.296097,206.895599 
	C182.043839,219.854462 192.701233,226.457199 206.644730,226.250458 
	C217.082031,226.095703 226.061554,223.715088 233.336456,216.172729 
	C233.980850,217.915588 234.576126,219.525589 235.068405,221.911682 
	C235.037781,225.758179 237.857254,224.857376 240.028061,224.775497 
	C241.636581,224.714828 243.227402,224.116867 244.833725,224.078583 
	C249.167084,223.975296 253.504517,224.043259 257.628723,224.043259 
	C257.322693,218.848831 257.062988,214.440918 256.934753,209.136337 
M329.956909,223.841537 
	C330.653351,223.902847 331.349792,223.964172 332.977417,223.999985 
	C340.220276,223.999985 347.463135,223.999985 355.504700,223.999985 
	C354.981445,201.094498 355.948334,179.014389 353.576721,157.298874 
	C351.090088,134.530197 331.088959,125.570770 311.910583,130.312546 
	C305.180878,131.976456 299.293091,137.045609 292.547424,140.825119 
	C292.415710,139.504913 292.458191,137.276291 291.898468,135.210846 
	C291.495483,133.723694 290.351318,131.319489 289.432526,131.269775 
	C283.044098,130.924118 276.628143,131.087280 270.113861,131.087280 
	C270.113861,139.583389 270.113861,147.229767 270.010101,155.835495 
	C270.005920,174.284073 270.001648,192.732635 269.997589,211.181213 
	C269.996735,215.003891 269.961212,218.827057 270.013489,222.649002 
	C270.034210,224.166489 269.908447,226.273666 273.148102,224.089508 
	C280.340637,224.032730 287.533142,223.975952 295.641724,223.784760 
	C295.700317,204.256195 295.758911,184.727646 296.049469,164.464630 
	C298.190430,161.042068 299.812622,157.102585 302.590546,154.314743 
	C307.069427,149.819824 313.078064,148.781799 319.035919,150.759232 
	C325.648224,152.953857 328.502106,158.343201 329.097015,165.922226 
	C329.380096,169.920319 329.663177,173.918427 329.190674,178.362793 
	C329.128571,192.606079 329.053162,206.849350 329.044983,221.092667 
	C329.044617,221.780350 329.636047,222.468369 329.956909,223.841537 
M469.330444,223.261108 
	C469.699738,223.757309 470.081970,224.693954 470.436401,224.683563 
	C475.649231,224.530762 480.862732,224.319016 486.066589,223.976913 
	C489.018341,223.782867 491.952820,223.326080 494.974762,222.054871 
	C494.982910,193.205185 495.006805,164.355484 494.953308,135.505920 
	C494.950592,134.043457 494.280823,132.582245 492.997986,131.031937 
	C485.656708,131.069580 478.315460,131.107239 470.273376,131.601288 
	C470.175079,133.586639 469.994934,135.571808 469.990784,137.557358 
	C469.931427,165.989014 469.895752,194.420731 469.330444,223.261108 
M455.985199,201.064285 
	C455.990143,166.833435 455.995880,132.602570 455.996582,98.371719 
	C455.996613,97.210297 455.945892,96.048866 455.918793,94.887444 
	C455.218933,94.927246 454.519043,94.967049 452.907562,94.926735 
	C445.708679,94.959747 438.509827,94.992767 430.812836,94.413506 
	C430.541229,95.910591 430.052277,97.404755 430.032104,98.905220 
	C429.856720,111.946404 429.765442,124.988724 429.011078,137.861694 
	C427.338623,136.537430 425.792175,134.999954 423.972504,133.924820 
	C414.804443,128.508026 405.327393,128.096573 394.938202,130.641449 
	C379.425964,134.441254 370.933502,145.039062 366.258850,158.891815 
	C363.409149,167.336716 362.164459,176.349442 363.753845,185.714645 
	C365.632843,196.786163 368.569855,206.714127 376.328613,215.492050 
	C385.033356,225.340149 403.662262,229.273712 415.678619,224.961746 
	C422.608887,222.474884 428.122528,218.552353 432.855743,211.870132 
	C433.289093,214.962082 433.581696,217.049957 433.300354,219.577774 
	C433.300354,221.218826 433.300354,222.859879 433.300354,224.002991 
	C439.461273,224.002991 444.810974,224.101517 450.153687,223.950775 
	C452.081421,223.896378 453.992310,223.243637 456.030731,222.189423 
	C455.990906,221.509216 455.951080,220.829025 455.995331,219.180283 
	C455.954895,213.451904 455.914459,207.723541 455.985199,201.064285 
M594.913574,131.009293 
	C587.479675,131.009293 580.045776,131.009293 572.000610,131.009293 
	C572.000610,133.391144 572.000549,135.175888 572.000549,136.960617 
	C572.000427,150.765381 572.000183,164.570129 572.000427,178.374893 
	C572.000671,192.013321 571.929138,205.652679 572.101746,219.288940 
	C572.121460,220.845474 573.489075,223.711090 574.267334,223.723434 
	C580.866516,223.828186 587.474060,223.411560 594.538330,223.796722 
	C598.454712,224.582214 596.935852,221.531845 596.940063,220.050369 
	C597.021118,191.816742 597.016724,163.582764 596.949707,135.349075 
	C596.946350,133.935745 596.215576,132.524170 594.913574,131.009293 
M534.970642,214.206573 
	C534.941223,202.071274 534.911804,189.935989 535.075745,176.938904 
	C535.082031,175.606674 534.999695,174.267105 535.109436,172.943451 
	C535.699829,165.820526 537.802307,159.629517 544.292358,155.416626 
	C548.753784,152.520584 553.486694,152.991287 558.233887,153.113342 
	C561.894653,153.207458 563.367310,151.860382 563.163025,148.151337 
	C562.934265,143.998398 563.013062,139.821655 563.119141,135.659378 
	C563.202515,132.389221 562.119507,131.004440 558.518005,130.871582 
	C546.802795,130.439453 537.849792,135.086487 530.986877,145.792984 
	C530.986877,141.632339 531.014893,138.662781 530.979187,135.694000 
	C530.941345,132.541595 529.691284,130.782318 526.147522,130.960266 
	C521.993103,131.168869 517.810913,131.163376 513.657043,130.944031 
	C509.757111,130.738113 508.586914,132.614441 508.991028,136.097534 
	C509.275513,138.549332 509.853729,141.002365 509.820007,143.448227 
	C509.754211,148.222687 509.351593,152.992523 508.982483,158.743195 
	C508.986481,179.033218 508.967957,199.323318 509.042694,219.613083 
	C509.047943,221.039444 509.742462,222.463272 511.026184,224.056091 
	C517.483948,224.082596 523.944519,224.006577 530.398438,224.177902 
	C533.734375,224.266449 535.456787,223.136856 535.130981,219.617218 
	C534.994263,218.139526 534.940430,216.654160 534.970642,214.206573 
z"/>
<path fill="#03397B" opacity="1.000000" stroke="none" 
	d="
M85.138771,157.036514 
	C77.918617,147.618851 69.644814,148.429642 64.662453,152.563812 
	C61.242840,155.401276 59.531635,160.297653 56.575832,164.740021 
	C55.724709,166.894791 55.040638,168.581863 55.033184,170.271927 
	C54.963116,186.165268 55.041813,202.059265 54.972511,217.952621 
	C54.965099,219.652649 54.289185,221.349731 53.923393,223.048187 
	C47.245152,223.346588 40.566914,223.644974 33.432629,223.439178 
	C32.983589,199.453522 33.014462,175.971985 32.953056,152.490692 
	C32.948055,150.577087 32.312775,148.665115 31.970366,146.752396 
	C31.730030,141.697327 31.489693,136.642273 31.223114,131.035248 
	C37.635464,131.035248 43.761295,130.859711 49.858822,131.196579 
	C50.960571,131.257431 52.460014,133.274521 52.857704,134.653290 
	C53.378029,136.457275 52.985210,138.524643 52.985210,141.517776 
	C72.316818,125.738968 90.386856,122.306976 106.886543,143.183304 
	C111.176208,139.939911 115.481628,136.506638 119.971840,133.334976 
	C125.481194,129.443436 131.861206,128.885117 138.367386,129.069260 
	C157.594711,129.613449 168.284409,147.745911 168.125458,162.835602 
	C168.117188,163.621445 168.513855,164.411530 168.510147,165.708801 
	C168.490921,169.145203 168.683533,172.072449 168.876144,174.999680 
	C168.910492,176.081757 168.944824,177.163849 168.713943,178.995117 
	C168.304825,194.140076 168.160934,208.535812 167.547821,222.954147 
	C163.267715,222.986877 159.456848,223.004349 155.645966,223.005768 
	C145.010712,223.009735 145.112289,223.005844 144.977051,212.143646 
	C144.901779,206.096756 144.421631,200.054932 144.123962,194.010818 
	C144.279617,185.772217 144.956787,177.497177 144.384933,169.309387 
	C144.068726,164.782013 142.280548,160.053207 140.034073,156.043747 
	C137.367630,151.284790 132.707031,149.095123 126.931671,150.092056 
	C120.683586,151.170609 116.640656,154.907043 114.150444,160.485519 
	C113.495850,161.951935 113.374039,163.656158 112.557236,165.760773 
	C111.740479,167.958862 111.064835,169.645676 111.055870,171.336060 
	C110.974243,186.716797 111.045578,202.098358 110.961601,217.479080 
	C110.951447,219.339005 110.286026,221.195343 109.924286,223.053345 
	C103.289581,223.355865 96.654884,223.658386 89.551857,223.460876 
	C89.083382,205.372284 89.340622,187.777313 88.902809,170.199646 
	C88.792809,165.783432 86.453545,161.422729 85.138771,157.036514 
z"/>
<path fill="#033A7B" opacity="1.000000" stroke="none" 
	d="
M455.911255,220.148819 
	C455.951080,220.829025 455.990906,221.509216 455.509735,222.552032 
	C449.692383,222.945999 444.390045,222.837112 439.101990,223.062881 
	C436.074249,223.192169 434.395386,222.075989 433.874329,219.137817 
	C433.581696,217.049957 433.289093,214.962082 432.855743,211.870132 
	C428.122528,218.552353 422.608887,222.474884 415.678619,224.961746 
	C403.662262,229.273712 385.033356,225.340149 376.328613,215.492050 
	C368.569855,206.714127 365.632843,196.786163 363.753845,185.714645 
	C362.164459,176.349442 363.409149,167.336716 366.258850,158.891815 
	C370.933502,145.039062 379.425964,134.441254 394.938202,130.641449 
	C405.327393,128.096573 414.804443,128.508026 423.972504,133.924820 
	C425.792175,134.999954 427.338623,136.537430 429.336182,138.285919 
	C430.037323,139.106323 430.413391,139.502487 430.789459,139.898636 
	C430.888794,138.596664 431.066437,137.295212 431.075409,135.992630 
	C431.169434,122.337120 431.236450,108.681419 431.310944,95.025780 
	C438.509827,94.992767 445.708679,94.959747 453.558350,95.398895 
	C454.298615,97.859833 454.463654,99.848511 454.466217,101.837410 
	C454.508789,135.119415 454.531097,168.401443 454.439117,202.126770 
	C454.850647,208.429657 455.380951,214.289230 455.911255,220.148819 
M430.876434,187.803650 
	C430.895782,182.983063 430.649658,178.142853 431.003876,173.347000 
	C431.415619,167.771942 429.540253,163.035568 426.953430,158.307281 
	C422.332916,149.861694 404.896179,143.837875 396.072296,155.424484 
	C387.762360,166.336166 385.834656,185.853958 394.338623,198.328568 
	C400.149353,206.852417 411.564240,208.774170 420.343597,203.315872 
	C426.001526,199.798203 427.597168,193.785583 430.876434,187.803650 
z"/>
<path fill="#043A7B" opacity="1.000000" stroke="none" 
	d="
M235.171417,221.135574 
	C234.576126,219.525589 233.980850,217.915588 233.336456,216.172729 
	C226.061554,223.715088 217.082031,226.095703 206.644730,226.250458 
	C192.701233,226.457199 182.043839,219.854462 178.296097,206.895599 
	C175.679810,197.849014 177.928131,189.154892 181.275864,180.986008 
	C182.570023,177.828140 186.852112,175.796356 189.953964,173.495590 
	C200.749191,165.488403 213.172165,163.456192 226.230759,163.856613 
	C230.317429,163.981949 232.259674,160.712463 230.378769,156.977585 
	C226.702255,149.677246 219.868530,146.156738 210.636307,147.903076 
	C204.020157,149.154556 197.657578,151.703735 191.099594,153.345230 
	C189.932404,153.637390 187.442169,152.624710 187.133560,151.693817 
	C185.597687,147.060989 184.586975,142.254059 183.077652,136.263184 
	C191.377884,133.860947 199.463074,130.417831 207.840698,129.413177 
	C215.877441,128.449402 224.130829,129.084366 232.409500,131.165070 
	C239.625275,132.978638 244.371857,137.226151 248.876724,142.020615 
	C254.459412,147.962234 255.162582,155.999405 255.920578,163.721375 
	C256.292694,167.512177 255.962097,171.371948 255.689819,176.018188 
	C255.349136,187.913040 255.268112,198.990204 255.168640,210.479492 
	C256.753967,222.952209 256.753967,222.951736 244.354385,223.055054 
	C242.707367,223.068771 241.007004,223.352539 239.428925,223.031494 
	C237.942703,222.729141 236.585419,221.792938 235.171417,221.135574 
M230.166519,198.269409 
	C230.945786,192.020538 231.725052,185.771683 232.574921,178.956665 
	C227.926636,179.432343 224.646362,179.576721 221.438156,180.135193 
	C214.207993,181.393784 207.313049,183.105377 203.284607,190.400177 
	C198.929352,198.286758 203.907166,207.622757 212.788528,208.046509 
	C220.407120,208.410004 225.658752,204.793259 230.166519,198.269409 
z"/>
<path fill="#043B7C" opacity="1.000000" stroke="none" 
	d="
M294.725677,223.919189 
	C287.533142,223.975952 280.340637,224.032730 272.454529,223.679688 
	C271.589935,221.484024 271.273438,219.698441 271.270142,217.912277 
	C271.234283,198.549484 271.275055,179.186478 271.198334,159.823914 
	C271.191803,158.173248 270.491730,156.525330 270.113861,154.876129 
	C270.113861,147.229767 270.113861,139.583389 270.113861,131.087280 
	C276.628143,131.087280 283.044098,130.924118 289.432526,131.269775 
	C290.351318,131.319489 291.495483,133.723694 291.898468,135.210846 
	C292.458191,137.276291 292.415710,139.504913 292.547424,140.825119 
	C299.293091,137.045609 305.180878,131.976456 311.910583,130.312546 
	C331.088959,125.570770 351.090088,134.530197 353.576721,157.298874 
	C355.948334,179.014389 354.981445,201.094498 355.504700,223.999985 
	C347.463135,223.999985 340.220276,223.999985 332.177368,223.744217 
	C331.285309,221.678162 331.115021,219.867920 331.113647,218.057556 
	C331.101593,202.348755 331.189941,186.639252 331.040619,170.931931 
	C331.021912,168.963593 329.796021,167.006699 329.129456,165.044495 
	C328.502106,158.343201 325.648224,152.953857 319.035919,150.759232 
	C313.078064,148.781799 307.069427,149.819824 302.590546,154.314743 
	C299.812622,157.102585 298.190430,161.042068 295.673920,165.146606 
	C295.139191,167.795532 294.848877,169.761963 294.841278,171.729477 
	C294.774231,189.125931 294.757385,206.522598 294.725677,223.919189 
z"/>
<path fill="#073D7D" opacity="1.000000" stroke="none" 
	d="
M509.088440,157.764267 
	C509.351593,152.992523 509.754211,148.222687 509.820007,143.448227 
	C509.853729,141.002365 509.275513,138.549332 508.991028,136.097534 
	C508.586914,132.614441 509.757111,130.738113 513.657043,130.944031 
	C517.810913,131.163376 521.993103,131.168869 526.147522,130.960266 
	C529.691284,130.782318 530.941345,132.541595 530.979187,135.694000 
	C531.014893,138.662781 530.986877,141.632339 530.986877,145.792984 
	C537.849792,135.086487 546.802795,130.439453 558.518005,130.871582 
	C562.119507,131.004440 563.202515,132.389221 563.119141,135.659378 
	C563.013062,139.821655 562.934265,143.998398 563.163025,148.151337 
	C563.367310,151.860382 561.894653,153.207458 558.233887,153.113342 
	C553.486694,152.991287 548.753784,152.520584 544.292358,155.416626 
	C537.802307,159.629517 535.699829,165.820526 535.109436,172.943451 
	C534.999695,174.267105 535.082031,175.606674 534.572754,177.574692 
	C533.990295,190.015213 533.897827,201.819916 533.874817,213.624771 
	C533.873840,214.139969 534.509705,214.656403 534.848877,215.172272 
	C534.940430,216.654160 534.994263,218.139526 535.130981,219.617218 
	C535.456787,223.136856 533.734375,224.266449 530.398438,224.177902 
	C523.944519,224.006577 517.483948,224.082596 510.609802,223.514862 
	C510.235352,203.052719 510.309387,183.131760 510.265167,163.211060 
	C510.261139,161.394608 509.498718,159.579819 509.088440,157.764267 
z"/>
<path fill="#FFCC02" opacity="1.000000" stroke="none" 
	d="
M454.996674,62.832321 
	C440.885956,62.993526 428.753540,69.035423 416.830231,75.686485 
	C412.513702,78.094330 408.221527,80.545822 403.598297,82.653900 
	C405.160126,80.099907 407.981140,78.763077 405.875488,74.554138 
	C399.602142,62.014355 393.991394,49.144157 387.985443,36.467628 
	C387.471863,35.383633 385.947296,34.778606 384.892395,33.951077 
	C393.927338,27.837240 403.486725,22.592970 413.836395,19.244028 
	C418.968597,17.583353 424.678223,17.707197 430.844666,17.280357 
	C432.405334,17.670782 433.247925,17.804543 434.090515,17.938301 
	C434.090515,17.938299 434.017029,17.979702 434.028992,18.340527 
	C434.368805,20.141922 434.465973,21.686600 435.061707,23.006222 
	C439.023499,31.782551 442.946472,40.582039 447.183868,49.226051 
	C449.481018,53.912025 452.373016,58.306404 454.996674,62.832321 
z"/>
<path fill="#FFC402" opacity="1.000000" stroke="none" 
	d="
M384.561890,34.096825 
	C385.947296,34.778606 387.471863,35.383633 387.985443,36.467628 
	C393.991394,49.144157 399.602142,62.014355 405.875488,74.554138 
	C407.981140,78.763077 405.160126,80.099907 403.232880,82.661560 
	C403.187439,82.992729 403.138031,83.093712 402.796997,83.123390 
	C401.983856,83.456192 401.511749,83.759315 401.039642,84.062439 
	C401.039642,84.062439 401.017609,84.061218 400.741058,84.110184 
	C399.993805,84.473442 399.523071,84.787750 399.052338,85.102043 
	C395.608887,87.335556 392.165405,89.569077 388.109436,91.978043 
	C387.012329,92.457153 386.527710,92.760826 386.043091,93.064484 
	C386.043091,93.064476 386.019745,93.077446 385.743225,93.121155 
	C384.990570,93.469582 384.514404,93.774300 384.038269,94.079025 
	C384.038269,94.079025 384.014648,94.005157 383.844696,94.132080 
	C383.422638,94.414505 383.204742,94.608452 383.021057,94.840843 
	C383.021057,94.840843 382.558563,94.993736 382.122986,95.128876 
	C381.436127,95.413879 381.222809,95.605965 381.047485,95.840263 
	C380.872192,95.895866 380.696899,95.951469 380.072083,96.197601 
	C379.389221,96.570099 379.201080,96.790665 379.058167,97.049843 
	C379.058167,97.049843 379.041962,97.070549 378.753601,97.117126 
	C377.992432,97.463493 377.519653,97.763275 377.046844,98.063057 
	C377.046844,98.063057 377.014893,98.071724 376.740570,98.117607 
	C375.991302,98.466980 375.516388,98.770470 375.041443,99.073959 
	C375.041443,99.073967 375.016754,98.998360 374.845154,99.128326 
	C374.423889,99.412285 374.210541,99.606194 374.033539,99.840027 
	C373.869812,99.893059 373.706055,99.946098 373.095947,100.179054 
	C372.405212,100.552589 372.206604,100.785278 372.053741,101.057037 
	C372.053741,101.057037 372.032349,101.072937 371.650970,101.058769 
	C369.360748,99.723099 366.642120,98.830536 365.677277,97.009018 
	C360.278534,86.816612 355.199371,76.449272 350.247467,66.029312 
	C348.773285,62.927277 348.062500,59.462475 347.001923,56.163887 
	C355.259827,51.118164 363.479828,46.008827 371.791931,41.053989 
	C375.849915,38.635017 380.079468,36.503948 384.561890,34.096825 
z"/>
<path fill="#00387A" opacity="1.000000" stroke="none" 
	d="
M594.079041,223.151352 
	C587.474060,223.411560 580.866516,223.828186 574.267334,223.723434 
	C573.489075,223.711090 572.121460,220.845474 572.101746,219.288940 
	C571.929138,205.652679 572.000671,192.013321 572.000427,178.374893 
	C572.000183,164.570129 572.000427,150.765381 572.000549,136.960617 
	C572.000549,135.175888 572.000610,133.391144 572.000610,131.009293 
	C580.045776,131.009293 587.479675,131.009293 595.340149,131.518158 
	C595.763489,160.516632 595.792053,189.006393 595.684998,217.495621 
	C595.677917,219.382858 594.638367,221.266205 594.079041,223.151352 
z"/>
<path fill="#01387A" opacity="1.000000" stroke="none" 
	d="
M470.974182,131.144897 
	C478.315460,131.107239 485.656708,131.069580 493.466431,131.535202 
	C493.877075,162.307449 493.819275,192.576447 493.314392,222.887634 
	C485.639709,222.890656 478.412140,222.851456 471.150513,222.356720 
	C471.069061,191.649094 471.021637,161.397003 470.974182,131.144897 
z"/>
<path fill="#FEA902" opacity="1.000000" stroke="none" 
	d="
M555.016052,86.832458 
	C549.607239,90.142349 544.198364,93.452240 538.107239,96.894279 
	C536.288818,97.333717 535.152649,97.641022 533.772339,97.707138 
	C532.689941,96.470901 531.584351,95.599915 531.056091,94.461098 
	C527.001282,85.719994 522.941406,76.977425 519.125122,68.130943 
	C516.832397,62.816349 514.974060,57.314423 512.920471,51.896690 
	C520.325684,47.588295 527.730957,43.279896 535.911133,38.971066 
	C538.575439,40.217670 541.277832,41.031586 542.213013,42.786976 
	C546.190125,50.252480 549.745972,57.950310 553.255676,65.654396 
	C555.986694,71.649124 558.421997,77.778542 560.988708,83.848106 
	C560.988708,83.848106 560.550476,84.003304 560.026489,84.075623 
	C559.007019,84.460205 558.511536,84.772484 558.015991,85.084755 
	C558.015991,85.084755 558.044739,85.020699 557.760864,85.088440 
	C556.994141,85.475883 556.511292,85.795578 556.028503,86.115273 
	C556.028503,86.115273 556.030090,86.043167 555.864929,86.148071 
	C555.437500,86.405624 555.209595,86.598793 555.016052,86.832458 
z"/>
<path fill="#FFBE03" opacity="1.000000" stroke="none" 
	d="
M346.644745,56.198864 
	C348.062500,59.462475 348.773285,62.927277 350.247467,66.029312 
	C355.199371,76.449272 360.278534,86.816612 365.677277,97.009018 
	C366.642120,98.830536 369.360748,99.723099 371.652222,101.072037 
	C362.855286,106.299370 353.121216,109.055931 342.736603,105.912292 
	C335.067505,103.590698 329.785400,97.548897 324.498993,91.892822 
	C321.074890,88.229279 318.353058,83.912651 314.960541,80.215355 
	C311.891815,76.870995 312.583832,74.891769 316.318054,72.908714 
	C325.987976,67.773499 335.576080,62.484062 345.185730,57.235851 
	C345.609131,57.004608 345.922791,56.572430 346.644745,56.198864 
z"/>
<path fill="#FECD03" opacity="1.000000" stroke="none" 
	d="
M708.928284,30.918213 
	C716.665161,26.303108 724.867432,25.350929 733.030457,29.116976 
	C736.757324,30.836372 740.273499,33.641125 743.019043,36.724827 
	C748.363892,42.727882 753.131348,49.248913 758.056641,55.618240 
	C759.014771,56.857201 759.603333,58.381935 760.641907,60.287884 
	C750.079346,66.330276 739.906372,72.149841 729.346130,77.537018 
	C724.789856,67.783821 720.557922,58.490402 716.474304,49.132313 
	C713.846313,43.110123 711.436096,36.992870 708.928284,30.918213 
z"/>
<path fill="#FEAA01" opacity="1.000000" stroke="none" 
	d="
M664.987610,54.160248 
	C670.704346,51.442532 676.421082,48.724819 682.883606,46.011585 
	C685.038940,47.249115 687.022949,48.207485 687.765137,49.759621 
	C692.717590,60.116966 697.069153,70.773735 702.313660,80.974472 
	C705.129211,86.450905 706.353027,90.760849 700.162109,94.374565 
	C700.054260,94.437515 700.050598,94.679062 699.998352,94.837280 
	C695.026062,97.836281 689.899963,100.352448 683.375244,99.642059 
	C682.599792,98.864380 682.302856,98.425140 681.938171,97.622589 
	C676.207031,84.759010 670.467529,72.291985 664.977905,59.715870 
	C664.299377,58.161575 664.951843,56.026314 664.987610,54.160248 
z"/>
<path fill="#FECC04" opacity="1.000000" stroke="none" 
	d="
M630.996704,59.829628 
	C624.634155,59.887390 618.250000,59.652077 611.917786,60.120102 
	C608.482056,60.374043 605.134827,61.825485 601.368164,62.398731 
	C600.622070,60.456944 600.517212,58.733555 599.847534,57.268341 
	C594.486145,45.538841 589.192871,33.771023 583.443176,22.231930 
	C582.210449,19.758051 579.207214,18.166433 577.019592,16.168381 
	C586.229004,12.097125 595.943420,12.847725 605.493896,13.594976 
	C601.904663,14.804836 603.537659,16.864916 604.310303,18.578991 
	C609.230286,29.493454 614.334106,40.327675 619.077393,51.317799 
	C620.923218,55.594444 622.735474,59.088520 628.317444,58.135765 
	C629.091614,58.003628 630.097900,59.231392 630.996704,59.829628 
z"/>
<path fill="#FEB101" opacity="1.000000" stroke="none" 
	d="
M512.683960,51.980442 
	C514.974060,57.314423 516.832397,62.816349 519.125122,68.130943 
	C522.941406,76.977425 527.001282,85.719994 531.056091,94.461098 
	C531.584351,95.599915 532.689941,96.470901 533.782288,97.987946 
	C534.053101,98.696136 534.069702,98.882324 534.086365,99.068512 
	C534.086365,99.068512 534.062500,99.014435 533.767456,99.074448 
	C532.983887,99.452690 532.495361,99.770912 532.006836,100.089142 
	C532.006836,100.089157 532.021118,100.022842 531.749207,100.080956 
	C530.986633,100.459770 530.495911,100.780464 530.005249,101.101166 
	C530.005249,101.101158 530.024414,101.034660 529.621826,101.038788 
	C525.096130,101.350479 520.921204,102.168373 516.870728,101.758232 
	C514.726868,101.541161 511.885529,99.645554 510.924103,97.724495 
	C505.208588,86.303688 499.920776,74.667641 494.572998,63.065304 
	C493.826904,61.446640 493.541901,59.615479 493.043427,57.882687 
	C493.770447,57.915787 494.497467,57.948887 495.836609,58.160263 
	C498.296692,57.851475 500.144623,57.364410 501.992554,56.877342 
	C501.992554,56.877342 501.981537,56.950157 502.286285,56.947136 
	C503.393311,56.600750 504.195587,56.257389 504.997864,55.914028 
	C504.997864,55.914028 504.977875,55.979267 505.294800,55.961945 
	C506.404297,55.603748 507.196899,55.262882 507.989502,54.922012 
	C507.989502,54.922009 507.977692,54.989368 508.252747,54.927124 
	C509.010193,54.553791 509.492645,54.242706 509.975098,53.931625 
	C509.975098,53.931637 509.976990,54.000355 510.255127,53.927795 
	C511.003418,53.535919 511.473541,53.216610 511.943665,52.897293 
	C512.111572,52.619591 512.279541,52.341892 512.683960,51.980442 
z"/>
<path fill="#FFC402" opacity="1.000000" stroke="none" 
	d="
M455.440613,62.906761 
	C452.373016,58.306404 449.481018,53.912025 447.183868,49.226051 
	C442.946472,40.582039 439.023499,31.782551 435.061707,23.006222 
	C434.465973,21.686600 434.368805,20.141922 434.050018,18.303963 
	C440.357330,16.892632 445.936432,19.027000 451.840576,22.167191 
	C452.531433,22.673449 452.773865,22.804201 453.051941,22.868893 
	C453.340607,23.051453 453.629242,23.234015 454.184265,23.882278 
	C454.980255,24.537142 455.509949,24.726299 456.039612,24.915457 
	C456.039612,24.915457 456.019501,24.941990 456.166779,25.146851 
	C456.519745,25.603338 456.767426,25.802822 457.057129,25.950165 
	C457.057129,25.950165 457.005096,26.002150 457.163696,26.175034 
	C457.534851,26.602152 457.787872,26.806213 458.081360,26.960102 
	C458.081360,26.960102 458.017761,26.983782 458.166290,27.158367 
	C458.529602,27.593479 458.785980,27.803188 459.083923,27.962076 
	C459.083923,27.962076 459.018860,27.980524 459.168030,28.156929 
	C459.578003,28.542084 459.838837,28.750835 460.099640,28.959591 
	C460.099640,28.959595 460.026001,28.982798 460.031586,29.363581 
	C460.853760,32.557682 461.302216,35.549389 462.561401,38.148247 
	C465.440796,44.090965 468.849274,49.776344 471.763702,55.703526 
	C472.874695,57.962959 473.221619,60.598095 474.038239,63.492584 
	C471.823975,63.750050 470.380157,63.917934 468.936310,64.085815 
	C468.936310,64.085823 468.973419,64.001076 468.822021,63.857941 
	C468.121307,63.757492 467.572021,63.800179 467.022736,63.842869 
	C463.310028,63.555649 459.597290,63.268425 455.440613,62.906761 
z"/>
<path fill="#FEBC07" opacity="1.000000" stroke="none" 
	d="
M469.091278,64.407867 
	C470.380157,63.917934 471.823975,63.750050 474.038239,63.492584 
	C473.221619,60.598095 472.874695,57.962959 471.763702,55.703526 
	C468.849274,49.776344 465.440796,44.090965 462.561401,38.148247 
	C461.302216,35.549389 460.853760,32.557682 460.052185,29.330940 
	C463.956055,34.057735 468.385040,38.884262 471.598236,44.416866 
	C475.700928,51.480980 482.439972,54.396870 489.179993,57.539433 
	C490.112305,57.974144 491.525787,57.376862 492.879974,57.570007 
	C493.541901,59.615479 493.826904,61.446640 494.572998,63.065304 
	C499.920776,74.667641 505.208588,86.303688 510.924103,97.724495 
	C511.885529,99.645554 514.726868,101.541161 516.870728,101.758232 
	C520.921204,102.168373 525.096130,101.350479 529.649597,101.059456 
	C522.183044,105.997116 511.025299,104.880608 504.384766,97.705322 
	C499.465759,92.390182 495.533966,86.174454 490.957733,80.525726 
	C485.148010,73.354507 477.842957,68.126694 469.091278,64.407867 
z"/>
<path fill="#FEB102" opacity="1.000000" stroke="none" 
	d="
M561.339111,83.821381 
	C558.421997,77.778542 555.986694,71.649124 553.255676,65.654396 
	C549.745972,57.950310 546.190125,50.252480 542.213013,42.786976 
	C541.277832,41.031586 538.575439,40.217670 536.284058,38.952824 
	C541.656494,35.618179 547.430786,32.301350 553.605957,29.317997 
	C558.434998,39.629292 562.776123,49.647041 567.326660,59.568703 
	C569.733643,64.816635 572.505005,69.897430 575.111816,75.053680 
	C573.516724,76.361031 572.032532,77.844185 570.301331,78.935654 
	C567.516479,80.691345 564.568604,82.188347 561.339111,83.821381 
z"/>
<path fill="#FFC402" opacity="1.000000" stroke="none" 
	d="
M576.660522,16.193392 
	C579.207214,18.166433 582.210449,19.758051 583.443176,22.231930 
	C589.192871,33.771023 594.486145,45.538841 599.847534,57.268341 
	C600.517212,58.733555 600.622070,60.456944 600.994751,62.446739 
	C595.614746,65.224182 590.228699,67.615578 584.545471,69.706787 
	C585.482605,67.672928 587.608643,66.681885 586.150269,63.566139 
	C579.539001,49.441025 573.294250,35.144360 566.917542,20.909458 
	C570.045471,19.345774 573.173462,17.782091 576.660522,16.193392 
z"/>
<path fill="#FFBA01" opacity="1.000000" stroke="none" 
	d="
M566.592896,21.056597 
	C573.294250,35.144360 579.539001,49.441025 586.150269,63.566139 
	C587.608643,66.681885 585.482605,67.672928 584.165771,69.740143 
	C584.083374,70.073685 584.037415,70.026009 583.725586,70.047203 
	C582.609497,70.658279 581.805359,71.248161 581.001160,71.838043 
	C579.282715,72.889244 577.564209,73.940453 575.478760,75.022667 
	C572.505005,69.897430 569.733643,64.816635 567.326660,59.568703 
	C562.776123,49.647041 558.434998,39.629292 553.979126,29.266890 
	C558.057068,26.322781 562.162659,23.763256 566.592896,21.056597 
z"/>
<path fill="#FFC402" opacity="1.000000" stroke="none" 
	d="
M708.602295,31.058697 
	C711.436096,36.992870 713.846313,43.110123 716.474304,49.132313 
	C720.557922,58.490402 724.789856,67.783821 728.980835,77.468384 
	C724.933350,80.224670 720.863953,82.617203 716.391724,84.682465 
	C715.661011,83.249062 715.467896,82.080025 714.984863,81.046425 
	C709.578552,69.476738 704.021729,57.975655 698.770996,46.336327 
	C697.614258,43.772198 697.500427,40.737598 696.906433,37.919640 
	C700.696350,35.679485 704.486328,33.439331 708.602295,31.058697 
z"/>
<path fill="#FFC402" opacity="1.000000" stroke="none" 
	d="
M631.364868,59.904430 
	C630.097900,59.231392 629.091614,58.003628 628.317444,58.135765 
	C622.735474,59.088520 620.923218,55.594444 619.077393,51.317799 
	C614.334106,40.327675 609.230286,29.493454 604.310303,18.578991 
	C603.537659,16.864916 601.904663,14.804836 605.726807,13.965736 
	C610.496582,15.893046 614.913879,17.871046 619.663879,20.386896 
	C622.748352,26.897825 625.709717,32.785179 628.197876,38.866127 
	C631.170898,46.131832 636.394775,52.646294 635.939514,61.110291 
	C634.537354,60.733273 633.135254,60.356255 631.364868,59.904430 
z"/>
<path fill="#FEB203" opacity="1.000000" stroke="none" 
	d="
M664.604858,54.081917 
	C664.951843,56.026314 664.299377,58.161575 664.977905,59.715870 
	C670.467529,72.291985 676.207031,84.759010 681.514282,97.626244 
	C679.747314,98.022575 678.336365,98.051956 676.925476,98.081337 
	C676.925476,98.081337 676.976807,98.032097 676.781860,97.847328 
	C676.040894,97.467377 675.494934,97.272194 674.948975,97.077011 
	C674.948975,97.077003 674.942688,97.027557 674.753174,96.830460 
	C674.012329,96.445045 673.460938,96.256729 672.909546,96.068413 
	C672.909546,96.068413 672.971863,96.036812 672.824829,95.862968 
	C672.419189,95.465912 672.160583,95.242699 671.902039,95.019478 
	C671.902039,95.019470 671.969421,95.035568 671.874512,94.736458 
	C670.842163,93.986794 669.904846,93.536240 668.967468,93.085686 
	C668.967468,93.085686 668.967651,93.061340 668.825439,92.851761 
	C668.473755,92.392525 668.225281,92.190857 667.937866,92.037170 
	C667.937866,92.037170 667.993103,92.002419 667.839111,91.827774 
	C667.469666,91.397766 667.215698,91.189270 666.923279,91.027649 
	C666.923279,91.027649 666.987915,91.013504 666.868286,90.843208 
	C666.591919,90.409935 666.392517,90.184746 666.150452,89.997337 
	C666.150452,89.997337 665.994629,89.557663 665.828308,89.118507 
	C665.460388,88.416199 665.217346,88.199463 664.932861,88.029144 
	C664.932861,88.029144 664.964294,88.061722 664.944092,87.715057 
	C664.264954,86.604202 663.606018,85.839996 662.947083,85.075790 
	C662.947083,85.075790 662.978821,85.060326 662.861755,84.857880 
	C662.590271,84.398376 662.392883,84.180199 662.152588,84.000885 
	C662.152588,84.000885 661.998169,83.562141 661.920471,83.032364 
	C661.277710,81.990646 660.712646,81.478706 660.147522,80.966759 
	C659.777588,80.494003 659.407654,80.021248 658.962402,78.943596 
	C658.235840,77.583504 657.584595,76.828293 656.933411,76.073090 
	C656.933411,76.073090 656.946167,76.011185 656.817871,75.842400 
	C656.478149,75.423035 656.220825,75.235504 655.917664,75.111031 
	C655.327209,74.631149 654.736816,74.151268 654.062134,72.963127 
	C652.463562,67.460548 651.063721,62.625618 649.384521,57.889725 
	C648.592407,55.655697 647.166992,53.600346 650.128357,51.943672 
	C650.128357,51.943672 650.583679,51.999172 650.951721,52.241272 
	C651.553162,52.679565 651.814331,52.826321 652.103271,52.923649 
	C656.142883,53.283627 660.182495,53.643604 664.604858,54.081917 
z"/>
<path fill="#FEB802" opacity="1.000000" stroke="none" 
	d="
M696.536926,37.948265 
	C697.500427,40.737598 697.614258,43.772198 698.770996,46.336327 
	C704.021729,57.975655 709.578552,69.476738 714.984863,81.046425 
	C715.467896,82.080025 715.661011,83.249062 716.014282,84.738068 
	C710.933716,88.333687 705.827576,91.546425 700.359924,94.798225 
	C700.050598,94.679062 700.054260,94.437515 700.162109,94.374565 
	C706.353027,90.760849 705.129211,86.450905 702.313660,80.974472 
	C697.069153,70.773735 692.717590,60.116966 687.765137,49.759621 
	C687.022949,48.207485 685.038940,47.249115 683.255493,45.986656 
	C687.310242,43.297127 691.738831,40.637005 696.536926,37.948265 
z"/>
<path fill="#FEBC07" opacity="1.000000" stroke="none" 
	d="
M649.980225,51.619411 
	C647.166992,53.600346 648.592407,55.655697 649.384521,57.889725 
	C651.063721,62.625618 652.463562,67.460548 653.962402,72.691017 
	C650.974487,70.935310 648.096558,68.597382 645.001526,66.594955 
	C642.213867,64.791382 639.188293,63.355522 636.103577,61.433884 
	C636.394775,52.646294 631.170898,46.131832 628.197876,38.866127 
	C625.709717,32.785179 622.748352,26.897825 619.985596,20.544449 
	C627.773987,26.439085 633.948181,34.024540 639.420593,42.427715 
	C641.805786,46.090294 646.297180,48.381271 649.980225,51.619411 
z"/>
<path fill="#D0DCE7" opacity="1.000000" stroke="none" 
	d="
M454.557892,201.683472 
	C454.531097,168.401443 454.508789,135.119415 454.466217,101.837410 
	C454.463654,99.848511 454.298615,97.859833 454.014160,95.438950 
	C454.519043,94.967049 455.218933,94.927246 455.918823,94.887444 
	C455.945892,96.048866 455.996613,97.210297 455.996582,98.371719 
	C455.995880,132.602570 455.990143,166.833435 455.703247,201.504089 
	C455.159363,201.771408 454.871552,201.684601 454.557892,201.683472 
z"/>
<path fill="#83A2C0" opacity="1.000000" stroke="none" 
	d="
M594.308716,223.474030 
	C594.638367,221.266205 595.677917,219.382858 595.684998,217.495621 
	C595.792053,189.006393 595.763489,160.516632 595.795105,131.569397 
	C596.215576,132.524170 596.946350,133.935745 596.949707,135.349075 
	C597.016724,163.582764 597.021118,191.816742 596.940063,220.050369 
	C596.935852,221.531845 598.454712,224.582214 594.308716,223.474030 
z"/>
<path fill="#3D6C9B" opacity="1.000000" stroke="none" 
	d="
M493.761505,222.845428 
	C493.819275,192.576447 493.877075,162.307449 493.928223,131.579468 
	C494.280823,132.582245 494.950592,134.043457 494.953308,135.505920 
	C495.006805,164.355484 494.982910,193.205185 494.651123,222.489166 
	C494.138824,222.897446 493.950165,222.871445 493.761505,222.845428 
z"/>
<path fill="#305D92" opacity="1.000000" stroke="none" 
	d="
M470.623779,131.373093 
	C471.021637,161.397003 471.069061,191.649094 470.817810,222.371063 
	C470.297577,222.844757 470.076019,222.848602 469.854431,222.852432 
	C469.895752,194.420731 469.931427,165.989014 469.990784,137.557358 
	C469.994934,135.571808 470.175079,133.586639 470.623779,131.373093 
z"/>
<path fill="#6589AF" opacity="1.000000" stroke="none" 
	d="
M85.107452,157.447693 
	C86.453545,161.422729 88.792809,165.783432 88.902809,170.199646 
	C89.340622,187.777313 89.083382,205.372284 89.091461,223.419098 
	C88.567192,223.578720 87.567978,223.277206 87.569824,222.981918 
	C87.660812,208.378082 88.170952,193.767731 87.862282,179.174438 
	C87.711647,172.052795 86.052467,164.963058 85.107452,157.447693 
z"/>
<path fill="#4973A0" opacity="1.000000" stroke="none" 
	d="
M31.650673,147.037460 
	C32.312775,148.665115 32.948055,150.577087 32.953056,152.490692 
	C33.014462,175.971985 32.983589,199.453522 32.963161,223.392990 
	C32.631721,222.171539 32.042542,220.492981 32.037060,218.812515 
	C31.972620,199.055832 32.032318,179.298737 31.965548,159.542068 
	C31.951778,155.468216 31.552549,151.395676 31.650673,147.037460 
z"/>
<path fill="#C6D5E2" opacity="1.000000" stroke="none" 
	d="
M270.061981,155.355804 
	C270.491730,156.525330 271.191803,158.173248 271.198334,159.823914 
	C271.275055,179.186478 271.234283,198.549484 271.270142,217.912277 
	C271.273438,219.698441 271.589935,221.484024 272.006165,223.610489 
	C269.908447,226.273666 270.034210,224.166489 270.013489,222.649002 
	C269.961212,218.827057 269.996735,215.003891 269.997589,211.181213 
	C270.001648,192.732635 270.005920,174.284073 270.061981,155.355804 
z"/>
<path fill="#A1B5C9" opacity="1.000000" stroke="none" 
	d="
M329.113220,165.483368 
	C329.796021,167.006699 331.021912,168.963593 331.040619,170.931931 
	C331.189941,186.639252 331.101593,202.348755 331.113647,218.057556 
	C331.115021,219.867920 331.285309,221.678162 331.711761,223.756958 
	C331.349792,223.964172 330.653351,223.902847 329.964111,223.020355 
	C329.962982,207.438278 329.954620,192.677399 329.946259,177.916519 
	C329.663177,173.918427 329.380096,169.920319 329.113220,165.483368 
z"/>
<path fill="#6589AF" opacity="1.000000" stroke="none" 
	d="
M110.114426,223.421204 
	C110.286026,221.195343 110.951447,219.339005 110.961601,217.479080 
	C111.045578,202.098358 110.974243,186.716797 111.055870,171.336060 
	C111.064835,169.645676 111.740479,167.958862 112.483002,166.153931 
	C112.572159,184.612640 112.303001,203.188171 111.928223,221.761581 
	C111.914368,222.448059 110.869133,223.113724 110.114426,223.421204 
z"/>
<path fill="#6589AF" opacity="1.000000" stroke="none" 
	d="
M54.115768,223.412903 
	C54.289185,221.349731 54.965099,219.652649 54.972511,217.952621 
	C55.041813,202.059265 54.963116,186.165268 55.033184,170.271927 
	C55.040638,168.581863 55.724709,166.894791 56.480556,165.100800 
	C56.567272,183.908249 56.285549,202.821548 55.900703,221.732758 
	C55.886616,222.424896 54.861885,223.096466 54.115768,223.412903 
z"/>
<path fill="#8EAAC4" opacity="1.000000" stroke="none" 
	d="
M509.035461,158.253723 
	C509.498718,159.579819 510.261139,161.394608 510.265167,163.211060 
	C510.309387,183.131760 510.235352,203.052719 510.154938,223.430954 
	C509.742462,222.463272 509.047943,221.039444 509.042694,219.613083 
	C508.967957,199.323318 508.986481,179.033218 509.035461,158.253723 
z"/>
<path fill="#C6D5E2" opacity="1.000000" stroke="none" 
	d="
M295.183716,223.851974 
	C294.757385,206.522598 294.774231,189.125931 294.841278,171.729477 
	C294.848877,169.761963 295.139191,167.795532 295.557922,165.513840 
	C295.758911,184.727646 295.700317,204.256195 295.183716,223.851974 
z"/>
<path fill="#3D6C9B" opacity="1.000000" stroke="none" 
	d="
M235.119904,221.523621 
	C236.585419,221.792938 237.942703,222.729141 239.428925,223.031494 
	C241.007004,223.352539 242.707367,223.068771 244.354385,223.055054 
	C256.753967,222.951736 256.753967,222.952209 255.436462,210.467682 
	C256.082916,210.040176 256.443085,210.036575 256.803284,210.032990 
	C257.062988,214.440918 257.322693,218.848831 257.628723,224.043259 
	C253.504517,224.043259 249.167084,223.975296 244.833725,224.078583 
	C243.227402,224.116867 241.636581,224.714828 240.028061,224.775497 
	C237.857254,224.857376 235.037781,225.758179 235.119904,221.523621 
z"/>
<path fill="#4973A0" opacity="1.000000" stroke="none" 
	d="
M144.064941,194.477905 
	C144.421631,200.054932 144.901779,206.096756 144.977051,212.143646 
	C145.112289,223.005844 145.010712,223.009735 155.645966,223.005768 
	C159.456848,223.004349 163.267715,222.986877 167.567352,223.186279 
	C168.056122,223.395844 168.071854,223.860901 168.071854,223.860901 
	C160.267990,223.860901 152.464127,223.860901 144.005936,223.860901 
	C144.005936,214.133911 144.005936,204.539459 144.064941,194.477905 
z"/>
<path fill="#C4CCC6" opacity="1.000000" stroke="none" 
	d="
M431.061890,94.719643 
	C431.236450,108.681419 431.169434,122.337120 431.075409,135.992630 
	C431.066437,137.295212 430.888794,138.596664 430.789459,139.898636 
	C430.413391,139.502487 430.037323,139.106323 429.655212,138.370422 
	C429.765442,124.988724 429.856720,111.946404 430.032104,98.905220 
	C430.052277,97.404755 430.541229,95.910591 431.061890,94.719643 
z"/>
<path fill="#C4CCC6" opacity="1.000000" stroke="none" 
	d="
M329.568481,178.139648 
	C329.954620,192.677399 329.962982,207.438278 329.961609,222.677689 
	C329.636047,222.468369 329.044617,221.780350 329.044983,221.092667 
	C329.053162,206.849350 329.128571,192.606079 329.568481,178.139648 
z"/>
<path fill="#073D7D" opacity="1.000000" stroke="none" 
	d="
M168.399323,223.615402 
	C168.071854,223.860901 168.056122,223.395844 168.036575,223.163696 
	C168.160934,208.535812 168.304825,194.140076 168.663147,179.398697 
	C168.827301,193.825348 168.777039,208.597626 168.399323,223.615402 
z"/>
<path fill="#305D92" opacity="1.000000" stroke="none" 
	d="
M256.869019,209.584656 
	C256.443085,210.036575 256.082916,210.040176 255.454910,210.055573 
	C255.268112,198.990204 255.349136,187.913040 255.627686,176.491089 
	C256.195068,187.142975 256.564911,198.139664 256.869019,209.584656 
z"/>
<path fill="#D0DCE7" opacity="1.000000" stroke="none" 
	d="
M534.909790,214.689423 
	C534.509705,214.656403 533.873840,214.139969 533.874817,213.624771 
	C533.897827,201.819916 533.990295,190.015213 534.476074,178.005585 
	C534.911804,189.935989 534.941223,202.071274 534.909790,214.689423 
z"/>
<path fill="#4973A0" opacity="1.000000" stroke="none" 
	d="
M433.587341,219.357788 
	C434.395386,222.075989 436.074249,223.192169 439.101990,223.062881 
	C444.390045,222.837112 449.692383,222.945999 455.449829,222.889297 
	C453.992310,223.243637 452.081421,223.896378 450.153687,223.950775 
	C444.810974,224.101517 439.461273,224.002991 433.300354,224.002991 
	C433.300354,222.859879 433.300354,221.218826 433.587341,219.357788 
z"/>
<path fill="#4973A0" opacity="1.000000" stroke="none" 
	d="
M469.592468,223.056763 
	C470.076019,222.848602 470.297577,222.844757 470.851807,222.826599 
	C478.412140,222.851456 485.639709,222.890656 493.314392,222.887634 
	C493.950165,222.871445 494.138824,222.897446 494.611267,222.955536 
	C491.952820,223.326080 489.018341,223.782867 486.066589,223.976913 
	C480.862732,224.319016 475.649231,224.530762 470.436401,224.683563 
	C470.081970,224.693954 469.699738,223.757309 469.592468,223.056763 
z"/>
<path fill="#6D8EB2" opacity="1.000000" stroke="none" 
	d="
M454.439117,202.126770 
	C454.871552,201.684601 455.159363,201.771408 455.647675,201.969528 
	C455.914459,207.723541 455.954895,213.451904 455.953308,219.664551 
	C455.380951,214.289230 454.850647,208.429657 454.439117,202.126770 
z"/>
<path fill="#073D7D" opacity="1.000000" stroke="none" 
	d="
M168.926575,174.551559 
	C168.683533,172.072449 168.490921,169.145203 168.618591,166.100327 
	C168.951599,168.689606 168.964294,171.396515 168.926575,174.551559 
z"/>
<path fill="#FEBC07" opacity="1.000000" stroke="none" 
	d="
M501.587097,56.928223 
	C500.144623,57.364410 498.296692,57.851475 496.198730,58.117554 
	C497.692993,57.590744 499.437317,57.284924 501.587097,56.928223 
z"/>
<path fill="#FEBC07" opacity="1.000000" stroke="none" 
	d="
M677.102417,98.413284 
	C678.336365,98.051956 679.747314,98.022575 681.582031,97.989548 
	C682.302856,98.425140 682.599792,98.864380 682.949707,99.569031 
	C681.094849,99.471359 679.187134,99.108292 677.102417,98.413284 
z"/>
<path fill="#FEBC07" opacity="1.000000" stroke="none" 
	d="
M662.967651,85.400375 
	C663.606018,85.839996 664.264954,86.604202 664.921021,87.710823 
	C664.274841,87.277153 663.631531,86.501053 662.967651,85.400375 
z"/>
<path fill="#FEBC07" opacity="1.000000" stroke="none" 
	d="
M656.963440,76.389221 
	C657.584595,76.828293 658.235840,77.583504 658.832581,78.668243 
	C658.183228,78.233635 657.588379,77.469490 656.963440,76.389221 
z"/>
<path fill="#FEBC07" opacity="1.000000" stroke="none" 
	d="
M534.430115,99.039879 
	C534.069702,98.882324 534.053101,98.696136 534.026489,98.229134 
	C535.152649,97.641022 536.288818,97.333717 537.782104,97.041992 
	C537.017456,97.708786 535.895691,98.360016 534.430115,99.039879 
z"/>
<path fill="#FEBC07" opacity="1.000000" stroke="none" 
	d="
M669.067566,93.395187 
	C669.904846,93.536240 670.842163,93.986794 671.856934,94.766312 
	C671.012085,94.631744 670.089844,94.168221 669.067566,93.395187 
z"/>
<path fill="#FFC402" opacity="1.000000" stroke="none" 
	d="
M581.326355,71.906403 
	C581.805359,71.248161 582.609497,70.658279 583.746094,70.071091 
	C583.269531,70.707451 582.460510,71.341103 581.326355,71.906403 
z"/>
<path fill="#FEBC07" opacity="1.000000" stroke="none" 
	d="
M507.638367,54.950325 
	C507.196899,55.262882 506.404297,55.603748 505.274414,55.934570 
	C505.720490,55.609230 506.503876,55.293934 507.638367,54.950325 
z"/>
<path fill="#FEBC07" opacity="1.000000" stroke="none" 
	d="
M660.124756,81.270020 
	C660.712646,81.478706 661.277710,81.990646 661.878723,82.803581 
	C661.310425,82.594139 660.706238,82.083710 660.124756,81.270020 
z"/>
<path fill="#FFC402" opacity="1.000000" stroke="none" 
	d="
M433.936676,17.621052 
	C433.247925,17.804543 432.405334,17.670782 431.298157,17.352421 
	C431.949982,17.213148 432.866394,17.258474 433.936676,17.621052 
z"/>
<path fill="#FEBC07" opacity="1.000000" stroke="none" 
	d="
M504.644348,55.946815 
	C504.195587,56.257389 503.393311,56.600750 502.250153,56.940025 
	C502.703125,56.617161 503.496948,56.298382 504.644348,55.946815 
z"/>
<path fill="#FEBC07" opacity="1.000000" stroke="none" 
	d="
M532.324097,100.052399 
	C532.495361,99.770912 532.983887,99.452690 533.769165,99.101433 
	C533.591125,99.384155 533.116272,99.699913 532.324097,100.052399 
z"/>
<path fill="#FEB102" opacity="1.000000" stroke="none" 
	d="
M556.340393,86.068848 
	C556.511292,85.795578 556.994141,85.475883 557.771606,85.121834 
	C557.594910,85.399132 557.123596,85.710777 556.340393,86.068848 
z"/>
<path fill="#FEB102" opacity="1.000000" stroke="none" 
	d="
M558.333618,85.053612 
	C558.511536,84.772484 559.007019,84.460205 559.798706,84.121971 
	C559.613647,84.404831 559.132446,84.713646 558.333618,85.053612 
z"/>
<path fill="#FFCC02" opacity="1.000000" stroke="none" 
	d="
M399.357361,85.053802 
	C399.523071,84.787750 399.993805,84.473442 400.753357,84.120880 
	C400.582306,84.390274 400.122345,84.697914 399.357361,85.053802 
z"/>
<path fill="#FFCC02" opacity="1.000000" stroke="none" 
	d="
M401.348938,84.034187 
	C401.511749,83.759315 401.983856,83.456192 402.740936,83.119316 
	C402.570038,83.392357 402.114136,83.699142 401.348938,84.034187 
z"/>
<path fill="#FFBE03" opacity="1.000000" stroke="none" 
	d="
M386.355286,93.037926 
	C386.527710,92.760826 387.012329,92.457153 387.785889,92.125000 
	C387.605743,92.401466 387.136627,92.706413 386.355286,93.037926 
z"/>
<path fill="#FEBC07" opacity="1.000000" stroke="none" 
	d="
M673.034241,96.359131 
	C673.460938,96.256729 674.012329,96.445045 674.769287,96.848755 
	C674.369507,96.926048 673.764221,96.787949 673.034241,96.359131 
z"/>
<path fill="#FFBE03" opacity="1.000000" stroke="none" 
	d="
M377.356415,98.040169 
	C377.519653,97.763275 377.992432,97.463493 378.749725,97.129700 
	C378.578125,97.402885 378.122070,97.710083 377.356415,98.040169 
z"/>
<path fill="#FFBE03" opacity="1.000000" stroke="none" 
	d="
M384.349304,94.049721 
	C384.514404,93.774300 384.990570,93.469582 385.753540,93.130585 
	C385.580322,93.404343 385.120361,93.712379 384.349304,94.049721 
z"/>
<path fill="#FEBC07" opacity="1.000000" stroke="none" 
	d="
M675.053223,97.377594 
	C675.494934,97.272194 676.040894,97.467377 676.787842,97.882370 
	C676.378418,97.960846 675.767944,97.819511 675.053223,97.377594 
z"/>
<path fill="#FEBC07" opacity="1.000000" stroke="none" 
	d="
M511.638428,52.945835 
	C511.473541,53.216610 511.003418,53.535919 510.242615,53.895302 
	C510.412354,53.621708 510.872772,53.308041 511.638428,52.945835 
z"/>
<path fill="#FEBC07" opacity="1.000000" stroke="none" 
	d="
M455.939667,24.624073 
	C455.509949,24.726299 454.980255,24.537142 454.269287,24.129761 
	C454.671875,24.051924 455.255798,24.192305 455.939667,24.624073 
z"/>
<path fill="#FFBE03" opacity="1.000000" stroke="none" 
	d="
M375.351227,99.044907 
	C375.516388,98.770470 375.991302,98.466980 376.752502,98.129486 
	C376.579498,98.402275 376.120270,98.709061 375.351227,99.044907 
z"/>
<path fill="#FEBC07" opacity="1.000000" stroke="none" 
	d="
M530.322754,101.058517 
	C530.495911,100.780464 530.986633,100.459770 531.774902,100.103058 
	C531.595093,100.383316 531.117676,100.699593 530.322754,101.058517 
z"/>
<path fill="#FEBC07" opacity="1.000000" stroke="none" 
	d="
M467.339569,63.919342 
	C467.572021,63.800179 468.121307,63.757492 468.814941,63.903290 
	C468.524963,64.059784 468.090698,64.027802 467.339569,63.919342 
z"/>
<path fill="#FEBC07" opacity="1.000000" stroke="none" 
	d="
M509.662903,53.967102 
	C509.492645,54.242706 509.010193,54.553791 508.234924,54.897953 
	C508.411591,54.621548 508.881134,54.312065 509.662903,53.967102 
z"/>
<path fill="#FEBC07" opacity="1.000000" stroke="none" 
	d="
M460.017883,28.702614 
	C459.838837,28.750835 459.578003,28.542084 459.175842,28.124039 
	C459.335052,28.091709 459.635620,28.268673 460.017883,28.702614 
z"/>
<path fill="#FEBC07" opacity="1.000000" stroke="none" 
	d="
M655.998413,75.357094 
	C656.220825,75.235504 656.478149,75.423035 656.830200,75.871414 
	C656.673645,75.913864 656.376404,75.758514 655.998413,75.357094 
z"/>
<path fill="#FEBC07" opacity="1.000000" stroke="none" 
	d="
M458.011658,26.702507 
	C457.787872,26.806213 457.534851,26.602152 457.184326,26.145153 
	C457.344879,26.109898 457.643433,26.277403 458.011658,26.702507 
z"/>
<path fill="#FEBC07" opacity="1.000000" stroke="none" 
	d="
M662.114990,84.263588 
	C662.392883,84.180199 662.590271,84.398376 662.846558,84.852844 
	C662.658142,84.875595 662.367798,84.700943 662.114990,84.263588 
z"/>
<path fill="#FEBC07" opacity="1.000000" stroke="none" 
	d="
M667.995972,92.297333 
	C668.225281,92.190857 668.473755,92.392525 668.817383,92.842651 
	C668.652405,92.881256 668.353271,92.719376 667.995972,92.297333 
z"/>
<path fill="#FEB102" opacity="1.000000" stroke="none" 
	d="
M555.276978,86.866760 
	C555.209595,86.598793 555.437500,86.405624 555.900879,86.150978 
	C555.914001,86.333008 555.725952,86.617035 555.276978,86.866760 
z"/>
<path fill="#FEBC07" opacity="1.000000" stroke="none" 
	d="
M664.991272,88.286797 
	C665.217346,88.199463 665.460388,88.416199 665.783997,88.889526 
	C665.620544,88.914612 665.335144,88.729530 664.991272,88.286797 
z"/>
<path fill="#FEBC07" opacity="1.000000" stroke="none" 
	d="
M666.115540,90.263916 
	C666.392517,90.184746 666.591919,90.409935 666.855225,90.873543 
	C666.668030,90.892952 666.374329,90.711723 666.115540,90.263916 
z"/>
<path fill="#FEBC07" opacity="1.000000" stroke="none" 
	d="
M666.987793,91.291626 
	C667.215698,91.189270 667.469666,91.397766 667.825256,91.857292 
	C667.661011,91.892830 667.356628,91.724220 666.987793,91.291626 
z"/>
<path fill="#FEBC07" opacity="1.000000" stroke="none" 
	d="
M459.009094,27.703659 
	C458.785980,27.803188 458.529602,27.593479 458.174957,27.125561 
	C458.334808,27.093859 458.634521,27.269550 459.009094,27.703659 
z"/>
<path fill="#FEBC07" opacity="1.000000" stroke="none" 
	d="
M456.995514,25.695072 
	C456.767426,25.802822 456.519745,25.603338 456.182922,25.150524 
	C456.345795,25.112885 456.639862,25.276432 456.995514,25.695072 
z"/>
<path fill="#FEBC07" opacity="1.000000" stroke="none" 
	d="
M652.018677,52.674240 
	C651.814331,52.826321 651.553162,52.679565 651.168884,52.315044 
	C651.323364,52.239418 651.628784,52.332123 652.018677,52.674240 
z"/>
<path fill="#FFBE03" opacity="1.000000" stroke="none" 
	d="
M383.279541,94.879028 
	C383.204742,94.608452 383.422638,94.414505 383.871704,94.159912 
	C383.891815,94.346275 383.714935,94.631744 383.279541,94.879028 
z"/>
<path fill="#FEBC07" opacity="1.000000" stroke="none" 
	d="
M452.982666,22.633007 
	C452.773865,22.804201 452.531433,22.673449 452.190186,22.316549 
	C452.417603,21.966791 452.703461,22.047010 452.982666,22.633007 
z"/>
<path fill="#FFBE03" opacity="1.000000" stroke="none" 
	d="
M381.298615,95.876282 
	C381.222809,95.605965 381.436127,95.413879 381.884338,95.177391 
	C381.904083,95.364601 381.726929,95.638451 381.298615,95.876282 
z"/>
<path fill="#FFBE03" opacity="1.000000" stroke="none" 
	d="
M372.298096,101.003021 
	C372.206604,100.785278 372.405212,100.552589 372.846924,100.247154 
	C373.027924,100.499550 372.860657,100.770775 372.298096,101.003021 
z"/>
<path fill="#FFBE03" opacity="1.000000" stroke="none" 
	d="
M374.289276,99.876778 
	C374.210541,99.606194 374.423889,99.412285 374.868530,99.160751 
	C374.890717,99.346649 374.717865,99.630089 374.289276,99.876778 
z"/>
<path fill="#FFBE03" opacity="1.000000" stroke="none" 
	d="
M379.292419,97.004982 
	C379.201080,96.790665 379.389221,96.570099 379.812744,96.291512 
	C379.998810,96.545998 379.840057,96.801079 379.292419,97.004982 
z"/>
<path fill="#FEBC07" opacity="1.000000" stroke="none" 
	d="
M671.985107,95.281754 
	C672.160583,95.242699 672.419189,95.465912 672.828796,95.897659 
	C672.675903,95.918800 672.372070,95.731415 671.985107,95.281754 
z"/>
<path fill="#000000" opacity="1.000000" stroke="none" 
	d="
M430.756714,188.214355 
	C427.597168,193.785583 426.001526,199.798203 420.343597,203.315872 
	C411.564240,208.774170 400.149353,206.852417 394.338623,198.328568 
	C385.834656,185.853958 387.762360,166.336166 396.072296,155.424484 
	C404.896179,143.837875 422.332916,149.861694 426.953430,158.307281 
	C429.540253,163.035568 431.415619,167.771942 431.003876,173.347000 
	C430.649658,178.142853 430.895782,182.983063 430.756714,188.214355 
z"/>
<path fill="#000000" opacity="1.000000" stroke="none" 
	d="
M230.025894,198.633942 
	C225.658752,204.793259 220.407120,208.410004 212.788528,208.046509 
	C203.907166,207.622757 198.929352,198.286758 203.284607,190.400177 
	C207.313049,183.105377 214.207993,181.393784 221.438156,180.135193 
	C224.646362,179.576721 227.926636,179.432343 232.574921,178.956665 
	C231.725052,185.771683 230.945786,192.020538 230.025894,198.633942 
z"/>
</svg>