<?xml version="1.0" standalone="no"?>
<!DOCTYPE svg PUBLIC "-//W3C//DTD SVG 20010904//EN"
 "http://www.w3.org/TR/2001/REC-SVG-20010904/DTD/svg10.dtd">
<svg version="1.0" xmlns="http://www.w3.org/2000/svg"
 width="646.000000pt" height="737.000000pt" viewBox="0 0 646.000000 737.000000"
 preserveAspectRatio="xMidYMid meet">

<g transform="translate(0.000000,737.000000) scale(0.100000,-0.100000)"
fill="#000000" stroke="none">
<path d="M4333 5773 c22 -74 49 -246 56 -350 22 -362 -48 -640 -259 -1018 -34
-60 -65 -114 -71 -120 -19 -19 -8 -25 19 -8 118 75 219 161 400 338 148 145
240 255 291 348 32 59 33 66 27 137 -13 179 -134 399 -311 568 -102 98 -161
139 -152 105z"/>
<path d="M5665 4813 c-11 -2 -58 -11 -105 -20 -144 -27 -274 -73 -445 -160
-449 -226 -984 -664 -1510 -1237 -226 -246 -405 -450 -419 -475 -11 -20 -16
-25 130 133 133 146 473 462 615 572 228 178 412 280 649 358 358 119 594 151
913 126 224 -18 252 -8 309 105 87 172 89 509 3 582 -26 22 -82 29 -140 16z"/>
<path d="M4647 3794 c-247 -61 -395 -129 -662 -307 -284 -189 -696 -559 -987
-887 -150 -169 -392 -453 -447 -525 -63 -83 -50 -70 94 90 341 378 645 640
880 758 180 89 392 165 590 209 90 20 129 23 378 23 319 1 311 -1 360 95 42
86 60 186 54 320 -7 179 -44 251 -126 249 -20 0 -80 -11 -134 -25z"/>
<path d="M5306 1428 c-9 -12 -16 -28 -16 -36 0 -45 -80 -149 -141 -184 -21
-12 -39 -25 -39 -30 0 -4 20 -8 45 -8 l45 0 1 -47 c1 -27 2 -181 3 -343 1
-276 2 -297 21 -329 32 -54 85 -76 185 -76 73 0 93 4 142 28 55 27 104 77 75
77 -7 0 -24 -11 -37 -25 -30 -32 -82 -49 -125 -41 -43 8 -91 56 -105 104 -13
47 -25 495 -16 584 l8 67 115 3 c82 2 118 7 121 16 3 9 -25 12 -117 12 l-121
0 0 103 c0 144 -11 173 -44 125z"/>
<path d="M210 1210 c-63 -10 -116 -19 -117 -19 -2 -1 -3 -5 -3 -10 0 -6 21
-16 46 -23 62 -17 83 -48 94 -134 11 -86 1 -846 -11 -896 -12 -47 -30 -65 -81
-79 -31 -8 -38 -13 -27 -20 16 -10 358 -12 384 -3 13 5 3 14 -37 33 -72 35
-79 60 -76 253 l3 148 35 -20 c116 -66 111 -64 205 -64 104 1 176 24 248 79
86 66 145 187 154 315 25 346 -281 550 -588 394 -27 -13 -53 -24 -58 -24 -5 0
-11 19 -13 43 -4 51 -3 51 -158 27z m479 -40 c76 -38 139 -147 168 -286 47
-230 -91 -483 -265 -484 -59 0 -100 20 -144 68 -55 61 -63 100 -63 317 0 266
22 331 129 381 62 29 124 31 175 4z"/>
<path d="M1473 1205 c-218 -49 -350 -252 -315 -482 21 -134 74 -225 165 -284
120 -78 316 -91 437 -29 71 37 151 146 131 179 -6 8 -12 2 -21 -20 -20 -47
-57 -87 -104 -112 -63 -33 -183 -31 -252 5 -121 64 -194 204 -194 375 l0 73
281 0 282 0 -6 49 c-7 59 -44 136 -84 173 -72 68 -206 99 -320 73z m157 -30
c50 -25 92 -99 106 -183 l7 -42 -208 0 -208 0 7 41 c4 22 15 58 26 78 24 47
91 109 127 117 16 3 33 7 38 9 16 5 78 -7 105 -20z"/>
<path d="M2145 1206 c-135 -22 -149 -31 -75 -55 47 -15 59 -38 70 -134 13
-112 12 -396 -1 -474 -12 -68 -47 -123 -78 -123 -9 0 -26 -7 -37 -15 -17 -13
4 -14 189 -15 114 0 207 4 207 8 0 4 -19 14 -42 22 -79 28 -83 41 -86 289 -4
303 18 404 100 444 45 22 74 12 135 -43 50 -47 93 -53 117 -18 23 32 20 62
-10 91 -64 64 -225 35 -313 -57 -19 -19 -38 -33 -43 -30 -4 3 -8 27 -8 53 0
46 -13 72 -34 70 -6 -1 -47 -7 -91 -13z"/>
<path d="M2828 1202 c-65 -9 -118 -19 -118 -24 0 -4 18 -15 40 -24 73 -29 75
-39 75 -364 0 -269 -1 -287 -21 -320 -13 -23 -34 -40 -61 -50 -23 -8 -45 -19
-49 -23 -4 -4 86 -7 199 -7 114 0 207 4 207 9 0 4 -20 16 -45 26 -76 29 -80
43 -80 300 0 237 9 293 57 366 32 48 98 79 169 79 72 0 115 -27 149 -95 25
-50 25 -52 25 -317 0 -255 -1 -268 -21 -295 -12 -15 -39 -34 -62 -41 -23 -8
-42 -17 -42 -21 0 -12 222 -20 325 -12 l90 7 -56 25 c-81 38 -84 49 -83 304 2
233 11 301 53 367 37 58 84 80 168 80 79 -1 119 -22 153 -83 25 -44 25 -44 25
-321 0 -265 -1 -278 -21 -305 -11 -15 -40 -35 -62 -43 -23 -8 -42 -17 -42 -21
0 -10 209 -17 315 -10 l100 7 -45 21 c-87 40 -84 28 -90 347 -6 313 -9 326
-74 384 -55 48 -101 64 -186 65 -97 1 -164 -22 -244 -83 l-63 -48 -60 58 c-52
50 -69 60 -118 70 -97 20 -235 -18 -306 -86 -35 -33 -47 -30 -54 14 -11 66
-15 82 -23 81 -4 -1 -60 -9 -124 -17z"/>
<path d="M4511 1210 c-105 -16 -169 -53 -186 -108 -16 -54 60 -101 110 -68 14
9 36 40 50 70 26 56 50 78 97 89 98 25 179 -69 179 -208 0 -113 -53 -162 -222
-205 -108 -28 -138 -41 -182 -80 -69 -60 -82 -173 -28 -248 56 -79 213 -103
321 -50 30 15 67 37 83 50 l28 22 40 -42 c81 -83 220 -81 275 3 22 34 10 44
-19 17 -38 -36 -114 -27 -133 15 -4 10 -11 149 -14 308 -6 325 -8 333 -79 381
-68 45 -214 69 -320 54z m256 -487 c-7 -156 -24 -217 -74 -266 -76 -77 -176
-68 -217 18 -31 64 -14 156 37 211 30 32 231 163 251 164 5 0 6 -54 3 -127z"/>
<path d="M5870 1213 c-45 -5 -129 -32 -156 -50 -58 -37 -49 -119 13 -137 44
-12 68 5 107 79 38 69 82 99 138 92 86 -11 138 -87 138 -203 0 -125 -46 -171
-218 -214 -107 -27 -165 -54 -201 -96 -112 -127 -12 -314 168 -314 87 0 141
22 237 95 9 6 27 -4 62 -37 54 -50 101 -65 173 -53 43 7 109 57 109 81 0 20
-14 17 -35 -6 -40 -45 -120 -16 -141 50 -4 14 -8 144 -8 290 -1 253 -2 267
-23 305 -26 48 -70 78 -143 99 -61 17 -166 26 -220 19z m245 -511 c-9 -152
-20 -188 -74 -242 -56 -56 -103 -70 -154 -45 -45 22 -69 60 -75 117 -10 104
39 168 204 266 l89 53 8 -28 c4 -15 6 -70 2 -121z"/>
</g>
</svg>
