<svg version="1.1" id="Layer_1" xmlns="http://www.w3.org/2000/svg" xmlns:xlink="http://www.w3.org/1999/xlink" x="0px" y="0px"
	 width="100%" viewBox="0 0 300 300" enable-background="new 0 0 300 300" xml:space="preserve">
<path fill="#FFFFFF" opacity="1.000000" stroke="none" 
	d="
M175.000000,301.000000 
	C116.666679,301.000000 58.833355,301.000000 1.000023,301.000000 
	C1.000015,201.000031 1.000015,101.000053 1.000008,1.000064 
	C100.999947,1.000042 200.999893,1.000042 300.999878,1.000021 
	C300.999939,100.999939 300.999939,200.999878 300.999969,300.999908 
	C259.166656,301.000000 217.333328,301.000000 175.000000,301.000000 
M182.838974,127.994247 
	C185.519455,128.038803 188.199936,128.083344 190.991577,129.042374 
	C190.991577,134.600388 190.991577,140.158401 190.991577,146.045746 
	C197.193222,146.045746 202.901749,146.045746 209.068970,146.045746 
	C209.068970,152.279633 209.068970,158.177719 208.144669,164.005371 
	C205.530960,164.005371 202.917236,164.005371 199.937988,164.005371 
	C199.937988,167.187347 199.937988,169.930313 199.937988,173.053772 
	C193.819031,173.053772 188.073166,173.053772 181.954742,173.053772 
	C181.954742,179.180359 181.954742,184.927521 181.954742,191.041428 
	C178.828949,191.041428 176.086044,191.041428 173.280548,191.041428 
	C173.280548,194.367035 173.280548,197.311172 172.307190,200.019226 
	C169.561691,200.019226 166.816177,200.019226 163.699768,200.019226 
	C163.699768,196.564301 163.699768,193.826645 163.699768,191.325928 
	C154.566376,191.325928 145.829788,191.325928 137.330200,191.325928 
	C137.330200,194.396454 137.330200,197.135117 137.330200,200.236099 
	C143.405838,200.236099 149.155304,200.236099 155.068802,200.236099 
	C155.068802,203.439407 155.068802,206.259567 154.125412,209.005630 
	C145.431122,209.005630 136.736832,209.005630 127.924072,209.005630 
	C127.924072,199.489502 127.924072,190.710205 128.850037,181.995087 
	C131.461365,181.995087 134.072693,181.995087 137.047134,181.995087 
	C137.047134,178.829559 137.047134,176.076279 137.047134,173.207703 
	C140.167587,173.207703 142.903229,173.207703 146.018005,173.207703 
	C146.018005,176.139648 146.018005,178.889908 146.018005,181.639282 
	C155.248779,181.639282 164.093430,181.639282 173.305695,181.639282 
	C173.305695,175.535568 173.305695,169.791565 173.305695,163.697388 
	C176.430496,163.697388 179.176300,163.697388 181.668671,163.697388 
	C181.668671,160.571838 181.668671,157.834946 181.668671,154.734100 
	C178.592209,154.734100 175.848648,154.734100 172.752457,154.734100 
	C172.752457,151.604614 172.752457,148.856949 172.752457,146.075897 
	C169.560211,146.075897 166.745621,146.075897 163.995102,145.130600 
	C163.972290,136.399490 163.949493,127.668373 164.852203,118.995491 
	C167.452805,118.995491 170.053421,118.995491 172.640259,118.995491 
	C172.640259,115.732376 172.640259,112.890999 172.640259,110.331879 
	C169.542480,110.331879 166.808655,110.331879 164.068649,110.331879 
	C164.068649,113.468941 164.068649,116.274216 163.157074,119.005707 
	C160.412735,119.026878 157.668411,119.048050 154.994644,118.125549 
	C154.994644,109.545616 154.994644,100.965675 154.994644,92.195816 
	C151.882294,92.195816 149.155548,92.195816 145.897491,92.195816 
	C145.897491,98.197792 145.897491,104.063210 145.897491,110.075821 
	C142.555573,110.075821 139.743286,110.075821 136.995102,109.130554 
	C136.973724,100.395111 136.952347,91.659676 137.874619,82.994644 
	C146.562408,82.994644 155.250198,82.994644 163.924164,82.994644 
	C163.924164,79.542404 163.924164,76.736656 164.850922,73.995102 
	C167.440872,73.995102 170.030807,73.995102 173.073318,73.995102 
	C173.073318,80.275330 173.073318,86.169037 172.147797,92.004509 
	C169.547195,92.004509 166.946579,92.004509 164.359741,92.004509 
	C164.359741,95.267624 164.359741,98.109001 164.359741,100.668121 
	C167.457520,100.668121 170.191345,100.668121 172.931351,100.668121 
	C172.931351,97.531059 172.931351,94.725784 173.842209,91.994293 
	C176.582397,91.971725 179.322586,91.949158 182.004517,92.852119 
	C182.004517,95.452728 182.004517,98.053345 182.004517,100.640274 
	C185.267563,100.640274 188.108963,100.640274 190.668137,100.640274 
	C190.668137,97.542526 190.668137,94.808701 190.668137,92.068565 
	C187.531189,92.068565 184.725861,92.068565 181.994385,91.125198 
	C181.994385,79.541550 181.994385,67.957901 181.994385,55.999779 
	C185.132538,55.999779 187.871017,55.999779 190.799774,55.999779 
	C190.799774,52.890297 190.799774,50.157909 190.799774,47.342503 
	C184.791382,47.342503 178.944550,47.342503 172.740601,47.342503 
	C172.740601,53.425335 172.740601,59.165676 172.740601,65.069061 
	C169.557236,65.069061 166.740707,65.069061 163.994614,64.126244 
	C163.994614,58.523643 163.994614,52.921047 163.994614,46.950287 
	C160.824097,46.950287 158.074463,46.950287 154.969330,46.950287 
	C154.969330,43.844559 154.969330,41.093220 154.969330,38.197502 
	C151.852524,38.197502 149.117844,38.197502 146.004150,38.197502 
	C146.004150,41.117008 146.004150,43.866547 146.004150,47.133026 
	C133.790863,47.133026 121.945663,47.133026 110.310051,47.133026 
	C110.310051,53.417667 110.310051,59.159706 110.310051,64.924164 
	C113.436127,64.924164 116.252609,64.924164 119.004913,65.850098 
	C119.004913,68.455887 119.004913,71.061668 119.004913,74.021866 
	C115.849174,74.021866 113.113739,74.021866 110.075844,74.021866 
	C110.075844,86.284142 110.075844,98.176537 109.131386,110.004906 
	C103.434837,110.004906 97.738289,110.004906 92.069122,110.004906 
	C92.069122,113.475677 92.069122,116.275795 91.144020,119.005363 
	C88.546944,119.005363 85.949867,119.005363 82.861656,119.005363 
	C82.861656,125.242256 82.861656,131.095795 82.861656,137.073669 
	C79.548134,137.073669 76.742538,137.073669 73.995483,136.147232 
	C73.995483,133.538055 73.995483,130.928879 73.995483,127.953690 
	C67.828346,127.953690 62.085617,127.953690 55.973866,127.953690 
	C55.973866,121.842606 55.973866,116.102997 55.973866,110.195511 
	C49.855534,110.195511 44.123943,110.195511 38.362946,110.195511 
	C38.362946,113.255966 38.362946,116.103989 38.362946,119.149193 
	C41.346588,119.149193 43.968266,119.149193 47.121025,119.149193 
	C47.121025,128.205032 47.121025,137.071136 47.121025,145.668839 
	C50.415386,145.668839 53.158627,145.668839 56.270973,145.668839 
	C56.270973,142.597305 56.270973,139.856079 56.270973,136.931778 
	C62.465248,136.931778 68.272202,136.931778 74.005608,137.855759 
	C74.005608,140.447113 74.005608,143.038483 74.005608,146.148651 
	C70.763512,146.148651 67.910004,146.148651 65.075912,146.148651 
	C65.075912,149.472946 65.075912,152.270920 64.131432,155.004898 
	C58.435120,155.004898 52.738804,155.004898 47.075840,155.004898 
	C47.075840,158.470551 47.075840,161.269806 46.149895,164.004913 
	C43.557182,164.004913 40.964470,164.004913 38.338352,164.004913 
	C38.338352,167.247757 38.338352,170.088318 38.338352,172.930893 
	C41.476372,172.930893 44.276073,172.930893 47.005367,173.855209 
	C47.005367,176.461395 47.005367,179.067596 47.005367,182.029877 
	C43.839867,182.029877 41.101505,182.029877 38.187149,182.029877 
	C38.187149,185.133743 38.187149,187.862671 38.187149,190.659576 
	C44.219429,190.659576 50.059029,190.659576 55.924114,190.659576 
	C55.924114,184.523209 55.924114,178.727020 56.837585,172.995010 
	C59.583714,172.973618 62.329838,172.952225 65.005386,173.873657 
	C65.005386,179.464478 65.005386,185.055298 65.005386,190.931030 
	C80.309380,190.931030 95.192596,190.931030 110.005379,191.873856 
	C110.005379,197.457260 110.005379,203.040680 110.005379,208.980209 
	C113.116692,208.980209 115.845360,208.980209 119.073410,208.980209 
	C119.073410,215.245911 119.073410,221.154343 118.147881,227.004517 
	C115.547272,227.004517 112.946655,227.004517 110.359726,227.004517 
	C110.359726,230.267563 110.359726,233.108963 110.359726,235.668137 
	C113.457474,235.668137 116.191299,235.668137 118.931435,235.668137 
	C118.931435,232.531189 118.931435,229.725861 119.842743,226.994308 
	C122.584717,227.022720 125.326691,227.051147 127.999901,227.006226 
	C127.999901,227.006226 127.926704,226.937317 127.994820,227.880341 
	C127.994820,239.467377 127.994820,251.054428 127.994820,262.801880 
	C131.152100,262.801880 133.885239,262.801880 136.998169,262.801880 
	C136.998169,259.872589 136.998169,257.131287 136.998169,254.020264 
	C140.100845,254.020264 142.851990,254.020264 146.110077,254.020264 
	C146.110077,241.800995 146.110077,229.949158 146.110077,217.746475 
	C149.391632,217.746475 152.141403,217.746475 154.926819,217.746475 
	C154.926819,214.564026 154.926819,211.750732 155.853088,208.995514 
	C158.442642,208.995514 161.032196,208.995514 164.073181,208.995514 
	C164.073181,215.276031 164.073181,221.169296 163.147705,227.004501 
	C160.547104,227.004501 157.946503,227.004501 155.359802,227.004501 
	C155.359802,230.267715 155.359802,233.109116 155.359802,235.668060 
	C158.457642,235.668060 161.191467,235.668060 163.931198,235.668060 
	C163.931198,232.530899 163.931198,229.725586 164.856003,226.994370 
	C167.441010,226.994370 170.026016,226.994370 173.128311,226.994370 
	C173.128311,217.792740 173.128311,208.956619 174.024933,200.008453 
	C176.600555,200.008453 179.176178,200.008453 182.073181,200.008453 
	C182.073181,212.363541 182.073181,224.213043 181.147705,236.004501 
	C178.547104,236.004501 175.946503,236.004501 173.359802,236.004501 
	C173.359802,239.267715 173.359802,242.109116 173.359802,244.668060 
	C176.457642,244.668060 179.191467,244.668060 181.931198,244.668060 
	C181.931198,241.530899 181.931198,238.725586 182.842499,235.994293 
	C185.584641,235.970932 188.326797,235.947571 191.004898,236.868668 
	C191.004898,242.466599 191.004898,248.064545 191.004898,254.029694 
	C184.832611,254.029694 179.095230,254.029694 173.190887,254.029694 
	C173.190887,257.138672 173.190887,259.868744 173.190887,262.656189 
	C182.224075,262.656189 191.062820,262.656189 199.931046,262.656189 
	C199.931046,253.516464 199.931046,244.720367 200.855331,235.994629 
	C203.468109,235.994629 206.080887,235.994629 209.058929,235.994629 
	C209.058929,239.187439 209.058929,241.932434 209.058929,244.782211 
	C212.185699,244.782211 214.923157,244.782211 218.041687,244.782211 
	C218.041687,241.835709 218.041687,239.087952 218.041687,236.198593 
	C221.361862,236.026047 224.308060,235.872940 227.019104,236.711990 
	C227.019104,242.458878 227.019104,248.205780 227.019104,254.304382 
	C223.568222,254.304382 220.822052,254.304382 218.339218,254.304382 
	C218.339218,257.420898 218.339218,260.155487 218.339218,262.672729 
	C224.414932,262.672729 230.147629,262.672729 236.236450,262.672729 
	C236.236450,256.600922 236.236450,250.853394 236.236450,244.927078 
	C239.427170,244.927078 242.244659,244.927078 245.004471,245.870972 
	C245.004471,251.467636 245.004471,257.064301 245.004471,262.796997 
	C251.166931,262.796997 256.890503,262.796997 262.659180,262.796997 
	C262.659180,253.748459 262.659180,244.906555 262.659180,236.334595 
	C259.567078,236.334595 256.828674,236.334595 253.734680,236.334595 
	C253.734680,239.415848 253.734680,242.160660 253.734680,245.069031 
	C250.547287,245.069031 247.733627,245.069031 244.994339,244.144196 
	C244.994339,241.567444 244.994339,238.990677 244.994339,235.872177 
	C238.812302,235.872177 232.966019,235.872177 227.008438,234.957703 
	C227.008438,229.356567 227.008438,223.755432 227.008438,218.299042 
	C230.345581,218.299042 233.090240,218.299042 236.212158,218.299042 
	C236.212158,221.338593 236.212158,224.079208 236.212158,226.700821 
	C242.355591,226.700821 248.101791,226.700821 254.219391,226.700821 
	C254.219391,223.654205 254.219391,220.906418 254.219391,217.782654 
	C257.343689,217.782654 260.084198,217.782654 262.692078,217.782654 
	C262.692078,211.645111 262.692078,205.905090 262.692078,200.304901 
	C256.632965,200.304901 250.885208,200.304901 244.768448,200.304901 
	C244.768448,203.359192 244.768448,206.110107 244.768448,208.692627 
	C241.634064,208.692627 238.890793,208.692627 235.774658,208.692627 
	C235.774658,205.639297 235.774658,202.893021 235.774658,199.770721 
	C232.643372,199.770721 229.896805,199.770721 226.783661,199.770721 
	C226.783661,193.630066 226.783661,187.879562 226.783661,181.767487 
	C223.633163,181.767487 220.883530,181.767487 217.924164,181.767487 
	C217.924164,178.570847 217.924164,175.750961 218.868637,172.995102 
	C224.564682,172.995102 230.260727,172.995102 235.926819,172.995102 
	C235.926819,169.534836 235.926819,166.736267 236.870819,163.995514 
	C242.472824,163.995514 248.074844,163.995514 254.044464,163.995514 
	C254.044464,160.829422 254.044464,158.080307 254.044464,154.976349 
	C257.152893,154.976349 259.891571,154.976349 262.636292,154.976349 
	C262.636292,148.742249 262.636292,142.895111 262.636292,137.353882 
	C259.522461,137.353882 256.788330,137.353882 253.869476,137.353882 
	C253.869476,140.325745 253.869476,142.942993 253.869476,146.110016 
	C247.823944,146.110016 241.961990,146.110016 236.068695,146.110016 
	C236.068695,152.469894 236.068695,158.274872 235.144699,164.005646 
	C232.539642,164.005646 229.934586,164.005646 226.975067,164.005646 
	C226.975067,160.844421 226.975067,158.107178 226.975067,154.831787 
	C223.753983,154.831787 220.895218,154.831787 218.342194,154.831787 
	C218.342194,151.537628 218.342194,148.806580 218.342194,145.725479 
	C221.426514,145.725479 224.167847,145.725479 226.924210,145.725479 
	C226.924210,142.548569 226.924210,139.739822 227.868668,136.995102 
	C233.535187,136.995102 239.201706,136.995102 245.127762,136.995102 
	C245.127762,133.650345 245.127762,130.884979 246.024536,128.008392 
	C248.614258,128.008392 251.203964,128.008392 253.737244,128.008392 
	C253.737244,121.712578 253.737244,115.986671 253.737244,110.241486 
	C247.742599,110.241486 242.014038,110.241486 236.230408,110.241486 
	C236.230408,113.221298 236.230408,115.954971 236.230408,119.060699 
	C239.187134,119.060699 241.929733,119.060699 244.803787,119.060699 
	C244.975220,122.371017 245.127563,125.312569 244.288208,128.019104 
	C238.500229,128.035721 232.712265,128.052338 226.994629,127.126152 
	C226.994629,121.521576 226.994629,115.917007 226.994629,110.223190 
	C217.801620,110.223190 209.073166,110.223190 199.957520,110.223190 
	C199.957520,116.177025 199.957520,121.921745 199.957520,127.800941 
	C196.636337,127.973648 193.691132,128.126801 190.980927,127.287773 
	C190.980927,121.546852 190.980927,115.805931 190.980927,110.332138 
	C187.587234,110.332138 184.853714,110.332138 182.073212,110.332138 
	C182.073212,116.463463 182.073212,122.263031 181.147705,128.004501 
	C178.547104,128.004501 175.946503,128.004501 173.359772,128.004501 
	C173.359772,131.267700 173.359772,134.109085 173.359772,136.668060 
	C176.462814,136.668060 179.193604,136.668060 181.931244,136.668060 
	C181.931244,133.530945 181.931244,130.725647 182.838974,127.994247 
M49.519066,37.997608 
	C45.755714,37.997608 41.992363,37.997608 38.350052,37.997608 
	C38.350052,59.346188 38.350052,80.069778 38.350052,100.694366 
	C59.380657,100.694366 80.104408,100.694366 100.708008,100.694366 
	C100.708008,79.656517 100.708008,58.927868 100.708008,37.997608 
	C83.780411,37.997608 67.146370,37.997608 49.519066,37.997608 
M101.002388,205.599060 
	C101.002388,203.825653 101.002388,202.052246 101.002388,200.270233 
	C79.774033,200.270233 59.051079,200.270233 38.313118,200.270233 
	C38.313118,221.268005 38.313118,241.992065 38.313118,262.730255 
	C59.306755,262.730255 80.030678,262.730255 101.002388,262.730255 
	C101.002388,243.831558 101.002388,225.203857 101.002388,205.599060 
M263.002350,90.477089 
	C263.002350,73.058067 263.002350,55.639042 263.002350,38.300278 
	C241.712814,38.300278 220.990356,38.300278 200.341400,38.300278 
	C200.341400,59.327942 200.341400,80.051605 200.341400,100.702728 
	C221.363358,100.702728 242.087097,100.702728 263.002350,100.702728 
	C263.002350,97.425255 263.002350,94.445938 263.002350,90.477089 
M155.000000,251.562592 
	C155.000000,255.304352 155.000000,259.046112 155.000000,262.758667 
	C158.262299,262.758667 160.981918,262.758667 163.640747,262.758667 
	C163.640747,256.689301 163.640747,250.867645 163.640747,245.337250 
	C160.551117,245.337250 157.831848,245.337250 155.000000,245.337250 
	C155.000000,247.313660 155.000000,248.953384 155.000000,251.562592 
M119.000000,251.559616 
	C119.000000,249.451218 119.000000,247.342834 119.000000,245.266541 
	C115.727760,245.266541 112.989227,245.266541 110.266968,245.266541 
	C110.266968,251.281677 110.266968,257.025574 110.266968,262.729553 
	C113.279549,262.729553 116.018280,262.729553 119.000000,262.729553 
	C119.000000,259.154175 119.000000,255.846436 119.000000,251.559616 
M65.000015,113.557632 
	C65.000015,115.300415 65.000015,117.043198 65.000015,118.761826 
	C68.276421,118.761826 70.992218,118.761826 73.801529,118.761826 
	C73.801529,115.806259 73.801529,113.092163 73.801529,110.001411 
	C71.523041,110.001411 69.375290,109.740784 67.347221,110.120094 
	C66.441017,110.289589 65.775200,111.744324 65.000015,113.557632 
M260.381470,182.000275 
	C258.314117,182.000275 256.246735,182.000275 254.254181,182.000275 
	C254.254181,185.310211 254.254181,188.026398 254.254181,190.786057 
	C257.226898,190.786057 259.941254,190.786057 263.795410,190.786057 
	C262.889313,187.560287 262.108948,184.782150 260.381470,182.000275 
z"/>
<path fill="#000000" opacity="1.000000" stroke="none" 
	d="
M182.073181,236.062546 
	C182.073181,224.213043 182.073181,212.363541 182.073181,200.008453 
	C179.176178,200.008453 176.600555,200.008453 173.611526,200.095184 
	C173.198120,200.181931 173.280548,200.255310 173.280548,200.255310 
	C173.280548,197.311172 173.280548,194.367035 173.280548,191.041428 
	C176.086044,191.041428 178.828949,191.041428 181.954742,191.041428 
	C181.954742,184.927521 181.954742,179.180359 181.954742,173.053772 
	C188.073166,173.053772 193.819031,173.053772 199.937988,173.053772 
	C199.937988,169.930313 199.937988,167.187347 199.937988,164.005371 
	C202.917236,164.005371 205.530960,164.005371 208.572372,164.003876 
	C209.000076,164.002365 208.930008,163.930008 208.962524,164.392212 
	C208.995056,167.556778 208.995056,170.259155 208.995056,173.069992 
	C212.498489,173.069992 215.284241,173.069992 218.033783,173.034988 
	C217.997589,172.999985 217.924164,172.931076 217.924164,172.931076 
	C217.924164,175.750961 217.924164,178.570847 217.924164,181.767487 
	C220.883530,181.767487 223.633163,181.767487 226.783661,181.767487 
	C226.783661,187.879562 226.783661,193.630066 226.783661,199.770721 
	C229.896805,199.770721 232.643372,199.770721 235.774658,199.770721 
	C235.774658,202.893021 235.774658,205.639297 235.774658,208.692627 
	C238.890793,208.692627 241.634064,208.692627 244.768448,208.692627 
	C244.768448,206.110107 244.768448,203.359192 244.768448,200.304901 
	C250.885208,200.304901 256.632965,200.304901 262.692078,200.304901 
	C262.692078,205.905090 262.692078,211.645111 262.692078,217.782654 
	C260.084198,217.782654 257.343689,217.782654 254.219391,217.782654 
	C254.219391,220.906418 254.219391,223.654205 254.219391,226.700821 
	C248.101791,226.700821 242.355591,226.700821 236.212158,226.700821 
	C236.212158,224.079208 236.212158,221.338593 236.212158,218.299042 
	C233.090240,218.299042 230.345581,218.299042 227.008438,218.299042 
	C227.008438,223.755432 227.008438,229.356567 227.094788,235.380051 
	C227.181137,235.802399 227.254257,235.719833 227.254257,235.719833 
	C224.308060,235.872940 221.361862,236.026047 218.041687,236.198593 
	C218.041687,239.087952 218.041687,241.835709 218.041687,244.782211 
	C214.923157,244.782211 212.185699,244.782211 209.058929,244.782211 
	C209.058929,241.932434 209.058929,239.187439 209.058929,235.994629 
	C206.080887,235.994629 203.468109,235.994629 200.427643,235.996155 
	C199.999969,235.997681 200.069977,236.070038 200.037460,235.607635 
	C200.004944,232.553650 200.004944,229.962097 200.004944,227.337524 
	C196.751144,227.337524 193.911896,227.337524 190.930023,227.337524 
	C190.930023,230.473221 190.930023,233.271622 190.965027,236.033829 
	C191.000015,235.997635 191.068939,235.924210 191.068939,235.924210 
	C188.326797,235.947571 185.584641,235.970932 182.421234,235.993958 
	C181.999985,235.993637 182.073181,236.062546 182.073181,236.062546 
M209.456482,191.000000 
	C203.361526,191.000000 197.266586,191.000000 191.303711,191.000000 
	C191.303711,200.346039 191.303711,209.084747 191.303711,217.694855 
	C200.348984,217.694855 209.087753,217.694855 217.693253,217.694855 
	C217.693253,208.648254 217.693253,199.909592 217.693253,191.000000 
	C215.071808,191.000000 212.755875,191.000000 209.456482,191.000000 
z"/>
<path fill="#010101" opacity="1.000000" stroke="none" 
	d="
M50.015701,37.997608 
	C67.146370,37.997608 83.780411,37.997608 100.708008,37.997608 
	C100.708008,58.927868 100.708008,79.656517 100.708008,100.694366 
	C80.104408,100.694366 59.380657,100.694366 38.350052,100.694366 
	C38.350052,80.069778 38.350052,59.346188 38.350052,37.997608 
	C41.992363,37.997608 45.755714,37.997608 50.015701,37.997608 
M47.050476,71.499825 
	C47.050476,78.260880 47.050476,85.021927 47.050476,91.708817 
	C62.377140,91.708817 77.109306,91.708817 91.759209,91.708817 
	C91.759209,76.688644 91.759209,61.960464 91.759209,47.296700 
	C76.742737,47.296700 62.015244,47.296700 47.050476,47.296700 
	C47.050476,55.226761 47.050476,62.863323 47.050476,71.499825 
z"/>
<path fill="#010101" opacity="1.000000" stroke="none" 
	d="
M101.002388,206.087616 
	C101.002388,225.203857 101.002388,243.831558 101.002388,262.730255 
	C80.030678,262.730255 59.306755,262.730255 38.313118,262.730255 
	C38.313118,241.992065 38.313118,221.268005 38.313118,200.270233 
	C59.051079,200.270233 79.774033,200.270233 101.002388,200.270233 
	C101.002388,202.052246 101.002388,203.825653 101.002388,206.087616 
M51.642395,253.999191 
	C65.061157,253.999191 78.479919,253.999191 91.730080,253.999191 
	C91.730080,238.636871 91.730080,223.906052 91.730080,209.328445 
	C76.682449,209.328445 61.952953,209.328445 47.050774,209.328445 
	C47.050774,223.464066 47.149391,237.274017 46.976280,251.080566 
	C46.936680,254.238571 48.567535,254.145157 51.642395,253.999191 
z"/>
<path fill="#010101" opacity="1.000000" stroke="none" 
	d="
M263.002350,90.971848 
	C263.002350,94.445938 263.002350,97.425255 263.002350,100.702728 
	C242.087097,100.702728 221.363358,100.702728 200.341400,100.702728 
	C200.341400,80.051605 200.341400,59.327942 200.341400,38.300278 
	C220.990356,38.300278 241.712814,38.300278 263.002350,38.300278 
	C263.002350,55.639042 263.002350,73.058067 263.002350,90.971848 
M246.443436,47.000824 
	C234.030334,47.000824 221.617218,47.000824 209.386047,47.000824 
	C209.386047,62.399849 209.386047,77.127083 209.386047,91.668961 
	C224.458542,91.668961 239.193695,91.668961 253.715378,91.668961 
	C253.715378,76.607407 253.715378,61.877560 253.715378,47.000824 
	C251.400909,47.000824 249.414688,47.000824 246.443436,47.000824 
z"/>
<path fill="#000000" opacity="1.000000" stroke="none" 
	d="
M128.068665,227.079559 
	C125.326691,227.051147 122.584717,227.022720 119.421471,226.994110 
	C119.000198,226.993896 119.073410,227.062775 119.073410,227.062775 
	C119.073410,221.154343 119.073410,215.245911 119.073410,208.980209 
	C115.845360,208.980209 113.116692,208.980209 110.005379,208.980209 
	C110.005379,203.040680 110.005379,197.457260 110.003876,191.436905 
	C110.002380,190.999954 109.930016,191.069992 110.392212,191.037476 
	C113.556778,191.004959 116.259155,191.004959 119.069984,191.004959 
	C119.069984,187.501556 119.069984,184.715790 119.035004,181.964996 
	C119.000015,182.000000 118.930099,182.070053 119.386185,182.037537 
	C122.584816,182.026703 125.327354,182.048386 128.033707,182.035004 
	C127.997505,181.999939 127.924072,181.930923 127.924072,181.930923 
	C127.924072,190.710205 127.924072,199.489502 127.924072,209.005630 
	C136.736832,209.005630 145.431122,209.005630 154.562714,209.005997 
	C155.000015,209.006363 154.926819,208.937454 154.926819,208.937454 
	C154.926819,211.750732 154.926819,214.564026 154.926819,217.746475 
	C152.141403,217.746475 149.391632,217.746475 146.110077,217.746475 
	C146.110077,229.949158 146.110077,241.800995 146.110077,254.020264 
	C142.851990,254.020264 140.100845,254.020264 136.998169,254.020264 
	C136.998169,257.131287 136.998169,259.872589 136.998169,262.801880 
	C133.885239,262.801880 131.152100,262.801880 127.994820,262.801880 
	C127.994820,251.054428 127.994820,239.467377 128.423523,227.437927 
	C131.452820,226.995499 134.053436,226.995499 136.640244,226.995499 
	C136.640244,223.732346 136.640244,220.890961 136.640244,218.331909 
	C133.537231,218.331909 130.806442,218.331909 128.068665,218.331909 
	C128.068665,221.468994 128.068665,224.274277 128.068665,227.079559 
z"/>
<path fill="#000000" opacity="1.000000" stroke="none" 
	d="
M235.926819,163.937683 
	C235.926819,166.736267 235.926819,169.534836 235.926819,172.995102 
	C230.260727,172.995102 224.564682,172.995102 218.396393,172.963089 
	C217.924164,172.931076 217.997589,172.999985 218.001266,172.572723 
	C218.004944,169.443115 218.004944,166.740768 218.004944,163.930008 
	C214.501480,163.930008 211.715744,163.930008 208.930008,163.930008 
	C208.930008,163.930008 209.000076,164.002365 209.034515,164.039093 
	C209.068970,158.177719 209.068970,152.279633 209.068970,146.045746 
	C202.901749,146.045746 197.193222,146.045746 190.991577,146.045746 
	C190.991577,140.158401 190.991577,134.600388 190.905273,128.619904 
	C190.818970,128.197449 190.745941,128.279938 190.745941,128.279938 
	C193.691132,128.126801 196.636337,127.973648 199.957520,127.800941 
	C199.957520,121.921745 199.957520,116.177025 199.957520,110.223190 
	C209.073166,110.223190 217.801620,110.223190 226.994629,110.223190 
	C226.994629,115.917007 226.994629,121.521576 226.996155,127.563095 
	C226.997696,128.000046 227.070023,127.929985 226.614197,127.962479 
	C223.418106,128.021011 220.677841,128.047073 217.966553,127.610382 
	C217.995514,124.547043 217.995514,121.946442 217.995514,119.359833 
	C214.730820,119.359833 211.890137,119.359833 209.331985,119.359833 
	C209.331985,122.457695 209.331985,125.191536 209.331985,127.931152 
	C212.469193,127.931152 215.274506,127.931152 218.042725,128.392960 
	C218.005646,131.556915 218.005646,134.259079 218.005646,137.069977 
	C221.498657,137.069977 224.284332,137.069977 227.033829,137.034973 
	C226.997635,136.999985 226.924210,136.931061 226.924210,136.931061 
	C226.924210,139.739822 226.924210,142.548569 226.924210,145.725479 
	C224.167847,145.725479 221.426514,145.725479 218.342194,145.725479 
	C218.342194,148.806580 218.342194,151.537628 218.342194,154.831787 
	C220.895218,154.831787 223.753983,154.831787 226.975067,154.831787 
	C226.975067,158.107178 226.975067,160.844421 226.975067,164.005646 
	C229.934586,164.005646 232.539642,164.005646 235.572357,164.006073 
	C236.000031,164.006500 235.926819,163.937683 235.926819,163.937683 
z"/>
<path fill="#000000" opacity="1.000000" stroke="none" 
	d="
M119.069092,64.924164 
	C116.252609,64.924164 113.436127,64.924164 110.310051,64.924164 
	C110.310051,59.159706 110.310051,53.417667 110.310051,47.133026 
	C121.945663,47.133026 133.790863,47.133026 146.004150,47.133026 
	C146.004150,43.866547 146.004150,41.117008 146.004150,38.197502 
	C149.117844,38.197502 151.852524,38.197502 154.969330,38.197502 
	C154.969330,41.093220 154.969330,43.844559 154.969330,46.950287 
	C158.074463,46.950287 160.824097,46.950287 163.994614,46.950287 
	C163.994614,52.921047 163.994614,58.523643 163.996124,64.563156 
	C163.997620,65.000069 164.070023,64.929985 163.614197,64.962479 
	C160.417984,65.021118 157.677612,65.047264 154.966354,64.610641 
	C154.995483,61.547260 154.995483,58.946648 154.995483,56.359718 
	C151.731049,56.359718 148.890366,56.359718 146.331863,56.359718 
	C146.331863,59.457474 146.331863,62.191299 146.331863,64.931435 
	C149.468811,64.931435 152.274139,64.931435 155.042542,65.393234 
	C155.005615,68.557098 155.005615,71.259171 155.005615,74.069977 
	C158.498688,74.069977 161.284348,74.069977 164.033813,74.034950 
	C163.997589,73.999924 163.924164,73.930901 163.924164,73.930901 
	C163.924164,76.736656 163.924164,79.542404 163.924164,82.994644 
	C155.250198,82.994644 146.562408,82.994644 137.437256,82.996147 
	C136.999893,82.997650 137.069901,83.070061 137.037445,82.598389 
	C137.004974,76.431877 137.004974,70.737038 137.004974,64.929985 
	C133.528137,64.929985 130.729111,64.929985 127.965050,64.964996 
	C128.000015,65.000015 128.069977,65.070030 128.037460,64.607628 
	C128.004944,61.553658 128.004944,58.962093 128.004944,56.337517 
	C124.752068,56.337517 121.912292,56.337517 118.930031,56.337517 
	C118.930031,59.473225 118.930031,62.271629 118.965057,65.033813 
	C119.000076,64.997597 119.069092,64.924164 119.069092,64.924164 
z"/>
<path fill="#000000" opacity="1.000000" stroke="none" 
	d="
M110.039093,190.965485 
	C95.192596,190.931030 80.309380,190.931030 65.005386,190.931030 
	C65.005386,185.055298 65.005386,179.464478 65.003952,173.436768 
	C65.002510,172.999893 64.930099,173.070053 65.386139,173.037537 
	C68.584755,173.026688 71.327324,173.048370 74.034935,173.035019 
	C73.999977,172.999985 73.930031,172.929962 73.962540,173.392365 
	C73.995041,176.446350 73.995041,179.037903 73.995041,181.662476 
	C77.247932,181.662476 80.087708,181.662476 83.069977,181.662476 
	C83.069977,178.526779 83.069977,175.728378 83.034996,172.964981 
	C83.000015,172.999985 82.930107,173.070053 83.385910,173.037537 
	C86.582054,172.978912 89.322403,172.952805 92.033630,173.389435 
	C92.004509,176.452805 92.004509,179.053421 92.004509,181.640259 
	C95.267624,181.640259 98.109001,181.640259 100.668121,181.640259 
	C100.668121,178.542480 100.668121,175.808655 100.668121,173.068649 
	C97.531059,173.068649 94.725784,173.068649 91.957436,172.606628 
	C91.994370,169.541595 91.994370,166.938583 91.994370,163.984192 
	C95.146950,163.984192 97.881989,163.984192 100.651146,163.984192 
	C100.651146,160.756592 100.651146,157.914276 100.651146,154.715439 
	C97.559807,154.715439 94.822594,154.715439 92.069984,154.715439 
	C92.069984,151.543579 92.069984,148.736786 92.034988,145.964996 
	C92.000000,146.000000 91.930016,146.069992 92.392212,146.037476 
	C95.556778,146.004959 98.259155,146.004959 101.069984,146.004959 
	C101.069984,142.501556 101.069984,139.715790 101.034988,136.964996 
	C101.000000,137.000000 100.930016,137.069992 101.392868,137.037476 
	C104.456627,137.004944 107.057541,137.004944 110.141968,137.004944 
	C110.141968,146.249512 110.141968,155.092346 110.141968,163.930939 
	C113.454277,163.930939 116.265068,163.930939 119.040619,164.402145 
	C118.980286,170.605591 118.955193,176.337814 118.930099,182.070053 
	C118.930099,182.070053 119.000015,182.000000 118.572754,181.997528 
	C115.443130,181.995056 112.740768,181.995056 109.930016,181.995056 
	C109.930016,185.498520 109.930016,188.284256 109.930016,191.069992 
	C109.930016,191.069992 110.002380,190.999954 110.039093,190.965485 
z"/>
<path fill="#000000" opacity="1.000000" stroke="none" 
	d="
M163.931015,146.075897 
	C166.745621,146.075897 169.560211,146.075897 172.752457,146.075897 
	C172.752457,148.856949 172.752457,151.604614 172.752457,154.734100 
	C175.848648,154.734100 178.592209,154.734100 181.668671,154.734100 
	C181.668671,157.834946 181.668671,160.571838 181.668671,163.697388 
	C179.176300,163.697388 176.430496,163.697388 173.305695,163.697388 
	C173.305695,169.791565 173.305695,175.535568 173.305695,181.639282 
	C164.093430,181.639282 155.248779,181.639282 146.018005,181.639282 
	C146.018005,178.889908 146.018005,176.139648 146.018005,173.207703 
	C142.903229,173.207703 140.167587,173.207703 137.047134,173.207703 
	C137.047134,176.076279 137.047134,178.829559 137.047134,181.995087 
	C134.072693,181.995087 131.461365,181.995087 128.387054,181.963013 
	C127.924072,181.930923 127.997505,181.999939 128.001236,181.563477 
	C127.978050,175.395035 127.951134,169.663086 128.396439,163.963104 
	C134.464996,163.995102 140.061325,163.995102 146.021851,163.995102 
	C146.021851,160.844971 146.021851,158.108383 146.021851,155.361206 
	C149.258575,155.361206 152.105133,155.361206 155.319336,155.361206 
	C155.319336,158.463242 155.319336,161.201004 155.319336,163.659637 
	C158.437332,163.659637 161.165619,163.659637 164.069946,163.659637 
	C164.069946,157.523315 164.069946,151.726685 164.034943,145.966248 
	C163.999954,146.002457 163.931015,146.075897 163.931015,146.075897 
z"/>
<path fill="#000000" opacity="1.000000" stroke="none" 
	d="
M73.936943,137.073669 
	C76.742538,137.073669 79.548134,137.073669 82.861656,137.073669 
	C82.861656,131.095795 82.861656,125.242256 82.861656,119.005363 
	C85.949867,119.005363 88.546944,119.005363 91.572060,119.003922 
	C92.000099,119.002480 91.929985,118.930084 91.962509,119.392471 
	C91.995041,122.446411 91.995041,125.037964 91.995041,128.148514 
	C95.236343,128.148514 98.090019,128.148514 100.930016,128.148514 
	C100.930016,131.473328 100.930016,134.271667 100.930016,137.069992 
	C100.930016,137.069992 101.000000,137.000000 100.572754,136.997528 
	C97.443130,136.995056 94.740768,136.995056 91.930016,136.995056 
	C91.930016,140.498520 91.930016,143.284256 91.930016,146.069992 
	C91.930016,146.069992 92.000000,146.000000 91.572144,145.997528 
	C88.546623,145.995056 85.948959,145.995056 82.930107,145.995056 
	C82.930107,155.292664 82.930107,164.181366 82.930107,173.070053 
	C82.930107,173.070053 83.000015,172.999985 82.578903,172.997482 
	C79.415199,172.973312 76.672615,172.951630 73.930031,172.929962 
	C73.930031,172.929962 73.999977,172.999985 74.002472,172.563309 
	C74.004959,166.431824 74.004959,160.737015 74.004959,154.929977 
	C70.528030,154.929977 67.729065,154.929977 64.966293,154.964996 
	C65.002487,155.000000 65.075912,155.068909 65.075912,155.068909 
	C65.075912,152.270920 65.075912,149.472946 65.075912,146.148651 
	C67.910004,146.148651 70.763512,146.148651 74.005608,146.148651 
	C74.005608,143.038483 74.005608,140.447113 74.005714,137.428116 
	C74.005821,137.000473 73.936943,137.073669 73.936943,137.073669 
z"/>
<path fill="#000000" opacity="1.000000" stroke="none" 
	d="
M173.073318,92.062744 
	C173.073318,86.169037 173.073318,80.275330 173.073318,73.995102 
	C170.030807,73.995102 167.440872,73.995102 164.387543,73.962997 
	C163.924164,73.930901 163.997589,73.999924 164.001312,73.578857 
	C164.026688,70.415184 164.048355,67.672585 164.070023,64.929985 
	C164.070023,64.929985 163.997620,65.000069 163.960907,65.034561 
	C166.740707,65.069061 169.557236,65.069061 172.740601,65.069061 
	C172.740601,59.165676 172.740601,53.425335 172.740601,47.342503 
	C178.944550,47.342503 184.791382,47.342503 190.799774,47.342503 
	C190.799774,50.157909 190.799774,52.890297 190.799774,55.999779 
	C187.871017,55.999779 185.132538,55.999779 181.994385,55.999779 
	C181.994385,67.957901 181.994385,79.541550 181.994141,91.562500 
	C181.993896,91.999802 182.062775,91.926590 182.062775,91.926590 
	C179.322586,91.949158 176.582397,91.971725 173.421173,91.994064 
	C173.000122,91.993835 173.073318,92.062744 173.073318,92.062744 
z"/>
<path fill="#000000" opacity="1.000000" stroke="none" 
	d="
M155.034409,209.043030 
	C155.068802,206.259567 155.068802,203.439407 155.068802,200.236099 
	C149.155304,200.236099 143.405838,200.236099 137.330200,200.236099 
	C137.330200,197.135117 137.330200,194.396454 137.330200,191.325928 
	C145.829788,191.325928 154.566376,191.325928 163.699768,191.325928 
	C163.699768,193.826645 163.699768,196.564301 163.699768,200.019226 
	C166.816177,200.019226 169.561691,200.019226 172.793869,200.137268 
	C173.280548,200.255310 173.198120,200.181931 173.163208,200.151215 
	C173.128311,208.956619 173.128311,217.792740 173.128311,226.994370 
	C170.026016,226.994370 167.441010,226.994370 164.427994,226.994003 
	C163.999985,226.993637 164.073181,227.062546 164.073181,227.062546 
	C164.073181,221.169296 164.073181,215.276031 164.073181,208.995514 
	C161.032196,208.995514 158.442642,208.995514 155.389954,208.966492 
	C154.926819,208.937454 155.000015,209.006363 155.034409,209.043030 
z"/>
<path fill="#000000" opacity="1.000000" stroke="none" 
	d="
M74.042496,136.966125 
	C68.272202,136.931778 62.465248,136.931778 56.270973,136.931778 
	C56.270973,139.856079 56.270973,142.597305 56.270973,145.668839 
	C53.158627,145.668839 50.415386,145.668839 47.121025,145.668839 
	C47.121025,137.071136 47.121025,128.205032 47.121025,119.149193 
	C43.968266,119.149193 41.346588,119.149193 38.362946,119.149193 
	C38.362946,116.103989 38.362946,113.255966 38.362946,110.195511 
	C44.123943,110.195511 49.855534,110.195511 55.973866,110.195511 
	C55.973866,116.102997 55.973866,121.842606 55.973866,127.953690 
	C62.085617,127.953690 67.828346,127.953690 73.995483,127.953690 
	C73.995483,130.928879 73.995483,133.538055 73.966217,136.610443 
	C73.936943,137.073669 74.005821,137.000473 74.042496,136.966125 
z"/>
<path fill="#000000" opacity="1.000000" stroke="none" 
	d="
M136.930984,110.075821 
	C139.743286,110.075821 142.555573,110.075821 145.897491,110.075821 
	C145.897491,104.063210 145.897491,98.197792 145.897491,92.195816 
	C149.155548,92.195816 151.882294,92.195816 154.994644,92.195816 
	C154.994644,100.965675 154.994644,109.545616 154.996063,118.562843 
	C154.997498,119.000137 155.069916,118.929985 154.607117,118.962524 
	C151.554703,118.995056 148.965073,118.995056 145.930084,118.995056 
	C145.930084,125.280548 145.930084,131.175278 145.965057,137.035004 
	C146.000015,136.999985 146.069977,136.929977 145.613800,136.962494 
	C142.413101,137.019760 139.668564,137.044510 136.959351,136.597443 
	C137.019745,127.393723 137.044830,118.661858 137.034912,109.966187 
	C136.999908,110.002380 136.930984,110.075821 136.930984,110.075821 
z"/>
<path fill="#000000" opacity="1.000000" stroke="none" 
	d="
M236.034363,164.043182 
	C236.068695,158.274872 236.068695,152.469894 236.068695,146.110016 
	C241.961990,146.110016 247.823944,146.110016 253.869476,146.110016 
	C253.869476,142.942993 253.869476,140.325745 253.869476,137.353882 
	C256.788330,137.353882 259.522461,137.353882 262.636292,137.353882 
	C262.636292,142.895111 262.636292,148.742249 262.636292,154.976349 
	C259.891571,154.976349 257.152893,154.976349 254.044464,154.976349 
	C254.044464,158.080307 254.044464,160.829422 254.044464,163.995514 
	C248.074844,163.995514 242.472824,163.995514 236.398819,163.966599 
	C235.926819,163.937683 236.000031,164.006500 236.034363,164.043182 
z"/>
<path fill="#000000" opacity="1.000000" stroke="none" 
	d="
M110.075844,110.068932 
	C110.075844,98.176537 110.075844,86.284142 110.075844,74.021866 
	C113.113739,74.021866 115.849174,74.021866 119.004913,74.021866 
	C119.004913,71.061668 119.004913,68.455887 119.037003,65.387131 
	C119.069092,64.924164 119.000076,64.997597 119.421143,65.001312 
	C122.584801,65.026695 125.327393,65.048363 128.069977,65.070030 
	C128.069977,65.070030 128.000015,65.000015 127.997528,65.436501 
	C127.973396,71.605347 127.951759,77.337700 127.965057,83.035034 
	C128.000000,83.000008 128.069916,82.929985 127.607071,82.962517 
	C124.543587,82.995049 121.942932,82.995049 118.859924,82.995049 
	C118.859924,92.247803 118.859924,101.089729 118.859924,109.930016 
	C115.549782,109.930016 112.739899,109.930016 109.966217,109.965012 
	C110.002419,110.000008 110.075844,110.068932 110.075844,110.068932 
z"/>
<path fill="#000000" opacity="1.000000" stroke="none" 
	d="
M199.965515,235.960968 
	C199.931046,244.720367 199.931046,253.516464 199.931046,262.656189 
	C191.062820,262.656189 182.224075,262.656189 173.190887,262.656189 
	C173.190887,259.868744 173.190887,257.138672 173.190887,254.029694 
	C179.095230,254.029694 184.832611,254.029694 191.004898,254.029694 
	C191.004898,248.064545 191.004898,242.466599 191.036926,236.396439 
	C191.068939,235.924210 191.000015,235.997635 191.421127,236.001343 
	C194.584824,236.026703 197.327393,236.048370 200.069977,236.070038 
	C200.069977,236.070038 199.999969,235.997681 199.965515,235.960968 
z"/>
<path fill="#000000" opacity="1.000000" stroke="none" 
	d="
M245.062134,244.927078 
	C242.244659,244.927078 239.427170,244.927078 236.236450,244.927078 
	C236.236450,250.853394 236.236450,256.600922 236.236450,262.672729 
	C230.147629,262.672729 224.414932,262.672729 218.339218,262.672729 
	C218.339218,260.155487 218.339218,257.420898 218.339218,254.304382 
	C220.822052,254.304382 223.568222,254.304382 227.019104,254.304382 
	C227.019104,248.205780 227.019104,242.458878 227.136688,236.215912 
	C227.254257,235.719833 227.181137,235.802399 227.150421,235.837280 
	C232.966019,235.872177 238.812302,235.872177 244.994339,235.872177 
	C244.994339,238.990677 244.994339,241.567444 244.993805,244.572250 
	C244.993286,245.000305 245.062134,244.927078 245.062134,244.927078 
z"/>
<path fill="#000000" opacity="1.000000" stroke="none" 
	d="
M244.956619,245.034668 
	C247.733627,245.069031 250.547287,245.069031 253.734680,245.069031 
	C253.734680,242.160660 253.734680,239.415848 253.734680,236.334595 
	C256.828674,236.334595 259.567078,236.334595 262.659180,236.334595 
	C262.659180,244.906555 262.659180,253.748459 262.659180,262.796997 
	C256.890503,262.796997 251.166931,262.796997 245.004471,262.796997 
	C245.004471,257.064301 245.004471,251.467636 245.033295,245.399017 
	C245.062134,244.927078 244.993286,245.000305 244.956619,245.034668 
z"/>
<path fill="#000000" opacity="1.000000" stroke="none" 
	d="
M154.960785,119.034676 
	C157.668411,119.048050 160.412735,119.026878 163.578476,119.005936 
	C163.999878,119.006165 163.926682,118.937256 163.926682,118.937256 
	C163.949493,127.668373 163.972290,136.399490 163.963058,145.603241 
	C163.931015,146.075897 163.999954,146.002457 163.563232,145.998749 
	C157.431717,145.995041 151.736908,145.995041 146.069977,145.995041 
	C146.069977,142.527847 146.069977,139.728912 146.069977,136.929977 
	C146.069977,136.929977 146.000015,136.999985 146.427887,137.002472 
	C149.445374,137.004944 152.034973,137.004944 155.069916,137.004944 
	C155.069916,130.719513 155.069916,124.824745 155.069916,118.929985 
	C155.069916,118.929985 154.997498,119.000137 154.960785,119.034676 
z"/>
<path fill="#000000" opacity="1.000000" stroke="none" 
	d="
M55.924114,172.930832 
	C55.924114,178.727020 55.924114,184.523209 55.924114,190.659576 
	C50.059029,190.659576 44.219429,190.659576 38.187149,190.659576 
	C38.187149,187.862671 38.187149,185.133743 38.187149,182.029877 
	C41.101505,182.029877 43.839867,182.029877 47.005367,182.029877 
	C47.005367,179.067596 47.005367,176.461395 47.003868,173.427551 
	C47.002365,172.999908 46.929985,173.070023 47.386040,173.037506 
	C50.584717,173.026672 53.327343,173.048355 56.033749,173.034973 
	C55.997532,172.999908 55.924114,172.930832 55.924114,172.930832 
z"/>
<path fill="#000000" opacity="1.000000" stroke="none" 
	d="
M47.075840,164.069077 
	C47.075840,161.269806 47.075840,158.470551 47.075840,155.004898 
	C52.738804,155.004898 58.435120,155.004898 64.603668,155.036896 
	C65.075912,155.068909 65.002487,155.000000 64.998764,155.436493 
	C64.973396,161.605347 64.951752,167.337708 64.930099,173.070053 
	C64.930099,173.070053 65.002510,172.999893 65.039238,172.965363 
	C62.329838,172.952225 59.583714,172.973618 56.380852,172.962921 
	C55.924114,172.930832 55.997532,172.999908 56.001247,172.572723 
	C56.004963,169.443146 56.004963,166.740784 56.004963,163.930023 
	C52.501476,163.930023 49.715721,163.930023 46.966190,163.965042 
	C47.002411,164.000061 47.075840,164.069077 47.075840,164.069077 
z"/>
<path fill="#000000" opacity="1.000000" stroke="none" 
	d="
M136.965424,82.960938 
	C136.952347,91.659676 136.973724,100.395111 136.963043,109.603188 
	C136.930984,110.075821 136.999908,110.002380 136.572067,109.998718 
	C133.546570,109.995049 130.948898,109.995049 128.069916,109.995049 
	C128.069916,100.706429 128.069916,91.818207 128.069916,82.929985 
	C128.069916,82.929985 128.000000,83.000008 128.421143,83.002518 
	C131.584839,83.026711 134.327362,83.048393 137.069901,83.070068 
	C137.069901,83.070061 136.999893,82.997650 136.965424,82.960938 
z"/>
<path fill="#000000" opacity="1.000000" stroke="none" 
	d="
M245.279907,128.254120 
	C245.127563,125.312569 244.975220,122.371017 244.803787,119.060699 
	C241.929733,119.060699 239.187134,119.060699 236.230408,119.060699 
	C236.230408,115.954971 236.230408,113.221298 236.230408,110.241486 
	C242.014038,110.241486 247.742599,110.241486 253.737244,110.241486 
	C253.737244,115.986671 253.737244,121.712578 253.737244,128.008392 
	C251.203964,128.008392 248.614258,128.008392 245.610962,128.094727 
	C245.197403,128.181061 245.279907,128.254120 245.279907,128.254120 
z"/>
<path fill="#000000" opacity="1.000000" stroke="none" 
	d="
M226.960999,128.034515 
	C232.712265,128.052338 238.500229,128.035721 244.784058,128.136612 
	C245.279907,128.254120 245.197403,128.181061 245.162582,128.150330 
	C245.127762,130.884979 245.127762,133.650345 245.127762,136.995102 
	C239.201706,136.995102 233.535187,136.995102 227.396439,136.963074 
	C226.924210,136.931061 226.997635,136.999985 227.001328,136.578873 
	C227.026688,133.415176 227.048355,130.672577 227.070023,127.929985 
	C227.070023,127.929985 226.997696,128.000046 226.960999,128.034515 
z"/>
<path fill="#000000" opacity="1.000000" stroke="none" 
	d="
M155.000000,251.077850 
	C155.000000,248.953384 155.000000,247.313660 155.000000,245.337250 
	C157.831848,245.337250 160.551117,245.337250 163.640747,245.337250 
	C163.640747,250.867645 163.640747,256.689301 163.640747,262.758667 
	C160.981918,262.758667 158.262299,262.758667 155.000000,262.758667 
	C155.000000,259.046112 155.000000,255.304352 155.000000,251.077850 
z"/>
<path fill="#000000" opacity="1.000000" stroke="none" 
	d="
M119.000000,252.049164 
	C119.000000,255.846436 119.000000,259.154175 119.000000,262.729553 
	C116.018280,262.729553 113.279549,262.729553 110.266968,262.729553 
	C110.266968,257.025574 110.266968,251.281677 110.266968,245.266541 
	C112.989227,245.266541 115.727760,245.266541 119.000000,245.266541 
	C119.000000,247.342834 119.000000,249.451218 119.000000,252.049164 
z"/>
<path fill="#000000" opacity="1.000000" stroke="none" 
	d="
M92.034607,119.039200 
	C92.069122,116.275795 92.069122,113.475677 92.069122,110.004906 
	C97.738289,110.004906 103.434837,110.004906 109.603615,110.036919 
	C110.075844,110.068932 110.002419,110.000008 109.998734,110.427856 
	C109.995056,113.445274 109.995056,116.034843 109.995056,118.930084 
	C103.719620,118.930084 97.824799,118.930084 91.929985,118.930084 
	C91.929985,118.930084 92.000099,119.002480 92.034607,119.039200 
z"/>
<path fill="#000000" opacity="1.000000" stroke="none" 
	d="
M182.073212,128.062607 
	C182.073212,122.263031 182.073212,116.463463 182.073212,110.332138 
	C184.853714,110.332138 187.587234,110.332138 190.980927,110.332138 
	C190.980927,115.805931 190.980927,121.546852 190.863434,127.783859 
	C190.745941,128.279938 190.818970,128.197449 190.849701,128.162674 
	C188.199936,128.083344 185.519455,128.038803 182.419495,127.993973 
	C182.000000,127.993706 182.073212,128.062607 182.073212,128.062607 
z"/>
<path fill="#000000" opacity="1.000000" stroke="none" 
	d="
M172.965729,91.957169 
	C172.931351,94.725784 172.931351,97.531059 172.931351,100.668121 
	C170.191345,100.668121 167.457520,100.668121 164.359741,100.668121 
	C164.359741,98.109001 164.359741,95.267624 164.359741,92.004509 
	C166.946579,92.004509 169.547195,92.004509 172.610565,92.033630 
	C173.073318,92.062744 173.000122,91.993835 172.965729,91.957169 
z"/>
<path fill="#000000" opacity="1.000000" stroke="none" 
	d="
M181.957214,92.034180 
	C184.725861,92.068565 187.531189,92.068565 190.668137,92.068565 
	C190.668137,94.808701 190.668137,97.542526 190.668137,100.640274 
	C188.108963,100.640274 185.267563,100.640274 182.004517,100.640274 
	C182.004517,98.053345 182.004517,95.452728 182.033646,92.389359 
	C182.062775,91.926590 181.993896,91.999802 181.957214,92.034180 
z"/>
<path fill="#000000" opacity="1.000000" stroke="none" 
	d="
M65.000153,113.086700 
	C65.775200,111.744324 66.441017,110.289589 67.347221,110.120094 
	C69.375290,109.740784 71.523041,110.001411 73.801529,110.001411 
	C73.801529,113.092163 73.801529,115.806259 73.801529,118.761826 
	C70.992218,118.761826 68.276421,118.761826 65.000015,118.761826 
	C65.000015,117.043198 65.000015,115.300415 65.000153,113.086700 
z"/>
<path fill="#000000" opacity="1.000000" stroke="none" 
	d="
M181.965591,235.956970 
	C181.931198,238.725586 181.931198,241.530899 181.931198,244.668060 
	C179.191467,244.668060 176.457642,244.668060 173.359802,244.668060 
	C173.359802,242.109116 173.359802,239.267715 173.359802,236.004501 
	C175.946503,236.004501 178.547104,236.004501 181.610443,236.033524 
	C182.073181,236.062546 181.999985,235.993637 181.965591,235.956970 
z"/>
<path fill="#000000" opacity="1.000000" stroke="none" 
	d="
M163.965591,226.956970 
	C163.931198,229.725586 163.931198,232.530899 163.931198,235.668060 
	C161.191467,235.668060 158.457642,235.668060 155.359802,235.668060 
	C155.359802,233.109116 155.359802,230.267715 155.359802,227.004501 
	C157.946503,227.004501 160.547104,227.004501 163.610443,227.033524 
	C164.073181,227.062546 163.999985,226.993637 163.965591,226.956970 
z"/>
<path fill="#000000" opacity="1.000000" stroke="none" 
	d="
M118.965820,226.957214 
	C118.931435,229.725861 118.931435,232.531189 118.931435,235.668137 
	C116.191299,235.668137 113.457474,235.668137 110.359726,235.668137 
	C110.359726,233.108963 110.359726,230.267563 110.359726,227.004517 
	C112.946655,227.004517 115.547272,227.004517 118.610641,227.033646 
	C119.073410,227.062775 119.000198,226.993896 118.965820,226.957214 
z"/>
<path fill="#000000" opacity="1.000000" stroke="none" 
	d="
M181.965622,127.957031 
	C181.931244,130.725647 181.931244,133.530945 181.931244,136.668060 
	C179.193604,136.668060 176.462814,136.668060 173.359772,136.668060 
	C173.359772,134.109085 173.359772,131.267700 173.359772,128.004501 
	C175.946503,128.004501 178.547104,128.004501 181.610458,128.033554 
	C182.073212,128.062607 182.000000,127.993706 181.965622,127.957031 
z"/>
<path fill="#000000" opacity="1.000000" stroke="none" 
	d="
M164.034271,119.042831 
	C164.068649,116.274216 164.068649,113.468941 164.068649,110.331879 
	C166.808655,110.331879 169.542480,110.331879 172.640259,110.331879 
	C172.640259,112.890999 172.640259,115.732376 172.640259,118.995491 
	C170.053421,118.995491 167.452805,118.995491 164.389435,118.966370 
	C163.926682,118.937256 163.999878,119.006165 164.034271,119.042831 
z"/>
<path fill="#000000" opacity="1.000000" stroke="none" 
	d="
M47.039070,172.965393 
	C44.276073,172.930893 41.476372,172.930893 38.338352,172.930893 
	C38.338352,170.088318 38.338352,167.247757 38.338352,164.004913 
	C40.964470,164.004913 43.557182,164.004913 46.612869,164.036987 
	C47.075840,164.069077 47.002411,164.000061 46.998688,164.421143 
	C46.973305,167.584839 46.951645,170.327423 46.929985,173.070023 
	C46.929985,173.070023 47.002365,172.999908 47.039070,172.965393 
z"/>
<path fill="#000000" opacity="1.000000" stroke="none" 
	d="
M260.855042,182.002151 
	C262.108948,184.782150 262.889313,187.560287 263.795410,190.786057 
	C259.941254,190.786057 257.226898,190.786057 254.254181,190.786057 
	C254.254181,188.026398 254.254181,185.310211 254.254181,182.000275 
	C256.246735,182.000275 258.314117,182.000275 260.855042,182.002151 
z"/>
<path fill="#FFFFFF" opacity="1.000000" stroke="none" 
	d="
M209.948212,191.000000 
	C212.755875,191.000000 215.071808,191.000000 217.693253,191.000000 
	C217.693253,199.909592 217.693253,208.648254 217.693253,217.694855 
	C209.087753,217.694855 200.348984,217.694855 191.303711,217.694855 
	C191.303711,209.084747 191.303711,200.346039 191.303711,191.000000 
	C197.266586,191.000000 203.361526,191.000000 209.948212,191.000000 
M207.329666,208.995972 
	C208.065063,206.110550 208.800446,203.225113 209.543304,200.310364 
	C205.576202,200.310364 202.857269,200.310364 200.270020,200.310364 
	C200.270020,203.344101 200.270020,206.061554 200.270020,208.999725 
	C202.486588,208.999725 204.435349,208.999725 207.329666,208.995972 
z"/>
<path fill="#FFFFFF" opacity="1.000000" stroke="none" 
	d="
M200.037460,235.607635 
	C197.327393,236.048370 194.584824,236.026703 191.386139,236.037537 
	C190.930023,233.271622 190.930023,230.473221 190.930023,227.337524 
	C193.911896,227.337524 196.751144,227.337524 200.004944,227.337524 
	C200.004944,229.962097 200.004944,232.553650 200.037460,235.607635 
z"/>
<path fill="#FFFFFF" opacity="1.000000" stroke="none" 
	d="
M208.962524,164.392212 
	C211.715744,163.930008 214.501480,163.930008 218.004944,163.930008 
	C218.004944,166.740768 218.004944,169.443115 218.037476,172.607727 
	C215.284241,173.069992 212.498489,173.069992 208.995056,173.069992 
	C208.995056,170.259155 208.995056,167.556778 208.962524,164.392212 
z"/>
<path fill="#FEFEFE" opacity="1.000000" stroke="none" 
	d="
M47.050476,70.999855 
	C47.050476,62.863323 47.050476,55.226761 47.050476,47.296700 
	C62.015244,47.296700 76.742737,47.296700 91.759209,47.296700 
	C91.759209,61.960464 91.759209,76.688644 91.759209,91.708817 
	C77.109306,91.708817 62.377140,91.708817 47.050476,91.708817 
	C47.050476,85.021927 47.050476,78.260880 47.050476,70.999855 
M56.001560,76.425987 
	C56.001560,78.530502 56.001560,80.635017 56.001560,82.734947 
	C65.264610,82.734947 74.000771,82.734947 82.733780,82.734947 
	C82.733780,73.733070 82.733780,64.996857 82.733780,56.267387 
	C73.730690,56.267387 64.994461,56.267387 56.001560,56.267387 
	C56.001560,62.833149 56.001560,69.136383 56.001560,76.425987 
z"/>
<path fill="#FEFEFE" opacity="1.000000" stroke="none" 
	d="
M51.159298,253.999176 
	C48.567535,254.145157 46.936680,254.238571 46.976280,251.080566 
	C47.149391,237.274017 47.050774,223.464066 47.050774,209.328445 
	C61.952953,209.328445 76.682449,209.328445 91.730080,209.328445 
	C91.730080,223.906052 91.730080,238.636871 91.730080,253.999191 
	C78.479919,253.999191 65.061157,253.999191 51.159298,253.999176 
M64.541389,218.001541 
	C61.769447,218.001541 58.997505,218.001541 56.275696,218.001541 
	C56.275696,227.286926 56.275696,236.022873 56.275696,244.723572 
	C65.288429,244.723572 74.024376,244.723572 82.722839,244.723572 
	C82.722839,235.709778 82.722839,226.973709 82.722839,218.001541 
	C76.810364,218.001541 71.171471,218.001541 64.541389,218.001541 
z"/>
<path fill="#FEFEFE" opacity="1.000000" stroke="none" 
	d="
M246.935944,47.000824 
	C249.414688,47.000824 251.400909,47.000824 253.715378,47.000824 
	C253.715378,61.877560 253.715378,76.607407 253.715378,91.668961 
	C239.193695,91.668961 224.458542,91.668961 209.386047,91.668961 
	C209.386047,77.127083 209.386047,62.399849 209.386047,47.000824 
	C221.617218,47.000824 234.030334,47.000824 246.935944,47.000824 
M240.379974,82.998444 
	C241.821732,82.998444 243.263489,82.998444 244.750259,82.998444 
	C244.750259,73.767242 244.750259,65.031342 244.750259,56.251472 
	C235.763992,56.251472 227.027832,56.251472 218.253189,56.251472 
	C218.253189,65.239548 218.253189,73.975777 218.253189,82.998444 
	C225.467255,82.998444 232.433517,82.998444 240.379974,82.998444 
z"/>
<path fill="#FFFFFF" opacity="1.000000" stroke="none" 
	d="
M127.924210,163.931122 
	C127.951134,169.663086 127.978050,175.395035 128.037445,181.598526 
	C125.327354,182.048386 122.584816,182.026703 119.386185,182.037537 
	C118.955193,176.337814 118.980286,170.605591 119.003899,164.436646 
	C119.002419,163.999924 118.930023,164.070023 119.386124,164.037521 
	C122.584816,164.026688 125.327423,164.048355 128.033829,164.035034 
	C127.997635,164.000031 127.924210,163.931122 127.924210,163.931122 
z"/>
<path fill="#FFFFFF" opacity="1.000000" stroke="none" 
	d="
M128.034286,227.042892 
	C128.068665,224.274277 128.068665,221.468994 128.068665,218.331909 
	C130.806442,218.331909 133.537231,218.331909 136.640244,218.331909 
	C136.640244,220.890961 136.640244,223.732346 136.640244,226.995499 
	C134.053436,226.995499 131.452820,226.995499 128.389465,226.966400 
	C127.926704,226.937317 127.999901,227.006226 128.034286,227.042892 
z"/>
<path fill="#FFFFFF" opacity="1.000000" stroke="none" 
	d="
M110.392212,191.037476 
	C109.930016,188.284256 109.930016,185.498520 109.930016,181.995056 
	C112.740768,181.995056 115.443130,181.995056 118.607742,181.962524 
	C119.069984,184.715790 119.069984,187.501556 119.069984,191.004959 
	C116.259155,191.004959 113.556778,191.004959 110.392212,191.037476 
z"/>
<path fill="#FFFFFF" opacity="1.000000" stroke="none" 
	d="
M226.614197,127.962479 
	C227.048355,130.672577 227.026688,133.415176 227.037521,136.613861 
	C224.284332,137.069977 221.498657,137.069977 218.005646,137.069977 
	C218.005646,134.259079 218.005646,131.556915 218.006073,128.427338 
	C218.006485,127.999916 217.937576,128.073120 217.937576,128.073120 
	C220.677841,128.047073 223.418106,128.021011 226.614197,127.962479 
z"/>
<path fill="#FFFFFF" opacity="1.000000" stroke="none" 
	d="
M218.043152,127.965530 
	C215.274506,127.931152 212.469193,127.931152 209.331985,127.931152 
	C209.331985,125.191536 209.331985,122.457695 209.331985,119.359833 
	C211.890137,119.359833 214.730820,119.359833 217.995514,119.359833 
	C217.995514,121.946442 217.995514,124.547043 217.966553,127.610382 
	C217.937576,128.073120 218.006485,127.999916 218.043152,127.965530 
z"/>
<path fill="#FFFFFF" opacity="1.000000" stroke="none" 
	d="
M137.037445,82.598396 
	C134.327362,83.048393 131.584839,83.026711 128.386200,83.037552 
	C127.951759,77.337700 127.973396,71.605347 127.962563,65.401489 
	C130.729111,64.929985 133.528137,64.929985 137.004974,64.929985 
	C137.004974,70.737038 137.004974,76.431877 137.037445,82.598396 
z"/>
<path fill="#FFFFFF" opacity="1.000000" stroke="none" 
	d="
M128.037460,64.607628 
	C125.327393,65.048363 122.584801,65.026695 119.386124,65.037529 
	C118.930031,62.271629 118.930031,59.473225 118.930031,56.337517 
	C121.912292,56.337517 124.752068,56.337517 128.004944,56.337517 
	C128.004944,58.962093 128.004944,61.553658 128.037460,64.607628 
z"/>
<path fill="#FFFFFF" opacity="1.000000" stroke="none" 
	d="
M163.614197,64.962479 
	C164.048355,67.672585 164.026688,70.415184 164.037521,73.613876 
	C161.284348,74.069977 158.498688,74.069977 155.005615,74.069977 
	C155.005615,71.259171 155.005615,68.557098 155.005859,65.427612 
	C155.006104,65.000198 154.937225,65.073410 154.937225,65.073410 
	C157.677612,65.047264 160.417984,65.021118 163.614197,64.962479 
z"/>
<path fill="#FFFFFF" opacity="1.000000" stroke="none" 
	d="
M155.042786,64.965820 
	C152.274139,64.931435 149.468811,64.931435 146.331863,64.931435 
	C146.331863,62.191299 146.331863,59.457474 146.331863,56.359718 
	C148.890366,56.359718 151.731049,56.359718 154.995483,56.359718 
	C154.995483,58.946648 154.995483,61.547260 154.966354,64.610641 
	C154.937225,65.073410 155.006104,65.000198 155.042786,64.965820 
z"/>
<path fill="#FFFFFF" opacity="1.000000" stroke="none" 
	d="
M91.962509,119.392471 
	C97.824799,118.930084 103.719620,118.930084 109.995056,118.930084 
	C109.995056,116.034843 109.995056,113.445274 109.962540,110.392868 
	C112.739899,109.930016 115.549782,109.930016 118.859924,109.930016 
	C118.859924,101.089729 118.859924,92.247803 118.859924,82.995049 
	C121.942932,82.995049 124.543587,82.995049 127.607071,82.962517 
	C128.069916,91.818207 128.069916,100.706429 128.069916,109.995049 
	C130.948898,109.995049 133.546570,109.995049 136.607071,109.962517 
	C137.044830,118.661858 137.019745,127.393723 136.996078,136.562897 
	C136.997513,137.000198 137.069946,136.930054 136.598297,136.962540 
	C130.542038,136.995026 124.957451,136.995026 119.351776,136.995026 
	C119.351776,140.255661 119.351776,143.095093 119.351776,146.289093 
	C122.442902,146.289093 125.180641,146.289093 127.930016,146.289093 
	C127.930016,149.458359 127.930016,152.264175 127.965012,155.034988 
	C128.000015,154.999985 128.070038,154.930023 127.607834,154.962540 
	C124.443245,154.995056 121.740852,154.995056 118.930023,154.995056 
	C118.930023,158.498444 118.930023,161.284241 118.930023,164.070023 
	C118.930023,164.070023 119.002419,163.999924 119.039139,163.965424 
	C116.265068,163.930939 113.454277,163.930939 110.141968,163.930939 
	C110.141968,155.092346 110.141968,146.249512 110.141968,137.004944 
	C107.057541,137.004944 104.456627,137.004944 101.392868,137.037476 
	C100.930016,134.271667 100.930016,131.473328 100.930016,128.148514 
	C98.090019,128.148514 95.236343,128.148514 91.995041,128.148514 
	C91.995041,125.037964 91.995041,122.446411 91.962509,119.392471 
M121.618553,127.999718 
	C123.685913,127.999718 125.753281,127.999718 127.745819,127.999718 
	C127.745819,124.689774 127.745819,121.973579 127.745819,119.213959 
	C124.772530,119.213959 122.058525,119.213959 118.204567,119.213959 
	C119.110695,122.439743 119.891068,125.217857 121.618553,127.999718 
z"/>
<path fill="#FFFFFF" opacity="1.000000" stroke="none" 
	d="
M83.385910,173.037537 
	C82.930107,164.181366 82.930107,155.292664 82.930107,145.995056 
	C85.948959,145.995056 88.546623,145.995056 91.607132,145.962524 
	C92.069984,148.736786 92.069984,151.543579 92.069984,154.715439 
	C94.822594,154.715439 97.559807,154.715439 100.651146,154.715439 
	C100.651146,157.914276 100.651146,160.756592 100.651146,163.984192 
	C97.881989,163.984192 95.146950,163.984192 91.994370,163.984192 
	C91.994370,166.938583 91.994370,169.541595 91.994102,172.572250 
	C91.993835,172.999878 92.062744,172.926682 92.062744,172.926682 
	C89.322403,172.952805 86.582054,172.978912 83.385910,173.037537 
z"/>
<path fill="#FFFFFF" opacity="1.000000" stroke="none" 
	d="
M65.386147,173.037537 
	C64.951752,167.337708 64.973396,161.605347 64.962570,155.401489 
	C67.729065,154.929977 70.528030,154.929977 74.004959,154.929977 
	C74.004959,160.737015 74.004959,166.431824 74.037430,172.598343 
	C71.327324,173.048370 68.584755,173.026688 65.386147,173.037537 
z"/>
<path fill="#FFFFFF" opacity="1.000000" stroke="none" 
	d="
M92.392212,146.037476 
	C91.930016,143.284256 91.930016,140.498520 91.930016,136.995056 
	C94.740768,136.995056 97.443130,136.995056 100.607742,136.962524 
	C101.069984,139.715790 101.069984,142.501556 101.069984,146.004959 
	C98.259155,146.004959 95.556778,146.004959 92.392212,146.037476 
z"/>
<path fill="#FFFFFF" opacity="1.000000" stroke="none" 
	d="
M91.957169,173.034271 
	C94.725784,173.068649 97.531059,173.068649 100.668121,173.068649 
	C100.668121,175.808655 100.668121,178.542480 100.668121,181.640259 
	C98.109001,181.640259 95.267624,181.640259 92.004509,181.640259 
	C92.004509,179.053421 92.004509,176.452805 92.033630,173.389435 
	C92.062744,172.926682 91.993835,172.999878 91.957169,173.034271 
z"/>
<path fill="#FFFFFF" opacity="1.000000" stroke="none" 
	d="
M73.962540,173.392365 
	C76.672615,172.951630 79.415199,172.973312 82.613876,172.962479 
	C83.069977,175.728378 83.069977,178.526779 83.069977,181.662476 
	C80.087708,181.662476 77.247932,181.662476 73.995041,181.662476 
	C73.995041,179.037903 73.995041,176.446350 73.962540,173.392365 
z"/>
<path fill="#FFFFFF" opacity="1.000000" stroke="none" 
	d="
M145.613800,136.962494 
	C146.069977,139.728912 146.069977,142.527847 146.069977,145.995041 
	C151.736908,145.995041 157.431717,145.995041 163.598236,145.962555 
	C164.069946,151.726685 164.069946,157.523315 164.069946,163.659637 
	C161.165619,163.659637 158.437332,163.659637 155.319336,163.659637 
	C155.319336,161.201004 155.319336,158.463242 155.319336,155.361206 
	C152.105133,155.361206 149.258575,155.361206 146.021851,155.361206 
	C146.021851,158.108383 146.021851,160.844971 146.021851,163.995102 
	C140.061325,163.995102 134.464996,163.995102 128.396439,163.963104 
	C127.924210,163.931122 127.997635,164.000031 128.001328,163.578918 
	C128.026688,160.415207 128.048370,157.672607 128.070038,154.930023 
	C128.070038,154.930023 128.000015,154.999985 128.427872,155.002472 
	C131.445328,155.004959 134.034927,155.004959 137.069946,155.004959 
	C137.069946,148.719543 137.069946,142.824799 137.069946,136.930054 
	C137.069946,136.930054 136.997513,137.000198 136.960785,137.034729 
	C139.668564,137.044510 142.413101,137.019760 145.613800,136.962494 
z"/>
<path fill="#FFFFFF" opacity="1.000000" stroke="none" 
	d="
M154.607117,118.962524 
	C155.069916,124.824745 155.069916,130.719513 155.069916,137.004944 
	C152.034973,137.004944 149.445374,137.004944 146.392929,137.037476 
	C145.930084,131.175278 145.930084,125.280548 145.930084,118.995056 
	C148.965073,118.995056 151.554703,118.995056 154.607117,118.962524 
z"/>
<path fill="#FFFFFF" opacity="1.000000" stroke="none" 
	d="
M47.386040,173.037506 
	C46.951645,170.327423 46.973305,167.584839 46.962467,164.386139 
	C49.715721,163.930023 52.501476,163.930023 56.004963,163.930023 
	C56.004963,166.740784 56.004963,169.443146 56.037464,172.607788 
	C53.327343,173.048355 50.584717,173.026672 47.386040,173.037506 
z"/>
<path fill="#000000" opacity="1.000000" stroke="none" 
	d="
M206.856903,208.997849 
	C204.435349,208.999725 202.486588,208.999725 200.270020,208.999725 
	C200.270020,206.061554 200.270020,203.344101 200.270020,200.310364 
	C202.857269,200.310364 205.576202,200.310364 209.543304,200.310364 
	C208.800446,203.225113 208.065063,206.110550 206.856903,208.997849 
z"/>
<path fill="#000000" opacity="1.000000" stroke="none" 
	d="
M56.001560,75.932800 
	C56.001560,69.136383 56.001560,62.833149 56.001560,56.267387 
	C64.994461,56.267387 73.730690,56.267387 82.733780,56.267387 
	C82.733780,64.996857 82.733780,73.733070 82.733780,82.734947 
	C74.000771,82.734947 65.264610,82.734947 56.001560,82.734947 
	C56.001560,80.635017 56.001560,78.530502 56.001560,75.932800 
z"/>
<path fill="#000000" opacity="1.000000" stroke="none" 
	d="
M65.036987,218.001541 
	C71.171471,218.001541 76.810364,218.001541 82.722839,218.001541 
	C82.722839,226.973709 82.722839,235.709778 82.722839,244.723572 
	C74.024376,244.723572 65.288429,244.723572 56.275696,244.723572 
	C56.275696,236.022873 56.275696,227.286926 56.275696,218.001541 
	C58.997505,218.001541 61.769447,218.001541 65.036987,218.001541 
z"/>
<path fill="#000000" opacity="1.000000" stroke="none" 
	d="
M239.889877,82.998444 
	C232.433517,82.998444 225.467255,82.998444 218.253189,82.998444 
	C218.253189,73.975777 218.253189,65.239548 218.253189,56.251472 
	C227.027832,56.251472 235.763992,56.251472 244.750259,56.251472 
	C244.750259,65.031342 244.750259,73.767242 244.750259,82.998444 
	C243.263489,82.998444 241.821732,82.998444 239.889877,82.998444 
z"/>
<path fill="#000000" opacity="1.000000" stroke="none" 
	d="
M127.607834,154.962540 
	C128.048370,157.672607 128.026688,160.415207 128.037521,163.613907 
	C125.327423,164.048355 122.584816,164.026688 119.386124,164.037521 
	C118.930023,161.284241 118.930023,158.498444 118.930023,154.995056 
	C121.740852,154.995056 124.443245,154.995056 127.607834,154.962540 
z"/>
<path fill="#000000" opacity="1.000000" stroke="none" 
	d="
M136.598297,136.962540 
	C137.069946,142.824799 137.069946,148.719543 137.069946,155.004959 
	C134.034927,155.004959 131.445328,155.004959 128.392868,155.037476 
	C127.930016,152.264175 127.930016,149.458359 127.930016,146.289093 
	C125.180641,146.289093 122.442902,146.289093 119.351776,146.289093 
	C119.351776,143.095093 119.351776,140.255661 119.351776,136.995026 
	C124.957451,136.995026 130.542038,136.995026 136.598297,136.962540 
z"/>
<path fill="#000000" opacity="1.000000" stroke="none" 
	d="
M121.145004,127.997849 
	C119.891068,125.217857 119.110695,122.439743 118.204567,119.213959 
	C122.058525,119.213959 124.772530,119.213959 127.745819,119.213959 
	C127.745819,121.973579 127.745819,124.689774 127.745819,127.999718 
	C125.753281,127.999718 123.685913,127.999718 121.145004,127.997849 
z"/>
</svg>