<svg version="1.1" id="Layer_1" xmlns="http://www.w3.org/2000/svg" xmlns:xlink="http://www.w3.org/1999/xlink" x="0px" y="0px"
	 width="100%" viewBox="0 0 833 833" enable-background="new 0 0 833 833" xml:space="preserve">
<path fill="#FFFFFF" opacity="1.000000" stroke="none" 
	d="
M1.000000,414.000000 
	C1.000000,276.020599 1.000000,138.541199 1.000000,1.030894 
	C278.604462,1.030894 556.208923,1.030894 833.906738,1.030894 
	C833.906738,278.562866 833.906738,556.125732 833.906738,833.844360 
	C556.333374,833.844360 278.666718,833.844360 1.000000,833.844360 
	C1.000000,694.124084 1.000000,554.312073 1.000000,414.000000 
M316.636871,766.916687 
	C326.186829,772.301758 335.796356,777.584290 345.273987,783.093811 
	C363.443939,793.656311 383.299500,798.988953 403.959686,800.771790 
	C414.950165,801.720215 426.168304,800.711365 437.236023,799.919739 
	C452.720184,798.812134 467.691742,794.697937 481.375610,787.639465 
	C501.012543,777.510498 520.026794,766.167175 539.234802,755.215881 
	C555.586182,745.893372 571.830383,736.382751 588.132141,726.973022 
	C604.154114,717.724854 620.195801,708.510925 636.216064,699.259827 
	C652.516296,689.846985 668.754822,680.326111 685.106384,671.003540 
	C699.259216,662.934448 712.976624,654.220459 724.635925,642.763611 
	C739.069458,628.580750 750.341492,612.101624 758.172119,593.405090 
	C765.580688,575.716187 770.084412,557.419006 770.052734,538.039124 
	C769.925232,460.051880 769.811157,382.063538 770.130066,304.077393 
	C770.211914,284.058777 767.253845,264.871765 759.993896,246.255661 
	C749.808655,220.138306 734.002563,197.742493 711.372192,181.583603 
	C691.330750,167.273331 669.348816,155.662338 648.102844,143.063293 
	C631.913818,133.463058 615.540527,124.173470 599.240417,114.760803 
	C583.219849,105.509552 567.184692,96.283432 551.162476,87.035072 
	C534.860901,77.625481 518.753723,67.857635 502.206970,58.901463 
	C490.432007,52.528057 478.465332,46.102520 465.880157,41.724060 
	C445.199249,34.529060 423.704956,32.535839 401.681946,34.808102 
	C384.496643,36.581226 367.977722,40.614208 352.781219,48.304062 
	C333.659241,57.980324 315.316162,69.201965 296.688049,79.846130 
	C280.345978,89.184044 264.073242,98.643295 247.771957,108.052612 
	C231.749344,117.301102 215.729202,126.553932 199.708252,135.805313 
	C183.408478,145.217712 167.148697,154.700211 150.797119,164.021683 
	C137.374023,171.673706 124.350189,179.847427 113.007141,190.470398 
	C97.394073,205.092361 85.587090,222.406387 77.083267,241.924072 
	C69.625397,259.041168 65.127960,277.033386 65.083656,295.740356 
	C64.889481,377.726685 64.983192,459.713715 65.046036,541.700439 
	C65.049431,546.135620 65.357056,550.636047 66.147293,554.992859 
	C68.628860,568.674500 72.145615,582.020142 77.801460,594.858398 
	C84.353180,609.730225 92.855377,623.202332 103.727791,635.195312 
	C116.798798,649.613525 132.248779,660.783508 149.289917,670.266235 
	C178.177795,686.341064 206.492432,703.443604 235.112427,720.002869 
	C262.035461,735.580200 289.041718,751.013733 316.636871,766.916687 
z"/>
<path fill="#CAD02B" opacity="1.000000" stroke="none" 
	d="
M316.324097,766.713623 
	C289.041718,751.013733 262.035461,735.580200 235.112427,720.002869 
	C206.492432,703.443604 178.177795,686.341064 149.289917,670.266235 
	C132.248779,660.783508 116.798798,649.613525 103.727791,635.195312 
	C92.855377,623.202332 84.353180,609.730225 77.801460,594.858398 
	C72.145615,582.020142 68.628860,568.674500 66.147293,554.992859 
	C65.357056,550.636047 65.049431,546.135620 65.046036,541.700439 
	C64.983192,459.713715 64.889481,377.726685 65.083656,295.740356 
	C65.127960,277.033386 69.625397,259.041168 77.083267,241.924072 
	C85.587090,222.406387 97.394073,205.092361 113.007141,190.470398 
	C124.350189,179.847427 137.374023,171.673706 150.797119,164.021683 
	C167.148697,154.700211 183.408478,145.217712 199.708252,135.805313 
	C215.729202,126.553932 231.749344,117.301102 247.771957,108.052612 
	C264.073242,98.643295 280.345978,89.184044 296.688049,79.846130 
	C315.316162,69.201965 333.659241,57.980324 352.781219,48.304062 
	C367.977722,40.614208 384.496643,36.581226 401.681946,34.808102 
	C423.704956,32.535839 445.199249,34.529060 465.880157,41.724060 
	C478.465332,46.102520 490.432007,52.528057 502.206970,58.901463 
	C518.753723,67.857635 534.860901,77.625481 551.162476,87.035072 
	C567.184692,96.283432 583.219849,105.509552 599.240417,114.760803 
	C615.540527,124.173470 631.913818,133.463058 648.102844,143.063293 
	C669.348816,155.662338 691.330750,167.273331 711.372192,181.583603 
	C734.002563,197.742493 749.808655,220.138306 759.993896,246.255661 
	C767.253845,264.871765 770.211914,284.058777 770.130066,304.077393 
	C769.811157,382.063538 769.925232,460.051880 770.052734,538.039124 
	C770.084412,557.419006 765.580688,575.716187 758.172119,593.405090 
	C750.341492,612.101624 739.069458,628.580750 724.635925,642.763611 
	C712.976624,654.220459 699.259216,662.934448 685.106384,671.003540 
	C668.754822,680.326111 652.516296,689.846985 636.216064,699.259827 
	C620.195801,708.510925 604.154114,717.724854 588.132141,726.973022 
	C571.830383,736.382751 555.586182,745.893372 539.234802,755.215881 
	C520.026794,766.167175 501.012543,777.510498 481.375610,787.639465 
	C467.691742,794.697937 452.720184,798.812134 437.236023,799.919739 
	C426.168304,800.711365 414.950165,801.720215 403.959686,800.771790 
	C383.299500,798.988953 363.443939,793.656311 345.273987,783.093811 
	C335.796356,777.584290 326.186829,772.301758 316.324097,766.713623 
M149.468018,645.588989 
	C155.261902,648.865173 161.055786,652.141418 167.306168,655.893188 
	C230.496063,692.293213 293.205933,729.563477 357.048004,764.781189 
	C398.247040,787.508179 441.267792,786.063782 482.151581,763.048401 
	C549.033386,725.397339 615.383301,686.789612 681.623352,648.014465 
	C725.851074,622.124817 748.812805,583.076538 749.020508,531.600708 
	C749.332458,454.278015 749.129578,376.953125 749.045349,299.629272 
	C749.039062,293.824890 748.715759,287.936951 747.719727,282.230957 
	C740.408691,240.348221 718.459290,208.521896 681.589111,187.193436 
	C615.870117,149.176651 550.325928,110.850235 484.291229,73.389160 
	C440.636414,48.624073 395.852875,48.144352 352.042023,72.965683 
	C285.695435,110.554832 219.695007,148.763504 153.851700,187.229645 
	C109.019920,213.420715 86.335220,253.131104 86.085121,305.041473 
	C85.748718,374.864685 85.999771,444.690735 86.008621,514.515564 
	C86.008980,517.345459 86.110802,520.175415 86.033859,523.934326 
	C87.012428,536.153809 86.690353,548.649109 89.211998,560.541382 
	C96.961517,597.088867 117.014755,625.449890 149.468018,645.588989 
z"/>
<path fill="#10994A" opacity="1.000000" stroke="none" 
	d="
M86.165359,523.005310 
	C86.110802,520.175415 86.008980,517.345459 86.008621,514.515564 
	C85.999771,444.690735 85.748718,374.864685 86.085121,305.041473 
	C86.335220,253.131104 109.019920,213.420715 153.851700,187.229645 
	C219.695007,148.763504 285.695435,110.554832 352.042023,72.965683 
	C395.852875,48.144352 440.636414,48.624073 484.291229,73.389160 
	C550.325928,110.850235 615.870117,149.176651 681.589111,187.193436 
	C718.459290,208.521896 740.408691,240.348221 747.719727,282.230957 
	C748.715759,287.936951 749.039062,293.824890 749.045349,299.629272 
	C749.129578,376.953125 749.332458,454.278015 749.020508,531.600708 
	C748.812805,583.076538 725.851074,622.124817 681.623352,648.014465 
	C615.383301,686.789612 549.033386,725.397339 482.151581,763.048401 
	C441.267792,786.063782 398.247040,787.508179 357.048004,764.781189 
	C293.205933,729.563477 230.496063,692.293213 167.144089,655.184937 
	C167.052811,652.350464 167.123611,650.224182 167.587372,647.994385 
	C170.452408,647.586609 172.916946,647.117126 175.397720,647.004211 
	C196.403305,646.047546 216.790924,650.406311 237.145477,654.602356 
	C283.777405,664.215515 329.467834,677.450500 374.962524,691.341980 
	C381.598907,693.368408 387.721161,693.080933 393.162872,689.619568 
	C402.391113,683.749634 411.083862,677.039246 420.019379,670.707031 
	C423.656433,668.129700 427.339630,665.617432 431.394043,663.076904 
	C432.274048,662.974731 432.780548,662.924316 433.247009,662.760071 
	C484.761230,644.630737 536.273682,626.496460 587.782043,608.350464 
	C593.204712,606.440063 598.602234,604.458374 604.011414,602.509827 
	C604.439575,601.874451 604.867798,601.239075 605.295959,600.603760 
	C602.813293,598.739014 600.330627,596.874268 598.000366,594.678528 
	C603.048645,592.245544 607.944641,590.143433 613.660400,587.689392 
	C606.848267,583.693176 602.873108,577.034180 594.693604,577.010498 
	C594.061768,576.882202 593.686829,576.874939 593.143127,576.688782 
	C592.672424,576.334595 592.355225,576.300293 591.672363,576.248657 
	C583.313904,572.398010 574.803589,570.454102 566.106934,571.255127 
	C554.398438,572.333374 542.776978,574.356262 531.276489,575.688477 
	C533.622559,572.261414 535.810181,569.119507 538.273926,565.788208 
	C540.634460,562.196594 542.911072,558.896118 544.773315,555.376282 
	C561.869995,523.061829 565.886902,488.482330 562.047974,452.676239 
	C556.008118,396.341827 531.339539,349.716278 488.437195,312.735138 
	C478.232452,303.938782 467.716614,295.485901 457.796295,286.382050 
	C448.203949,277.579254 445.590363,266.446503 449.478699,254.013565 
	C450.962006,249.270691 452.510529,244.410049 454.955963,240.132889 
	C461.551697,228.596634 468.428558,217.205627 475.616669,206.028915 
	C480.615112,198.256912 486.313080,190.934784 492.520020,182.264114 
	C480.447449,182.264114 469.544342,182.264114 458.329163,182.151367 
	C450.643280,180.251770 443.511414,180.293106 436.661255,184.899750 
	C436.202423,185.305191 436.056183,185.634918 435.935364,185.926178 
	C435.960815,185.887680 435.890442,185.827988 435.492249,185.695831 
	C428.085236,186.675446 421.076447,187.787216 414.048584,188.928711 
	C414.029572,188.958405 414.096863,188.978928 414.001343,188.756561 
	C413.717773,188.200714 413.440369,188.088699 412.675629,188.096512 
	C406.523163,186.928329 400.768646,185.861771 394.680847,184.606293 
	C384.292511,182.250580 374.233276,180.618851 363.352600,183.952820 
	C366.397858,187.246780 369.006714,190.000336 371.540619,192.821228 
	C383.583801,206.228363 395.072845,220.014969 401.366638,237.277603 
	C406.880096,252.399918 405.041870,266.562469 394.778290,279.007996 
	C389.625732,285.255920 383.622620,290.875641 377.561768,296.283691 
	C368.889069,304.022217 359.811127,311.306549 350.577515,318.878998 
	C338.874939,329.200470 328.828583,340.548828 320.661804,353.906006 
	C320.199524,354.713531 319.995789,355.317810 319.852173,355.928711 
	C319.912292,355.935364 319.891479,355.816193 319.605957,355.868530 
	C319.168274,356.267029 319.016113,356.613190 318.905212,356.958252 
	C318.946533,356.957092 318.920258,356.878784 318.655396,357.042206 
	C318.192688,357.780670 317.994843,358.355713 317.855927,358.944397 
	C317.914856,358.958038 317.915344,358.837097 317.642273,358.906250 
	C317.216461,359.310242 317.063690,359.645050 316.947876,359.980865 
	C316.984772,359.981873 316.953705,359.914856 316.680603,360.107727 
	C315.867340,361.503815 315.327148,362.707062 314.834595,363.919891 
	C314.882233,363.929443 314.851013,363.837463 314.561462,363.974548 
	C314.099121,364.705627 313.926270,365.299622 313.812286,365.916687 
	C313.871124,365.939728 313.880432,365.813629 313.591888,365.859467 
	C313.158569,366.257507 313.013794,366.609711 312.910309,366.962463 
	C312.951599,366.962952 312.922455,366.885712 312.641724,367.079803 
	C308.784271,374.571381 304.825531,381.709351 301.699066,389.194916 
	C290.247131,416.613617 282.068665,444.887726 281.159546,474.831268 
	C280.415131,499.349182 284.382935,523.102295 293.144775,545.749390 
	C272.180481,540.408508 251.549332,540.735779 230.927719,544.749573 
	C211.396713,548.551086 192.261169,554.586243 172.079559,554.526245 
	C172.110718,552.120850 171.930771,550.085266 172.341675,548.176941 
	C173.136169,544.487122 171.943359,543.154663 168.120468,543.078064 
	C162.027603,542.956055 155.945435,542.299744 149.667816,541.513733 
	C149.032074,536.855957 148.587250,532.553833 147.680328,528.163940 
	C132.246353,527.043762 117.268806,526.085449 102.305618,524.939697 
	C96.907806,524.526367 91.544434,523.663208 86.165359,523.005310 
z"/>
<path fill="#3B3B3C" opacity="1.000000" stroke="none" 
	d="
M86.099609,523.469849 
	C91.544434,523.663208 96.907806,524.526367 102.305618,524.939697 
	C117.268806,526.085449 132.246353,527.043762 147.661163,528.604736 
	C148.202911,533.560303 148.301712,537.987183 148.422256,542.845520 
	C148.517731,548.936584 148.634827,554.596069 148.657837,560.255920 
	C148.772888,588.558105 148.863281,616.860474 148.962341,645.162720 
	C117.014755,625.449890 96.961517,597.088867 89.211998,560.541382 
	C86.690353,548.649109 87.012428,536.153809 86.099609,523.469849 
z"/>
<path fill="#FEFEFD" opacity="1.000000" stroke="none" 
	d="
M149.215179,645.375854 
	C148.863281,616.860474 148.772888,588.558105 148.657837,560.255920 
	C148.634827,554.596069 148.517731,548.936584 148.678772,542.792358 
	C149.228592,542.161621 149.543671,542.015503 149.858749,541.869385 
	C155.945435,542.299744 162.027603,542.956055 168.120468,543.078064 
	C171.943359,543.154663 173.136169,544.487122 172.341675,548.176941 
	C171.930771,550.085266 172.110718,552.120850 172.030579,554.986816 
	C170.423111,586.615723 168.808762,617.356873 167.194397,648.097961 
	C167.123611,650.224182 167.052811,652.350464 166.915833,654.947144 
	C161.055786,652.141418 155.261902,648.865173 149.215179,645.375854 
z"/>
<path fill="#FBB040" opacity="1.000000" stroke="none" 
	d="
M414.067627,188.899002 
	C421.076447,187.787216 428.085236,186.675446 435.522644,186.124039 
	C431.160370,211.159485 432.569855,235.568878 436.530853,259.955078 
	C437.169586,256.635498 436.756958,253.257950 437.236450,250.012177 
	C440.392792,228.645538 447.211670,208.470810 457.220734,189.329086 
	C458.289398,187.285309 458.195679,184.633743 458.641205,182.264114 
	C469.544342,182.264114 480.447449,182.264114 492.520020,182.264114 
	C486.313080,190.934784 480.615112,198.256912 475.616669,206.028915 
	C468.428558,217.205627 461.551697,228.596634 454.955963,240.132889 
	C452.510529,244.410049 450.962006,249.270691 449.478699,254.013565 
	C445.590363,266.446503 448.203949,277.579254 457.796295,286.382050 
	C467.716614,295.485901 478.232452,303.938782 488.437195,312.735138 
	C531.339539,349.716278 556.008118,396.341827 562.047974,452.676239 
	C565.886902,488.482330 561.869995,523.061829 544.773315,555.376282 
	C542.911072,558.896118 540.634460,562.196594 537.903198,565.789062 
	C536.078674,566.514160 534.818176,566.918396 533.735657,567.603760 
	C519.223694,576.791565 503.306732,581.858215 486.358032,584.070679 
	C481.222931,584.741089 476.151215,585.897034 470.721100,586.709473 
	C463.614532,584.732300 456.847168,581.384644 450.058014,581.339661 
	C437.098602,581.253967 424.126801,583.050598 410.691895,584.048340 
	C399.217102,584.094482 388.887756,581.298645 379.053436,576.532654 
	C364.389160,569.426025 352.802063,558.586548 342.638489,546.104492 
	C331.463470,532.380188 321.239044,517.989014 316.852386,500.524872 
	C314.241425,490.130249 311.976654,479.521179 311.003693,468.876221 
	C309.888092,456.670593 309.141205,444.181610 310.486359,432.065765 
	C312.065582,417.841431 315.423279,403.711578 319.177216,389.857117 
	C324.136719,371.553314 331.064453,353.912720 340.702209,337.441223 
	C344.280396,331.325897 347.514954,325.009521 350.906250,318.784851 
	C359.811127,311.306549 368.889069,304.022217 377.561768,296.283691 
	C383.622620,290.875641 389.625732,285.255920 394.778290,279.007996 
	C405.041870,266.562469 406.880096,252.399918 401.366638,237.277603 
	C395.072845,220.014969 383.583801,206.228363 371.540619,192.821228 
	C369.006714,190.000336 366.397858,187.246780 363.352600,183.952820 
	C374.233276,180.618851 384.292511,182.250580 394.795898,184.940338 
	C410.970276,206.016479 417.255157,230.298676 422.661072,255.014648 
	C422.814117,249.325836 422.522644,243.758820 421.974854,238.217117 
	C421.195679,230.335022 420.530457,222.422333 419.260071,214.613251 
	C417.856995,205.988525 415.825439,197.466019 414.067627,188.899002 
M421.056274,413.249664 
	C432.838684,411.234131 444.436218,411.760437 456.671356,415.663666 
	C442.947784,429.367859 428.720306,441.178101 410.961823,449.893127 
	C447.358734,452.039581 480.506073,424.214752 490.908478,401.385956 
	C478.369110,405.222260 465.859619,404.259949 453.373901,401.456238 
	C424.168243,394.897919 397.513763,408.395966 382.985718,433.359039 
	C393.662598,423.379883 405.780579,416.172577 421.056274,413.249664 
M364.619049,499.924896 
	C364.669159,500.200653 364.628143,500.607178 364.791229,500.720886 
	C365.024078,500.883179 365.437378,500.937195 365.720551,500.854919 
	C377.749481,497.360199 389.745056,498.454590 401.767700,500.962769 
	C430.368042,506.929291 452.627747,496.659821 470.014008,474.103577 
	C470.833252,473.040710 471.362701,471.754517 472.027130,470.572327 
	C461.656158,479.023041 450.715790,485.797089 437.738312,488.625702 
	C424.858215,491.433075 412.036560,491.167175 398.702454,486.902863 
	C412.485748,473.132874 426.891418,461.259064 443.714600,452.450439 
	C408.470886,453.108185 383.267242,470.463593 364.619049,499.924896 
z"/>
<path fill="#FABE97" opacity="1.000000" stroke="none" 
	d="
M411.160126,584.065918 
	C424.126801,583.050598 437.098602,581.253967 450.058014,581.339661 
	C456.847168,581.384644 463.614532,584.732300 471.009796,586.893555 
	C474.489685,589.630066 477.351532,592.061340 480.445374,594.689697 
	C483.937622,593.208740 487.665375,591.422546 491.533569,590.024902 
	C504.701721,585.267273 517.919373,580.646606 531.118164,575.973633 
	C542.776978,574.356262 554.398438,572.333374 566.106934,571.255127 
	C574.803589,570.454102 583.313904,572.398010 591.843506,576.420410 
	C592.365112,576.750244 592.825989,576.909302 592.825989,576.909302 
	C592.825989,576.909302 593.311829,576.867737 593.311829,576.867737 
	C593.686829,576.874939 594.061768,576.882202 594.740356,577.334961 
	C595.832947,579.011719 596.621948,580.242859 597.629272,581.814636 
	C583.429138,588.209961 569.256042,594.314270 555.322693,600.924194 
	C522.123657,616.673462 489.030365,632.645935 455.930389,648.602966 
	C454.415527,649.333252 453.251648,650.791565 451.554504,651.940063 
	C444.457062,655.671448 437.729462,659.373474 431.001831,663.075562 
	C427.339630,665.617432 423.656433,668.129700 420.019379,670.707031 
	C411.083862,677.039246 402.391113,683.749634 393.162872,689.619568 
	C387.721161,693.080933 381.598907,693.368408 374.962524,691.341980 
	C329.467834,677.450500 283.777405,664.215515 237.145477,654.602356 
	C216.790924,650.406311 196.403305,646.047546 175.397720,647.004211 
	C172.916946,647.117126 170.452408,647.586609 167.587372,647.994385 
	C168.808762,617.356873 170.423111,586.615723 172.086426,555.414062 
	C192.261169,554.586243 211.396713,548.551086 230.927719,544.749573 
	C251.549332,540.735779 272.180481,540.408508 293.411316,545.807861 
	C295.053558,546.042969 295.991150,546.057617 296.935303,546.066650 
	C296.941895,546.061035 296.949677,546.053650 297.043152,546.282715 
	C297.367035,546.771057 297.654785,546.919128 298.327515,547.119873 
	C317.231659,553.246460 332.904694,563.838867 346.826019,577.297607 
	C348.143829,578.571594 350.079346,579.688354 351.856873,579.929749 
	C367.432404,582.044922 383.014282,584.171387 398.649048,585.753357 
	C402.720795,586.165344 406.984558,584.679871 411.160126,584.065918 
M309.760651,618.579712 
	C309.404388,618.596985 309.048157,618.614197 308.691895,618.631470 
	C309.126709,618.755127 309.561523,618.878784 310.393677,619.559998 
	C316.921539,622.866821 323.743286,625.706604 329.910217,629.587036 
	C339.803833,635.812317 350.654755,636.887634 361.821960,636.975830 
	C384.710571,637.156677 407.635101,637.246338 430.214386,632.920715 
	C441.535217,630.751953 453.016815,628.400879 463.719513,624.292480 
	C476.319702,619.455750 483.395569,611.448425 480.190765,598.402893 
	C480.167755,605.643005 476.767181,610.263611 471.450623,613.192261 
	C465.665100,616.379333 459.729034,619.619385 453.461609,621.542786 
	C436.271698,626.818115 418.428192,628.372253 400.549713,628.922485 
	C387.492432,629.324280 374.402832,628.692383 361.346893,629.115112 
	C350.903229,629.453247 340.938171,628.002380 331.060394,624.637146 
	C324.197144,622.298828 317.032257,620.846008 309.760651,618.579712 
M440.414581,611.831177 
	C442.385254,615.848694 444.933197,618.578491 450.039337,617.039612 
	C455.709137,615.330872 461.598907,614.271057 467.136597,612.232483 
	C470.935760,610.833923 474.120850,607.833862 473.866394,603.287964 
	C473.588440,598.322754 470.534058,594.839478 465.705688,593.917786 
	C461.375427,593.091309 456.787140,592.650818 452.428467,593.118652 
	C438.808594,594.580750 434.777283,594.318542 440.414581,611.831177 
z"/>
<path fill="#D7973A" opacity="1.000000" stroke="none" 
	d="
M410.691895,584.048340 
	C406.984558,584.679871 402.720795,586.165344 398.649048,585.753357 
	C383.014282,584.171387 367.432404,582.044922 351.856873,579.929749 
	C350.079346,579.688354 348.143829,578.571594 346.826019,577.297607 
	C332.904694,563.838867 317.231659,553.246460 298.212769,546.907532 
	C297.558533,546.265991 297.284973,546.106750 296.949677,546.053650 
	C296.949677,546.053650 296.941895,546.061035 296.926208,545.687012 
	C290.380890,529.261292 286.124115,512.728088 284.760284,495.347717 
	C283.455658,478.721375 283.449127,462.221466 286.605042,445.840759 
	C291.620483,419.808441 299.670563,394.772858 311.880920,371.152985 
	C312.534363,369.888916 312.589050,368.315247 312.922455,366.885712 
	C312.922455,366.885712 312.951599,366.962952 313.164490,366.858368 
	C313.545044,366.440399 313.712738,366.127014 313.880432,365.813629 
	C313.880432,365.813629 313.871124,365.939728 314.120575,365.797638 
	C314.530365,365.049530 314.690674,364.443481 314.851013,363.837463 
	C314.851013,363.837463 314.882233,363.929443 315.183350,363.815552 
	C315.974213,362.439362 316.463959,361.177124 316.953705,359.914856 
	C316.953705,359.914856 316.984772,359.981873 317.192749,359.869019 
	C317.572296,359.449799 317.743805,359.143433 317.915344,358.837097 
	C317.915344,358.837097 317.914856,358.958038 318.151825,358.812073 
	C318.565948,358.070343 318.743103,357.474579 318.920258,356.878784 
	C318.920258,356.878784 318.946533,356.957092 319.160004,356.854248 
	C319.546143,356.439667 319.718811,356.127930 319.891479,355.816193 
	C319.891479,355.816193 319.912292,355.935364 320.160126,355.778870 
	C320.578735,354.982513 320.749512,354.342651 320.920319,353.702759 
	C328.828583,340.548828 338.874939,329.200470 350.577515,318.878998 
	C347.514954,325.009521 344.280396,331.325897 340.702209,337.441223 
	C331.064453,353.912720 324.136719,371.553314 319.177216,389.857117 
	C315.423279,403.711578 312.065582,417.841431 310.486359,432.065765 
	C309.141205,444.181610 309.888092,456.670593 311.003693,468.876221 
	C311.976654,479.521179 314.241425,490.130249 316.852386,500.524872 
	C321.239044,517.989014 331.463470,532.380188 342.638489,546.104492 
	C352.802063,558.586548 364.389160,569.426025 379.053436,576.532654 
	C388.887756,581.298645 399.217102,584.094482 410.691895,584.048340 
z"/>
<path fill="#E2A982" opacity="1.000000" stroke="none" 
	d="
M451.924286,651.910645 
	C453.251648,650.791565 454.415527,649.333252 455.930389,648.602966 
	C489.030365,632.645935 522.123657,616.673462 555.322693,600.924194 
	C569.256042,594.314270 583.429138,588.209961 597.629272,581.814636 
	C596.621948,580.242859 595.832947,579.011719 594.997192,577.456055 
	C602.873108,577.034180 606.848267,583.693176 613.660400,587.689392 
	C607.944641,590.143433 603.048645,592.245544 597.614136,594.669678 
	C596.100891,595.149597 595.057434,595.134155 594.161682,595.490356 
	C562.757751,607.976807 531.377380,620.522583 499.971649,633.004517 
	C483.977539,639.361084 467.941406,645.611938 451.924286,651.910645 
z"/>
<path fill="#C89874" opacity="1.000000" stroke="none" 
	d="
M451.554474,651.940002 
	C467.941406,645.611938 483.977539,639.361084 499.971649,633.004517 
	C531.377380,620.522583 562.757751,607.976807 594.161682,595.490356 
	C595.057434,595.134155 596.100891,595.149597 597.461731,595.000610 
	C600.330627,596.874268 602.813293,598.739014 605.295959,600.603760 
	C604.867798,601.239075 604.439575,601.874451 604.011414,602.509827 
	C598.602234,604.458374 593.204712,606.440063 587.782043,608.350464 
	C536.273682,626.496460 484.761230,644.630737 433.247009,662.760071 
	C432.780548,662.924316 432.274048,662.974731 431.394043,663.076904 
	C437.729462,659.373474 444.457062,655.671448 451.554474,651.940002 
z"/>
<path fill="#D7983A" opacity="1.000000" stroke="none" 
	d="
M458.329163,182.151367 
	C458.195679,184.633743 458.289398,187.285309 457.220734,189.329086 
	C447.211670,208.470810 440.392792,228.645538 437.236450,250.012177 
	C436.756958,253.257950 437.169586,256.635498 436.530853,259.955078 
	C432.569855,235.568878 431.160370,211.159485 435.920837,186.256195 
	C435.890442,185.827988 435.960815,185.887680 436.183716,185.812744 
	C436.595673,185.433212 436.784760,185.128616 436.973816,184.824020 
	C443.511414,180.293106 450.643280,180.251770 458.329163,182.151367 
z"/>
<path fill="#D7983A" opacity="1.000000" stroke="none" 
	d="
M414.048584,188.928711 
	C415.825439,197.466019 417.856995,205.988525 419.260071,214.613251 
	C420.530457,222.422333 421.195679,230.335022 421.974854,238.217117 
	C422.522644,243.758820 422.814117,249.325836 422.661072,255.014648 
	C417.255157,230.298676 410.970276,206.016479 395.129211,185.129272 
	C400.768646,185.861771 406.523163,186.928329 412.796021,188.283417 
	C413.536835,188.781357 413.797668,188.917023 414.096863,188.978928 
	C414.096863,188.978928 414.029572,188.958405 414.048584,188.928711 
z"/>
<path fill="#E7AC41" opacity="1.000000" stroke="none" 
	d="
M312.641724,367.079803 
	C312.589050,368.315247 312.534363,369.888916 311.880920,371.152985 
	C299.670563,394.772858 291.620483,419.808441 286.605042,445.840759 
	C283.449127,462.221466 283.455658,478.721375 284.760284,495.347717 
	C286.124115,512.728088 290.380890,529.261292 296.919617,545.692627 
	C295.991150,546.057617 295.053558,546.042969 293.849426,545.969849 
	C284.382935,523.102295 280.415131,499.349182 281.159546,474.831268 
	C282.068665,444.887726 290.247131,416.613617 301.699066,389.194916 
	C304.825531,381.709351 308.784271,374.571381 312.641724,367.079803 
z"/>
<path fill="#D7983C" opacity="1.000000" stroke="none" 
	d="
M531.276489,575.688477 
	C517.919373,580.646606 504.701721,585.267273 491.533569,590.024902 
	C487.665375,591.422546 483.937622,593.208740 480.445374,594.689697 
	C477.351532,592.061340 474.489685,589.630066 471.339142,587.014709 
	C476.151215,585.897034 481.222931,584.741089 486.358032,584.070679 
	C503.306732,581.858215 519.223694,576.791565 533.735657,567.603760 
	C534.818176,566.918396 536.078674,566.514160 537.627075,565.978455 
	C535.810181,569.119507 533.622559,572.261414 531.276489,575.688477 
z"/>
<path fill="#79837D" opacity="1.000000" stroke="none" 
	d="
M149.667816,541.513733 
	C149.543671,542.015503 149.228592,542.161621 148.657013,542.360962 
	C148.301712,537.987183 148.202911,533.560303 148.123260,528.692505 
	C148.587250,532.553833 149.032074,536.855957 149.667816,541.513733 
z"/>
<path fill="#E7AC41" opacity="1.000000" stroke="none" 
	d="
M316.680603,360.107727 
	C316.463959,361.177124 315.974213,362.439362 315.135712,363.805969 
	C315.327148,362.707062 315.867340,361.503815 316.680603,360.107727 
z"/>
<path fill="#E7AC41" opacity="1.000000" stroke="none" 
	d="
M314.561462,363.974548 
	C314.690674,364.443481 314.530365,365.049530 314.061737,365.774597 
	C313.926270,365.299622 314.099121,364.705627 314.561462,363.974548 
z"/>
<path fill="#E7AC41" opacity="1.000000" stroke="none" 
	d="
M318.655396,357.042206 
	C318.743103,357.474579 318.565948,358.070343 318.092896,358.798462 
	C317.994843,358.355713 318.192688,357.780670 318.655396,357.042206 
z"/>
<path fill="#E7AC41" opacity="1.000000" stroke="none" 
	d="
M320.661804,353.906006 
	C320.749512,354.342651 320.578735,354.982513 320.100006,355.772247 
	C319.995789,355.317810 320.199524,354.713531 320.661804,353.906006 
z"/>
<path fill="#E7AC41" opacity="1.000000" stroke="none" 
	d="
M313.591858,365.859467 
	C313.712738,366.127014 313.545044,366.440399 313.123169,366.857849 
	C313.013794,366.609711 313.158569,366.257507 313.591858,365.859467 
z"/>
<path fill="#E7AC41" opacity="1.000000" stroke="none" 
	d="
M317.642273,358.906250 
	C317.743805,359.143433 317.572296,359.449799 317.155853,359.867981 
	C317.063690,359.645050 317.216461,359.310242 317.642273,358.906250 
z"/>
<path fill="#E2A982" opacity="1.000000" stroke="none" 
	d="
M593.143127,576.688782 
	C593.311829,576.867737 592.825989,576.909302 592.825989,576.909302 
	C592.825989,576.909302 592.365112,576.750244 592.193970,576.578552 
	C592.355225,576.300293 592.672424,576.334595 593.143127,576.688782 
z"/>
<path fill="#E7AC41" opacity="1.000000" stroke="none" 
	d="
M319.605957,355.868530 
	C319.718811,356.127930 319.546143,356.439667 319.118713,356.855377 
	C319.016113,356.613190 319.168274,356.267029 319.605957,355.868530 
z"/>
<path fill="#FBB040" opacity="1.000000" stroke="none" 
	d="
M414.001343,188.756561 
	C413.797668,188.917023 413.536835,188.781357 413.194000,188.385040 
	C413.440369,188.088699 413.717773,188.200714 414.001343,188.756561 
z"/>
<path fill="#FBB040" opacity="1.000000" stroke="none" 
	d="
M436.661255,184.899750 
	C436.784760,185.128616 436.595673,185.433212 436.158264,185.851227 
	C436.056183,185.634918 436.202423,185.305191 436.661255,184.899750 
z"/>
<path fill="#1A77B9" opacity="1.000000" stroke="none" 
	d="
M420.634827,413.333618 
	C405.780579,416.172577 393.662598,423.379883 382.985718,433.359039 
	C397.513763,408.395966 424.168243,394.897919 453.373901,401.456238 
	C465.859619,404.259949 478.369110,405.222260 490.908478,401.385956 
	C480.506073,424.214752 447.358734,452.039581 410.961823,449.893127 
	C428.720306,441.178101 442.947784,429.367859 456.671356,415.663666 
	C444.436218,411.760437 432.838684,411.234131 420.634827,413.333618 
z"/>
<path fill="#15994A" opacity="1.000000" stroke="none" 
	d="
M364.767792,499.601196 
	C383.267242,470.463593 408.470886,453.108185 443.714600,452.450439 
	C426.891418,461.259064 412.485748,473.132874 398.702454,486.902863 
	C412.036560,491.167175 424.858215,491.433075 437.738312,488.625702 
	C450.715790,485.797089 461.656158,479.023041 472.027130,470.572327 
	C471.362701,471.754517 470.833252,473.040710 470.014008,474.103577 
	C452.627747,496.659821 430.368042,506.929291 401.767700,500.962769 
	C389.745056,498.454590 377.749481,497.360199 365.720551,500.854919 
	C365.437378,500.937195 365.024078,500.883179 364.791229,500.720886 
	C364.628143,500.607178 364.669159,500.200653 364.767792,499.601196 
z"/>
<path fill="#E4AA83" opacity="1.000000" stroke="none" 
	d="
M310.002106,618.997559 
	C317.032257,620.846008 324.197144,622.298828 331.060394,624.637146 
	C340.938171,628.002380 350.903229,629.453247 361.346893,629.115112 
	C374.402832,628.692383 387.492432,629.324280 400.549713,628.922485 
	C418.428192,628.372253 436.271698,626.818115 453.461609,621.542786 
	C459.729034,619.619385 465.665100,616.379333 471.450623,613.192261 
	C476.767181,610.263611 480.167755,605.643005 480.190765,598.402893 
	C483.395569,611.448425 476.319702,619.455750 463.719513,624.292480 
	C453.016815,628.400879 441.535217,630.751953 430.214386,632.920715 
	C407.635101,637.246338 384.710571,637.156677 361.821960,636.975830 
	C350.654755,636.887634 339.803833,635.812317 329.910217,629.587036 
	C323.743286,625.706604 316.921539,622.866821 310.196838,619.280029 
	C310.000000,619.000000 310.002106,618.997559 310.002106,618.997559 
z"/>
<path fill="#FCDAC9" opacity="1.000000" stroke="none" 
	d="
M440.240967,611.483826 
	C434.777283,594.318542 438.808594,594.580750 452.428467,593.118652 
	C456.787140,592.650818 461.375427,593.091309 465.705688,593.917786 
	C470.534058,594.839478 473.588440,598.322754 473.866394,603.287964 
	C474.120850,607.833862 470.935760,610.833923 467.136597,612.232483 
	C461.598907,614.271057 455.709137,615.330872 450.039337,617.039612 
	C444.933197,618.578491 442.385254,615.848694 440.240967,611.483826 
z"/>
<path fill="#E4AA83" opacity="1.000000" stroke="none" 
	d="
M309.998169,619.001221 
	C309.561523,618.878784 309.126709,618.755127 308.691895,618.631470 
	C309.048157,618.614197 309.404388,618.596985 309.881378,618.788635 
	C310.002106,618.997559 310.000000,619.000000 309.998169,619.001221 
z"/>
<path fill="#E7AC41" opacity="1.000000" stroke="none" 
	d="
M297.043152,546.282715 
	C297.284973,546.106750 297.558533,546.265991 297.885071,546.743530 
	C297.654785,546.919128 297.367035,546.771057 297.043152,546.282715 
z"/>
</svg>